<?xml version="1.0" encoding="UTF-8"?><svg id="Capa_2" xmlns="http://www.w3.org/2000/svg" viewBox="0 0 354.47 304.35"><defs><style>.cls-1{letter-spacing:0em;}.cls-2{fill:#4b7ec0;}.cls-3{letter-spacing:.01em;}.cls-4{fill:#727272;font-family:Montserrat-Regular, Montserrat;font-size:12px;}.cls-5{stroke-width:.5px;}.cls-5,.cls-6,.cls-7{fill:none;stroke-linecap:round;stroke-miterlimit:10;}.cls-5,.cls-7{stroke:#d8d8d8;}.cls-6{stroke:#5f5f5e;stroke-width:2px;}.cls-8{font-family:Montserrat-Medium, Montserrat;font-size:14px;font-weight:500;}.cls-8,.cls-9{fill:#616160;}.cls-10{letter-spacing:0em;}.cls-11{letter-spacing:-.01em;}.cls-12{letter-spacing:.01em;}.cls-9{font-family:Montserrat-Bold, Montserrat;font-size:16px;font-weight:700;}.cls-13{letter-spacing:.02em;}.cls-14{letter-spacing:0em;}.cls-15{letter-spacing:0em;}.cls-16{letter-spacing:0em;}.cls-17{letter-spacing:-.01em;}.cls-18{letter-spacing:0em;}.cls-7{stroke-width:.75px;}.cls-19{letter-spacing:-.02em;}.cls-20{letter-spacing:-.05em;}</style></defs><g id="Capa_1-2"><text class="cls-9" transform="translate(92.38 13.6)"><tspan x="0" y="0">Anal</tspan><tspan class="cls-10" x="38" y="0">y</tspan><tspan class="cls-14" x="47.44" y="0">sis of oppo</tspan><tspan class="cls-12" x="138.01" y="0">r</tspan><tspan x="145.15" y="0">tunities</tspan></text><text class="cls-8" transform="translate(170.15 300.67)"><tspan class="cls-19" x="0" y="0">F</tspan><tspan class="cls-17" x="8.65" y="0">e</tspan><tspan x="17.01" y="0">asibili</tspan><tspan class="cls-18" x="57.57" y="0">t</tspan><tspan x="63.22" y="0">y</tspan></text><text class="cls-8" transform="translate(11.9 171.11) rotate(-90)"><tspan x="0" y="0">Im</tspan><tspan class="cls-16" x="19.14" y="0">p</tspan><tspan class="cls-15" x="28.62" y="0">a</tspan><tspan class="cls-1" x="37.03" y="0">c</tspan><tspan x="45.12" y="0">t</tspan></text><text class="cls-4" transform="translate(49.42 274.5)"><tspan class="cls-13" x="0" y="0">4</tspan><tspan x="8.17" y="0">,50</tspan></text><text class="cls-4" transform="translate(29.94 260.67)"><tspan class="cls-13" x="0" y="0">4</tspan><tspan x="8.17" y="0">,50</tspan></text><text class="cls-4" transform="translate(29.94 229.81)"><tspan x="0" y="0">5</tspan><tspan class="cls-11" x="6.79" y="0">,</tspan><tspan x="9.2" y="0">00</tspan></text><text class="cls-4" transform="translate(29.94 198.96)"><tspan x="0" y="0">5,50</tspan></text><text class="cls-4" transform="translate(29.94 168.11)"><tspan class="cls-3" x="0" y="0">6</tspan><tspan class="cls-11" x="7.43" y="0">,</tspan><tspan x="9.84" y="0">00</tspan></text><text class="cls-4" transform="translate(29.94 137.26)"><tspan class="cls-3" x="0" y="0">6</tspan><tspan x="7.43" y="0">,50</tspan></text><text class="cls-4" transform="translate(29.94 106.4)"><tspan class="cls-20" x="0" y="0">7</tspan><tspan class="cls-11" x="6.43" y="0">,</tspan><tspan x="8.84" y="0">00</tspan></text><text class="cls-4" transform="translate(29.94 75.55)"><tspan class="cls-20" x="0" y="0">7</tspan><tspan x="6.43" y="0">,50</tspan></text><text class="cls-4" transform="translate(29.94 44.7)"><tspan class="cls-3" x="0" y="0">8</tspan><tspan class="cls-11" x="7.78" y="0">,</tspan><tspan x="10.19" y="0">00</tspan></text><text class="cls-4" transform="translate(89.06 274.5)"><tspan x="0" y="0">5</tspan><tspan class="cls-11" x="6.79" y="0">,</tspan><tspan x="9.2" y="0">00</tspan></text><text class="cls-4" transform="translate(128.7 274.5)"><tspan x="0" y="0">5,50</tspan></text><text class="cls-4" transform="translate(168.34 274.5)"><tspan class="cls-3" x="0" y="0">6</tspan><tspan class="cls-11" x="7.43" y="0">,</tspan><tspan x="9.84" y="0">00</tspan></text><text class="cls-4" transform="translate(207.98 274.5)"><tspan class="cls-3" x="0" y="0">6</tspan><tspan x="7.43" y="0">,50</tspan></text><text class="cls-4" transform="translate(247.62 274.5)"><tspan class="cls-20" x="0" y="0">7</tspan><tspan class="cls-11" x="6.43" y="0">,</tspan><tspan x="8.84" y="0">00</tspan></text><text class="cls-4" transform="translate(287.26 274.5)"><tspan class="cls-20" x="0" y="0">7</tspan><tspan x="6.43" y="0">,50</tspan></text><text class="cls-4" transform="translate(326.9 274.5)"><tspan class="cls-3" x="0" y="0">8</tspan><tspan class="cls-11" x="7.78" y="0">,</tspan><tspan x="10.19" y="0">00</tspan></text><line class="cls-5" x1="101.83" y1="39.35" x2="101.83" y2="257.35"/><line class="cls-5" x1="141.64" y1="39.35" x2="141.64" y2="257.35"/><line class="cls-5" x1="181.45" y1="39.35" x2="181.45" y2="257.35"/><line class="cls-5" x1="221.26" y1="39.35" x2="221.26" y2="257.35"/><line class="cls-5" x1="261.07" y1="39.35" x2="261.07" y2="257.35"/><line class="cls-5" x1="300.88" y1="39.35" x2="300.88" y2="257.35"/><line class="cls-5" x1="340.69" y1="39.35" x2="340.69" y2="257.35"/><line class="cls-6" x1="340.69" y1="257.35" x2="62.02" y2="257.35"/><line class="cls-7" x1="340.69" y1="226.21" x2="62.02" y2="226.21"/><line class="cls-5" x1="340.69" y1="195.07" x2="62.02" y2="195.07"/><line class="cls-5" x1="340.69" y1="163.93" x2="62.02" y2="163.93"/><line class="cls-5" x1="340.69" y1="132.78" x2="62.02" y2="132.78"/><line class="cls-5" x1="340.69" y1="101.64" x2="62.02" y2="101.64"/><line class="cls-5" x1="340.69" y1="70.5" x2="62.02" y2="70.5"/><line class="cls-5" x1="340.69" y1="39.35" x2="62.02" y2="39.35"/><line class="cls-6" x1="62.02" y1="39.35" x2="62.02" y2="257.35"/><circle class="cls-2" cx="98.35" cy="126.16" r="3.48"/><circle class="cls-2" cx="87.69" cy="139.41" r="3.48"/><circle class="cls-2" cx="94.88" cy="150.85" r="3.48"/><circle class="cls-2" cx="66.68" cy="188.57" r="3.48"/><circle class="cls-2" cx="106.36" cy="162.98" r="3.48"/><circle class="cls-2" cx="115.07" cy="154.33" r="3.48"/><circle class="cls-2" cx="120.29" cy="167.4" r="3.48"/><circle class="cls-2" cx="132.07" cy="159.5" r="3.48"/><circle class="cls-2" cx="134.33" cy="134.58" r="3.48"/><circle class="cls-2" cx="142.22" cy="144.88" r="3.48"/><circle class="cls-2" cx="151" cy="141.4" r="3.48"/><circle class="cls-2" cx="149.17" cy="159.5" r="3.48"/><circle class="cls-2" cx="144.62" cy="172.14" r="3.48"/><circle class="cls-2" cx="160.06" cy="154.92" r="3.48"/><circle class="cls-2" cx="161.06" cy="148.35" r="3.48"/><circle class="cls-2" cx="173.51" cy="142.18" r="3.48"/><circle class="cls-2" cx="174.95" cy="149.13" r="3.48"/><circle class="cls-2" cx="180.46" cy="163.93" r="3.48"/><circle class="cls-2" cx="179.24" cy="191.59" r="3.48"/><circle class="cls-2" cx="193.57" cy="182.97" r="3.48"/><circle class="cls-2" cx="200.52" cy="154.33" r="3.48"/><circle class="cls-2" cx="193.57" cy="125.1" r="3.48"/><circle class="cls-2" cx="187.02" cy="122.1" r="3.48"/><circle class="cls-2" cx="183.54" cy="117.21" r="3.48"/><circle class="cls-2" cx="173.51" cy="117.21" r="3.48"/><circle class="cls-2" cx="168.02" cy="122.1" r="3.48"/><circle class="cls-2" cx="158.35" cy="113.74" r="3.48"/><circle class="cls-2" cx="151" cy="109.03" r="3.48"/><circle class="cls-2" cx="144.62" cy="83.82" r="3.48"/><circle class="cls-2" cx="161.06" cy="76.08" r="3.48"/><circle class="cls-2" cx="161.06" cy="85.08" r="3.48"/><circle class="cls-2" cx="175.76" cy="59.21" r="3.48"/><circle class="cls-2" cx="193.57" cy="102.65" r="3.48"/><circle class="cls-2" cx="208.53" cy="131.1" r="3.48"/><circle class="cls-2" cx="164.54" cy="139.41" r="3.48"/><circle class="cls-2" cx="208.53" cy="68.7" r="3.48"/><circle class="cls-2" cx="209.15" cy="97.03" r="3.48"/><circle class="cls-2" cx="232.71" cy="74.53" r="3.48"/><circle class="cls-2" cx="238.56" cy="81.18" r="3.48"/><circle class="cls-2" cx="230.15" cy="97.03" r="3.48"/><circle class="cls-2" cx="239.66" cy="102.08" r="3.48"/><circle class="cls-2" cx="269.69" cy="99.18" r="3.48"/><circle class="cls-2" cx="242.03" cy="115.98" r="3.48"/><circle class="cls-2" cx="226.67" cy="125.58" r="3.48"/><circle class="cls-2" cx="231.61" cy="138.06" r="3.48"/><circle class="cls-2" cx="234.38" cy="167.4" r="3.48"/><circle class="cls-2" cx="246.53" cy="126.16" r="3.48"/><circle class="cls-2" cx="253.48" cy="122.94" r="3.48"/><circle class="cls-2" cx="260.43" cy="119.46" r="3.48"/><circle class="cls-2" cx="269.69" cy="133.29" r="3.48"/><circle class="cls-2" cx="120.29" cy="114.72" r="3.48"/><circle class="cls-2" cx="116.82" cy="109.03" r="3.48"/><circle class="cls-2" cx="128.59" cy="112.51" r="3.48"/><circle class="cls-2" cx="125.12" cy="101.64" r="3.48"/><circle class="cls-2" cx="106.36" cy="90.77" r="3.48"/></g></svg>