<?xml version="1.0" encoding="UTF-8"?><svg id="Capa_2" xmlns="http://www.w3.org/2000/svg" viewBox="0 0 378.33 379.52"><defs><style>.cls-1,.cls-2{font-family:Montserrat-Bold, Montserrat;font-weight:700;}.cls-1,.cls-3,.cls-4,.cls-5{fill:#6b8d34;}.cls-1,.cls-4{font-size:10px;}.cls-2{fill:#706f6f;}.cls-2,.cls-5{font-size:12px;}.cls-6{letter-spacing:-.01em;}.cls-7{letter-spacing:0em;}.cls-8{letter-spacing:-.03em;}.cls-4{font-family:Montserrat-SemiBold, Montserrat;font-weight:600;}.cls-9{letter-spacing:-.01em;}.cls-10{letter-spacing:.01em;}.cls-11{letter-spacing:0em;}.cls-12{letter-spacing:0em;}.cls-13{fill:#fff;}.cls-13,.cls-14{stroke:#6b8d34;stroke-miterlimit:10;}.cls-5{font-family:Montserrat-Black, Montserrat;font-weight:800;}.cls-15{letter-spacing:0em;}.cls-16{letter-spacing:-.01em;}.cls-17{letter-spacing:0em;}.cls-18{letter-spacing:0em;}.cls-19{letter-spacing:.02em;}.cls-20{letter-spacing:0em;}.cls-14{fill:none;}.cls-21{letter-spacing:-.01em;}.cls-22{letter-spacing:-.02em;}.cls-23{letter-spacing:0em;}.cls-24{letter-spacing:0em;}.cls-25{letter-spacing:-.03em;}.cls-26{letter-spacing:0em;}</style></defs><g id="Capa_1-2"><rect class="cls-13" x="44.17" y="17.57" width="156.72" height="156.72"/><rect class="cls-14" x="200.42" y="17.12" width="156.72" height="156.72"/><rect class="cls-13" x="43.66" y="174.21" width="156.72" height="156.72"/><rect class="cls-13" x="200.55" y="174.02" width="156.72" height="156.72"/><text class="cls-1" transform="translate(84.25 8.5)"><tspan class="cls-17" x="0" y="0">L</tspan><tspan class="cls-21" x="6" y="0">o</tspan><tspan x="12.4" y="0">w </tspan><tspan class="cls-18" x="24.6" y="0">f</tspan><tspan class="cls-21" x="28.4" y="0">e</tspan><tspan x="34.56" y="0">asibili</tspan><tspan class="cls-6" x="64.98" y="0">t</tspan><tspan x="69.23" y="0">y</tspan></text><text class="cls-2" transform="translate(64.67 97.71)"><tspan x="0" y="0">M</tspan><tspan class="cls-19" x="11.46" y="0">A</tspan><tspan x="20.83" y="0">JOR </tspan><tspan class="cls-6" x="49.67" y="0">P</tspan><tspan x="58.33" y="0">R</tspan><tspan class="cls-8" x="67.15" y="0">O</tspan><tspan class="cls-20" x="76.92" y="0">Y</tspan><tspan class="cls-15" x="84.95" y="0">E</tspan><tspan class="cls-20" x="92.98" y="0">C</tspan><tspan class="cls-23" x="101.69" y="0">T</tspan><tspan class="cls-11" x="109.04" y="0">S</tspan></text><text class="cls-2" transform="translate(61.51 251.89)"><tspan x="0" y="0">THANKLESS </tspan><tspan class="cls-25" x="78.89" y="0">T</tspan><tspan x="85.88" y="0">AS</tspan><tspan class="cls-9" x="102.73" y="0">K</tspan><tspan class="cls-12" x="111.43" y="0">S</tspan></text><text class="cls-2" transform="translate(244.22 251.89)"><tspan x="0" y="0">FILL-INS</tspan></text><text class="cls-2" transform="translate(233.18 98.91)"><tspan x="0" y="0">QUICK </tspan><tspan class="cls-22" x="44.59" y="0">W</tspan><tspan x="58.37" y="0">INS</tspan></text><text class="cls-1" transform="translate(225.47 8.55)"><tspan x="0" y="0">High </tspan><tspan class="cls-18" x="27.83" y="0">f</tspan><tspan class="cls-21" x="31.63" y="0">e</tspan><tspan x="37.79" y="0">asibili</tspan><tspan class="cls-6" x="68.21" y="0">t</tspan><tspan x="72.46" y="0">y</tspan></text><text class="cls-4" transform="translate(369.83 64.58) rotate(90)"><tspan x="0" y="0">High im</tspan><tspan class="cls-18" x="40.96" y="0">p</tspan><tspan class="cls-26" x="47.75" y="0">a</tspan><tspan class="cls-7" x="53.87" y="0">c</tspan><tspan x="59.75" y="0">t</tspan></text><text class="cls-4" transform="translate(369.83 213.64) rotate(90)"><tspan class="cls-24" x="0" y="0">L</tspan><tspan class="cls-21" x="5.94" y="0">o</tspan><tspan x="12.24" y="0">w im</tspan><tspan class="cls-18" x="37.61" y="0">p</tspan><tspan class="cls-26" x="44.4" y="0">a</tspan><tspan class="cls-7" x="50.52" y="0">c</tspan><tspan x="56.4" y="0">t</tspan></text><text class="cls-5" transform="translate(49.36 376.28)"><tspan class="cls-6" x="0" y="0">F</tspan><tspan class="cls-9" x="7.61" y="0">e</tspan><tspan x="15.26" y="0">asibili</tspan><tspan class="cls-6" x="53.76" y="0">t</tspan><tspan x="59.16" y="0">y</tspan></text><text class="cls-5" transform="translate(10.2 325.31) rotate(-90)"><tspan x="0" y="0">Im</tspan><tspan class="cls-16" x="16.68" y="0">p</tspan><tspan class="cls-10" x="24.91" y="0">ac</tspan><tspan x="40.2" y="0">t</tspan></text><rect class="cls-3" x="19.48" y="13.07" width="10.13" height="334.29"/><rect class="cls-3" x="179.56" y="186.28" width="10.21" height="330.38" transform="translate(-166.8 536.13) rotate(-90)"/><polygon class="cls-3" points="7.48 20.08 41.6 20.08 25.15 3.63 7.48 20.08"/><polygon class="cls-3" points="343.28 335.3 343.28 369.42 359.73 352.97 343.28 335.3"/></g></svg>