<?xml version="1.0" encoding="UTF-8"?>
<svg width="165px" height="57px" viewBox="0 0 165 57" version="1.1" xmlns="http://www.w3.org/2000/svg" xmlns:xlink="http://www.w3.org/1999/xlink">
    <title>LOGO PARTNERS</title>
    <g id="LOGO-PARTNERS" stroke="none" stroke-width="1" fill="none" fill-rule="evenodd">
        <rect id="Rectangle" fill="#FFFFFF" x="0" y="0" width="165" height="57"></rect>
        <rect id="Rectangle" fill="#FFFFFF" x="0" y="0" width="5" height="5"></rect>
        <rect id="Rectangle-Copy-3" fill="#FFFFFF" x="0" y="52" width="5" height="5"></rect>
        <rect id="Rectangle-Copy" fill="#FFFFFF" x="160" y="0" width="5" height="5"></rect>
        <rect id="Rectangle-Copy-2" fill="#FFFFFF" x="160" y="52" width="5" height="5"></rect>
        <g id="Logo---Aratos.Net-Ltd" transform="translate(30.000000, 7.000000)">
            <path d="M18.1770713,11.0015401 C18.1749666,11.0314976 18.1255075,11.0629913 18.0668405,11.0711847 C17.983444,11.0829629 17.9766039,11.0929487 18.0355339,11.1162489 C18.1341891,11.155424 18.2391583,11.0901322 18.2065363,11.0102457 C18.1907515,10.9715827 18.179439,10.9682541 18.1770713,11.0015401 M17.6998431,11.2739735 C17.5825092,11.3387533 17.4793816,11.4112144 17.4706999,11.4350267 C17.4620183,11.458583 17.4354471,11.4662644 17.4115068,11.4519258 C17.3262687,11.4004605 17.6469639,12.3982734 17.8124416,12.6988719 C17.8542714,12.7749177 17.8887349,12.8668384 17.888998,12.903453 C17.888998,12.9510777 17.9079398,12.9451886 17.9552943,12.8819451 C18.0121197,12.8064114 18.0115936,12.7872079 17.9518743,12.7447042 C17.8947858,12.7039929 17.8853149,12.5606068 17.8976797,11.9248436 C17.9060983,11.5010867 17.9129384,11.1549119 17.9129384,11.1551678 C17.9129384,11.155424 17.816914,11.2089377 17.6998431,11.2739735 M14.4292254,13.1210925 C14.26138,13.2109648 14.0922191,13.311591 14.0530201,13.344621 C14.0140842,13.377395 13.8491327,13.4698277 13.686812,13.5497142 C13.5244913,13.6296007 13.3642752,13.7197291 13.3313901,13.7499425 C13.298242,13.780156 13.1114547,13.8869274 12.916249,13.9867855 C12.7210432,14.0868996 12.534519,14.1944391 12.5018971,14.2259329 C12.469012,14.2574266 12.2877495,14.359333 12.0991207,14.45279 C11.9104919,14.5462469 11.7455404,14.6381676 11.7323864,14.6573711 C11.7194954,14.6763185 11.5916383,14.7498039 11.4482593,14.8207287 C11.3051435,14.8913975 11.1228287,14.9956084 11.0433783,15.0524507 C10.963928,15.109037 10.7460973,15.2314272 10.559047,15.32386 C10.3722598,15.4165488 10.2073083,15.5112859 10.1925757,15.5345862 C10.1781063,15.5576304 10.0655078,15.6257387 9.94291228,15.6856536 C9.64720971,15.8303198 9.52435108,15.9002205 9.30046951,16.052056 C9.197605,16.1217006 9.09316202,16.178799 9.06843244,16.178799 C9.04343979,16.178799 8.92768433,16.2415304 8.81087656,16.3183443 C8.69406878,16.3949022 8.43519749,16.542897 8.23551933,16.647364 C8.03610426,16.7515749 7.86194491,16.851689 7.84905397,16.8693562 C7.83589994,16.8872795 7.65148045,16.9904662 7.43864827,17.0990299 C7.22607916,17.2075936 6.98220346,17.358661 6.8964392,17.4349628 C6.7527972,17.5624739 6.45156994,17.7434988 5.24429317,18.4261185 C4.99673435,18.5661759 4.69840098,18.7367029 4.58133012,18.8053233 C4.46399618,18.8736877 4.13383006,19.0608577 3.84707223,19.2208867 C3.56057748,19.3809157 3.23041136,19.5696219 3.11307742,19.6400347 C2.99600656,19.7104475 2.84131518,19.7898218 2.76975726,19.8159386 C2.69162233,19.8448718 2.63953238,19.8983855 2.63953238,19.9501069 C2.63953238,20.0264088 2.50088891,20.4650163 2.41828161,20.6498818 C2.40118138,20.6877767 2.3846073,20.7292562 2.38145033,20.7420585 C2.32515109,20.9612343 2.29279218,21.0452175 2.25569782,21.0674935 C2.23123132,21.0823442 2.20255554,21.1371382 2.1922954,21.1893717 C2.16019957,21.351193 1.8752833,22.183856 1.78530975,22.3781952 C1.68691761,22.5909698 1.63614306,22.7215535 1.61772742,22.8083532 C1.61062424,22.8418953 1.58905163,22.9041146 1.56984675,22.9466183 C1.55064187,22.988866 1.53196315,23.0339302 1.5285431,23.0467325 C1.4188385,23.4525661 1.38490111,23.5537044 1.35938229,23.5537044 C1.34254513,23.5537044 1.30018916,23.6417844 1.26519944,23.7495799 C1.23020973,23.8573755 1.18153982,23.9713161 1.15707333,24.0030659 C1.13260683,24.0348157 1.12839754,24.0606764 1.14760243,24.0606764 C1.16707039,24.0606764 1.16180878,24.086537 1.13602688,24.1182868 C1.11024498,24.1500366 1.07551835,24.2486144 1.05894427,24.3372065 C1.0423702,24.4260546 0.997120336,24.5576625 0.958184411,24.6301236 C0.919511566,24.7025848 0.899517442,24.7801668 0.913986874,24.802955 C0.928456306,24.8257431 0.918196163,24.8441784 0.891361944,24.8441784 C0.864527726,24.8441784 0.80743924,24.9634961 0.764557106,25.1091865 C0.721411892,25.255133 0.665112648,25.4003113 0.63880459,25.432061 C0.612759613,25.4635548 0.607234921,25.4896715 0.626702884,25.4896715 C0.646170847,25.4896715 0.635384543,25.5206531 0.603025632,25.558804 C0.570666721,25.5966989 0.556197289,25.6279366 0.571192882,25.6279366 C0.611707291,25.6279366 0.504107335,25.917269 0.434127901,25.9966434 C0.400453588,26.0345383 0.327580268,26.231182 0.271807185,26.4334586 C0.216297184,26.6357353 0.145265428,26.8305867 0.114485,26.8669453 C0.0837045728,26.9030478 0.0637104489,26.9399185 0.0702874634,26.9486241 C0.0768644778,26.9573297 0.0805476059,26.9696199 0.0784429613,26.976021 C0.0766013972,26.9824222 0.0681828188,27.0213413 0.0597642403,27.0625647 C0.0516087424,27.1037882 0.0305622962,27.1816263 0.0129358976,27.2353961 C-0.0396802178,27.3967053 -0.0441525877,27.40029 2.34093592,25.4602262 C3.60740582,24.4298953 4.6749868,23.584686 4.71339657,23.5818695 C4.75180633,23.579053 4.84230605,23.5247712 4.91465321,23.4615277 C4.98726345,23.3980282 5.18168,23.2390233 5.34663152,23.1081836 C5.51184612,22.9773439 5.89199755,22.6700882 6.19138325,22.4258199 C6.49103203,22.1812955 6.85960792,21.8840256 7.01061617,21.764964 C7.26133196,21.5672962 7.49126438,21.3801262 8.01479473,20.9471517 C8.11897464,20.8608641 8.37468896,20.6529544 8.58304878,20.4849879 C8.79140859,20.3170215 9.07737718,20.082995 9.21838837,19.9652137 C9.35913648,19.8474323 9.53513738,19.7150563 9.60906303,19.6710163 C9.68298867,19.6269763 9.7434972,19.5734626 9.7434972,19.5519547 C9.7434972,19.5307029 9.84452014,19.4439031 9.9684311,19.3594078 C10.092079,19.2749125 10.2504535,19.1522662 10.3204329,19.0867183 C10.3904123,19.0211705 10.5911428,18.85346 10.7666176,18.7139147 C10.9423554,18.5743694 11.1588707,18.3930886 11.248055,18.3106416 C11.3375024,18.2281946 11.4198466,18.1608544 11.4314222,18.1608544 C11.4427346,18.1608544 11.7089722,17.9480799 12.0228273,17.6884488 C12.3366825,17.4285616 12.6644808,17.1699547 12.7510344,17.1138806 C12.8375879,17.0578064 12.9370323,16.9740792 12.971759,16.9277348 C13.0064856,16.8813904 13.1093501,16.7945907 13.2006391,16.7346758 C13.291928,16.675017 13.4303084,16.5656852 13.5084433,16.4916877 C13.5865783,16.4176903 13.7499513,16.2807055 13.8714945,16.1872485 C14.2726924,15.8789686 15.0074765,15.2831486 15.2263595,15.0888093 L15.4415594,14.8975426 L15.1192857,13.9465862 C14.7422912,12.8343205 14.8109553,12.9165114 14.4292254,13.1210925 M71.8786571,38.2113385 L71.8786571,42.8665187 L72.423497,42.8665187 L72.9680738,42.8665187 L72.9704415,39.0754952 L72.9728093,35.2842157 L73.102508,35.5379577 C73.1740659,35.677247 73.3221803,35.9317571 73.4316218,36.1033082 C73.5413264,36.2748594 73.6310369,36.4305356 73.6310369,36.4489709 C73.6312999,36.4676623 73.6949654,36.5552302 73.7731004,36.6440783 C73.8512353,36.7326704 73.9149008,36.8207504 73.9151639,36.8391857 C73.9151639,36.8781048 74.2032371,37.3469258 74.2482239,37.381492 C74.264798,37.3942944 74.3587177,37.5394727 74.4571099,37.7041105 C74.555502,37.8690045 74.6520526,38.0141828 74.6717836,38.0267291 C74.6915147,38.0395314 74.7528124,38.1329883 74.8083224,38.2343827 C74.8638324,38.3357771 74.957226,38.4919654 75.0161561,38.5813256 C75.0748231,38.6709419 75.1655859,38.8138158 75.2176758,38.8988232 C75.2697658,38.9838306 75.433665,39.2360364 75.5820424,39.4595649 C75.7304199,39.6830934 75.8872159,39.9322266 75.9306242,40.0136494 C75.9737694,40.0950721 76.0495366,40.2036358 76.0987327,40.2551012 C76.1481918,40.3068225 76.1884432,40.3659693 76.1884432,40.386709 C76.1884432,40.4074488 76.3015678,40.5953869 76.4399482,40.8043208 C76.5785916,41.0132547 76.7493309,41.2774946 76.8195735,41.3916913 C76.890079,41.5056319 77.0326687,41.7306968 77.1363225,41.89175 C77.2402393,42.0528032 77.3249512,42.1967013 77.3249512,42.211552 C77.3249512,42.2264027 77.3654657,42.2811966 77.4151879,42.3336861 C77.464647,42.3859196 77.5583037,42.5221363 77.6235477,42.6360769 L77.741934,42.8434746 L78.3386007,42.8565329 L78.9352675,42.8693352 L78.9352675,38.2126188 L78.9352675,33.5559023 L78.3906907,33.5559023 L77.8461139,33.5559023 L77.8421677,37.3008374 L77.8382214,41.0460286 L77.7232552,40.8007361 C77.6598528,40.6657996 77.5125277,40.4128258 77.3954568,40.2384581 C77.2786491,40.0640905 77.1828877,39.906878 77.1828877,39.8889548 C77.1828877,39.8710315 77.1244838,39.7816713 77.0526628,39.6905188 C76.9811049,39.5993662 76.8824497,39.4523956 76.8332536,39.3635475 C76.7843207,39.2746994 76.6456772,39.0537313 76.5254494,38.8724504 C76.1971248,38.3772566 75.7932961,37.7443098 75.7288414,37.623968 C75.6975348,37.5655894 75.6380786,37.4846788 75.597038,37.4447355 C75.5559974,37.4047923 75.4778625,37.2859867 75.4236679,37.1807516 C75.3694733,37.0757726 75.2779213,36.9275217 75.2203066,36.8514759 C75.1624289,36.7754301 75.0345717,36.5782744 74.9361796,36.4136365 C74.8377875,36.2487426 74.7412369,36.1035643 74.7215059,36.091018 C74.7017748,36.0782157 74.6399509,35.9850148 74.5841778,35.8836204 C74.4010737,35.5515282 74.3029447,35.3935475 74.2313867,35.3151973 C74.1927139,35.2729497 74.1003726,35.1344285 74.0261839,35.0076856 C73.863337,34.728851 73.5513234,34.243387 73.4079445,34.0457191 C73.3503299,33.9663447 73.259304,33.8237269 73.2056356,33.7287336 L73.1080327,33.5559023 L72.4934764,33.5559023 L71.8786571,33.5559023 L71.8786571,38.2113385 M89.244606,34.0170419 C89.0933347,34.0633863 88.8981289,34.1340551 88.8113123,34.1742544 C88.7244957,34.2144537 88.6297867,34.2472277 88.6011109,34.2472277 C88.565332,34.2472277 88.5492841,34.4984092 88.5492841,35.0537739 L88.5492841,35.8605762 L88.0517987,35.8605762 L87.5545764,35.8605762 L87.5545764,36.3214598 L87.5545764,36.7823434 L88.0517987,36.7823434 L88.5492841,36.7823434 L88.5495471,39.0063627 C88.5498102,40.3055423 88.5700674,41.3548206 88.5987432,41.5299564 C88.7692194,42.5776984 89.6118665,43.0590657 90.9838317,42.8921234 L91.2487539,42.8598615 L91.2487539,42.3559621 L91.2487539,41.8518067 L90.9262171,41.880996 C90.3329704,41.9347658 89.8823133,41.7027877 89.8010214,41.301819 C89.7878674,41.2370392 89.7565608,41.1205381 89.7315682,41.0427 C89.704997,40.9605091 89.6857922,40.0369496 89.6857922,38.8417249 L89.6857922,36.7823434 L90.468983,36.7823434 L91.2521739,36.7823434 L91.2384937,36.3329819 L91.2250766,35.8836204 L90.4553028,35.8708181 L89.6857922,35.8582718 L89.6857922,34.8914405 C89.6857922,33.7909529 89.7257804,33.8700713 89.244606,34.0170419 M82.8898947,35.8336914 C82.2716553,35.9839906 81.4426884,36.592613 81.1848695,37.0855024 C81.1330426,37.1848484 81.0643786,37.293156 81.0325458,37.32593 C80.6534467,37.7156326 80.5095416,39.9050857 80.8005087,40.8522014 C80.9922945,41.4759306 81.7223431,42.4978119 81.9762158,42.4978119 C82.0064701,42.4978119 82.0751341,42.5377551 82.1290657,42.58666 C82.7283632,43.1305026 85.6369821,43.1402324 86.3215177,42.6007425 L86.423593,42.5200879 L86.2704801,42.1296171 C86.0739589,41.6285342 86.0537017,41.6077945 85.8732284,41.715334 C85.0400522,42.211552 83.2245332,42.1378106 82.5452591,41.5803975 C82.0740818,41.1935113 81.5576546,39.9626961 81.8667743,39.9626961 C81.9222843,39.9626961 82.0046285,39.9434927 82.0498784,39.9196803 C82.0951283,39.8961241 82.7499358,39.8016429 83.5055032,39.7099783 C84.2608076,39.6183137 84.9214029,39.5253688 84.9734929,39.5036049 C85.0255828,39.4815849 85.356012,39.4298635 85.7077508,39.38864 C86.0592264,39.3474166 86.4057035,39.3026084 86.4772614,39.2887819 L86.6074863,39.2639454 L86.6074863,38.6775991 C86.6074863,38.3552366 86.5895968,38.0717932 86.5674981,38.0474688 C86.5456624,38.0234005 86.5006756,37.8807826 86.4675275,37.7307394 C86.1470953,36.2735791 84.5541424,35.429138 82.8898947,35.8336914 M84.1321612,36.7150032 C84.2684369,36.7313901 84.4281268,36.7813192 84.48732,36.8261273 C84.54625,36.8709355 84.6614793,36.9408361 84.7430343,36.9815475 C85.0876698,37.1536107 85.4233606,37.8400712 85.4233606,38.3729038 L85.4233606,38.6059061 L83.8014689,38.8056223 C82.9093627,38.9154662 82.1590568,39.0237739 82.1343273,39.046306 C82.1095977,39.068582 82.0083117,39.0870173 81.9093934,39.0870173 L81.7294463,39.0870173 L81.7294463,38.8826923 C81.7294463,38.5196184 81.8636174,38.03185 82.0496153,37.7197294 C82.1469551,37.5561157 82.2479781,37.3794437 82.2740231,37.3272102 C82.4250313,37.0248194 83.3481811,36.6184737 83.765953,36.6704511 C83.8309339,36.6786446 83.9958854,36.6986162 84.1321612,36.7150032" id="path0" fill="#F6A70B"></path>
            <path d="M9.68266016,0.177724199 C9.54434023,0.490832421 9.40893509,0.863269162 9.3016179,1.22316066 C9.2438521,1.41735049 9.17999175,1.58697256 9.15958824,1.60056323 C9.13918472,1.61389254 9.04114186,1.87864933 8.94150911,2.18862124 C8.84187637,2.49859315 8.74648331,2.76308858 8.72925956,2.77589518 C8.69666694,2.80046293 8.64923539,2.9342788 8.42029205,3.64622103 C8.34530251,3.87909201 8.27031297,4.08033853 8.25361919,4.09340648 C8.2369254,4.10621308 8.1985032,4.19089343 8.16856038,4.28158505 C8.13861756,4.3720153 8.04772917,4.64722645 7.9663801,4.89316538 C7.885296,5.13884295 7.80235704,5.36125956 7.7822185,5.38713411 C7.76207997,5.41300866 7.66589197,5.67750409 7.56837907,5.9746694 C7.47113115,6.27209608 7.37388323,6.53685286 7.35268477,6.56298877 C7.33122133,6.58912468 7.22098936,6.89622165 7.10784259,7.24565878 C6.99469583,7.59483456 6.89002845,7.89147716 6.87518953,7.90428376 C6.86035061,7.91735171 6.76416261,8.18184714 6.66161508,8.49234177 C6.55880256,8.8028364 6.45837487,9.07935435 6.43797136,9.10653569 C6.41756784,9.1339784 6.31687517,9.41049635 6.21406265,9.72125234 C6.11125014,10.0320083 6.00340299,10.3273441 5.97425511,10.3775251 C5.94510723,10.4274447 5.83275541,10.7332348 5.7243783,11.0565361 C5.61626617,11.3800986 5.51133381,11.6657642 5.49119527,11.6916387 C5.47132172,11.7175133 5.37433878,11.9929858 5.27629592,12.3034804 C5.17798807,12.613975 5.08127011,12.8784705 5.06166154,12.8915384 C5.04178799,12.904345 4.93367586,13.2009876 4.82158902,13.5501634 C4.7092372,13.8996005 4.60350989,14.1959818 4.58681611,14.2087884 C4.57012232,14.2218563 4.46148023,14.5182376 4.34594864,14.8676747 C4.23015207,15.2168505 4.12150998,15.5132317 4.10481619,15.5262997 C4.08785743,15.5391063 4.01392781,15.7403528 3.93999819,15.9732238 C3.86633355,16.2060947 3.76749575,16.4813059 3.72032918,16.5848041 C3.67289764,16.6883023 3.54968161,17.0293759 3.44607415,17.3427455 C3.34246669,17.6561151 3.2338246,17.9527577 3.20414676,18.0016319 C3.13737162,18.1127095 2.77514299,19.2132927 2.79793133,19.236815 C2.81383017,19.2532807 3.02687466,19.1356691 3.91641491,18.6189621 C4.13952867,18.489328 4.46148023,18.3045471 4.63212781,18.2081056 C4.80251041,18.1116641 5.12446197,17.9268832 5.34757573,17.7975104 C5.57068949,17.6678763 5.93556793,17.4572208 6.15841671,17.3288935 C6.95971838,16.8683787 6.95044405,16.8762195 7.04239236,16.5759179 C7.25782168,15.8718164 7.32035712,15.6891264 7.35268477,15.6674336 C7.37202836,15.6543656 7.41998987,15.5273451 7.45920702,15.3851657 C7.60494641,14.8572203 7.79493758,14.2788326 7.83018001,14.255833 C7.85031855,14.2430264 7.89881002,14.1160059 7.93829214,13.9735652 C8.0734323,13.4856077 8.228711,13.00915 8.25997872,12.9856277 C8.27720247,12.9725597 8.38345974,12.6550084 8.49581156,12.2799581 C8.60842836,11.9046464 8.71548057,11.5870951 8.73376424,11.5740271 C8.7520479,11.5612205 8.84611606,11.2860094 8.94256904,10.9624468 C9.03902201,10.6391456 9.14713415,10.3213329 9.18290654,10.2567772 C9.21867894,10.1919601 9.32864593,9.86395441 9.42721876,9.52758523 C9.52579158,9.19121605 9.62197958,8.90528917 9.64052823,8.89222122 C9.65934186,8.87941462 9.76665905,8.5618633 9.87927585,8.1865516 C9.99162767,7.81123991 10.0989449,7.49368859 10.1174935,7.48088199 C10.1360422,7.46781403 10.23382,7.18214852 10.3345127,6.84577934 C10.4354704,6.50914879 10.5319233,6.22348328 10.5494121,6.21041532 C10.5669008,6.19760873 10.6731581,5.8800574 10.7855099,5.50474571 C10.8981267,5.12943402 11.0049139,4.81188269 11.0231976,4.7990761 C11.0414812,4.78600814 11.1485335,4.46845681 11.2611503,4.09340648 C11.374032,3.71809479 11.4832041,3.4002821 11.5038726,3.38695279 C11.5248061,3.37362347 11.567203,3.26254585 11.5984707,3.13996842 C11.6652458,2.87939339 11.7193019,2.85639378 11.7638187,3.06992418 C11.7813074,3.15408182 11.8353635,3.30749962 11.8841199,3.41099783 C11.9546048,3.56127932 12.1538703,4.1840981 12.3473062,4.8578819 C12.3602902,4.90309702 12.3897031,4.94021002 12.4130214,4.94021002 C12.4360747,4.94021002 12.4551533,4.98202748 12.4551533,5.03325386 C12.4551533,5.08448025 12.4845662,5.2062736 12.5203386,5.30376055 C12.556376,5.40150886 12.6228861,5.60824392 12.6684628,5.76349124 C12.7137745,5.91873855 12.7789598,6.10926935 12.8128773,6.186893 C12.885747,6.3531174 12.98167,6.64453282 13.1486079,7.20697764 C13.215118,7.43148512 13.2858679,7.62227727 13.3057414,7.6303794 C13.3383341,7.64423144 13.4361119,7.9500216 13.6337875,8.65699801 C13.6735347,8.79943873 13.7199063,8.92645926 13.7366001,8.93926586 C13.7535588,8.95233382 13.8073499,9.08980871 13.8561064,9.24531738 C13.9051278,9.4005647 13.9626286,9.58037977 13.984092,9.64519683 C14.0052905,9.70975253 14.0585516,9.88982897 14.1022734,10.0450763 C14.1459953,10.2003236 14.1968716,10.3377985 14.2154202,10.3508664 C14.2339689,10.363673 14.3312168,10.6495999 14.4316445,10.9859691 C14.5318072,11.3223383 14.6544932,11.6877183 14.7043096,11.7977505 C14.754126,11.9075213 14.8076521,12.0612005 14.8235509,12.1388242 C14.8391848,12.2164478 14.877077,12.2799581 14.9075498,12.2799581 C14.9907538,12.2799581 15.6110736,14.1596529 15.5729164,14.2960823 C15.5559576,14.356979 15.5617872,14.4204892 15.5859004,14.4372162 C15.6100137,14.4539432 15.6680445,14.5948158 15.714946,14.7500631 C15.9322302,15.4714143 16.0517365,15.8339194 16.0790295,15.8556122 C16.0954583,15.8686801 16.1799872,16.1227212 16.2674308,16.4201478 C16.3546095,16.7178359 16.4550372,17.0142171 16.4905446,17.0790342 C16.526052,17.1435899 16.6439684,17.493027 16.7526105,17.8552708 C16.8609876,18.2175145 16.9667149,18.5350658 16.9871184,18.5609404 C17.007522,18.5868149 17.1042399,18.8727418 17.2017528,19.196043 C17.2992657,19.5196056 17.3938638,19.7948168 17.4118825,19.8078847 C17.4301662,19.8206913 17.5374834,20.1382426 17.6506301,20.5135543 C17.7637769,20.8886047 17.872154,21.2064173 17.8914976,21.2192239 C17.9108412,21.2322919 17.9386642,21.2958022 17.9535031,21.3603579 C18.0078241,21.5961038 18.2754547,22.4439528 18.3872765,22.7335387 C18.4503419,22.8968881 18.5616338,23.2316891 18.6345035,23.4776281 C18.7073732,23.723567 18.779713,23.9352679 18.7953468,23.9480745 C18.8226398,23.9708127 18.929692,24.2862732 19.0743715,24.7713557 C19.1130587,24.9009898 19.1864583,25.1126907 19.2375996,25.2420635 C19.2884759,25.3714362 19.3926133,25.6889876 19.4686628,25.9477331 C19.5447123,26.2064786 19.6647485,26.5611429 19.7354984,26.7357308 L19.864014,27.0532821 L21.6030824,27.0532821 L23.3421508,27.0532821 L23.3177726,26.9474317 C23.2449029,26.6285736 22.9926413,25.8991203 22.9505093,25.8852683 C22.9237463,25.8766434 22.9014879,25.8444962 22.9014879,25.8144399 C22.900958,25.7237483 22.5244204,24.5980746 22.474604,24.5390074 C22.4494308,24.5089511 22.351123,24.2316491 22.2562599,23.9227226 C22.1611318,23.6137962 22.0675936,23.3503462 22.04825,23.3370169 C22.0289064,23.3236876 21.9202643,23.027045 21.8073826,22.6778692 C21.6942358,22.328432 21.5855937,22.0320508 21.5657201,22.0189828 C21.5461116,22.0061762 21.4491286,21.7414195 21.3505558,21.4309248 C21.251983,21.1204302 21.1565899,20.8556734 21.1385712,20.8428668 C21.1205526,20.8297989 21.0129704,20.5334176 20.8995586,20.1842418 C20.7861469,19.8348047 20.6798896,19.5384235 20.6631958,19.5253555 C20.6465021,19.5125489 20.5717775,19.3113024 20.496788,19.0784314 C20.2673147,18.364921 20.2204131,18.232412 20.1875555,18.2081056 C20.1700667,18.1950376 20.0717589,17.9198265 19.9689464,17.5965252 C19.8658689,17.2729626 19.754047,16.9802404 19.7198645,16.9462638 C19.685947,16.9120257 19.658124,16.8589698 19.658124,16.8286521 C19.658654,16.746324 19.3096744,15.6948763 19.2728421,15.6674336 C19.2556183,15.6543656 19.1514809,15.3694842 19.0415139,15.0338991 C18.9318119,14.6985753 18.8244947,14.4021941 18.8030313,14.3752741 C18.7818328,14.3483541 18.683525,14.0723589 18.5846871,13.7618643 C18.4858493,13.4513696 18.3907213,13.1868742 18.3732325,13.1738063 C18.3557438,13.1609997 18.2786344,12.9597531 18.20179,12.7268822 C18.1249456,12.4940112 18.0361771,12.2810035 18.0043794,12.2532995 C17.8965322,12.1597329 17.4632888,10.9828328 17.4685884,10.7977905 C17.4717682,10.6922015 17.0684675,9.48263146 16.9839387,9.34437249 C16.9542608,9.29549834 16.8543631,9.02002583 16.7624148,8.73279216 C16.6704665,8.44529713 16.5525501,8.11676872 16.5003489,8.00281615 C16.4478827,7.88886357 16.3434803,7.59274369 16.2679608,7.34471389 C16.1924413,7.09642273 16.1084424,6.88629 16.0816794,6.87740379 C16.0546513,6.86851758 16.0326579,6.83663177 16.0326579,6.80657547 C16.0326579,6.71797473 15.7043468,5.72742368 15.6322721,5.59883499 C15.5962347,5.53427929 15.4867977,5.22718233 15.3892848,4.9166877 C15.2917719,4.60619307 15.1828648,4.29909611 15.1473574,4.2345404 C15.11185,4.16972334 15.0024129,3.87334211 14.904635,3.57565407 C14.8065922,3.2782274 14.7117291,3.02418634 14.6937104,3.01111838 C14.6756917,2.99831178 14.5805636,2.733555 14.4822558,2.42306037 C14.3839479,2.11256574 14.2821953,1.83186605 14.2559623,1.79971888 C14.2297292,1.76731035 14.2270794,1.74039036 14.2498677,1.740129 C14.272921,1.73960628 14.2678864,1.72392473 14.2390035,1.70484552 C14.2101206,1.6857663 14.1054532,1.41630505 14.0063504,1.10554906 C13.9069827,0.795054432 13.8073499,0.533956675 13.7845616,0.525331824 C13.7617732,0.516706973 13.7429596,0.480116697 13.7429596,0.444049139 C13.7429596,0.407981581 13.7085121,0.293244929 13.6663802,0.189224 L13.5895358,0 L11.6747851,0.00130679558 L9.76003453,0.00235223205 L9.68266016,0.177724199 M63.8770451,1.02531181 C63.7334256,1.0420388 63.2681195,1.18526359 62.780025,1.36298779 C62.5831443,1.43486155 62.2235655,1.55299587 61.9808432,1.62591506 C61.7383858,1.69883426 61.5396503,1.77332161 61.5396503,1.79135538 C61.5396503,1.80938916 61.4805596,1.83630915 61.4084848,1.85094526 C61.3364101,1.86558137 61.1753018,1.90478524 61.0507609,1.93771649 L60.8242024,1.99756773 L60.8242024,4.43343469 L60.8242024,6.86930166 L59.3691933,6.86930166 L57.9144492,6.86930166 L57.9144492,8.09246232 L57.9144492,9.31588435 L59.3676034,9.31588435 L60.8207576,9.31588435 L60.8387763,16.1025965 C60.856265,22.8336392 60.8658043,23.2345641 61.0126037,23.548195 C61.0369819,23.5999441 61.1132963,23.842224 61.1824563,24.0863335 C61.2979879,24.4948378 61.4143144,24.7833782 61.4866542,24.842184 C61.502818,24.8549906 61.5801923,24.9882838 61.6586266,25.1385653 C61.914863,25.6283522 62.5728101,26.2647617 63.1022415,26.5347457 C63.2662646,26.6183806 63.412004,26.7048904 63.426048,26.7273673 C63.4610254,26.7832982 64.319298,27.0504072 64.5747394,27.0849066 C64.689476,27.1005881 64.7832792,27.1280308 64.7832792,27.1460646 C64.7832792,27.1640984 64.8103072,27.1808254 64.8428998,27.1831776 C64.8757574,27.1855299 65.0850922,27.2100976 65.308206,27.2375403 C66.0273636,27.3269251 67.5072809,27.271517 67.6694491,27.1492009 C67.6956822,27.129599 67.8673897,27.0775885 68.0510213,27.0342029 L68.384897,26.9550111 L68.384897,25.5891484 L68.384897,24.2232856 L68.2656557,24.2457625 C67.7155557,24.3492607 67.5046311,24.3709535 67.025281,24.3735671 C65.9714527,24.3790557 65.2862126,24.1477528 64.7255134,23.5973305 C64.5410868,23.4159473 64.2334442,22.9606597 64.2949197,22.9593529 C64.3142633,22.9590916 64.3010143,22.9402737 64.2649769,22.9180582 C64.0450429,22.7805833 64.0453079,22.7897309 64.0315289,15.8443737 L64.0185448,9.31666842 L66.1908567,9.30438455 L68.3629036,9.29236203 L68.3740328,8.08070116 L68.384897,6.86930166 L66.2027808,6.86930166 L64.0209297,6.86930166 L64.0087406,3.9405114 L63.9962865,1.01145978 L63.8770451,1.02531181 M33.03806,6.47830842 C32.7076291,6.49555812 31.3193951,6.62493088 31.1778954,6.65185087 C31.1254293,6.66178252 30.964321,6.68530484 30.8201715,6.70438405 C30.675757,6.72320191 30.5363771,6.75404229 30.510144,6.77286014 C30.483911,6.791678 30.3013392,6.83401818 30.1044586,6.86694943 C29.562573,6.95737968 28.8004885,7.13144485 28.6894616,7.19025065 C28.6351405,7.2187388 28.5760498,7.22788637 28.5580312,7.21011395 C28.5400125,7.19234153 28.5103346,7.2001823 28.492051,7.22736365 C28.4737673,7.25480635 28.2040169,7.349157 27.8926646,7.43697366 C27.5813123,7.52505168 27.282944,7.63429979 27.2296828,7.68003764 C27.1761567,7.72577548 27.104612,7.76314984 27.0704294,7.76314984 C27.0362469,7.76314984 26.9538379,7.78771759 26.8870628,7.81777389 L26.7654366,7.87239795 L26.7654366,17.4629707 L26.7654366,27.0532821 L28.4109669,27.0532821 L30.0564971,27.0532821 L30.0686862,18.4080453 L30.0806103,9.76280844 L30.4383343,9.65329897 C30.6352149,9.59318637 30.8607135,9.51530135 30.9394128,9.48027923 C31.4569201,9.25106729 33.8891781,9.09974036 35.0516485,9.22493137 C35.3084148,9.25237408 35.5614713,9.27903271 35.6139375,9.28373717 C35.6870722,9.29027115 35.7133053,9.25916942 35.7257594,9.1512281 C35.7345037,9.07360445 35.7594119,8.99963982 35.7806104,8.98657186 C35.8018088,8.9735039 35.8306917,8.89927791 35.8447357,8.82165426 C35.9451634,8.26652749 36.2188885,7.0167082 36.2570457,6.93986862 C36.3887411,6.67458912 36.3606532,6.5967041 36.1229655,6.56638644 C35.2827116,6.46027464 34.0616805,6.42525252 33.03806,6.47830842 M45.3689374,6.49451268 C44.8972718,6.53450063 44.2218359,6.61290836 44.0095864,6.65237359 C43.9571202,6.66204388 43.8174754,6.6842594 43.699294,6.70177046 C43.5813775,6.71902017 43.4417327,6.75299685 43.3892665,6.77678053 C43.3368003,6.80056421 42.9827861,6.88629 42.6022738,6.96704997 C42.2217615,7.04807129 41.8568831,7.14085378 41.7914328,7.17352367 C41.7257176,7.2059322 41.6451635,7.2231819 41.6125709,7.2116821 C41.5797133,7.2001823 41.5529502,7.21194346 41.5529502,7.23781801 C41.5529502,7.26395392 41.4835253,7.30028284 41.3987314,7.31857798 C41.1409052,7.37450883 40.442681,7.61391378 40.4124732,7.65703803 C40.3968394,7.67925356 40.2821027,7.73518441 40.1575618,7.78118361 C40.0330208,7.82718282 39.9312682,7.86847756 39.9312682,7.87292066 C39.934183,7.93512413 40.2773331,8.92541383 40.3509977,9.08484289 C40.4061137,9.20349993 40.5144908,9.48864272 40.5918652,9.71837739 C40.6692395,9.94811205 40.7580081,10.1443927 40.7890108,10.1545858 C40.8430669,10.1723582 41.2164247,10.0307015 41.266771,9.97346388 C41.3009535,9.93426002 41.6528479,9.81168259 42.1491568,9.66610556 C42.3852546,9.5968454 42.599889,9.52366484 42.6261221,9.50380155 C42.6889225,9.45597283 43.6659064,9.24374923 44.1646001,9.1697846 C44.3808243,9.13763743 44.5580964,9.09660405 44.5580964,9.07883163 C44.5580964,9.06105921 44.6118875,9.0566161 44.6776027,9.06916134 C44.743318,9.08144522 44.8323515,9.06262736 44.8758083,9.02734388 C44.9796808,8.94214081 47.7007677,8.93220916 47.80623,9.01662816 C47.8430623,9.04616174 47.9591239,9.08196794 48.0640562,9.09634269 C48.4617923,9.15096674 49.3759757,9.43663226 49.3759757,9.50641514 C49.3759757,9.52758523 49.4242022,9.55920968 49.4832929,9.57672074 C49.5421186,9.59449316 49.6648047,9.66479877 49.7556931,9.7330135 C49.8463165,9.80096687 49.9462142,9.86735208 49.9774819,9.88042004 C50.0887738,9.92615788 50.6020415,10.5751126 50.7069738,10.8022336 C50.7657996,10.9292542 50.8336346,11.0698654 50.8580129,11.1148191 C50.8823911,11.1597729 50.9022646,11.2266808 50.9022646,11.2637938 C50.9022646,11.3006455 50.9213432,11.3380198 50.9449265,11.3466447 C51.0503888,11.3855872 51.1407473,12.2650606 51.1407473,13.2498618 L51.1407473,14.2500831 L50.938037,14.2733441 C50.8264801,14.2861507 50.1910564,14.3311044 49.5256898,14.3731832 C48.8603233,14.4155234 48.2805455,14.4680566 48.2376186,14.4902721 C48.1946917,14.5124877 47.8160343,14.5647595 47.3963048,14.6065769 C46.5181588,14.6941322 45.4150441,14.8595726 45.3450892,14.914458 C45.3188561,14.9351053 45.1150859,14.9878999 44.8919721,15.0318082 C44.3318029,15.1421018 43.5988663,15.3308031 43.5365958,15.380984 C43.5079779,15.4039836 43.3773424,15.4549486 43.2461769,15.4946752 C42.8508257,15.6141163 42.4369259,15.7683182 42.4114877,15.8059539 C42.3982387,15.8252945 42.2180518,15.9165088 42.0105719,16.0087686 C41.803092,16.1010284 41.5919024,16.2115833 41.5410261,16.2544462 C41.4904148,16.2973091 41.3701135,16.3754554 41.2741905,16.42825 C40.7066018,16.739006 39.549431,17.8897702 39.549431,18.1435499 C39.549431,18.1764811 39.5194882,18.2203894 39.4831859,18.2410368 C39.4166757,18.2786725 39.1204273,18.8808439 39.1198973,18.979115 C39.1196323,19.0078645 39.0854498,19.094897 39.0438478,19.1725207 C39.0025109,19.2501444 38.9603789,19.3455404 38.9503097,19.3842216 C38.7740975,20.0752551 38.7632333,20.1813669 38.7627025,21.2427463 C38.7624383,22.3916809 38.8247088,22.8798998 39.028214,23.3205512 C39.0788253,23.4300607 39.1201623,23.5387861 39.1201623,23.5625698 C39.1201623,23.6381026 39.4111111,24.2418421 39.4802711,24.3100569 C39.5171034,24.3463858 39.5801688,24.4446568 39.6207109,24.5288144 C39.6609879,24.6129721 39.7529362,24.7462652 39.824481,24.8251957 C39.8962908,24.9041261 40.0192418,25.0499645 40.0979411,25.149281 C40.1766404,25.2485974 40.2624941,25.3468685 40.2887272,25.3672545 C40.3149603,25.3879019 40.4368514,25.4914001 40.5595375,25.5977732 C40.6819586,25.7041464 40.7982851,25.7872586 40.8173637,25.7828155 C40.8367073,25.7783724 40.8708899,25.8068605 40.8934132,25.8463257 C40.9156716,25.885791 41.0571713,25.9869369 41.2076803,26.0713559 C41.3581894,26.1557749 41.5028688,26.2501256 41.5291019,26.280966 C41.555335,26.3118063 41.7161783,26.3938731 41.8868259,26.4631333 C42.0572085,26.5326548 42.2789973,26.6319712 42.37969,26.6839817 C42.58664,26.7908776 43.148664,26.9615451 43.5919768,27.0522367 C43.7559998,27.085952 43.8903451,27.1288149 43.8903451,27.1476328 C43.8903451,27.166712 43.9706342,27.1941547 44.069207,27.2085295 C45.0612948,27.3551519 45.4224635,27.3920036 46.2189955,27.4278098 C47.6186237,27.4907973 50.4820052,27.3109822 50.6876303,27.1471101 C50.7138633,27.1264627 50.7997171,27.09902 50.8784164,27.0864748 C51.2146769,27.0326348 51.6537499,26.9503067 51.8087636,26.9121482 C51.900447,26.88941 52.0830187,26.8452403 52.2141841,26.8143999 C52.3453496,26.7832982 52.5170571,26.7310264 52.5957564,26.6980951 C52.6744556,26.6651639 52.8567624,26.6029604 53.0011768,26.5598361 C53.3382323,26.4592129 53.7812801,26.2914203 53.8120178,26.2530005 C53.8252669,26.2365349 53.9270194,26.1821722 54.0385763,26.1322526 L54.2412866,26.0418224 L54.2293624,18.8622874 C54.2206181,13.5525156 54.2033943,11.6655028 54.1628523,11.6166286 C54.1329095,11.5802997 54.0939573,11.4446543 54.0767335,11.3152816 C54.0104884,10.8210515 53.8003587,10.0646782 53.7015209,9.96457767 C53.6686633,9.93112371 53.6010932,9.79835328 53.5515418,9.66924187 C53.4415748,9.3820082 53.2926556,9.12744442 53.2348898,9.12744442 C53.2113065,9.12744442 53.191963,9.10653569 53.191963,9.08066114 C53.191963,8.87993734 52.215774,7.88468182 51.8739489,7.73675256 C51.8106185,7.70930986 51.7708714,7.67507181 51.7857103,7.6604357 C51.8005492,7.64579959 51.6775982,7.56686914 51.5125152,7.48480238 C51.3474322,7.40299697 51.1158391,7.28433993 50.9976577,7.22109103 C50.7999821,7.11524059 50.2180844,6.91765309 49.8767893,6.84002944 C49.79809,6.82225702 49.7228355,6.79403023 49.7098514,6.77730325 C49.6801736,6.73940618 48.9072249,6.59827225 48.3979319,6.5378983 C47.8435923,6.4720358 45.9524249,6.44485445 45.3689374,6.49451268 M79.017513,6.49346725 C78.5294185,6.54025053 77.6507425,6.70752036 77.5285864,6.77651917 C77.4843346,6.80160965 77.287189,6.87269933 77.0903083,6.93464144 C76.5932045,7.09119555 76.3271639,7.20122774 76.3271639,7.25062461 C76.3271639,7.27388557 76.3017257,7.29270343 76.270458,7.29270343 C76.1753299,7.29270343 75.5764735,7.61495922 75.4400084,7.73962752 C75.3692586,7.80444458 75.2857897,7.85723912 75.2545219,7.85723912 C75.2229892,7.85723912 75.1098425,7.94191947 75.0027903,8.04541768 C74.8957381,8.14891589 74.7897458,8.23359625 74.7669574,8.23359625 C74.7020372,8.23359625 73.8943759,9.0636728 73.8943759,9.13031937 C73.8943759,9.16325062 73.8811269,9.17736401 73.8652281,9.16142111 C73.8336954,9.13058073 73.6084618,9.37390607 73.6074018,9.44029129 C73.6071369,9.46224545 73.5265827,9.56835725 73.4285399,9.67577585 C73.330497,9.78345581 73.1860825,10.0001225 73.1073832,10.1574607 C73.028684,10.3147989 72.9481298,10.4436489 72.9282563,10.4441717 C72.8919539,10.4449557 72.5586082,11.1239667 72.5586082,11.1971473 C72.5586082,11.2191014 72.5366148,11.2441919 72.5095867,11.2530781 C72.4825587,11.2619643 72.3776264,11.5073805 72.2761387,11.798796 C72.1749161,12.08995 72.0593845,12.3967856 72.0196374,12.4804205 C71.9324588,12.6636333 71.6711878,13.8324312 71.6250811,14.2440718 C71.6070624,14.4058531 71.5771196,14.5383622 71.558836,14.5383622 C71.5402873,14.5383622 71.5246534,14.5647595 71.5238585,14.597168 C71.5230636,14.6293152 71.4941807,14.8992992 71.4599982,15.1969872 C71.3399619,16.2392873 71.4138915,19.3371769 71.5591009,19.3371769 C71.5773846,19.3371769 71.6073274,19.4678565 71.6256111,19.6275469 C71.6915913,20.2014915 71.9483576,21.294234 72.0604444,21.4779695 C72.0922421,21.5297186 72.1656418,21.7309651 72.2239375,21.9248936 C72.3203905,22.2455812 72.8601562,23.4211745 72.9370006,23.4776281 C72.9886719,23.5155251 73.2743211,23.9925055 73.2743211,24.0405956 C73.2743211,24.064902 73.3039989,24.1014923 73.3400363,24.1221397 C73.3763387,24.142787 73.4759714,24.2656258 73.5615602,24.3949986 C73.7356525,24.6579258 73.8201813,24.7527992 74.3506727,25.2799605 C74.5539129,25.4819911 74.7786166,25.676965 74.8501614,25.713294 C74.9214412,25.7498842 74.992191,25.8110423 75.0072949,25.8497234 C75.0221339,25.8884046 75.116202,25.9613238 75.2158348,26.0120274 C75.3154675,26.0627311 75.445838,26.1497637 75.5054587,26.2054332 C75.679021,26.3669531 76.79247,26.8933304 77.2095496,27.010942 C77.4194143,27.0700091 77.6019861,27.1335194 77.6152351,27.1523372 C77.6597518,27.2150634 78.7310689,27.3810265 79.415779,27.4312074 C80.4012423,27.5033425 82.5062491,27.3112436 82.5679896,27.1437124 C82.5767339,27.1199287 82.6125063,27.1003268 82.6472188,27.1003268 C82.7752045,27.1003268 83.6011494,26.8117863 83.6835584,26.7383444 C83.730195,26.6965269 83.7686172,26.6777091 83.7686172,26.6965269 C83.7686172,26.7153448 83.8022697,26.6975724 83.8433417,26.6568004 C83.8846787,26.6160283 83.949599,26.5828357 83.9874912,26.5828357 C84.0256485,26.5828357 84.14171,26.5300412 84.2455824,26.4652241 C84.3494549,26.4006684 84.4525324,26.3476125 84.4745258,26.3476125 C84.4965192,26.3476125 84.5866126,26.2841023 84.6748512,26.2064786 C84.7630898,26.1288549 84.8600727,26.0653447 84.8902805,26.0653447 C84.9207533,26.0653447 85.0357549,25.9806643 85.1459869,25.8771661 C85.2564839,25.7736679 85.3622112,25.6889876 85.3810248,25.6889876 C85.4764178,25.6889876 86.5829773,24.5434505 86.5829773,24.4449182 C86.5829773,24.4172141 86.6460427,24.3359314 86.7231521,24.2640577 C86.8002615,24.1921839 86.8940646,24.0758791 86.9314269,24.0055735 C87.0617974,23.7593732 87.1322823,23.6399321 87.2290003,23.5003663 C87.4105121,23.2387458 87.8169925,22.3741699 87.947363,21.9719382 C88.0186428,21.7521352 88.0936323,21.5610817 88.1143008,21.547491 C88.1601425,21.5171733 88.414259,20.5151225 88.4900435,20.0666302 C88.5205163,19.8855084 88.5645031,19.6949776 88.5878214,19.6432285 C88.8482974,19.0622272 88.8408779,14.255833 88.579607,14.255833 C88.5570836,14.255833 88.5385349,14.2040839 88.5385349,14.140835 C88.5385349,13.8982937 88.1818709,12.3761382 88.1135059,12.3270027 C88.0954872,12.3139348 88.0530903,12.2080843 88.0191727,12.0917795 C87.9372937,11.8105571 87.6834422,11.1825112 87.6389254,11.1516708 C87.6198468,11.1380801 87.5581063,11.0165481 87.5021954,10.8816868 C87.4460195,10.7465641 87.3021349,10.4865118 87.1823637,10.3038218 C87.0625924,10.1211318 86.9645495,9.95595282 86.9645495,9.93687361 C86.9645495,9.91779439 86.8839954,9.8033191 86.7856875,9.68230983 C86.6871147,9.56156192 86.5474699,9.3820082 86.4748652,9.28321446 C86.2289631,8.94867479 85.048474,7.85723912 84.9326774,7.85723912 C84.9035295,7.85723912 84.8219155,7.80444458 84.7514306,7.74015023 C84.6809457,7.67559453 84.457832,7.5441309 84.2556517,7.44795074 C84.0532064,7.35177059 83.8769943,7.2589881 83.8640102,7.2417384 C83.8197584,7.18397803 83.413278,7.02088994 83.0529043,6.9163463 C82.8562886,6.85910865 82.6737169,6.7961211 82.6474838,6.77625781 C82.589453,6.73261084 82.2648516,6.65995301 81.6935532,6.56298877 C81.1779007,6.47543347 79.6251138,6.43492281 79.017513,6.49346725 M98.7466519,6.47647891 C97.8144497,6.56481829 97.0322267,6.69889551 96.9797605,6.77991684 C96.9654515,6.80187101 96.9116604,6.8274842 96.8605192,6.83663177 C96.5539365,6.89230126 95.7976815,7.16359202 95.7425655,7.23781801 C95.7287865,7.25611315 95.5703281,7.34366845 95.3904062,7.43253055 C95.2104843,7.52165401 95.0525558,7.62175455 95.0395717,7.65520852 C95.0265877,7.68866249 94.9934651,7.71610519 94.966172,7.71610519 C94.7828054,7.71610519 93.6425934,8.88986899 93.6425934,9.07857027 C93.6425934,9.10549026 93.620865,9.12744442 93.5943669,9.12744442 C93.5442856,9.12744442 93.2861943,9.64728771 93.2334632,9.8550682 C93.2167694,9.92066934 93.181527,9.97450932 93.1552939,9.97450932 C93.1293258,9.97450932 93.1200514,10.0061338 93.1351553,10.0450763 C93.1502592,10.0837574 93.1460195,10.1156432 93.125616,10.1156432 C93.0114093,10.1156432 92.8349322,11.2112607 92.8341372,11.9271233 C92.8330773,12.6471676 93.0339327,13.8282495 93.1643032,13.8713737 C93.1913312,13.88026 93.2133246,13.918157 93.2133246,13.9560541 C93.2133246,14.0713135 93.4912894,14.6185995 93.6184802,14.7539835 C93.6841954,14.8240277 93.7379865,14.9118444 93.7379865,14.9492187 C93.7379865,15.0352059 94.857265,16.13788 94.9444436,16.13788 C94.980216,16.13788 95.0613001,16.1930268 95.1251605,16.2601961 C95.1887558,16.3276267 95.3909361,16.4572608 95.5745678,16.5484752 C95.7581994,16.6399509 95.9193077,16.7293357 95.9322917,16.7476308 C95.9805182,16.814016 97.2542805,17.40129 97.5780869,17.506095 C97.7617185,17.5656849 97.9236218,17.6310246 97.9379307,17.6514106 C97.9522397,17.6715353 98.2471632,17.7807834 98.593493,17.8936905 C98.9395578,18.0065977 99.2087782,18.1129708 99.1915545,18.1302205 C99.1743307,18.1472089 99.1963241,18.1610609 99.2403109,18.1610609 C99.2842977,18.1610609 99.3576974,18.1809242 99.4032741,18.2052306 C99.4488507,18.2292757 99.6420217,18.3068993 99.8325428,18.3774663 C100.023064,18.4480332 100.202721,18.5340204 100.231869,18.5685198 C100.261017,18.6032805 100.311098,18.6315073 100.343426,18.6315073 C100.422125,18.6315073 101.048009,18.9608198 101.107895,19.033739 C101.134128,19.0656248 101.245155,19.1463848 101.354857,19.2130314 C101.630437,19.3805626 101.997965,19.746988 102.154569,20.010438 C102.226644,20.13197 102.303223,20.2312865 102.324951,20.2312865 C102.385632,20.2312865 102.556015,20.8250944 102.61325,21.2351669 C102.693275,21.8112023 102.517062,22.8404345 102.316737,22.9656256 C102.281495,22.9878411 102.2701,23.0061362 102.291564,23.0063976 C102.335286,23.0071817 102.081699,23.3670732 101.897008,23.5662288 C100.850069,24.6960843 98.7206837,25.0878616 96.3615605,24.5842226 C96.1649448,24.5421438 95.9341466,24.4956218 95.8488228,24.4807244 C95.763499,24.4655655 95.6938091,24.4381228 95.6938091,24.4195663 C95.6938091,24.4007485 95.5488646,24.3489994 95.3718575,24.3045683 C94.9092012,24.1882635 94.6829077,24.1048899 94.1296279,23.8477126 C93.3892718,23.5035026 93.3961613,23.5021958 93.2384978,24.0304026 C93.2212741,24.0886857 93.1908013,24.136253 93.1711927,24.136253 C93.1388651,24.136253 92.9388046,24.5672342 92.7835259,24.9715568 C92.7511983,25.0554531 92.7074765,25.1244519 92.686013,25.1244519 C92.6648146,25.1244519 92.6327519,25.1720192 92.6149982,25.2303023 C92.5972445,25.288324 92.5540526,25.399663 92.5193402,25.4772867 C92.2615139,26.0522767 92.2617789,26.031368 92.5098009,26.1393093 C92.6213577,26.1876607 92.7249652,26.244637 92.7403341,26.2658071 C92.7700119,26.3068405 93.4912894,26.582313 93.5710486,26.5830971 C93.5972817,26.5833585 93.6831354,26.6170738 93.7618347,26.6581072 C94.0066769,26.7856504 95.172592,27.1003268 95.4002105,27.1003268 C95.4524117,27.1003268 95.502228,27.1199287 95.5109724,27.1437124 C95.6426678,27.5028198 101.133863,27.5022971 101.266883,27.1431897 C101.275628,27.1196674 101.323324,27.1003268 101.372611,27.1003268 C101.421897,27.1003268 101.554387,27.0718386 101.666739,27.0370779 C101.779091,27.0023171 102.026053,26.9260003 102.215249,26.8677172 C102.404446,26.8094341 102.606361,26.7213561 102.663862,26.6722206 C102.721098,26.623085 102.792112,26.5828357 102.82126,26.5828357 C102.905259,26.5828357 103.469138,26.3008292 103.469138,26.2587504 C103.469138,26.2378417 103.553137,26.183479 103.655949,26.1377412 C103.758762,26.0920033 103.92994,25.977528 104.036197,25.8834387 C104.142719,25.7893495 104.316016,25.6408975 104.420949,25.5536035 C104.526146,25.4663096 104.600606,25.3764021 104.586562,25.3536638 C104.572253,25.3311869 104.590006,25.3126304 104.625779,25.3126304 C104.661816,25.3126304 104.754295,25.2255978 104.831404,25.1192247 C104.908513,25.0131129 105.013181,24.882172 105.063792,24.8285933 C105.954922,23.8848256 106.281113,21.3540852 105.729159,19.6662281 C105.661588,19.459493 105.585539,19.2901323 105.560366,19.2901323 C105.535193,19.2901323 105.526713,19.2707917 105.541552,19.2472694 C105.556391,19.2234857 105.551621,19.1970885 105.530688,19.1884636 C105.51002,19.1798388 105.43556,19.0556932 105.36534,18.9129911 C105.29512,18.7700277 105.197077,18.6100759 105.147261,18.5572813 C105.097445,18.5044868 104.978998,18.361262 104.884135,18.2386846 C104.789537,18.1161072 104.641678,17.9585076 104.556089,17.8884634 C104.4705,17.8184191 104.343309,17.7081256 104.27362,17.6435699 C104.104032,17.4862317 103.722725,17.2201681 103.667079,17.2201681 C103.642435,17.2201681 103.611168,17.1908959 103.597389,17.1556124 C103.58361,17.1200676 103.468608,17.0427053 103.341947,16.9838995 C103.215022,16.9248323 103.047024,16.8310044 102.968325,16.7753349 C102.889625,16.7196654 102.653527,16.6028379 102.443663,16.5155439 C102.233798,16.4279886 102.029763,16.3323312 101.990281,16.3025362 C101.908402,16.2405941 101.077952,15.9209519 100.881336,15.8757368 C100.809262,15.8590098 100.750171,15.8294762 100.750171,15.8101357 C100.750171,15.7905337 100.508774,15.6951377 100.213585,15.5979121 C99.9183966,15.5009478 99.6528859,15.4024154 99.623208,15.3788931 C99.5937952,15.3556322 99.3685616,15.2665087 99.1223945,15.1807829 C98.8764924,15.0953185 98.6176062,14.9949566 98.5473864,14.958105 C98.4769015,14.9212533 98.2535227,14.8065167 98.0508125,14.7030185 C97.8481023,14.5995202 97.6191589,14.4565568 97.5417846,14.3854671 C97.4644102,14.3141161 97.3782915,14.255833 97.3507335,14.255833 C97.3035669,14.255833 96.6477396,13.6259575 96.6477396,13.580481 C96.6477396,13.5687199 96.5708952,13.4249724 96.4768271,13.2611002 C96.1151284,12.6296566 96.038284,11.076138 96.3562609,10.8213129 C96.3880585,10.7956997 96.4874263,10.6307821 96.5833493,10.4436489 C96.6737078,10.2674929 97.1225851,9.81690977 97.329005,9.69511642 C97.4278429,9.63657198 97.5375449,9.56077784 97.5722573,9.52627844 C97.6816944,9.41833712 98.181713,9.2343403 98.6035623,9.14652364 C98.826676,9.10000172 99.019847,9.04746853 99.032831,9.02943475 C99.0773478,8.96853808 100.056452,8.93534547 100.463992,8.98134468 C101.166986,9.06027513 102.738851,9.41128042 102.801387,9.50354019 C102.814371,9.52261941 102.964615,9.58743647 103.135262,9.64728771 C103.305645,9.70713894 103.487687,9.78397852 103.539358,9.81821657 C103.591029,9.85245461 103.670523,9.88042004 103.715835,9.88042004 C103.761147,9.88042004 103.815468,9.90916954 103.836401,9.94419166 C103.892312,10.0377582 104.230958,10.1835966 104.277064,10.1339384 C104.298528,10.1109388 104.376697,9.95438467 104.451157,9.78633076 C104.525616,9.61801548 104.602461,9.46904079 104.622069,9.45518876 C104.641943,9.44133672 104.704478,9.32503192 104.761184,9.19644323 C104.81789,9.0681159 104.904539,8.87418744 104.953825,8.76546205 C105.003111,8.65699801 105.043388,8.54592039 105.043388,8.51847768 C105.043388,8.49129633 105.061937,8.46881945 105.084725,8.46881945 C105.119438,8.46881945 105.183033,8.342583 105.36216,7.91735171 C105.376204,7.88415911 105.309164,7.82456923 105.203437,7.77621779 C105.103009,7.73021859 104.986153,7.66409473 104.944021,7.62959533 C104.857902,7.55876701 104.361328,7.34392981 104.19651,7.3062941 C104.137684,7.29270343 104.089193,7.26447664 104.089193,7.24330655 C104.089193,7.20096638 103.544923,7.02454897 102.992173,6.88785815 C102.795292,6.83924536 102.623585,6.78540538 102.610601,6.76841704 C102.47758,6.59644274 99.6989925,6.38657137 98.7466519,6.47647891 M81.0931069,9.17762537 C81.59975,9.27929407 82.1421656,9.43846177 82.1943668,9.50066524 C82.2076158,9.51634679 82.3448758,9.59527724 82.4996245,9.67577585 C83.1056354,9.99149766 83.921511,10.7878589 84.2646611,11.3981324 C84.3407105,11.5337778 84.41676,11.6553098 84.4331888,11.6681164 C84.4763806,11.7023544 84.7702442,12.3484342 84.7702442,12.4095922 C84.7702442,12.4380804 84.7996571,12.4903522 84.8356945,12.525897 C84.9228731,12.6118842 85.240585,13.7498418 85.3118648,14.2323107 C85.3155746,14.2581852 85.3317384,14.2900711 85.3473722,14.3028776 C85.3929489,14.3405134 85.5278241,15.677888 85.5582969,16.3966255 C85.5967191,17.3058939 85.4438252,19.4783109 85.3415427,19.4783109 C85.322729,19.4783109 85.2922562,19.5896499 85.2739726,19.7255566 C85.2236262,20.1008683 84.9340023,21.169043 84.8690821,21.2192239 C84.8523883,21.2322919 84.7787236,21.3956413 84.705589,21.5822518 C84.4427281,22.2523765 83.9784819,22.9389669 83.4262621,23.4744918 C83.0470747,23.8424854 82.9765898,23.9010298 82.9143193,23.9010298 C82.8883512,23.9010298 82.8496641,23.9310861 82.8287306,23.9679378 C82.7868636,24.0413797 81.8954685,24.4948378 81.6535411,24.5659274 C80.91292,24.7833782 79.7777427,24.8210139 78.9507379,24.6560963 C78.4764224,24.561223 77.3764875,24.0994014 77.3764875,23.9945964 C77.3764875,23.9760399 77.2853341,23.9012912 77.1737772,23.8286334 C76.9405942,23.6767837 76.3748604,23.1404748 76.3748604,23.071476 C76.3748604,23.0458628 76.3139148,22.9627506 76.2394552,22.8866951 C76.1649957,22.8106396 76.0211111,22.6002455 75.9196235,22.4191236 C75.8181359,22.2380018 75.7105537,22.064982 75.6806109,22.0349257 C75.6509331,22.0046081 75.5995268,21.9094734 75.5666692,21.8232249 C75.5338116,21.736715 75.4659765,21.5629112 75.4161602,21.4364134 C75.3663438,21.3101769 75.3252718,21.1776678 75.3252718,21.1423844 C75.3252718,21.1071009 75.3061932,21.07809 75.2828749,21.07809 C75.2595566,21.07809 75.2237842,21.0198069 75.2039106,20.9487173 C75.1837721,20.8776276 75.1615137,20.7981744 75.1540942,20.7722999 C75.0738051,20.4884639 74.841947,19.4247323 74.8382372,19.3254158 C74.8358524,19.2543261 74.8183637,19.196043 74.7992851,19.196043 C74.6818986,19.196043 74.5769663,16.2097538 74.6697095,15.5027774 C74.6864033,15.3734046 74.7150212,15.1298179 74.7327749,14.961764 C74.7507936,14.7934487 74.7810014,14.6348037 74.80008,14.6089292 C74.8191586,14.5830546 74.8612906,14.3948761 74.8938832,14.1910159 C74.9739074,13.6873769 75.1482647,13.0073205 75.2632663,12.7504045 C75.3154675,12.6338383 75.4302041,12.3586272 75.5181777,12.1388242 C75.6061513,11.9187598 75.7049891,11.7159451 75.7381117,11.688241 C75.7709693,11.6602756 75.8515235,11.5332551 75.9169737,11.4059732 C75.9824239,11.27843 76.1014003,11.1041034 76.1814245,11.0183776 C76.2614486,10.9326518 76.3271639,10.8464033 76.3271639,10.8268014 C76.3271639,10.7834158 77.0465865,10.0685986 77.0903083,10.0685986 C77.1070021,10.0685986 77.1878212,10.0103155 77.2694353,9.93922584 C78.0172108,9.28791892 79.8370984,8.92541383 81.0931069,9.17762537 M51.1402173,20.4547485 C51.1396873,22.5960638 51.1224636,24.3743512 51.1017951,24.4064984 C51.0379348,24.5055535 49.4149279,24.861786 49.0945662,24.8471498 C49.0317658,24.8442749 48.9551864,24.86257 48.9244486,24.8876605 C48.7341925,25.0434305 45.7645536,25.0476123 45.4773145,24.8926263 C45.4309429,24.8675359 45.2210782,24.8118664 45.0112135,24.7687421 C44.5204692,24.6678575 43.8903451,24.4684405 43.8903451,24.4138164 C43.8903451,24.3905555 43.8683517,24.3714762 43.8415886,24.3714762 C43.8148256,24.3714762 43.6518624,24.2867959 43.479095,24.1832977 C43.3063276,24.0797995 43.1584683,23.9951191 43.1507839,23.9951191 C43.1054722,23.9951191 42.5206598,23.3626301 42.4064531,23.1898717 C42.3314635,23.0764418 42.2442849,22.9538644 42.2127522,22.9172741 C42.023291,22.6990393 41.8391294,21.8362928 41.8391294,21.1666908 C41.8391294,20.479839 42.0455493,19.5182988 42.2217615,19.3842216 C42.2389853,19.371415 42.3142398,19.2548488 42.3889643,19.1254761 C42.5145652,18.9090707 42.942774,18.4631921 43.3267311,18.1495611 C43.4136448,18.0787328 43.6457679,17.9423033 43.8426485,17.8466459 C44.0392642,17.7509885 44.2115017,17.6568992 44.2250157,17.6375586 C44.2528387,17.5983547 44.8336764,17.4067785 45.2115389,17.3124279 C45.3480039,17.2784512 45.4489616,17.2332361 45.4357126,17.2123273 C45.4224635,17.1911572 45.4452519,17.1867141 45.4863239,17.2023957 C45.5273959,17.2178159 45.5875465,17.2089297 45.6201391,17.182271 C45.7139423,17.1056928 47.6464466,16.796505 48.0322585,16.796505 C48.1310964,16.796505 48.232319,16.7774258 48.2572272,16.7539034 C48.2821354,16.7303811 48.699745,16.6867341 49.1851896,16.6569392 C49.6703693,16.6271443 50.1319657,16.5968266 50.210665,16.5895086 C50.2893642,16.5821905 50.5307617,16.5730429 50.7472509,16.5688612 L51.1407473,16.5612818 L51.1402173,20.4547485 M4.05711967,23.7154649 C3.67819725,24.0272663 3.21978062,24.4031007 3.03826883,24.5505072 C2.85702203,24.6979138 2.63178842,24.8834788 2.53745529,24.9626706 C2.23882203,25.2138367 1.17969413,26.0865148 1.02627029,26.207524 C0.945186196,26.271557 0.681000427,26.4884851 0.439338019,26.6892089 L0,27.0545889 L1.75549721,27.0423051 L3.51099442,27.0297598 L3.57511975,26.7710143 C3.61036219,26.6288349 3.65673381,26.5018144 3.67793227,26.4887465 C3.69913073,26.4759399 3.79611367,26.2007287 3.89362657,25.8771661 C3.99087449,25.5536035 4.10932087,25.2044278 4.15622245,25.1009295 C4.26168478,24.869104 4.53673475,23.9896306 4.53673475,23.8840415 C4.53673475,23.8417013 4.55422348,23.8069406 4.57568692,23.8069406 C4.59715036,23.8069406 4.65359125,23.6851472 4.70102279,23.5364339 C4.74845434,23.3877205 4.79774075,23.2395299 4.81019485,23.2071214 C4.86133612,23.0753964 4.71480179,23.1744515 4.05711967,23.7154649" id="path1" fill="#1C1C1C"></path>
            <path d="M24.7166434,6.4638999 C24.6631164,6.49746859 24.6085081,6.54182721 24.5949912,6.56250792 C24.5817446,6.58318863 24.4108909,6.69138771 24.2154363,6.80288372 C24.0199817,6.91467944 23.833989,7.03456762 23.8018188,7.06993463 C23.7696485,7.10500192 23.5790601,7.2293859 23.3784691,7.3465766 C23.1776077,7.46346757 23.0024286,7.57466385 22.989182,7.59354624 C22.9756651,7.61242863 22.8334672,7.70624112 22.6728862,7.80215167 C22.512035,7.89806221 22.3260423,8.01914926 22.2589984,8.0710009 C22.1922248,8.12285254 21.9840644,8.25622813 21.79672,8.36742442 C21.6093755,8.47892042 21.4452802,8.58831838 21.4317633,8.61049769 C21.4185167,8.63297673 21.286862,8.71779761 21.139798,8.79932157 C20.9924637,8.88084553 20.8337751,8.98484852 20.7870066,9.03070575 C20.7402381,9.07626326 20.70185,9.09364704 20.70185,9.06906997 C20.70185,9.04449289 20.6526485,9.07416522 20.592363,9.13530819 C20.5320776,9.19645116 20.4061,9.28906477 20.3125629,9.34121613 C20.2187556,9.39366721 19.9292233,9.57859472 19.6691579,9.75213285 C19.4090925,9.92597071 19.1738982,10.0683379 19.1460534,10.0683379 C19.1184789,10.0683379 19.0957705,10.0938142 19.0957705,10.1249851 C19.0957705,10.156156 19.0219681,10.2158004 18.9319455,10.2574615 C18.6821529,10.3734533 18.4188435,10.5727674 18.4166808,10.648297 C18.4145181,10.7127369 18.3472038,10.7403111 18.2460973,10.7184316 C18.0584826,10.6773699 17.970082,12.5635106 18.1560747,12.6426368 C18.2020322,12.6621186 18.2469084,12.6495304 18.2574515,12.6138636 C18.2679947,12.5787963 18.2996243,12.5503229 18.3280098,12.5503229 C18.3563953,12.5503229 18.4107333,12.5077626 18.4491214,12.4559109 C18.4875094,12.4037596 18.5034594,12.3950677 18.4842653,12.4361294 C18.4650713,12.4771911 18.5523906,12.3980649 18.6780979,12.2607929 C18.8038052,12.1232213 18.9370819,12.0105264 18.9735776,12.0105264 C19.0103436,12.0105264 19.08739,11.9376943 19.1444314,11.8486773 C19.2017431,11.7596604 19.2747344,11.6868283 19.3069046,11.6868283 C19.3388046,11.6868283 19.4642415,11.5816264 19.5850827,11.4533461 C19.7061942,11.324766 19.8405524,11.1970851 19.8835361,11.1698105 C19.964908,11.1185583 20.5829012,10.5374004 20.9838128,10.135775 C21.1095201,10.0095927 21.2363088,9.90648888 21.2655053,9.90648888 C21.2944315,9.90648888 21.3736406,9.83965122 21.4414955,9.75812726 C21.5090801,9.67630358 21.6769601,9.51295594 21.8142919,9.39486609 C21.9518941,9.27677623 22.0643548,9.16198331 22.0643548,9.14010371 C22.0643548,9.1179244 22.1246403,9.06427444 22.1981723,9.02051526 C22.2719746,8.97705579 22.3979522,8.8730528 22.4782427,8.78973052 C22.5588035,8.70670796 22.7339827,8.54276087 22.8675298,8.4258699 C23.0935326,8.22835413 23.3860385,7.95321077 23.6650276,7.67626908 C23.7288274,7.61272835 23.887516,7.4727589 24.017819,7.36485954 C24.1478517,7.2572599 24.2997818,7.10530164 24.3552012,7.02707461 C24.4106205,6.94884757 24.4830712,6.88500712 24.5160524,6.88500712 C24.5920175,6.88500712 24.8869565,6.55051911 24.8869565,6.46419962 C24.8869565,6.38447398 24.8431617,6.38417426 24.7166434,6.4638999 M17.5467323,11.3658277 C17.5751178,11.4563433 17.6075584,11.5204835 17.6183719,11.5081949 C17.6427024,11.4815198 17.5507874,11.2012812 17.5178061,11.2012812 C17.5053705,11.2012812 17.5180764,11.2753121 17.5467323,11.3658277 M17.9522397,12.6042726 C17.971704,12.6783035 18.009281,12.7634241 18.0360445,12.7930964 C18.0684851,12.8290629 18.0730809,12.8020881 18.0495614,12.7121719 C18.0300971,12.6378413 17.9922497,12.5530204 17.9654862,12.523348 C17.9330456,12.4873816 17.9287202,12.5143564 17.9522397,12.6042726" id="path2" fill="#E44632"></path>
            <path d="M14.7478458,11.9088193 C14.7468698,11.9494235 14.7823288,12.0495622 14.8265712,12.131045 C14.9303457,12.3217201 14.9316469,12.2331042 14.8288484,12.0075863 C14.7852566,11.9123859 14.749147,11.8679407 14.7478458,11.9088193 M15.162293,12.9952561 C15.1788839,13.0361347 15.2514284,13.2207741 15.323973,13.4059622 C15.3965175,13.5908759 15.4661342,13.7335393 15.4788214,13.7228396 C15.5071235,13.6989709 15.2250782,12.9905921 15.1710764,12.9502623 C15.1496058,12.9343498 15.1457021,12.9546519 15.162293,12.9952561" id="path3" fill="#74641C"></path>
            <path d="M68.1875802,8.95315515 C68.1875802,9.59388225 68.1942412,9.85587783 68.2025009,9.53551428 C68.2107606,9.21515073 68.2107606,8.69115957 68.2025009,8.37079602 C68.1942412,8.05043247 68.1875802,8.31242805 68.1875802,8.95315515 M14.7621311,14.1354911 C14.7797162,14.20099 14.8140871,14.2865612 14.8385997,14.3256492 C14.8695069,14.3753016 14.8732371,14.3607756 14.8511224,14.2781097 C14.8332709,14.2128749 14.7989,14.1273038 14.7743874,14.0879516 C14.7434802,14.0382992 14.73975,14.0528252 14.7621311,14.1354911 M68.1878466,26.6397057 C68.1878466,27.358873 68.1945077,27.6528257 68.2025009,27.2933741 C68.2107606,26.9339225 68.2107606,26.3454888 68.2025009,25.9860372 C68.1945077,25.6263215 68.1878466,25.9205383 68.1878466,26.6397057" id="path4" fill="#544A18"></path>
        </g>
    </g>
</svg>