<?xml version="1.0" encoding="UTF-8"?>
<svg width="165px" height="57px" viewBox="0 0 165 57" version="1.1" xmlns="http://www.w3.org/2000/svg" xmlns:xlink="http://www.w3.org/1999/xlink">
    <title>LOGO PARTNERS</title>
    <defs>
        <polygon id="path-1" points="0 0 92 0 92 56 0 56"></polygon>
    </defs>
    <g id="LOGO-PARTNERS" stroke="none" stroke-width="1" fill="none" fill-rule="evenodd">
        <rect id="Rectangle" fill="#FFFFFF" x="0" y="0" width="165" height="57"></rect>
        <rect id="Rectangle" fill="#FFFFFF" x="0" y="0" width="5" height="5"></rect>
        <rect id="Rectangle-Copy-3" fill="#FFFFFF" x="0" y="52" width="5" height="5"></rect>
        <rect id="Rectangle-Copy" fill="#FFFFFF" x="160" y="0" width="5" height="5"></rect>
        <rect id="Rectangle-Copy-2" fill="#FFFFFF" x="160" y="52" width="5" height="5"></rect>
        <g id="LogoAgenziaRL-Orizz-Color-Pant-Ordini-Approvvigionamenti" transform="translate(37.000000, 1.000000)">
            <g id="g10" transform="translate(46.000000, 28.000000) scale(-1, 1) rotate(-180.000000) translate(-46.000000, -28.000000) translate(0.000000, 0.000000)">
                <g id="g14-Clipped">
                    <mask id="mask-2" fill="white">
                        <use xlink:href="#path-1"></use>
                    </mask>
                    <g id="path16"></g>
                    <g id="g14" mask="url(#mask-2)">
                        <g transform="translate(2.535307, 5.861860)">
                            <g id="g20" stroke-width="1" fill="none" fill-rule="evenodd" transform="translate(0.000000, 32.629970)">
                                <path d="M3.83274645,10.7531993 L3.83274645,8.59432818 L1.98987104,9.67385131 C1.81664946,9.7750785 1.61380247,9.80204906 1.41966883,9.74933387 C1.22536093,9.6962684 1.06329245,9.57052252 0.963088825,9.39468845 L0.100466293,7.87873253 C-0.106563114,7.51498017 0.0166437806,7.04772389 0.375634167,6.83738851 L2.21850958,5.75804051 L0.375634167,4.67834224 C0.016992315,4.46835712 -0.106563114,4.00110084 0.100466293,3.63699821 L0.963088825,2.12104229 C1.17046677,1.75728993 1.63105492,1.63171919 1.98987104,1.8422297 L3.83274645,2.9215777 L3.83274645,0.76253143 C3.83274645,0.342035802 4.16995344,-1.44811699e-17 4.58436079,-1.44811699e-17 L5.11901249,-1.44811699e-17 L5.11901249,11.5155556 L4.58418652,11.5155556 C4.16995344,11.5155556 3.83274645,11.1733447 3.83274645,10.7531993 M10.518681,4.67834224 L10.518681,4.67834224 L8.67545706,5.75804051 L10.518681,6.83738851 C10.8771486,7.04772389 11.0005297,7.51498017 10.7935003,7.87873253 L9.93087781,9.39468845 C9.83049992,9.57052252 9.66860571,9.6962684 9.4742978,9.74933387 C9.2805127,9.80204906 9.07766571,9.7750785 8.90426986,9.67385131 L7.06104592,8.59432818 L7.06104592,10.7531993 C7.06104592,11.1733447 6.72418747,11.5155556 6.30978012,11.5155556 L5.77495415,11.5155556 L5.77495415,-1.79083801e-15 L6.30978012,-1.79083801e-15 C6.72418747,-1.79083801e-15 7.06104592,0.342035802 7.06104592,0.76253143 L7.06104592,2.9215777 L8.90426986,1.8422297 C9.26291172,1.63171919 9.72349987,1.75693967 9.93087781,2.12104229 L10.7935003,3.63699821 C11.0005297,4.00075057 10.8771486,4.46835712 10.518681,4.67834224" id="path22" fill="#001982" fill-rule="nonzero"></path>
                            </g>
                            <g id="g24" stroke-width="1" fill="none" fill-rule="evenodd" transform="translate(10.776701, 24.810626)">
                                <path d="M7.82860444,8.07891017 L10.2040403,13.6385244 L12.5526391,8.07891017 L7.82860444,8.07891017 Z M11.2867623,19.3349179 L9.09465549,19.3349179 C8.52271061,19.3349179 8.00583416,18.9902551 7.7789383,18.4574988 L0,0.191596092 L3.53762372,0.191596092 C4.1100914,0.191596092 4.62783918,0.537309699 4.85403798,1.07059133 L6.23562817,4.32667409 L14.1452668,4.32667409 L15.5273798,1.07059133 C15.7535786,0.537309699 16.2711522,0.191596092 16.8436198,0.191596092 L20.3812435,0.191596092 L12.6024795,18.4574988 C12.3755837,18.9902551 11.8585329,19.3349179 11.2867623,19.3349179 M54.6627343,3.97080274 L46.4047355,3.97080274 L46.4047355,7.94195574 L54.8542539,7.94195574 L54.8542539,11.584208 L46.4047355,11.584208 L46.4047355,15.5280401 L54.365783,15.5280401 C55.1578273,15.5280401 55.7991306,16.1791866 55.7991306,16.982349 L55.7991306,19.3349179 L42.1933949,19.3349179 L42.1933949,1.64555474 C42.1933949,0.842567458 42.8353952,0.191596092 43.6265682,0.191596092 L56.0964304,0.191596092 L56.0964304,2.51684409 C56.0964304,3.31983137 55.4546043,3.97080274 54.6627343,3.97080274 M32.7991741,10.7080149 C32.285783,10.2407586 31.3280106,10.0045034 29.927251,9.99679756 L26.7836454,9.98103554 L26.7836454,15.6751523 L30.3090704,15.6751523 L30.3081991,15.6593903 C31.4609765,15.6264652 32.2833433,15.4371458 32.7721627,15.089856 C33.3122167,14.7064887 33.5823308,13.9985989 33.5823308,12.9674127 C33.5823308,11.9358761 33.3209301,11.1824516 32.7991741,10.7080149 M37.8745314,12.9812482 C37.8745314,15.2082463 37.2490865,16.8243786 35.9981967,17.8285943 C34.7471326,18.8324598 32.6550552,19.3349179 29.72179,19.3349179 L24.0014699,19.3349179 C23.2099484,19.3349179 22.5681224,18.6835962 22.5681224,17.8809592 L22.5801468,0.191596092 L25.5791107,0.191596092 C26.2441142,0.191596092 26.7836454,0.738363002 26.7836454,1.41332766 L26.7836454,6.36610415 L29.6831027,6.36610415 L29.6785718,6.29885288 L29.6947786,6.29885288 L33.4518047,0.815421759 C33.7194791,0.424698833 34.1589809,0.191596092 34.628631,0.191596092 L39.0623365,0.191596092 L34.2841047,7.03809154 C36.6773159,7.9328488 37.8745314,9.91395939 37.8745314,12.9812482 M72.8959606,19.3349179 C72.1042648,19.3349179 71.4626131,18.6835962 71.4626131,17.8809592 L71.4561652,8.76385744 C71.4561652,7.22968764 71.1053653,6.02004028 70.4032429,5.13491537 C69.70478,4.25329314 68.7653057,3.81108095 67.5858654,3.80670261 C66.4059024,3.81108095 65.4662537,4.25329314 64.7677909,5.13491537 C64.066017,6.02004028 63.7148686,7.22968764 63.7148686,8.76385744 L63.7084207,17.8809592 C63.7084207,18.6835962 63.0671175,19.3349179 62.2752474,19.3349179 L59.4972543,19.3349179 L59.4972543,8.62672788 C59.4972543,5.85121155 60.2532254,3.71983638 61.7649931,2.23155156 C63.2767609,0.743792142 65.2114751,0 67.5691358,0 C67.574538,0 67.5801146,0.000350267079 67.5858654,0.000350267079 C67.5910934,0.000350267079 67.5970185,0 67.6020723,0 C69.9595586,0 71.8946214,0.743792142 73.4065634,2.23155156 C74.9181569,3.71983638 75.674128,5.85121155 75.674128,8.62672788 L75.674128,19.3349179 L72.8959606,19.3349179 Z" id="path26" fill="#90253B" fill-rule="nonzero"></path>
                            </g>
                            <g id="g28" stroke-width="1" fill="none" fill-rule="evenodd" transform="translate(22.197074, -0.000000)">
                                <path d="M9.56761661,3.71458237 C8.88832315,3.44662805 8.12555571,3.78831359 7.86276081,4.47851487 C7.67664346,4.96678718 7.1332784,5.2123244 6.64986125,5.01880184 C6.16783823,4.83053328 5.9275238,4.27991343 6.11468675,3.78971466 C6.37939859,3.09951338 6.04254013,2.32647394 5.36359521,2.05869475 C4.68482455,1.79301718 3.92101151,2.13382704 3.65682247,2.82490399 C3.39315622,3.51142746 3.73106028,4.28656851 4.40895961,4.55329689 C4.89098262,4.74384218 5.1321684,5.29236042 4.94361131,5.78361 C4.75819103,6.27415905 4.21430317,6.51584333 3.73175735,6.32652397 C3.05298669,6.05927019 2.28865085,6.39902926 2.02585595,7.08923054 C1.76201544,7.77838102 2.1004423,8.55142046 2.77956149,8.82095098 C3.45798362,9.08680369 4.22284226,8.74564355 4.48528863,8.05684334 C4.67158024,7.5678705 5.21372543,7.32390948 5.69714259,7.51445477 C6.17829427,7.70342386 6.4180859,8.25544478 6.23022588,8.74564355 C5.96795378,9.43234216 6.3049865,10.2062573 6.98253729,10.4745619 C7.66235355,10.7412902 8.42634086,10.4001301 8.69070417,9.70992882 C8.95280201,9.02252968 8.61664062,8.24808917 7.9392641,7.97978459 C7.45602122,7.79046523 7.21483544,7.23861945 7.40374106,6.75262388 C7.58933561,6.2613743 8.13392054,6.01846408 8.61664062,6.2102353 C9.29541128,6.47468695 10.0573074,6.13492788 10.3207994,5.44542714 C10.5830715,4.75767773 10.2465615,3.98166102 9.56761661,3.71458237 M12.0218213,12.1975256 C11.7022153,12.5229237 11.4490051,12.5316804 10.9605342,12.5316804 L1.49190131,12.5316804 C1.00377895,12.5316804 0.725474262,12.4952526 0.379728181,12.1451607 C0.0338078326,11.7952439 0,11.5131037 0,11.0171256 L0,1.41070066 C0,0.915948411 0.00941042762,0.659377776 0.327796562,0.333804526 C0.648970971,0.00945721112 0.901309845,0 1.38943221,0 L10.9605342,0 C11.4490051,0 11.7022153,0.00945721112 12.0218213,0.333804526 C12.3402074,0.659377776 12.351709,0.915948411 12.351709,1.41070066 L12.351709,11.1218554 C12.351709,11.6146812 12.3402074,11.8742291 12.0218213,12.1975256" id="path30" fill="#00702D" fill-rule="nonzero"></path>
                            </g>
                            <g id="g32" stroke-width="1" fill="none" fill-rule="evenodd" transform="translate(36.480482, 6.888528)">
                                <path d="M2.33640006,0 L1.46419283,1.5320682 L0.521058863,1.5320682 L0.521058863,0 L0,0 L0,3.6014461 L1.88888194,3.6014461 C2.16509542,3.6014461 2.40384145,3.49864272 2.60616565,3.29461214 C2.80726997,3.08900537 2.9085192,2.84679568 2.9085192,2.56623175 C2.9085192,2.31368919 2.82661363,2.09144473 2.66158261,1.89879783 C2.49899133,1.70422447 2.29614434,1.58600933 2.05408723,1.54485295 L2.93866742,0 L2.33640006,0 Z M2.38763461,2.56920902 C2.38763461,2.70949099 2.33796846,2.82928233 2.23968177,2.92910845 C2.14139508,3.02945996 2.02481034,3.07954816 1.88888194,3.07954816 L0.521058863,3.07954816 L0.521058863,2.06114662 L1.88888194,2.06114662 C2.02481034,2.06114662 2.14139508,2.11123482 2.23968177,2.21158633 C2.33796846,2.31176272 2.38763461,2.43050326 2.38763461,2.56920902" id="path34" fill="#292723" fill-rule="nonzero"></path>
                            </g>
                            <g id="g36" stroke-width="1" fill="none" fill-rule="evenodd" transform="translate(39.940836, 6.845024)">
                                <path d="M2.77851589,1.40036778 C2.77851589,1.31210048 2.77067386,1.22488397 2.75568689,1.1373172 L0.55887484,1.1373172 C0.617951414,0.952901587 0.724080125,0.804388346 0.876563906,0.691602347 C1.02939622,0.57794068 1.19913245,0.520321745 1.38786381,0.520321745 C1.69596818,0.520321745 1.94534451,0.666558251 2.1349472,0.957279926 L2.57253208,0.665857717 C2.27924042,0.221719061 1.88417673,0 1.38786381,0 C1.00639295,0 0.678944926,0.135378226 0.406565327,0.407010345 C0.134882796,0.682320269 0,1.01349779 0,1.40036778 C0,1.78723777 0.134882796,2.11824016 0.406565327,2.39337495 C0.678944926,2.67026107 1.00639295,2.80861657 1.38786381,2.80861657 C1.76881186,2.80861657 2.09625989,2.67026107 2.36916229,2.39337495 C2.64189042,2.11683909 2.77851589,1.78496103 2.77851589,1.40036778 M2.21650424,1.65816435 C2.15690486,1.8443313 2.05147322,1.99301968 1.89881517,2.10598081 C1.74964247,2.22226948 1.57920917,2.27988841 1.38786381,2.27988841 C1.19599564,2.27988841 1.02608514,2.22226948 0.876563906,2.10598081 C0.722337453,1.98776567 0.616208742,1.8385519 0.55887484,1.65816435 L2.21650424,1.65816435 Z" id="path38" fill="#292723" fill-rule="nonzero"></path>
                            </g>
                            <g id="g40" stroke-width="1" fill="none" fill-rule="evenodd" transform="translate(43.273347, 5.787463)">
                                <path d="M2.77869015,1.40071805 C2.77869015,1.02050313 2.64154189,0.692828282 2.36689681,0.417868625 C2.09399441,0.139406297 1.76776625,0 1.38821234,0 C1.15417152,0 0.9312838,0.0607713381 0.719200644,0.182839415 C0.514088175,0.305257759 0.342435005,0.468307084 0.202846995,0.672687925 L0.64287162,0.964110134 C0.832997111,0.674088993 1.08132784,0.528903289 1.38821234,0.528903289 C1.6454307,0.528903289 1.85158877,0.614543589 2.00564095,0.787050126 C2.15010844,0.947997848 2.23183975,1.1586835 2.25222901,1.41858167 C1.99501065,1.17759792 1.69196003,1.05728118 1.34481981,1.05728118 C0.970668182,1.05728118 0.652630582,1.19528641 0.391752616,1.47024606 C0.130526116,1.74555599 0,2.07445677 0,2.45799922 C0,2.84294274 0.130526116,3.17341973 0.391752616,3.44802912 C0.652630582,3.72631632 0.970668182,3.86589775 1.34481981,3.86589775 C1.69196003,3.86589775 1.99657906,3.74102753 2.25797983,3.49216277 L2.25797983,3.82246463 L2.77869015,3.82246463 L2.77869015,1.40071805 Z M2.25797983,2.45799922 C2.25797983,2.69670624 2.17189184,2.90283841 2.00076147,3.07692115 C1.82945684,3.25047849 1.62504144,3.33751986 1.38821234,3.33751986 C1.15051191,3.33751986 0.946270777,3.25047849 0.77566321,3.07692115 C0.605752711,2.90511515 0.52123313,2.69828244 0.52123313,2.45799922 C0.52123313,2.21561441 0.605752711,2.0082563 0.77566321,1.83627516 C0.944702372,1.66481942 1.14911777,1.57795319 1.38821234,1.57795319 C1.62695837,1.57795319 1.83137377,1.66481942 2.00076147,1.83627516 C2.17189184,2.0098325 2.25797983,2.21701547 2.25797983,2.45799922" id="path42" fill="#292723" fill-rule="nonzero"></path>
                            </g>
                            <path d="M47.0407423,10.4898335 L47.884779,10.4898335 L47.884779,9.96793555 L47.0407423,9.96793555 L47.0407423,10.4898335 Z M47.0407423,9.61013773 L47.884779,9.61013773 L47.884779,6.88821226 L47.0407423,6.88821226 L47.0407423,9.61013773 Z" id="path44" fill="#292723" fill-rule="nonzero"></path>
                            <g id="g46" stroke-width="1" fill="none" fill-rule="evenodd" transform="translate(48.332550, 6.845024)">
                                <path d="M2.77834162,1.40036778 C2.77834162,1.01489886 2.64206469,0.684246738 2.36881375,0.407010345 C2.09625989,0.135378226 1.76863759,0 1.38786381,0 C1.00639295,0 0.679119193,0.135378226 0.406565327,0.407010345 C0.134882796,0.682320269 0,1.01349779 0,1.40036778 C0,1.78723777 0.134882796,2.11824016 0.406565327,2.39337495 C0.679119193,2.67026107 1.00639295,2.80861657 1.38786381,2.80861657 C1.76863759,2.80861657 2.09625989,2.67026107 2.36881375,2.39337495 C2.64206469,2.11683909 2.77834162,1.78496103 2.77834162,1.40036778 M2.25728276,1.40036778 C2.25728276,1.63907479 2.17189184,1.84555724 2.00041294,2.01946484 C1.8291083,2.19284705 1.62504144,2.27988841 1.38786381,2.27988841 C1.15033764,2.27988841 0.945922243,2.19284705 0.774966141,2.01946484 C0.605404177,1.84748371 0.52123313,1.64082613 0.52123313,1.40036778 C0.52123313,1.15833323 0.605404177,0.950624851 0.774966141,0.778818849 C0.944702372,0.607187981 1.14876924,0.520321745 1.38786381,0.520321745 C1.62660984,0.520321745 1.83102524,0.607187981 2.00041294,0.778818849 C2.17189184,0.952201053 2.25728276,1.1597343 2.25728276,1.40036778" id="path48" fill="#292723" fill-rule="nonzero"></path>
                            </g>
                            <g id="g50" stroke-width="1" fill="none" fill-rule="evenodd" transform="translate(51.883923, 6.888528)">
                                <path d="M1.82022068,0 L1.82022068,1.57585159 C1.82022068,1.75466293 1.75609035,1.91000638 1.62730691,2.03995547 C1.50096321,2.17113049 1.34813089,2.23628016 1.17037837,2.23628016 C0.995065587,2.23628016 0.842059005,2.17113049 0.713798362,2.03995547 C0.585363451,1.91000638 0.521058863,1.75466293 0.521058863,1.57585159 L0.521058863,0 L0,0 L0,2.7215752 L0.521058863,2.7215752 L0.521058863,2.46552997 C0.73244495,2.6657076 0.978684472,2.76518345 1.26012596,2.76518345 C1.56997301,2.76518345 1.8291083,2.64294024 2.03944879,2.39897922 C2.24055311,2.16815322 2.34110527,1.89441949 2.34110527,1.57585159 L2.34110527,0 L1.82022068,0 Z" id="path52" fill="#292723" fill-rule="nonzero"></path>
                            </g>
                            <g id="g54" stroke-width="1" fill="none" fill-rule="evenodd" transform="translate(54.997921, 6.845024)">
                                <path d="M2.77903869,1.40036778 C2.77903869,1.31210048 2.77119667,1.22488397 2.75603542,1.1373172 L0.559223375,1.1373172 C0.618648482,0.952901587 0.724602927,0.804388346 0.877609509,0.691602347 C1.02974476,0.57794068 1.19965525,0.520321745 1.38838661,0.520321745 C1.69701378,0.520321745 1.94569304,0.666558251 2.13547,0.957279926 L2.57288062,0.665857717 C2.27958896,0.221719061 1.8848738,0 1.38838661,0 C1.00674149,0 0.679816262,0.135378226 0.406565327,0.407010345 C0.13523133,0.682320269 0,1.01349779 0,1.40036778 C0,1.78723777 0.13523133,2.11824016 0.406565327,2.39337495 C0.679816262,2.67026107 1.00674149,2.80861657 1.38838661,2.80861657 C1.76933466,2.80861657 2.09625989,2.67026107 2.36933655,2.39337495 C2.64241322,2.11683909 2.77903869,1.78496103 2.77903869,1.40036778 M2.21720131,1.65816435 C2.15760193,1.8443313 2.05199602,1.99301968 1.89881517,2.10598081 C1.749991,2.22226948 1.5795577,2.27988841 1.38838661,2.27988841 C1.19686698,2.27988841 1.02643368,2.22226948 0.877609509,2.10598081 C0.722337453,1.98776567 0.61690581,1.8385519 0.559223375,1.65816435 L2.21720131,1.65816435 Z" id="path56" fill="#292723" fill-rule="nonzero"></path>
                            </g>
                            <g id="g58" stroke-width="1" fill="none" fill-rule="evenodd" transform="translate(36.480273, 2.191481)">
                                <polygon id="path60" fill="#292723" fill-rule="nonzero" points="0 0 0 3.60109584 0.52123313 3.60109584 0.52123313 0.520496879 2.25763129 0.520496879 2.25763129 0"></polygon>
                            </g>
                            <g id="g62" stroke-width="1" fill="none" fill-rule="evenodd" transform="translate(39.073578, 2.147628)">
                                <path d="M2.77851589,1.40036778 C2.77851589,1.01524913 2.64223895,0.684597005 2.36951082,0.407360612 C2.09660842,0.135728493 1.76916039,0 1.38786381,0 C1.00639295,0 0.67929346,0.135728493 0.406739594,0.407360612 C0.135405597,0.682670536 0,1.01384806 0,1.40036778 C0,1.78758804 0.135405597,2.11824016 0.406739594,2.39372522 C0.67929346,2.67096161 1.00639295,2.8093171 1.38786381,2.8093171 C1.76916039,2.8093171 2.09660842,2.67096161 2.36951082,2.39372522 C2.64223895,2.11718936 2.77851589,1.78566157 2.77851589,1.40036778 M2.25763129,1.40036778 C2.25763129,1.63942506 2.17224038,1.8459075 2.0005872,2.01981511 C1.8296311,2.19319731 1.6257385,2.28006355 1.38786381,2.28006355 C1.15051191,2.28006355 0.946270777,2.19319731 0.775314675,2.01981511 C0.605926978,1.84783397 0.52123313,1.6411764 0.52123313,1.40036778 C0.52123313,1.15833323 0.605926978,0.951325386 0.775314675,0.779169116 C0.944528105,0.607187981 1.14876924,0.520672012 1.38786381,0.520672012 C1.62730691,0.520672012 1.83102524,0.607187981 2.0005872,0.779169116 C2.17224038,0.95255132 2.25763129,1.16008456 2.25763129,1.40036778" id="path64" fill="#292723" fill-rule="nonzero"></path>
                            </g>
                            <g id="g66" stroke-width="1" fill="none" fill-rule="evenodd" transform="translate(42.625073, 2.191481)">
                                <path d="M3.12182223,0 L3.12182223,1.66376862 C3.12182223,1.8135078 3.07180755,1.94625902 2.97230099,2.06377363 C2.87314297,2.1790115 2.75011034,2.23628016 2.60302884,2.23628016 C2.44200597,2.23628016 2.31426813,2.18286443 2.21911825,2.07655838 C2.12780224,1.96955178 2.08196998,1.83154655 2.08196998,1.66376862 L2.08196998,0 L1.56073685,0 L1.56073685,1.66376862 C1.56073685,1.8135078 1.51072217,1.94625902 1.41121561,2.06377363 C1.31345172,2.1790115 1.18937349,2.23628016 1.04089785,2.23628016 C0.881791921,2.23628016 0.75527395,2.18286443 0.660472605,2.07655838 C0.567239665,1.97130312 0.520884595,1.83399842 0.520884595,1.66376862 L0.520884595,0 L0,0 L0,2.72140007 L0.520884595,2.72140007 L0.520884595,2.55064487 C0.696720178,2.6939041 0.899567173,2.76518345 1.12785718,2.76518345 C1.4091244,2.76518345 1.64194535,2.64784398 1.82684283,2.41439097 C2.03021262,2.64784398 2.28899938,2.76518345 2.60337737,2.76518345 C2.8952749,2.76518345 3.14099162,2.65607526 3.34087607,2.43715833 C3.5425032,2.21754087 3.64305536,1.96009457 3.64305536,1.66376862 L3.64305536,0 L3.12182223,0 Z" id="path68" fill="#292723" fill-rule="nonzero"></path>
                            </g>
                            <g id="g70" stroke-width="1" fill="none" fill-rule="evenodd" transform="translate(47.259953, 2.147628)">
                                <path d="M2.77590188,1.40036778 C2.77590188,1.01840153 2.64415589,0.689500744 2.38153526,0.412964886 C2.12100582,0.138005229 1.80488516,0 1.4319534,0 C1.0799337,0 0.776011744,0.121892943 0.520710328,0.366204231 L0.520710328,0.0437833848 L0,0.0437833848 L0,3.64487922 L0.520710328,3.64487922 L0.520710328,2.4348816 C0.776011744,2.68392149 1.0799337,2.8093171 1.4319534,2.8093171 C1.80296822,2.8093171 2.11961169,2.66938541 2.38153526,2.39074795 C2.64415589,2.10895808 2.77590188,1.77865623 2.77590188,1.40036778 M2.25432022,1.40036778 C2.25432022,1.63942506 2.16910357,1.8459075 1.9979732,2.01981511 C1.8270171,2.19319731 1.62382157,2.28006355 1.38908368,2.28006355 C1.15190605,2.28006355 0.948013449,2.19319731 0.776534546,2.01981511 C0.605926978,1.8459075 0.520710328,1.63942506 0.520710328,1.40036778 C0.520710328,1.16008456 0.605926978,0.95255132 0.776534546,0.779169116 C0.94609651,0.607187981 1.14998911,0.520672012 1.38908368,0.520672012 C1.62556424,0.520672012 1.8291083,0.607187981 1.9979732,0.779169116 C2.16910357,0.95255132 2.25432022,1.16008456 2.25432022,1.40036778" id="path72" fill="#292723" fill-rule="nonzero"></path>
                            </g>
                            <g id="g74" stroke-width="1" fill="none" fill-rule="evenodd" transform="translate(50.589990, 2.147698)">
                                <path d="M2.25728276,0.0437833848 L2.25728276,0.366029097 C2.00145854,0.12171781 1.69736231,0 1.34499408,0 C0.969971113,0 0.652979116,0.137654962 0.391752616,0.412789752 C0.130003315,0.688099676 0,1.01735073 0,1.40036778 C0,1.78548643 0.130003315,2.11613856 0.391752616,2.39074795 C0.652979116,2.66921027 0.969971113,2.80896684 1.34499408,2.80896684 C1.69736231,2.80896684 2.00145854,2.68409662 2.25728276,2.4348816 L2.25728276,2.76518345 L2.77869015,2.76518345 L2.77869015,0.0437833848 L2.25728276,0.0437833848 Z M2.25728276,1.40036778 C2.25728276,1.63924993 2.17189184,1.8459075 2.00076147,2.01963998 C1.82980537,2.19319731 1.62556424,2.28006355 1.38768954,2.28006355 C1.15033764,2.28006355 0.946619311,2.19319731 0.774966141,2.01963998 C0.605404177,1.84783397 0.520884595,1.6417018 0.520884595,1.40036778 C0.520884595,1.15833323 0.605404177,0.951150252 0.774966141,0.778993983 C0.944702372,0.607187981 1.14894351,0.520496879 1.38768954,0.520496879 C1.62730691,0.520496879 1.83119951,0.607187981 2.00076147,0.778993983 C2.17189184,0.95255132 2.25728276,1.15990943 2.25728276,1.40036778" id="path76" fill="#292723" fill-rule="nonzero"></path>
                            </g>
                            <g id="g78" stroke-width="1" fill="none" fill-rule="evenodd" transform="translate(54.357751, 2.191481)">
                                <path d="M1.21516503,2.23628016 C1.02835062,2.23628016 0.865236539,2.17375749 0.726694133,2.04801161 C0.589023062,1.9241922 0.521058863,1.76674714 0.521058863,1.57585159 L0.521058863,0 L0,0 L0,2.72140007 L0.521058863,2.72140007 L0.521058863,2.48391899 C0.710487285,2.67148701 0.941914098,2.76518345 1.21516503,2.76518345 L1.21516503,2.23628016 Z" id="path80" fill="#292723" fill-rule="nonzero"></path>
                            </g>
                            <g id="g82" stroke-width="1" fill="none" fill-rule="evenodd" transform="translate(56.017977, 2.147698)">
                                <path d="M2.25693422,0.0437833848 L2.25693422,0.366029097 C2.00041294,0.12171781 1.69614244,0 1.34394848,0 C0.969448312,0 0.651933513,0.137654962 0.390707013,0.412789752 C0.129131979,0.688099676 0,1.01735073 0,1.40036778 C0,1.78548643 0.129131979,2.11613856 0.390707013,2.39074795 C0.651933513,2.66921027 0.969448312,2.80896684 1.34394848,2.80896684 C1.69614244,2.80896684 2.00041294,2.68409662 2.25693422,2.4348816 L2.25693422,3.64487922 L2.77816735,3.64487922 L2.77816735,0.0437833848 L2.25693422,0.0437833848 Z M2.25693422,1.40036778 C2.25693422,1.63924993 2.1710205,1.8459075 2.00023867,2.01963998 C1.8291083,2.19319731 1.62538997,2.28006355 1.38751527,2.28006355 C1.14981484,2.28006355 0.94609651,2.19319731 0.774617607,2.01963998 C0.60522991,1.84783397 0.520536061,1.6417018 0.520536061,1.40036778 C0.520536061,1.15833323 0.60522991,0.951150252 0.774617607,0.778993983 C0.944179571,0.607187981 1.14859497,0.520496879 1.38751527,0.520496879 C1.62643557,0.520496879 1.83119951,0.607187981 2.00023867,0.778993983 C2.1710205,0.95255132 2.25693422,1.15990943 2.25693422,1.40036778" id="path84" fill="#292723" fill-rule="nonzero"></path>
                            </g>
                            <path d="M59.7847267,5.79240171 L60.6287634,5.79240171 L60.6287634,5.27085403 L59.7847267,5.27085403 L59.7847267,5.79240171 Z M59.7847267,4.91288107 L60.6287634,4.91288107 L60.6287634,2.191481 L59.7847267,2.191481 L59.7847267,4.91288107 Z" id="path86" fill="#292723" fill-rule="nonzero"></path>
                            <g id="g88" stroke-width="1" fill="none" fill-rule="evenodd" transform="translate(61.076482, 2.147698)">
                                <path d="M2.25728276,0.0437833848 L2.25728276,0.366029097 C2.00145854,0.12171781 1.69736231,0 1.34499408,0 C0.969971113,0 0.652979116,0.137654962 0.391752616,0.412789752 C0.130177582,0.688099676 0,1.01735073 0,1.40036778 C0,1.78548643 0.130177582,2.11613856 0.391752616,2.39074795 C0.652979116,2.66921027 0.969971113,2.80896684 1.34499408,2.80896684 C1.69736231,2.80896684 2.00145854,2.68409662 2.25728276,2.4348816 L2.25728276,2.76518345 L2.77869015,2.76518345 L2.77869015,0.0437833848 L2.25728276,0.0437833848 Z M2.25728276,1.40036778 C2.25728276,1.63924993 2.17154331,1.8459075 2.00076147,2.01963998 C1.8301539,2.19319731 1.62538997,2.28006355 1.38786381,2.28006355 C1.15068618,2.28006355 0.946967846,2.19319731 0.774966141,2.01963998 C0.605404177,1.84783397 0.520884595,1.6417018 0.520884595,1.40036778 C0.520884595,1.15833323 0.605404177,0.951150252 0.774966141,0.778993983 C0.944702372,0.607187981 1.14859497,0.520496879 1.38786381,0.520496879 C1.62730691,0.520496879 1.83119951,0.607187981 2.00076147,0.778993983 C2.17154331,0.95255132 2.25728276,1.15990943 2.25728276,1.40036778" id="path90" fill="#292723" fill-rule="nonzero"></path>
                            </g>
                            <g id="g92" stroke-width="1" fill="none" fill-rule="evenodd" transform="translate(22.332392, 14.786893)">
                                <path d="M1.12158356,1.98864134 C1.10764218,2.09161986 1.07000047,2.17673476 1.00848416,2.24293524 C0.945747976,2.31071192 0.865236539,2.34433756 0.767298385,2.34433756 C0.665352086,2.34433756 0.57804423,2.30808491 0.505374816,2.23522936 C0.430962731,2.16377488 0.39401809,2.07760918 0.39401809,1.97515606 C0.39401809,1.8161348 0.48969077,1.69091432 0.681384666,1.60054542 C0.769215324,1.55956417 0.857394516,1.51875805 0.945399441,1.47795194 C1.0337529,1.43714582 1.12158356,1.39633971 1.20958848,1.35588386 C1.40110811,1.2219067 1.49678079,1.02225447 1.49678079,0.757277424 C1.49678079,0.546942043 1.42202017,0.367780433 1.2721504,0.219792592 C1.12437183,0.073380953 0.945747976,0 0.737150163,0 C0.549812947,0 0.389835677,0.0595454034 0.256347019,0.177760542 C0.120767154,0.300178886 0.0353762372,0.454646668 0,0.640638487 L0.377288441,0.744142409 C0.391926884,0.641689288 0.429742861,0.558325723 0.490039305,0.493526314 C0.556609367,0.421721563 0.639037742,0.386169454 0.737150163,0.386169454 C0.837702325,0.386169454 0.925010181,0.422422097 0.999422266,0.495102516 C1.07331155,0.567958068 1.11043046,0.655174571 1.11043046,0.757277424 C1.11043046,0.912620873 1.01493205,1.03556462 0.824109485,1.12628379 C0.643045887,1.20789602 0.497184259,1.2777743 0.386524601,1.3357435 C0.275864943,1.39371271 0.196573377,1.43907229 0.148998437,1.47234767 C0.0548941611,1.53854814 0.00731922148,1.70650121 0.00731922148,1.97515606 C0.00731922148,2.1858417 0.0820798409,2.36465305 0.230904011,2.51281602 C0.383736326,2.66027846 0.562534451,2.73435995 0.767298385,2.73435995 C0.954461334,2.73435995 1.11426434,2.67323834 1.24601032,2.55064487 C1.37915045,2.42997786 1.46401856,2.27480954 1.5004404,2.08619072 L1.12158356,1.98864134 Z" id="path94" fill="#00702D" fill-rule="nonzero"></path>
                            </g>
                            <path d="M24.4077925,16.836673 L25.1451513,16.836673 L25.1451513,14.8193097 L24.4077925,14.8193097 L24.4077925,16.836673 Z M24.4077925,17.4888703 L25.1451513,17.4888703 L25.1451513,17.1025257 L24.4077925,17.1025257 L24.4077925,17.4888703 Z" id="path96" fill="#00702D" fill-rule="nonzero"></path>
                            <g id="g98" stroke-width="1" fill="none" fill-rule="evenodd" transform="translate(25.372814, 14.786717)">
                                <path d="M1.18937349,0.594928633 C1.18937349,0.429077171 1.13029692,0.288094672 1.01214377,0.172156269 C0.892770753,0.0576189344 0.752485675,0 0.591811337,0 C0.447518113,0 0.321697211,0.0446590525 0.215045698,0.134327425 C0.107000047,0.225922266 0.0369446418,0.343962271 0.00575081688,0.489848509 L0.378682578,0.591075695 C0.403951319,0.454646668 0.475052328,0.386169454 0.591811337,0.386169454 C0.647054032,0.386169454 0.696720178,0.407010345 0.740984041,0.44781646 C0.784725103,0.489848509 0.806857035,0.538710767 0.806857035,0.594928633 C0.806857035,0.687749409 0.736975896,0.765158433 0.597562154,0.826104905 C0.373803097,0.92680669 0.244322584,0.991430966 0.209294881,1.0192772 C0.0697068712,1.12383192 0,1.2761981 0,1.47637574 C0,1.6396002 0.0583795047,1.7816335 0.175138514,1.9028259 C0.293291661,2.02261725 0.434099541,2.08251292 0.597562154,2.08251292 C0.742203912,2.08251292 0.86767628,2.03610253 0.974676327,1.94293149 C1.0773197,1.85361338 1.14598096,1.73592364 1.17996306,1.58933687 L0.803197424,1.48986102 C0.773920538,1.62366304 0.705607804,1.69038892 0.597562154,1.69038892 C0.539879718,1.69038892 0.489342236,1.66972316 0.446821045,1.62751598 C0.405345456,1.5853088 0.384607662,1.53469521 0.384607662,1.47637574 C0.384607662,1.38443063 0.454314533,1.30737187 0.593902543,1.24519946 C0.704213667,1.19651234 0.791172989,1.15605649 0.854780509,1.12348165 C0.918388029,1.09108195 0.960037884,1.06743892 0.98007861,1.05185204 C1.11966662,0.944670311 1.18937349,0.792479265 1.18937349,0.594928633" id="path100" fill="#00702D" fill-rule="nonzero"></path>
                            </g>
                            <g id="g102" stroke-width="1" fill="none" fill-rule="evenodd" transform="translate(26.901312, 14.819100)">
                                <polygon id="path104" fill="#00702D" fill-rule="nonzero" points="0.707001942 1.62558951 0.707001942 0 0.320651608 0 0.320651608 1.62558951 0 1.62558951 0 2.01736324 0.320651608 2.01736324 0.320651608 2.66956054 0.707001942 2.66956054 0.707001942 2.01736324 1.02939622 2.01736324 1.02939622 1.62558951"></polygon>
                            </g>
                            <g id="g106" stroke-width="1" fill="none" fill-rule="evenodd" transform="translate(28.106038, 14.786998)">
                                <path d="M1.64351376,1.22943745 C1.59942416,1.36709241 1.5211782,1.47760167 1.40790453,1.56096524 C1.29724487,1.64730607 1.17107544,1.69003865 1.02887342,1.69003865 C0.887019937,1.69003865 0.7608505,1.64730607 0.650190842,1.56096524 C0.535871573,1.47374873 0.457277075,1.36306434 0.41440735,1.22943745 L1.64351376,1.22943745 Z M2.06001231,1.03819162 C2.06001231,0.973217078 2.05443576,0.908067401 2.0431084,0.843092858 L0.41440735,0.843092858 C0.458671213,0.706838965 0.537091443,0.596679968 0.650190842,0.512265603 C0.76329024,0.42802637 0.889633944,0.385819187 1.02887342,0.385819187 C1.25768622,0.385819187 1.44240943,0.493876581 1.58321731,0.709465968 L1.90752853,0.493526314 C1.69004309,0.16427526 1.39727423,0 1.02887342,0 C0.746212057,0 0.503806412,0.100351518 0.301656485,0.302280489 C0.100377895,0.506135929 0,0.751322884 0,1.03819162 C0,1.32488522 0.100377895,1.57059758 0.301656485,1.77427789 C0.503806412,1.97953439 0.746212057,2.08216265 1.02887342,2.08216265 C1.31188332,2.08216265 1.55428896,1.97953439 1.75643889,1.77427789 C1.95911162,1.56919651 2.06001231,1.32365929 2.06001231,1.03819162" id="path108" fill="#00702D" fill-rule="nonzero"></path>
                            </g>
                            <g id="g110" stroke-width="1" fill="none" fill-rule="evenodd" transform="translate(30.584675, 14.819310)">
                                <path d="M2.31461666,0 L2.31461666,1.23329038 C2.31461666,1.34432505 2.27767202,1.44310036 2.20325993,1.52961633 C2.13059052,1.61543177 2.03944879,1.65781408 1.930009,1.65781408 C1.81046171,1.65781408 1.71566037,1.6182339 1.64525643,1.53959894 C1.57764076,1.46061372 1.54383293,1.35851086 1.54383293,1.23329038 L1.54383293,0 L1.15713406,0 L1.15713406,1.23329038 C1.15713406,1.34432505 1.12018942,1.44310036 1.04630014,1.52961633 C0.973630724,1.61543177 0.881966188,1.65781408 0.771655065,1.65781408 C0.653850452,1.65781408 0.56009471,1.6182339 0.489516503,1.53959894 C0.420855235,1.46148939 0.386524601,1.35991193 0.386524601,1.23329038 L0.386524601,0 L0,0 L0,2.01736324 L0.386524601,2.01736324 L0.386524601,1.89126709 C0.517050717,1.99687262 0.666920491,2.04993808 0.836308188,2.04993808 C1.044906,2.04993808 1.21760477,1.96324698 1.35457878,1.79021504 C1.50497135,1.96324698 1.69701378,2.04993808 1.93070607,2.04993808 C2.14644883,2.04993808 2.32855803,1.96902638 2.4768594,1.80685273 C2.62620637,1.64397853 2.70079273,1.45255758 2.70079273,1.23329038 L2.70079273,0 L2.31461666,0 Z" id="path112" fill="#00702D" fill-rule="nonzero"></path>
                            </g>
                            <g id="g114" stroke-width="1" fill="none" fill-rule="evenodd" transform="translate(33.704180, 14.786857)">
                                <path d="M1.67366198,1.03819162 C1.67366198,1.21542676 1.61040299,1.36849348 1.48336222,1.49756689 C1.35632145,1.62593978 1.20505754,1.69021379 1.02904769,1.69021379 C0.853212104,1.69021379 0.701599659,1.62593978 0.574558886,1.49756689 C0.449086518,1.36989454 0.386350334,1.2166527 0.386350334,1.03819162 C0.386350334,0.85850461 0.449086518,0.704737362 0.574558886,0.577590413 C0.700205522,0.45026833 0.851817967,0.386344588 1.02904769,0.386344588 C1.20627741,0.386344588 1.35754132,0.45026833 1.48336222,0.577590413 C1.61040299,0.706138431 1.67366198,0.859730545 1.67366198,1.03819162 M1.67366198,0.0323997048 L1.67366198,0.271807253 C1.48405929,0.0905440398 1.25855756,0 0.996982526,0 C0.719374911,0 0.483591419,0.101752586 0.290154852,0.305958293 C0.0965440167,0.510164 0,0.75412502 0,1.03819162 C0,1.32365929 0.0965440167,1.56867111 0.290154852,1.77252655 C0.483591419,1.97900899 0.719374911,2.08233778 0.996982526,2.08233778 C1.25855756,2.08233778 1.48405929,1.99021754 1.67366198,1.80510139 L1.67366198,2.04976294 L2.06018658,2.04976294 L2.06018658,0.0323997048 L1.67366198,0.0323997048 Z" id="path116" fill="#00702D" fill-rule="nonzero"></path>
                            </g>
                            <g id="g118" stroke-width="1" fill="none" fill-rule="evenodd" transform="translate(37.460805, 14.786893)">
                                <path d="M1.12140929,1.98864134 C1.10764218,2.09161986 1.06965194,2.17673476 1.00848416,2.24293524 C0.945399441,2.31071192 0.864888005,2.34433756 0.766949851,2.34433756 C0.665352086,2.34433756 0.57804423,2.30808491 0.505026282,2.23522936 C0.430962731,2.16377488 0.393669555,2.07760918 0.393669555,1.97515606 C0.393669555,1.8161348 0.489342236,1.69091432 0.681036132,1.60054542 C0.76886679,1.55956417 0.857045982,1.51875805 0.945050907,1.47795194 C1.03340437,1.43714582 1.12140929,1.39633971 1.20923995,1.35588386 C1.40093384,1.2219067 1.49643226,1.02225447 1.49643226,0.757277424 C1.49643226,0.546942043 1.42167164,0.367780433 1.2721504,0.219792592 C1.1240233,0.073380953 0.945399441,0 0.736801629,0 C0.549464413,0 0.389487143,0.0595454034 0.255998485,0.177760542 C0.120767154,0.300178886 0.03520197,0.454646668 0,0.640638487 L0.376939906,0.744142409 C0.391752616,0.641689288 0.429742861,0.558325723 0.490039305,0.493526314 C0.556609367,0.421721563 0.639037742,0.386169454 0.736801629,0.386169454 C0.837353791,0.386169454 0.924661647,0.422422097 0.999073732,0.495102516 C1.07296302,0.567958068 1.11008192,0.655174571 1.11008192,0.757277424 C1.11008192,0.912620873 1.01458351,1.03556462 0.823760951,1.12628379 C0.642697353,1.20789602 0.496835725,1.2777743 0.386176067,1.3357435 C0.275864943,1.39371271 0.196224843,1.43907229 0.148649903,1.47234767 C0.0545456267,1.53854814 0.00731922148,1.70650121 0.00731922148,1.97515606 C0.00731922148,2.1858417 0.0817313065,2.36465305 0.230904011,2.51281602 C0.383736326,2.66027846 0.562185917,2.73435995 0.766949851,2.73435995 C0.9541128,2.73435995 1.1139158,2.67323834 1.24566179,2.55064487 C1.37915045,2.42997786 1.4638443,2.27480954 1.50009187,2.08619072 L1.12140929,1.98864134 Z" id="path120" fill="#00702D" fill-rule="nonzero"></path>
                            </g>
                            <g id="g122" stroke-width="1" fill="none" fill-rule="evenodd" transform="translate(39.373980, 14.786857)">
                                <path d="M1.67366198,1.03819162 C1.67366198,1.21542676 1.61005446,1.36849348 1.48353649,1.49756689 C1.35632145,1.62593978 1.20505754,1.69021379 1.02922195,1.69021379 C0.853212104,1.69021379 0.701599659,1.62593978 0.574733153,1.49756689 C0.449260785,1.36989454 0.386176067,1.2166527 0.386176067,1.03819162 C0.386176067,0.85850461 0.449260785,0.704737362 0.574733153,0.577590413 C0.700379789,0.45026833 0.851817967,0.386344588 1.02922195,0.386344588 C1.20627741,0.386344588 1.35771558,0.45026833 1.48353649,0.577590413 C1.61005446,0.706138431 1.67366198,0.859730545 1.67366198,1.03819162 M2.06001231,1.03819162 C2.06001231,0.752723952 1.95911162,0.507536997 1.75661316,0.302280489 C1.55411469,0.100526652 1.31188332,0 1.02922195,0 C0.746560591,0 0.503632145,0.100526652 0.301482218,0.302280489 C0.100377895,0.506135929 0,0.751498017 0,1.03819162 C0,1.32506036 0.100377895,1.57059758 0.301482218,1.77445302 C0.503632145,1.97953439 0.746560591,2.08233778 1.02922195,2.08233778 C1.31188332,2.08233778 1.55411469,1.97953439 1.75661316,1.77445302 C1.95911162,1.56937165 2.06001231,1.32365929 2.06001231,1.03819162" id="path124" fill="#00702D" fill-rule="nonzero"></path>
                            </g>
                            <g id="g126" stroke-width="1" fill="none" fill-rule="evenodd" transform="translate(41.690304, 14.786875)">
                                <path d="M1.9077028,0.493526314 C1.80819624,0.339058532 1.68342094,0.218566657 1.53250556,0.131700422 C1.37531657,0.0441336519 1.20749728,0 1.02904769,0 C0.746386324,0 0.503980679,0.100701785 0.301830752,0.302280489 C0.100552162,0.505960795 0,0.751322884 0,1.03801649 C0,1.32488522 0.100552162,1.57042245 0.301830752,1.77462815 C0.503980679,1.97970953 0.746386324,2.08216265 1.02904769,2.08216265 C1.20749728,2.08216265 1.37531657,2.03680306 1.53250556,1.94450769 C1.68342094,1.85816685 1.80819624,1.73749984 1.9077028,1.58338233 L1.58321731,1.36709241 C1.4425837,1.58268179 1.25786049,1.69038892 1.02904769,1.69038892 C0.853212104,1.69038892 0.701948193,1.62576465 0.575081688,1.49739176 C0.449260785,1.36971941 0.386524601,1.21647756 0.386524601,1.03801649 C0.386524601,0.858329476 0.449260785,0.704912496 0.575081688,0.577415279 C0.700554056,0.450093196 0.851817967,0.386169454 1.02904769,0.386169454 C1.25786049,0.386169454 1.4425837,0.493876581 1.58321731,0.709465968 L1.9077028,0.493526314 Z" id="path128" fill="#00702D" fill-rule="nonzero"></path>
                            </g>
                            <path d="M44.0048338,16.836673 L44.74186,16.836673 L44.74186,14.8193097 L44.0048338,14.8193097 L44.0048338,16.836673 Z M44.0048338,17.4888703 L44.74186,17.4888703 L44.74186,17.1025257 L44.0048338,17.1025257 L44.0048338,17.4888703 Z" id="path130" fill="#00702D" fill-rule="nonzero"></path>
                            <g id="g132" stroke-width="1" fill="none" fill-rule="evenodd" transform="translate(44.808258, 14.786857)">
                                <path d="M1.67366198,1.03819162 C1.67366198,1.21542676 1.61005446,1.36849348 1.48318795,1.49756689 C1.35632145,1.62593978 1.20505754,1.69021379 1.02922195,1.69021379 C0.853212104,1.69021379 0.701599659,1.62593978 0.574733153,1.49756689 C0.449260785,1.36989454 0.386176067,1.2166527 0.386176067,1.03819162 C0.386176067,0.85850461 0.449260785,0.704737362 0.574733153,0.577590413 C0.700379789,0.45026833 0.851817967,0.386344588 1.02922195,0.386344588 C1.20627741,0.386344588 1.35771558,0.45026833 1.48318795,0.577590413 C1.61005446,0.706138431 1.67366198,0.859730545 1.67366198,1.03819162 M2.05983805,1.03819162 C2.05983805,0.752723952 1.95893735,0.507536997 1.75643889,0.302280489 C1.55411469,0.100526652 1.31188332,0 1.02922195,0 C0.746386324,0 0.503980679,0.100526652 0.301133684,0.302280489 C0.100203627,0.506135929 0,0.751498017 0,1.03819162 C0,1.32506036 0.100203627,1.57059758 0.301133684,1.77445302 C0.503980679,1.97953439 0.746386324,2.08233778 1.02922195,2.08233778 C1.31188332,2.08233778 1.55411469,1.97953439 1.75643889,1.77445302 C1.95893735,1.56937165 2.05983805,1.32365929 2.05983805,1.03819162" id="path134" fill="#00702D" fill-rule="nonzero"></path>
                            </g>
                            <g id="g136" stroke-width="1" fill="none" fill-rule="evenodd" transform="translate(48.404400, 14.786893)">
                                <path d="M1.12140929,1.98864134 C1.10746792,2.09161986 1.06982621,2.17673476 1.00830989,2.24293524 C0.945573708,2.31071192 0.865062272,2.34433756 0.767124118,2.34433756 C0.665526353,2.34433756 0.577869963,2.30808491 0.505200549,2.23522936 C0.430788464,2.16377488 0.394192357,2.07760918 0.394192357,1.97515606 C0.394192357,1.8161348 0.489516503,1.69091432 0.681210399,1.60054542 L0.945225174,1.47795194 C1.03357863,1.43714582 1.12140929,1.39633971 1.20941422,1.35588386 C1.40093384,1.2219067 1.49625799,1.02225447 1.49625799,0.757277424 C1.49625799,0.546942043 1.42202017,0.367780433 1.27232467,0.219792592 C1.12419757,0.073380953 0.945573708,0 0.736975896,0 C0.54963868,0 0.389312876,0.0595454034 0.256172752,0.177760542 C0.120592887,0.300178886 0.0350277028,0.454646668 0,0.640638487 L0.377114173,0.744142409 C0.392101151,0.641689288 0.429742861,0.558325723 0.490213572,0.493526314 C0.556783634,0.421721563 0.639212009,0.386169454 0.736975896,0.386169454 C0.837528058,0.386169454 0.925184449,0.422422097 0.999073732,0.495102516 C1.07313728,0.567958068 1.11025619,0.655174571 1.11025619,0.757277424 C1.11025619,0.912620873 1.01475778,1.03556462 0.823586684,1.12628379 C0.642523086,1.20789602 0.497009992,1.2777743 0.386350334,1.3357435 C0.275864943,1.39371271 0.19639911,1.43907229 0.149172704,1.47234767 C0.0547198939,1.53854814 0.0071449543,1.70650121 0.0071449543,1.97515606 C0.0071449543,2.1858417 0.0819055737,2.36465305 0.230904011,2.51281602 C0.383910593,2.66027846 0.562360184,2.73435995 0.767124118,2.73435995 C0.954287067,2.73435995 1.11409007,2.67323834 1.24618459,2.55064487 C1.37915045,2.42997786 1.46419283,2.27480954 1.50026614,2.08619072 L1.12140929,1.98864134 Z" id="path138" fill="#00702D" fill-rule="nonzero"></path>
                            </g>
                            <g id="g140" stroke-width="1" fill="none" fill-rule="evenodd" transform="translate(50.317749, 14.786857)">
                                <path d="M1.67366198,1.03819162 C1.67366198,1.21542676 1.61005446,1.36849348 1.48301369,1.49756689 C1.35597291,1.62593978 1.20505754,1.69021379 1.02904769,1.69021379 C0.853212104,1.69021379 0.701599659,1.62593978 0.574733153,1.49756689 C0.449086518,1.36989454 0.386001799,1.2166527 0.386001799,1.03819162 C0.386001799,0.85850461 0.449086518,0.704737362 0.574733153,0.577590413 C0.700379789,0.45026833 0.851817967,0.386344588 1.02904769,0.386344588 C1.20627741,0.386344588 1.35736705,0.45026833 1.48301369,0.577590413 C1.61005446,0.706138431 1.67366198,0.859730545 1.67366198,1.03819162 M1.67366198,0.0323997048 L1.67366198,0.271807253 C1.48371075,0.0905440398 1.25820903,0 0.996982526,0 C0.719026377,0 0.483591419,0.101752586 0.289806317,0.305958293 C0.0965440167,0.510164 0,0.75412502 0,1.03819162 C0,1.32365929 0.0965440167,1.56867111 0.289806317,1.77252655 C0.483591419,1.97900899 0.719026377,2.08233778 0.996982526,2.08233778 C1.25820903,2.08233778 1.48371075,1.99021754 1.67366198,1.80510139 L1.67366198,2.04976294 L2.05983805,2.04976294 L2.05983805,0.0323997048 L1.67366198,0.0323997048 Z" id="path142" fill="#00702D" fill-rule="nonzero"></path>
                            </g>
                            <g id="g144" stroke-width="1" fill="none" fill-rule="evenodd" transform="translate(52.956555, 14.819310)">
                                <path d="M1.34952503,0 L1.34952503,1.16849097 C1.34952503,1.30089193 1.30195009,1.41577953 1.20680021,1.51262838 C1.11269593,1.60965236 0.999596534,1.65781408 0.867850547,1.65781408 C0.737324431,1.65781408 0.624573566,1.60965236 0.529423687,1.51262838 C0.433925273,1.41577953 0.386350334,1.30089193 0.386350334,1.16849097 L0.386350334,0 L0,0 L0,2.01736324 L0.386350334,2.01736324 L0.386350334,1.82804388 C0.543016527,1.97620686 0.725822797,2.04993808 0.934072075,2.04993808 C1.16358195,2.04993808 1.35632145,1.95939404 1.51194204,1.77830596 C1.66111474,1.60772589 1.73587536,1.40439585 1.73587536,1.16849097 L1.73587536,0 L1.34952503,0 Z" id="path146" fill="#00702D" fill-rule="nonzero"></path>
                            </g>
                            <path d="M55.2727752,16.836673 L56.0107992,16.836673 L56.0107992,14.8193097 L55.2727752,14.8193097 L55.2727752,16.836673 Z M55.2727752,17.4888703 L56.0107992,17.4888703 L56.0107992,17.1025257 L55.2727752,17.1025257 L55.2727752,17.4888703 Z" id="path148" fill="#00702D" fill-rule="nonzero"></path>
                            <g id="g150" stroke-width="1" fill="none" fill-rule="evenodd" transform="translate(55.996611, 14.819100)">
                                <polygon id="path152" fill="#00702D" fill-rule="nonzero" points="0.706827674 1.62558951 0.706827674 0 0.320651608 0 0.320651608 1.62558951 0 1.62558951 0 2.01736324 0.320651608 2.01736324 0.320651608 2.66956054 0.706827674 2.66956054 0.706827674 2.01736324 1.02922195 2.01736324 1.02922195 1.62558951"></polygon>
                            </g>
                            <g id="g154" stroke-width="1" fill="none" fill-rule="evenodd" transform="translate(57.201477, 14.786857)">
                                <path d="M1.67348771,1.03819162 C1.67348771,1.21542676 1.61022873,1.36849348 1.48318795,1.49756689 C1.35597291,1.62593978 1.20488327,1.69021379 1.02887342,1.69021379 C0.85286357,1.69021379 0.701773926,1.62593978 0.574384619,1.49756689 C0.449260785,1.36989454 0.386176067,1.2166527 0.386176067,1.03819162 C0.386176067,0.85850461 0.449260785,0.704737362 0.574384619,0.577590413 C0.700379789,0.45026833 0.851643699,0.386344588 1.02887342,0.386344588 C1.20592887,0.386344588 1.35736705,0.45026833 1.48318795,0.577590413 C1.61022873,0.706138431 1.67348771,0.859730545 1.67348771,1.03819162 M1.67348771,0.0323997048 L1.67348771,0.271807253 C1.48388502,0.0905440398 1.25820903,0 0.996633992,0 C0.719200644,0 0.483591419,0.101752586 0.289980584,0.305958293 C0.0967182838,0.510164 0,0.75412502 0,1.03819162 C0,1.32365929 0.0967182838,1.56867111 0.289980584,1.77252655 C0.483591419,1.97900899 0.719200644,2.08233778 0.996633992,2.08233778 C1.25820903,2.08233778 1.48388502,1.99021754 1.67348771,1.80510139 L1.67348771,2.04976294 L2.05966378,2.04976294 L2.05966378,0.0323997048 L1.67348771,0.0323997048 Z" id="path156" fill="#00702D" fill-rule="nonzero"></path>
                            </g>
                            <g id="g158" stroke-width="1" fill="none" fill-rule="evenodd" transform="translate(59.840057, 14.819362)">
                                <path d="M1,1.65781408 C0.84622824,1.65781408 0.712572534,1.6114037 0.598452611,1.51823265 C0.485299807,1.42663781 0.428820116,1.30982374 0.428820116,1.16849097 L0.428820116,0 L0,0 L0,2.01736324 L0.428820116,2.01736324 L0.428820116,1.84152917 C0.584912959,1.9800598 0.775241779,2.04958781 1,2.04958781 L1,1.65781408 Z" id="path160" fill="#00702D" fill-rule="nonzero"></path>
                            </g>
                            <path d="M61.078312,16.836673 L61.8156708,16.836673 L61.8156708,14.8193097 L61.078312,14.8193097 L61.078312,16.836673 Z M61.078312,17.4888703 L61.8156708,17.4888703 L61.8156708,17.1025257 L61.078312,17.1025257 L61.078312,17.4888703 Z" id="path162" fill="#00702D" fill-rule="nonzero"></path>
                            <g id="g164" stroke-width="1" fill="none" fill-rule="evenodd" transform="translate(61.881684, 14.786857)">
                                <path d="M1.67366198,1.03819162 C1.67366198,1.21542676 1.61040299,1.36849348 1.48301369,1.49756689 C1.35614718,1.62593978 1.20505754,1.69021379 1.02904769,1.69021379 C0.853037837,1.69021379 0.701599659,1.62593978 0.574558886,1.49756689 C0.449086518,1.36989454 0.386001799,1.2166527 0.386001799,1.03819162 C0.386001799,0.85850461 0.449086518,0.704737362 0.574558886,0.577590413 C0.700205522,0.45026833 0.851817967,0.386344588 1.02904769,0.386344588 C1.20610314,0.386344588 1.35754132,0.45026833 1.48301369,0.577590413 C1.61040299,0.706138431 1.67366198,0.859730545 1.67366198,1.03819162 M2.05983805,1.03819162 C2.05983805,0.752723952 1.95893735,0.507536997 1.75643889,0.302280489 C1.55411469,0.100526652 1.31170905,0 1.02904769,0 C0.746386324,0 0.503806412,0.100526652 0.300959417,0.302280489 C0.100203627,0.506135929 0,0.751498017 0,1.03819162 C0,1.32506036 0.100203627,1.57059758 0.300959417,1.77445302 C0.503806412,1.97953439 0.746386324,2.08233778 1.02904769,2.08233778 C1.31170905,2.08233778 1.55411469,1.97953439 1.75643889,1.77445302 C1.95893735,1.56937165 2.05983805,1.32365929 2.05983805,1.03819162" id="path166" fill="#00702D" fill-rule="nonzero"></path>
                            </g>
                        </g>
                    </g>
                </g>
                <polygon id="path168" fill="#001982" fill-rule="nonzero" points="3.21888905 26.9677629 88.9025752 26.9677629 88.9025752 27.0686398 3.21888905 27.0686398"></polygon>
            </g>
        </g>
    </g>
</svg>