<?xml version="1.0" encoding="UTF-8"?>
<svg width="165px" height="57px" viewBox="0 0 165 57" version="1.1" xmlns="http://www.w3.org/2000/svg" xmlns:xlink="http://www.w3.org/1999/xlink">
    <title>LOGO PARTNERS</title>
    <g id="LOGO-PARTNERS" stroke="none" stroke-width="1" fill="none" fill-rule="evenodd">
        <rect id="Rectangle" fill="#FFFFFF" x="0" y="0" width="165" height="57"></rect>
        <rect id="Rectangle" fill="#FFFFFF" x="0" y="0" width="5" height="5"></rect>
        <rect id="Rectangle-Copy-3" fill="#FFFFFF" x="0" y="52" width="5" height="5"></rect>
        <rect id="Rectangle-Copy" fill="#FFFFFF" x="160" y="0" width="5" height="5"></rect>
        <rect id="Rectangle-Copy-2" fill="#FFFFFF" x="160" y="52" width="5" height="5"></rect>
        <g id="Logo_BRC_ENG" transform="translate(61.000000, 5.000000)">
            <g id="g12" transform="translate(22.000000, 23.500000) scale(-1, 1) rotate(-180.000000) translate(-22.000000, -23.500000) translate(0.000000, 0.000000)">
                <polyline id="path14" fill="#ED1C24" points="17.0879449 47 26.7783873 47 26.7783873 37.4166342 36.468766 37.4166342 36.468766 27.8333943 26.7783873 27.8333943 26.7783873 18.2499342 17.0879449 18.2499342 17.0879449 27.8333943 7.39747079 27.8333943 7.39747079 37.4166342 17.0879449 37.4166342 17.0879449 47"></polyline>
                <path d="M0,13.7277599 L2.15216515,13.7277599 C2.57834645,13.7277599 2.89677097,13.7103276 3.10606737,13.6744246 C3.31536377,13.6397802 3.5021651,13.5666211 3.66761679,13.4550103 C3.83303667,13.3435253 3.96975705,13.1959171 4.08010061,13.0100773 C4.19034871,12.8253388 4.2455523,12.6171266 4.2455523,12.3877375 C4.2455523,12.1386191 4.17781256,11.90923 4.04233307,11.7010177 C3.90586724,11.4926796 3.72154768,11.3365754 3.48962895,11.2323592 C3.81674605,11.1382121 4.06991896,10.9769475 4.2455523,10.7501701 C4.42214017,10.5221341 4.50989321,10.2543247 4.50989321,9.9468993 C4.50989321,9.70514398 4.45348054,9.46961899 4.33950978,9.24026138 C4.22541174,9.01213095 4.06991896,8.82874556 3.87319053,8.6924337 C3.67643028,8.55599597 3.43318446,8.47166638 3.14361218,8.43947639 C2.96314255,8.4209113 2.52577417,8.40851359 1.83249656,8.40344752 L0,8.40344752 L0,13.7277599 Z M1.08801482,12.8414181 L1.08801482,11.6104263 L1.7998103,11.6104263 C2.22363073,11.6104263 2.48687075,11.6167196 2.58965762,11.6289914 C2.77509397,11.6501368 2.92175418,11.7134469 3.02840052,11.8187645 C3.13489414,11.9241135 3.18761596,12.0630056 3.18761596,12.2352205 C3.18761596,12.4000408 3.14237129,12.5340242 3.05089559,12.6368874 C2.95816946,12.7397821 2.82157954,12.8017391 2.64098901,12.8227586 C2.53335631,12.8351563 2.22363073,12.8414181 1.71218772,12.8414181 L1.08801482,12.8414181 Z M1.08801482,10.7242104 L1.08801482,9.30099127 L2.09325161,9.30099127 C2.48562986,9.30099127 2.73382968,9.31093461 2.83910151,9.33318126 C3.00081463,9.36181556 3.13241237,9.43362158 3.23397426,9.54523242 C3.33550433,9.65803898 3.38682617,9.80923439 3.38682617,9.99765438 C3.38682617,10.1575659 3.34670413,10.2927765 3.26900547,10.4042615 C3.19009774,10.5158723 3.07711332,10.5976217 2.92933632,10.6485026 C2.78143204,10.6992577 2.4592785,10.7242104 1.96548472,10.7242104 L1.08801482,10.7242104 Z M5.42118207,13.7277599 L6.50794519,13.7277599 L6.50794519,10.8443172 C6.50794519,10.386955 6.52175404,10.0894729 6.54809904,9.95438827 C6.59445734,9.73610679 6.7060736,9.56131168 6.88030696,9.42990856 C7.05581303,9.29730972 7.2951771,9.23167109 7.59846279,9.23167109 C7.90680748,9.23167109 8.1399671,9.2935967 8.29670077,9.4188639 C8.45330717,9.54274659 8.54739191,9.69639636 8.57870046,9.87745325 C8.61128172,10.0597373 8.62629964,10.3609953 8.62629964,10.782486 L8.62629964,13.7277599 L9.71309458,13.7277599 L9.71309458,10.9311011 C9.71309458,10.2915493 9.68436325,9.84032306 9.62546881,9.57632109 C9.56641528,9.31216179 9.45864896,9.09032462 9.30070622,8.90804055 C9.14285894,8.72710952 8.93092167,8.58205004 8.66769439,8.47412075 C8.40322621,8.36647466 8.05730489,8.31310787 7.6311395,8.31310787 C7.1170938,8.31310787 6.72732778,8.37125753 6.4615869,8.48913016 C6.19587783,8.60675106 5.98654962,8.75929951 5.83232954,8.94649233 C5.67820492,9.13368514 5.57667485,9.33085276 5.52780296,9.53661066 C5.45634056,9.84158171 5.42118207,10.2915493 5.42118207,10.887835 L5.42118207,13.7277599 Z M10.8888516,8.40344752 L10.8888516,13.6843994 L11.9756147,13.6843994 L11.9756147,9.30099127 L14.6781091,9.30099127 L14.6781091,8.40344752 L10.8888516,8.40344752 Z M17.9584436,10.3609953 L17.9584436,11.2585391 L20.3011442,11.2585391 L20.3011442,9.13739816 C20.0730754,8.91921107 19.7434765,8.72710952 19.3108203,8.56103058 C18.8784187,8.39608441 18.4409262,8.31310787 17.9985974,8.31310787 C17.4356799,8.31310787 16.9443838,8.42962745 16.5256637,8.66257221 C16.1070709,8.89696442 15.7923627,9.2304439 15.5818254,9.66543356 C15.3712881,10.1005491 15.2658763,10.5729206 15.2658763,11.0836181 C15.2658763,11.6377391 15.383697,12.1310986 15.6180975,12.5624067 C15.8537707,12.9926135 16.1972739,13.3236386 16.651057,13.5529962 C16.9957056,13.7302457 17.4257528,13.8183512 17.9395439,13.8183512 C18.6077142,13.8183512 19.130478,13.6794592 19.5051943,13.403028 C19.8813105,13.1252438 20.1231563,12.7422364 20.2310499,12.2526843 L19.1516049,12.0530623 C19.0751789,12.3146099 18.9323496,12.5217209 18.7230532,12.6729163 C18.5136295,12.8241117 18.2530113,12.8996936 17.9395439,12.8996936 C17.4645385,12.8996936 17.0873086,12.7509526 16.8065498,12.4533761 C16.5256637,12.1546983 16.3864616,11.7134469 16.3864616,11.1270101 C16.3864616,10.49608 16.5281455,10.0212541 16.8127542,9.70514398 C17.0960266,9.38900241 17.4682611,9.23167109 17.9283759,9.23167109 C18.1564447,9.23167109 18.3846408,9.27616439 18.6139505,9.3643014 C18.8420193,9.45228107 19.038875,9.56021036 19.2031813,9.6853517 L19.2031813,10.3609953 L17.9584436,10.3609953 Z M26.158707,8.40344752 L24.9753456,8.40344752 L24.5053037,9.61345128 L22.3529998,9.61345128 L21.9093029,8.40344752 L20.7560409,8.40344752 L22.8532685,13.7277599 L24.0026805,13.7277599 L26.158707,8.40344752 Z M24.1568051,10.5097364 L23.4146588,12.4857234 L22.6877213,10.5097364 L24.1568051,10.5097364 Z M26.7377562,8.40344752 L26.7377562,13.7277599 L29.026494,13.7277599 C29.6018205,13.7277599 30.0193315,13.6794592 30.2799497,13.583959 C30.5406953,13.4884589 30.7499917,13.3186984 30.9067253,13.0744887 C31.063459,12.8290204 31.1412531,12.5501349 31.1412531,12.2352205 C31.1412531,11.8359765 31.0220642,11.5051088 30.785182,11.2447569 C30.5481724,10.9857895 30.192324,10.8209692 29.719673,10.7539775 C29.9554417,10.6175398 30.1496883,10.4687988 30.3025721,10.306307 C30.4554558,10.1439411 30.661125,9.85643379 30.9205342,9.44233773 L31.578491,8.40344752 L30.2787089,8.40344752 L29.4928451,9.56253887 C29.2133272,9.97663492 29.0227714,10.2369868 28.9201277,10.3447902 C28.8171976,10.452688 28.7082222,10.5258471 28.5928833,10.5666274 C28.4775444,10.6063378 28.2957066,10.626256 28.0451427,10.626256 L27.8256329,10.626256 L27.8256329,8.40344752 L26.7377562,8.40344752 Z M27.8256329,11.4765689 L28.6291554,11.4765689 C29.1506783,11.4765689 29.4765545,11.4975883 29.6069431,11.5411062 C29.7359318,11.5844981 29.8374937,11.6600801 29.9114379,11.7666564 C29.9842685,11.8733585 30.0218133,12.0059888 30.0218133,12.1657745 C30.0218133,12.3456042 29.9728459,12.4892791 29.8763749,12.5997887 C29.7798083,12.7100465 29.6432152,12.7794925 29.4665001,12.8092281 C29.3787471,12.8203986 29.1143743,12.826566 28.6730319,12.826566 L27.8256329,12.826566 L27.8256329,11.4765689 Z M32.1326588,8.40344752 L32.1326588,13.7277599 L33.219231,13.7277599 L33.219231,8.40344752 L32.1326588,8.40344752 Z M39.1105841,8.40344752 L37.9276045,8.40344752 L37.4573399,9.61345128 L35.3051951,9.61345128 L34.8613391,8.40344752 L33.708268,8.40344752 L35.8053683,13.7277599 L36.9549394,13.7277599 L39.1105841,8.40344752 Z M37.1089368,10.5097364 L36.3669495,12.4857234 L35.6399166,10.5097364 L37.1089368,10.5097364 Z M39.6973013,8.40344752 L39.6973013,13.7277599 L40.7552377,13.7277599 L42.958927,10.1724495 L42.958927,13.7277599 L43.9691369,13.7277599 L43.9691369,8.40344752 L42.8774739,8.40344752 L40.7078294,11.875687 L40.7078294,8.40344752 L39.6973013,8.40344752 Z M0.203583224,0.0941539884 L0.203583224,5.41846319 L2.4923402,5.41846319 C3.06766348,5.41846319 3.48514266,5.37016248 3.74579272,5.27466236 C4.00653823,5.17916225 4.2159619,5.00940175 4.3725683,4.76516059 C4.52930197,4.51972372 4.60696881,4.24080675 4.60696881,3.92601823 C4.60696881,3.52667986 4.48790722,3.19578061 4.25102494,2.9354602 C4.01411083,2.6764771 3.65816696,2.51164737 3.18561145,2.44465883 C3.42125285,2.30822111 3.61553133,2.1594958 3.76841506,1.99700086 C3.92139425,1.83463179 4.12696798,1.54713081 4.38634533,1.13303162 L5.04446128,0.0941539884 L3.74455183,0.0941539884 L2.95866581,1.25324219 C2.67914471,1.66734453 2.48861117,1.92767753 2.38582431,2.03547467 C2.28304062,2.14339452 2.17403977,2.21640569 2.05870085,2.25745973 C1.94348601,2.297038 1.76165459,2.31682713 1.51083936,2.31682713 L1.29159677,2.31682713 L1.29159677,0.0941539884 L0.203583224,0.0941539884 Z M1.29159677,3.16727218 L2.09511613,3.16727218 C2.61650216,3.16727218 2.94238473,3.18829164 3.0727543,3.23180949 C3.20177481,3.27520147 3.30330488,3.35078344 3.37728088,3.45735968 C3.45011145,3.56406178 3.48775171,3.69666062 3.48775171,3.85644632 C3.48775171,4.03627602 3.43878437,4.17998246 3.34221785,4.29046052 C3.2457786,4.40071831 3.10905822,4.47016436 2.93231763,4.49993144 C2.84469505,4.5109761 2.58021096,4.51723789 2.13886537,4.51723789 L1.29159677,4.51723789 L1.29159677,3.16727218 Z M5.63235571,0.0941539884 L5.63235571,5.41846319 L9.62333703,5.41846319 L9.62333703,4.51723789 L6.71899156,4.51723789 L6.71899156,3.33715854 L9.42161323,3.33715854 L9.42161323,2.44084827 L6.71899156,2.44084827 L6.71899156,0.99167886 L9.72613981,0.99167886 L9.72613981,0.0941539884 L5.63235571,0.0941539884 Z M10.6450967,5.41846319 L12.6318534,5.41846319 C13.079273,5.41846319 13.420199,5.38492016 13.6558404,5.31682716 C13.9717895,5.22513446 14.2424939,5.06138402 14.46684,4.82601635 C14.6925543,4.59162414 14.8641787,4.30411687 14.9821266,3.96437561 C15.0985792,3.62340716 15.1573782,3.20452823 15.1573782,2.70486911 C15.1573782,2.26729294 15.1023018,1.88920373 14.9920856,1.57196084 C14.8579742,1.18502333 14.6661775,0.871468287 14.4154864,0.632274324 C14.2274442,0.449993396 13.9730304,0.308763358 13.6519904,0.206988869 C13.4126264,0.13139746 13.0917137,0.0941539884 12.6893797,0.0941539884 L10.6450967,0.0941539884 L10.6450967,5.41846319 Z M11.7317644,4.51723789 L11.7317644,0.99167886 L12.5427322,0.99167886 C12.8461134,0.99167886 13.065496,1.00790287 13.2009755,1.0425661 C13.3764497,1.08595494 13.5230017,1.15908883 13.6395816,1.26319812 C13.7561614,1.3673074 13.8501188,1.53963555 13.924063,1.7777219 C13.9967663,2.01580825 14.0344384,2.34165401 14.0344384,2.75317612 C14.0344384,3.16481781 13.9967663,3.47960633 13.924063,3.70037364 C13.8501188,3.92098363 13.7473161,4.09332436 13.6157183,4.21597987 C13.4828479,4.34001988 13.3149462,4.42309082 13.1118543,4.46635694 C12.9602114,4.50115863 12.6630347,4.51723789 12.2193378,4.51723789 L11.7317644,4.51723789 Z M21.6141307,2.05157595 L22.6670717,1.72179376 C22.5053744,1.14053003 22.2371836,0.709096064 21.8610673,0.426516416 C21.4862238,0.145041233 21.0087047,0.00381025006 20.4308965,0.00381025006 C19.7164952,0.00381025006 19.1284735,0.245462672 18.6684859,0.727658014 C18.2084984,1.21120641 17.9779478,1.87187526 17.9779478,2.70867968 C17.9779478,3.59502459 18.2097393,4.28297154 18.6723677,4.77378235 C19.134837,5.26358624 19.7427129,5.50892871 20.4972681,5.50892871 C21.155384,5.50892871 21.6906839,5.31682716 22.1017041,4.93136541 C22.3475272,4.70446217 22.5304786,4.37711861 22.6534219,3.95075072 L21.5765859,3.69666062 C21.5138097,3.97312323 21.3810665,4.19127885 21.1778791,4.35106454 C20.9761553,4.5109761 20.7304277,4.59039696 20.4420963,4.59039696 C20.0436123,4.59039696 19.7189769,4.44905049 19.4706403,4.16522478 C19.22259,3.88253185 19.0984058,3.42391104 19.0984058,2.78918927 C19.0984058,2.11598425 19.2200764,1.63636914 19.4656767,1.35120611 C19.7101635,1.06481275 20.0285943,0.922355531 20.4196012,0.922355531 C20.7090463,0.922355531 20.9572556,1.01282104 21.1654384,1.19497925 C21.3734939,1.376033 21.522655,1.66242636 21.6141307,2.05157595 L21.6141307,2.05157595 Z M23.6034646,0.0941539884 L23.6034646,5.41846319 L25.8922343,5.41846319 C26.4675608,5.41846319 26.88504,5.37016248 27.1456582,5.27466236 C27.4064037,5.17916225 27.6158274,5.00940175 27.7724338,4.76516059 C27.9291675,4.51972372 28.0068661,4.24080675 28.0068661,3.92601823 C28.0068661,3.52667986 27.8877727,3.19578061 27.6508904,2.9354602 C27.4140082,2.6764771 27.0580325,2.51164737 26.5855088,2.44465883 C26.8211502,2.30822111 27.0153968,2.1594958 27.1682806,1.99700086 C27.3212916,1.83463179 27.5268653,1.54713081 27.7862427,1.13303162 L28.4443586,0.0941539884 L27.1444173,0.0941539884 L26.3585536,1.25324219 C26.0790357,1.66734453 25.8884799,1.92767753 25.7857089,2.03547467 C25.6829061,2.14339452 25.5739307,2.21640569 25.4585918,2.25745973 C25.3433801,2.297038 25.1615424,2.31682713 24.910724,2.31682713 L24.6914686,2.31682713 L24.6914686,0.0941539884 L23.6034646,0.0941539884 Z M24.6914686,3.16727218 L25.4949912,3.16727218 C26.0163867,3.16727218 26.342263,3.18829164 26.4726516,3.23180949 C26.6016403,3.27520147 26.7032022,3.35078344 26.7771464,3.45735968 C26.8499769,3.56406178 26.887649,3.69666062 26.887649,3.85644632 C26.887649,4.03627602 26.8386817,4.17998246 26.7421152,4.29046052 C26.6456441,4.40071831 26.5089237,4.47016436 26.3322086,4.49993144 C26.2445828,4.5109761 25.9800828,4.51723789 25.5387404,4.51723789 L24.6914686,4.51723789 L24.6914686,3.16727218 Z M28.8116296,2.72343106 C28.8116296,3.26645384 28.8931463,3.72139311 29.0571981,4.08951695 C29.1801414,4.35981216 29.3468022,4.60402185 29.5585803,4.81975456 C29.7704858,5.03422863 30.0024045,5.19401432 30.2542093,5.29826206 C30.5902989,5.43948266 30.9763423,5.50892871 31.4150757,5.50892871 C32.2083847,5.50892871 32.8428284,5.2660406 33.3191383,4.77881695 C33.7954483,4.29282049 34.0334442,3.61604405 34.0334442,2.74948828 C34.0334442,1.88920373 33.796721,1.21722905 33.3242292,0.731468579 C32.8514191,0.246689856 32.2198391,0.00381025006 31.4300936,0.00381025006 C30.6290846,0.00381025006 29.9923501,0.245462672 29.5197946,0.727658014 C29.047271,1.21120641 28.8116296,1.87691301 28.8116296,2.72343106 L28.8116296,2.72343106 Z M29.9309421,2.7594442 C29.9309421,2.15691557 30.072626,1.69954711 30.3532894,1.38832687 C30.6354164,1.07735206 30.9926011,0.922355531 31.4263709,0.922355531 C31.8587089,0.922355531 32.2147483,1.07612173 32.4931526,1.38586621 C32.769966,1.69450622 32.909009,2.15691557 32.909009,2.77431516 C32.909009,3.38423208 32.7737841,3.83913987 32.5042887,4.1403979 C32.2335207,4.44042874 31.8736632,4.59039696 31.4263709,4.59039696 C30.9775832,4.59039696 30.6166439,4.43797437 30.3420896,4.13426197 C30.0687761,3.83051812 29.9309421,3.37315595 29.9309421,2.7594442 L29.9309421,2.7594442 Z M34.6064798,1.82590305 L35.664098,1.92890787 C35.7270969,1.57687902 35.8559583,1.31900039 36.0516368,1.1541738 C36.2457243,0.990448529 36.5079017,0.907358709 36.8388051,0.907358709 C37.1884809,0.907358709 37.4528854,0.980615321 37.6297914,1.12811344 C37.807652,1.27438437 37.8967414,1.44548219 37.8967414,1.64128417 C37.8967414,1.76764326 37.8591966,1.87433277 37.7837888,1.96234077 C37.7099719,2.05157595 37.5795196,2.12852041 37.3927501,2.19292871 C37.2664341,2.23754787 36.9753027,2.31449233 36.5228559,2.42597416 C35.9399569,2.56855725 35.5314185,2.7445701 35.2969225,2.95279811 C34.9660191,3.24533998 34.8005674,3.60238769 34.8005674,4.02387832 C34.8005674,4.29540072 34.8782024,4.54823216 35.0337907,4.78495287 C35.1893789,5.02047787 35.4136932,5.20030758 35.7054609,5.32419026 C35.9991377,5.44697163 36.3513589,5.50892871 36.7649881,5.50892871 C37.4417492,5.50892871 37.9492405,5.36267351 38.2915982,5.07013164 C38.6326833,4.77623672 38.8118166,4.38586623 38.8293163,3.89615675 L37.742744,3.84908321 C37.6962903,4.12293412 37.5957466,4.32010174 37.4430219,4.43920155 C37.2899791,4.55927682 37.060574,4.61890539 36.7548065,4.61890539 C36.4388574,4.61890539 36.1906798,4.55572113 36.0128193,4.42667798 C35.8976394,4.34492862 35.8397313,4.23454496 35.8397313,4.09700592 C35.8397313,3.97051153 35.8935031,3.86273957 36.0013649,3.77350124 C36.1381807,3.65943603 36.4713114,3.54046208 37.0004386,3.41764925 C37.5295659,3.29376656 37.9206046,3.16604499 38.1735548,3.03464187 C38.4268232,2.90201156 38.625047,2.72232345 38.7691809,2.4929627 C38.9120421,2.26360509 38.9836318,1.98102229 38.9836318,1.64509474 C38.9836318,1.34014258 38.8983605,1.05375236 38.7265453,0.788378466 C38.5547301,0.521896959 38.312916,0.323511596 37.9995124,0.194698146 C37.6861087,0.0645316462 37.2950699,-7.04775343e-15 36.8276689,-7.04775343e-15 C36.1467715,-7.04775343e-15 35.624326,0.154997159 35.2593777,0.466217402 C34.8947476,0.777314928 34.6764786,1.23099554 34.6064798,1.82590305 L34.6064798,1.82590305 Z M39.6228481,1.82590305 L40.6807844,1.92890787 C40.7434651,1.57687902 40.8726447,1.31900039 41.068005,1.1541738 C41.2624107,0.990448529 41.5242699,0.907358709 41.8551733,0.907358709 C42.2048491,0.907358709 42.4695718,0.980615321 42.6461597,1.12811344 C42.8240202,1.27438437 42.9131096,1.44548219 42.9131096,1.64128417 C42.9131096,1.76764326 42.8755648,1.87433277 42.8004752,1.96234077 C42.7263401,2.05157595 42.5958878,2.12852041 42.4094365,2.19292871 C42.2828023,2.23754787 41.9916709,2.31449233 41.5395423,2.42597416 C40.9566433,2.56855725 40.5477867,2.7445701 40.3132907,2.95279811 C39.9827055,3.24533998 39.8172538,3.60238769 39.8172538,4.02387832 C39.8172538,4.29540072 39.8948888,4.54823216 40.0501589,4.78495287 C40.2057471,5.02047787 40.4300614,5.20030758 40.7221473,5.32419026 C41.0155059,5.44697163 41.3677271,5.50892871 41.7813564,5.50892871 C42.4581174,5.50892871 42.9656087,5.36267351 43.3079665,5.07013164 C43.6490515,4.77623672 43.8281848,4.38586623 43.8456845,3.89615675 L42.7591123,3.84908321 C42.7126585,4.12293412 42.612433,4.32010174 42.4593901,4.43920155 C42.3066655,4.55927682 42.0769422,4.61890539 41.7714929,4.61890539 C41.4555438,4.61890539 41.2070481,4.55572113 41.0291875,4.42667798 C40.9140077,4.34492862 40.8560996,4.23454496 40.8560996,4.09700592 C40.8560996,3.97051153 40.9098714,3.86273957 41.0180513,3.77350124 C41.154549,3.65943603 41.4879978,3.54046208 42.0168069,3.41764925 C42.5459341,3.29376656 42.9369728,3.16604499 43.1902412,3.03464187 C43.4435096,2.90201156 43.6414153,2.72232345 43.7855491,2.4929627 C43.9284103,2.26360509 44,1.98102229 44,1.64509474 C44,1.34014258 43.9147287,1.05375236 43.7429135,0.788378466 C43.5714165,0.521896959 43.3292843,0.323511596 43.0158806,0.194698146 C42.7024769,0.0645316462 42.3114381,-1.41531808e-14 41.8440371,-1.41531808e-14 C41.1634579,-1.41531808e-14 40.6406942,0.154997159 40.2757459,0.466217402 C39.9111158,0.777314928 39.6928468,1.23099554 39.6228481,1.82590305" id="path16" fill="#231F20"></path>
            </g>
        </g>
    </g>
</svg>