<?xml version="1.0" encoding="UTF-8"?>
<svg width="165px" height="57px" viewBox="0 0 165 57" version="1.1" xmlns="http://www.w3.org/2000/svg" xmlns:xlink="http://www.w3.org/1999/xlink">
    <title>LOGO PARTNERS</title>
    <g id="LOGO-PARTNERS" stroke="none" stroke-width="1" fill="none" fill-rule="evenodd">
        <rect id="Rectangle" fill="#FFFFFF" x="0" y="0" width="165" height="57"></rect>
        <rect id="Rectangle" fill="#FFFFFF" x="0" y="0" width="5" height="5"></rect>
        <rect id="Rectangle-Copy-3" fill="#FFFFFF" x="0" y="52" width="5" height="5"></rect>
        <rect id="Rectangle-Copy" fill="#FFFFFF" x="160" y="0" width="5" height="5"></rect>
        <g id="Logo_BRC_ENG" transform="translate(57.000000, 2.000000)">
            <g id="g12" transform="translate(25.500000, 27.000000) scale(-1, 1) rotate(-180.000000) translate(-25.500000, -27.000000) translate(0.000000, 0.000000)">
                <polyline id="path14" fill="#ED1C24" points="19.8064816 54 31.0385852 54 31.0385852 42.9893244 42.2706151 42.9893244 42.2706151 31.9787935 31.0385852 31.9787935 31.0385852 20.9680095 19.8064816 20.9680095 19.8064816 31.9787935 8.57434114 31.9787935 8.57434114 42.9893244 19.8064816 42.9893244 19.8064816 54"></polyline>
                <path d="M0,15.7723199 L2.49455506,15.7723199 C2.98853793,15.7723199 3.3576209,15.7522912 3.60021445,15.711041 C3.842808,15.6712368 4.05932772,15.5871817 4.25110128,15.458948 C4.44283796,15.3308589 4.60130931,15.1612664 4.72920752,14.9477484 C4.85699509,14.7354957 4.92098108,14.4962731 4.92098108,14.2327197 C4.92098108,13.9464985 4.84246456,13.6829451 4.68543152,13.4437225 C4.52725521,13.2043553 4.31361209,13.0250016 4.04479719,12.9052637 C4.42395564,12.7970948 4.71740607,12.611812 4.92098108,12.3512593 C5.12566247,12.0892604 5.22737622,11.7815646 5.22737622,11.4283524 C5.22737622,11.150591 5.16198881,10.8799878 5.02988633,10.6164705 C4.89763634,10.3543632 4.71740607,10.1436651 4.48937993,9.98705148 C4.26131691,9.83029325 3.9793729,9.73340393 3.64373229,9.69641969 C3.4345516,9.67508957 2.92760188,9.6608454 2.1240301,9.65502481 L0,9.65502481 L0,15.7723199 Z M1.26110809,14.7539697 L1.26110809,13.3396388 L2.08614376,13.3396388 C2.57739017,13.3396388 2.88250928,13.3468693 3.0016486,13.3609689 C3.21658619,13.3852635 3.3865787,13.4580028 3.51019151,13.579006 C3.6336273,13.7000453 3.69473668,13.8596235 3.69473668,14.0574874 C3.69473668,14.2468554 3.64229399,14.4007937 3.53626534,14.518977 C3.42878733,14.6371964 3.27046719,14.7083812 3.06114635,14.7325312 C2.93639027,14.7467754 2.57739017,14.7539697 1.98458122,14.7539697 L1.26110809,14.7539697 Z M1.26110809,12.3214333 L1.26110809,10.6862453 L2.42626892,10.6862453 C2.88107098,10.6862453 3.16875713,10.6976696 3.29077675,10.7232295 C3.47821696,10.7561285 3.6307507,10.838629 3.74847016,10.9668628 C3.86615274,11.0964703 3.92563943,11.2701842 3.92563943,11.4866667 C3.92563943,11.6703949 3.87913434,11.8257432 3.78907452,11.9538323 C3.69761329,12.0820661 3.56665408,12.1759908 3.3953671,12.2344498 C3.2239326,12.2927642 2.85052735,12.3214333 2.27817547,12.3214333 L1.26110809,12.3214333 Z M6.28364286,15.7723199 L7.54330011,15.7723199 L7.54330011,12.4594283 C7.54330011,11.9339483 7.55930582,11.5921604 7.58984207,11.4369567 C7.64357555,11.1861652 7.77294894,10.9853368 7.97490125,10.834363 C8.17832874,10.6820154 8.45577345,10.6066008 8.80730914,10.6066008 C9.16470867,10.6066008 9.43496187,10.6777494 9.61663044,10.8216734 C9.79815149,10.9640067 9.90720426,11.1405405 9.94349372,11.3485633 C9.98125836,11.5579961 9.9986655,11.9041223 9.9986655,12.3883881 L9.9986655,15.7723199 L11.2583596,15.7723199 L11.2583596,12.5591375 C11.2583596,11.8243332 11.2250574,11.3059031 11.1567934,11.0025817 C11.088345,10.6990795 10.963434,10.4442028 10.780364,10.23477 C10.5974047,10.0268918 10.3517501,9.86022771 10.0466458,9.73622384 C9.74010311,9.61254535 9.33914885,9.55123032 8.84518442,9.55123032 C8.24935872,9.55123032 7.79758447,9.61804057 7.48956663,9.75346869 C7.18158567,9.8886076 6.93895524,10.063876 6.76020015,10.2789486 C6.58155571,10.4940212 6.46387312,10.7205542 6.40722616,10.9569569 C6.32439474,11.3073492 6.28364286,11.8243332 6.28364286,12.5094275 L6.28364286,15.7723199 Z M12.6211689,9.65502481 L12.6211689,15.7225014 L13.8808262,15.7225014 L13.8808262,10.6862453 L17.0132629,10.6862453 L17.0132629,9.65502481 L12.6211689,9.65502481 Z M20.8154687,11.9041223 L20.8154687,12.9353428 L23.5308717,12.9353428 L23.5308717,10.4982872 C23.2665192,10.2476042 22.8844841,10.0268918 22.3829963,9.83607768 C21.8818035,9.64656507 21.3747099,9.55123032 20.8620107,9.55123032 C20.209538,9.55123032 19.6400812,9.68510388 19.1547466,9.95274254 C18.6695595,10.2220442 18.304784,10.6051909 18.0607522,11.1049662 C17.8167203,11.6048862 17.6945384,12.147611 17.6945384,12.7343698 C17.6945384,13.3710194 17.8311033,13.937858 18.1027948,14.4334035 C18.3759615,14.9276836 18.7741129,15.3080103 19.3000888,15.5715276 C19.6995679,15.7751759 20.1980316,15.8764036 20.7935623,15.8764036 C21.5680324,15.8764036 22.1739631,15.7168254 22.6082933,15.3992237 C23.0442463,15.0800674 23.3245676,14.6400163 23.4496261,14.0775522 L22.1984511,13.8481992 C22.1098665,14.1487007 21.9443143,14.386658 21.7017207,14.5603719 C21.4589796,14.7340857 21.1568994,14.8209246 20.7935623,14.8209246 C20.2429878,14.8209246 19.805744,14.6500306 19.4803191,14.3081343 C19.1547466,13.9649726 18.9933986,13.4580028 18.9933986,12.7842244 C18.9933986,12.059326 19.1576232,11.5137813 19.4875106,11.150591 C19.815849,10.7873645 20.2473027,10.6066008 20.7806176,10.6066008 C21.04497,10.6066008 21.30947,10.6577208 21.5752608,10.7589846 C21.8396133,10.8600676 22.0677869,10.9840715 22.2582328,11.1278509 L22.2582328,11.9041223 L20.8154687,11.9041223 Z M30.3203195,9.65502481 L28.948696,9.65502481 L28.4038747,11.0452419 L25.9091588,11.0452419 L25.3948738,9.65502481 L24.0581383,9.65502481 L26.4890157,15.7723199 L27.8212888,15.7723199 L30.3203195,9.65502481 Z M27.9999332,12.0750163 L27.1397181,14.3452993 L26.2971315,12.0750163 L27.9999332,12.0750163 Z M30.9914901,9.65502481 L30.9914901,15.7723199 L33.6443454,15.7723199 C34.311201,15.7723199 34.7951342,15.7168254 35.0972145,15.6071019 C35.3994422,15.4973783 35.6420358,15.3023344 35.8237043,15.021753 C36.0053729,14.7397256 36.0955434,14.4193039 36.0955434,14.0574874 C36.0955434,13.5987816 35.9573926,13.2186356 35.6828245,12.9195079 C35.4081089,12.6219709 34.9956482,12.4326029 34.4478028,12.3556338 C34.7210801,12.1988755 34.9462297,12.0279816 35.1234358,11.8412889 C35.300642,11.6547408 35.5390312,11.3244133 35.8397101,10.8486434 L36.6023419,9.65502481 L35.0957762,9.65502481 L34.1848886,10.9867468 C33.860902,11.4625167 33.6400305,11.7616444 33.5210571,11.8855037 C33.4017518,12.0094714 33.2754394,12.0935265 33.1417511,12.1403804 C33.0080628,12.1860052 32.7972963,12.2088898 32.50687,12.2088898 L32.2524381,12.2088898 L32.2524381,9.65502481 L30.9914901,9.65502481 Z M32.2524381,13.1858451 L33.1837938,13.1858451 C33.7882862,13.1858451 34.1660063,13.2099951 34.3171386,13.2599943 C34.4666483,13.3098489 34.5843677,13.3966878 34.6700757,13.5191371 C34.754493,13.641731 34.7980108,13.7941148 34.7980108,13.9776983 C34.7980108,14.1843112 34.7412532,14.3493845 34.6294345,14.4763529 C34.5175051,14.6030321 34.3591813,14.6828212 34.1543524,14.7169855 C34.0526386,14.7298197 33.7462066,14.7369057 33.2346507,14.7369057 L32.2524381,14.7369057 L32.2524381,13.1858451 Z M37.2446727,9.65502481 L37.2446727,15.7723199 L38.5041086,15.7723199 L38.5041086,9.65502481 L37.2446727,9.65502481 Z M45.3327225,9.65502481 L43.9615416,9.65502481 L43.4164621,11.0452419 L40.9219307,11.0452419 L40.4074612,9.65502481 L39.070947,9.65502481 L41.5016769,15.7723199 L42.8341343,15.7723199 L45.3327225,9.65502481 Z M43.0126313,12.0750163 L42.1526006,14.3452993 L41.3099033,12.0750163 L43.0126313,12.0750163 Z M46.0127811,9.65502481 L46.0127811,15.7723199 L47.2390255,15.7723199 L49.7933018,11.6874952 L49.7933018,15.7723199 L50.9642269,15.7723199 L50.9642269,9.65502481 L49.6988902,9.65502481 L47.184075,13.6444063 L47.184075,9.65502481 L46.0127811,9.65502481 Z M0.235971464,0.108176923 L0.235971464,6.22546835 L2.88884887,6.22546835 C3.55570085,6.22546835 4.03959718,6.16997391 4.34171429,6.06025037 C4.64394204,5.95052684 4.88668312,5.75548286 5.06820417,5.47486536 C5.24987273,5.19287407 5.33989567,4.87241626 5.33989567,4.51074435 C5.33989567,4.05193005 5.20189246,3.67174794 4.92732436,3.3726564 C4.65271937,3.07510135 4.24014806,2.8857225 3.69241327,2.80875696 C3.96554308,2.65199872 4.19072949,2.48112284 4.36793564,2.29442652 C4.54525242,2.10787482 4.78353107,1.77755455 5.084173,1.30178101 L5.84698921,0.108176923 L4.34027599,0.108176923 L3.42936265,1.43989528 C3.10537228,1.91567244 2.88452659,2.21477844 2.76538726,2.33863047 C2.64625163,2.46262349 2.51990973,2.54650867 2.38622143,2.59367713 C2.25267697,2.63915004 2.04191782,2.66188649 1.75120017,2.66188649 L1.49707808,2.66188649 L1.49707808,0.108176923 L0.235971464,0.108176923 Z M1.49707808,3.63899356 L2.42843006,3.63899356 C3.03276386,3.63899356 3.41049139,3.66314359 3.56160158,3.71314281 C3.71114808,3.76299743 3.82883066,3.84983629 3.91457557,3.97228558 C3.99899281,4.09487949 4.0426213,4.2472271 4.0426213,4.43081066 C4.0426213,4.63742352 3.9858637,4.80253304 3.87393432,4.92946527 C3.76215247,5.05614444 3.60368112,5.13593352 3.39882271,5.170134 C3.29726017,5.18282361 2.99069907,5.190018 2.47913941,5.190018 L1.49707808,5.190018 L1.49707808,3.63899356 Z M6.5284123,0.108176923 L6.5284123,6.22546835 L11.1543225,6.22546835 L11.1543225,5.190018 L7.78792203,5.190018 L7.78792203,3.83418215 L10.9205062,3.83418215 L10.9205062,2.80437886 L7.78792203,2.80437886 L7.78792203,1.13937571 L11.2734802,1.13937571 L11.2734802,0.108176923 L6.5284123,0.108176923 Z M12.3386348,6.22546835 L14.6414665,6.22546835 C15.1600664,6.22546835 15.5552306,6.18692954 15.8283604,6.10869503 C16.1945742,6.00334598 16.5083452,5.81520717 16.7683828,5.54478474 C17.0300062,5.27548306 17.2289344,4.94515556 17.3656468,4.55481453 C17.5006259,4.16306354 17.5687792,3.6817984 17.5687792,3.10772196 C17.5687792,2.60497486 17.5049408,2.1705745 17.3771901,1.80608267 C17.2217428,1.36151616 16.999433,1.00126144 16.7088592,0.726442841 C16.4909012,0.517013689 16.1960125,0.35474939 15.823898,0.237816999 C15.5464533,0.150967294 15.1744863,0.108176923 14.7081447,0.108176923 L12.3386348,0.108176923 L12.3386348,6.22546835 Z M13.5981814,5.190018 L13.5981814,1.13937571 L14.5381669,1.13937571 C14.8898132,1.13937571 15.1440976,1.15801606 15.3011307,1.19784191 C15.5045213,1.24769291 15.6743884,1.33171908 15.809515,1.45133401 C15.9446416,1.57094893 16.0535468,1.76894297 16.1392549,2.04248899 C16.2235246,2.31603501 16.26719,2.69041099 16.26719,3.16322363 C16.26719,3.63617365 16.2235246,3.99784557 16.1392549,4.25149312 C16.0535468,4.50495991 15.9343891,4.70296842 15.7818553,4.84389176 C15.6278464,4.98640582 15.4332331,5.08184903 15.1978311,5.13155904 C15.0220632,5.17154396 14.6776084,5.190018 14.1633234,5.190018 L13.5981814,5.190018 Z M25.0527424,2.35712982 L26.2731967,1.97823113 C26.0857749,1.3103962 25.7749174,0.814706117 25.3389644,0.490040137 C24.9044867,0.166643118 24.3509987,0.00437773412 23.6812664,0.00437773412 C22.8532103,0.00437773412 22.1716397,0.282020942 21.6384723,0.836032612 C21.1053049,1.39159885 20.8380759,2.15066519 20.8380759,3.11210006 C20.8380759,4.13045378 21.1067432,4.92086092 21.6429716,5.48477121 C22.1790156,6.04752461 22.883599,6.32940745 23.7581971,6.32940745 C24.5210133,6.32940745 25.1414745,6.10869503 25.6178843,5.66582408 C25.9028156,5.40512675 26.1148729,5.02902989 26.2573754,4.5391604 L25.0092245,4.2472271 C24.9364612,4.56486499 24.7825998,4.81551187 24.5470871,4.99909543 C24.3132709,5.18282361 24.0284503,5.2740731 23.694248,5.2740731 C23.2323688,5.2740731 22.8560869,5.11167503 22.5682422,4.78557741 C22.2807293,4.46078128 22.1367885,3.93385523 22.1367885,3.20460043 C22.1367885,2.43113084 22.2778159,1.8800837 22.562489,1.55244958 C22.8458713,1.22340189 23.2149616,1.05972763 23.6681742,1.05972763 C24.0036673,1.05972763 24.2913645,1.16366673 24.5326672,1.37295489 C24.7738225,1.58097408 24.9467137,1.91002177 25.0527424,2.35712982 L25.0527424,2.35712982 Z M27.3585613,0.108176923 L27.3585613,6.22546835 L30.0114534,6.22546835 C30.6783091,6.22546835 31.1622054,6.16997391 31.4642857,6.06025037 C31.7665134,5.95052684 32.0092545,5.75548286 32.1907755,5.47486536 C32.3724441,5.19287407 32.4625039,4.87241626 32.4625039,4.51074435 C32.4625039,4.05193005 32.3244638,3.67174794 32.0498957,3.3726564 C31.7753276,3.07510135 31.3627194,2.8857225 30.8150215,2.80875696 C31.0881513,2.65199872 31.3133009,2.48112284 31.490507,2.29442652 C31.6678607,2.10787482 31.9061393,1.77755455 32.2067813,1.30178101 L32.9695975,0.108176923 L31.4628474,0.108176923 L30.5519598,1.43989528 C30.2279732,1.91567244 30.0071017,2.21477844 29.8879808,2.33863047 C29.768823,2.46262349 29.6425106,2.54650867 29.5088223,2.59367713 C29.3752815,2.63915004 29.164515,2.66188649 28.8737937,2.66188649 L28.6196568,2.66188649 L28.6196568,0.108176923 L27.3585613,0.108176923 Z M28.6196568,3.63899356 L29.5510125,3.63899356 C30.1553574,3.63899356 30.5330775,3.66314359 30.6842098,3.71314281 C30.8337195,3.76299743 30.9514389,3.84983629 31.0371469,3.97228558 C31.1215642,4.09487949 31.1652296,4.2472271 31.1652296,4.43081066 C31.1652296,4.63742352 31.108472,4.80253304 30.9965426,4.92946527 C30.8847238,5.05614444 30.7262525,5.13593352 30.5214236,5.170134 C30.4198574,5.18282361 30.1132778,5.190018 29.6017219,5.190018 L28.6196568,5.190018 L28.6196568,3.63899356 Z M33.3952979,3.12904846 C33.3952979,3.75294697 33.4897832,4.27564315 33.6799341,4.69859394 C33.8224366,5.00914589 34.0156116,5.28972723 34.2610818,5.53759035 C34.5066994,5.78400736 34.7755143,5.96759093 35.0673789,6.08736492 C35.4569374,6.24961837 35.9043968,6.32940745 36.4129286,6.32940745 C37.3324459,6.32940745 38.0678238,6.05034452 38.6199104,5.49055565 C39.1719969,4.93217673 39.4478558,4.1546038 39.4478558,3.15898653 C39.4478558,2.1705745 39.1734721,1.39851848 38.6258111,0.840410708 C38.0777813,0.283430898 37.3457226,0.00437773412 36.4303357,0.00437773412 C35.5018936,0.00437773412 34.7638604,0.282020942 34.2161256,0.836032612 C33.6684277,1.39159885 33.3952979,2.15645324 33.3952979,3.12904846 L33.3952979,3.12904846 Z M34.6926829,3.17042526 C34.6926829,2.47815831 34.8569075,1.95267115 35.1822218,1.59509895 C35.5092326,1.23780875 35.9232422,1.05972763 36.4260208,1.05972763 C36.9271399,1.05972763 37.3398219,1.23639518 37.6625177,1.59227181 C37.9833697,1.94687948 38.1445332,2.47815831 38.1445332,3.18751104 C38.1445332,3.88826664 37.9877952,4.41092666 37.6754256,4.7570529 C37.3615808,5.10176919 36.9444733,5.2740731 36.4260208,5.2740731 C35.9058351,5.2740731 35.4874737,5.09894927 35.1692402,4.75000312 C34.852445,4.40102081 34.6926829,3.87554088 34.6926829,3.17042526 L34.6926829,3.17042526 Z M40.1120562,2.09784605 L41.3379318,2.21619202 C41.4109532,1.81173334 41.5603153,1.51544726 41.7871245,1.32607203 C42.0120896,1.13796214 42.3159769,1.04249724 42.699524,1.04249724 C43.1048301,1.04249724 43.411299,1.12666441 43.6163492,1.29613033 C43.8225057,1.4641863 43.9257684,1.66076677 43.9257684,1.88573075 C43.9257684,2.03090927 43.8822506,2.15348872 43.7948461,2.25460429 C43.7092856,2.35712982 43.5580795,2.44553409 43.3415967,2.51953511 C43.1951849,2.57079969 42.8577372,2.65920396 42.3333103,2.78728947 C41.6576773,2.95110833 41.1841441,3.15333586 40.912342,3.39257655 C40.5287949,3.72868849 40.3370213,4.13891352 40.3370213,4.62317934 C40.3370213,4.93514125 40.4270074,5.22562844 40.6073483,5.49760543 C40.7876892,5.76820862 41.0476899,5.97482147 41.3858752,6.11715477 C41.7262732,6.25822272 42.1345296,6.32940745 42.6139635,6.32940745 C43.3983911,6.32940745 43.9866197,6.16136956 44.3834434,5.82525763 C44.778792,5.48759112 44.9864237,5.03908035 45.0067075,4.47643541 L43.7472715,4.42235092 C43.6934274,4.73698814 43.5768881,4.96352115 43.3998663,5.10035923 C43.2224758,5.23831805 42.9565744,5.30682747 42.6021621,5.30682747 C42.2359483,5.30682747 41.948288,5.23423279 41.7421314,5.08597044 C41.6086275,4.99204565 41.5415068,4.86522187 41.5415068,4.70719829 C41.5415068,4.56186431 41.6038332,4.43804121 41.7288548,4.33551207 C41.8874368,4.20445842 42.2735655,4.06776495 42.8868721,3.92666084 C43.5001786,3.78432754 43.9534281,3.63758361 44.2466203,3.48660981 C44.5401814,3.33422605 44.7699409,3.12777588 44.9370052,2.86425501 C45.1025943,2.60073776 45.1855732,2.27606817 45.1855732,1.89010885 C45.1855732,1.53973828 45.0867361,1.2106942 44.8875866,0.905796536 C44.6884371,0.599626293 44.4081527,0.371694174 44.0448893,0.223695742 C43.6816259,0.0741427424 43.2283765,1.42108547e-14 42.6866162,1.42108547e-14 C41.8973942,1.42108547e-14 41.2918324,0.178081842 40.8688241,0.535654037 C40.4461847,0.893085236 40.1931911,1.4143353 40.1120562,2.09784605 L40.1120562,2.09784605 Z M45.926483,2.09784605 L47.1527274,2.21619202 C47.22538,1.81173334 47.3751109,1.51544726 47.6015513,1.32607203 C47.8268852,1.13796214 48.1304037,1.04249724 48.5139508,1.04249724 C48.9192569,1.04249724 49.2260946,1.12666441 49.430776,1.29613033 C49.6369325,1.4641863 49.7401952,1.66076677 49.7401952,1.88573075 C49.7401952,2.03090927 49.6966774,2.15348872 49.6096417,2.25460429 C49.5237124,2.35712982 49.3725063,2.44553409 49.1563923,2.51953511 C49.0096117,2.57079969 48.672164,2.65920396 48.1481059,2.78728947 C47.4724729,2.95110833 46.9985709,3.15333586 46.7267688,3.39257655 C46.3435905,3.72868849 46.1518169,4.13891352 46.1518169,4.62317934 C46.1518169,4.93514125 46.241803,5.22562844 46.4217751,5.49760543 C46.602116,5.76820862 46.8621167,5.97482147 47.2006708,6.11715477 C47.5407,6.25822272 47.9489564,6.32940745 48.4283903,6.32940745 C49.2128179,6.32940745 49.8010465,6.16136956 50.1978702,5.82525763 C50.5932188,5.48759112 50.8008505,5.03908035 50.8211343,4.47643541 L49.5616983,4.42235092 C49.5078542,4.73698814 49.3916837,4.96352115 49.2142931,5.10035923 C49.0372714,5.23831805 48.7710012,5.30682747 48.4169577,5.30682747 C48.0507439,5.30682747 47.7627148,5.23423279 47.5565582,5.08597044 C47.4230543,4.99204565 47.3559336,4.86522187 47.3559336,4.70719829 C47.3559336,4.56186431 47.41826,4.43804121 47.5436504,4.33551207 C47.7018636,4.20445842 48.0883611,4.06776495 48.7012989,3.92666084 C49.3146054,3.78432754 49.7678549,3.63758361 50.0614159,3.48660981 C50.354977,3.33422605 50.5843677,3.12777588 50.751432,2.86425501 C50.9170211,2.60073776 51,2.27606817 51,1.89010885 C51,1.53973828 50.9011629,1.2106942 50.7020134,0.905796536 C50.5032327,0.599626293 50.2225795,0.371694174 49.8593161,0.223695742 C49.4960527,0.0741427424 49.0428033,0 48.501043,0 C47.7121898,0 47.1062592,0.178081842 46.6832509,0.535654037 C46.2606115,0.893085236 46.0076179,1.4143353 45.926483,2.09784605" id="path16" fill="#231F20"></path>
            </g>
        </g>
    </g>
</svg>