<?xml version="1.0" encoding="UTF-8"?>
<svg width="165px" height="57px" viewBox="0 0 165 57" version="1.1" xmlns="http://www.w3.org/2000/svg" xmlns:xlink="http://www.w3.org/1999/xlink">
    <title>LOGO PARTNERS</title>
    <g id="LOGO-PARTNERS" stroke="none" stroke-width="1" fill="none" fill-rule="evenodd">
        <rect id="Rectangle" fill="#FFFFFF" x="0" y="0" width="165" height="57"></rect>
        <rect id="Rectangle" fill="#FFFFFF" x="0" y="0" width="5" height="5"></rect>
        <rect id="Rectangle-Copy-3" fill="#FFFFFF" x="0" y="52" width="5" height="5"></rect>
        <rect id="Rectangle-Copy" fill="#FFFFFF" x="160" y="0" width="5" height="5"></rect>
        <rect id="Rectangle-Copy-2" fill="#FFFFFF" x="160" y="52" width="5" height="5"></rect>
        <g id="BDI-logo" transform="translate(56.000000, 2.000000)">
            <g id="g37" transform="translate(26.500000, 27.000000) scale(-1, 1) rotate(-180.000000) translate(-26.500000, -27.000000) translate(0.000000, 0.000000)">
                <path d="M15.560313,13.7400972 C20.2060145,13.1391287 23.1741299,13.3103406 26.3744273,15.2422173 C27.7111825,16.0491179 28.7978338,16.7230556 30.0013789,17.8319252 L22.5898127,17.6585399 L31.4731343,19.3049738 C37.5142061,25.8126617 43.24555,34.3762805 49.7455615,43.0624794 L47.001253,42.5150058 L50.220492,44.1123345 C53.0474561,45.4571113 53.0050272,54.0058285 52.9991798,54 L15.560313,13.7400972 Z" id="path39" stroke="#040407" stroke-width="0.5" fill="#8A8C8B" fill-rule="nonzero"></path>
                <path d="M20.5691284,13.4518893 C10.1930811,7.80444625 12.0472067,7.20780293 10.0960837,3.97013012 C8.58388466,3.12403364 5.4986368,2.46343735 2.07643102,0 L45.3809909,45.7762521 C46.3856593,46.9336136 44.896123,44.9576025 43.2580042,43.0516878 C39.3219647,38.472283 30.32163,28.1884112 22.9131123,20.0860737 C17.8999791,14.6034516 18.0859677,13.2161972 20.5691284,13.4518893 Z" id="path41" stroke="#040407" stroke-width="0.5" fill="#B9BBBA" fill-rule="nonzero"></path>
                <path d="M2.62852777,49.5876403 L42.3620715,9.58338026 L44.8654106,11.1621707 L4.00024808,51.0981741 C3.98658968,50.6842766 2.8273937,49.9707664 2.62852777,49.5876403 Z" id="path43" stroke="#040407" stroke-width="0.5" fill="#8A8C8B" fill-rule="nonzero"></path>
                <path d="M45.5630415,11.1460964 L43.0531281,8.6045577 C44.7570004,7.72993846 47.1530467,5.76378278 48.3860784,3.97601542 L50.215697,5.79056254 C48.2779177,7.00359241 46.4487331,9.2673166 45.5630415,11.1460964 Z" id="path45" stroke="#040407" stroke-width="0.5" fill="#220405" fill-rule="nonzero"></path>
                <path d="M7.42250811,47.0031507 L44.1777279,10.5507012 L44.3220144,10.6699567 L44.773154,11.0427969 C44.8095945,11.0729335 44.8476297,11.1010797 44.8870861,11.1271924 L45.2500156,11.3671559 L4.71286092,51.5677615 C3.82936073,52.4438978 -0.0989328389,53.8334439 0.0311528782,53.5018654 C-0.238456849,53.6058965 1.30464985,49.785944 2.23969179,48.8586905 L42.394856,8.99319249 L42.3980563,8.99319249 L42.4363411,9.03123719 L42.6050696,9.25437322 C42.7553012,9.45297818 42.9581051,9.58305748 43.1558102,9.73011488 L43.4061637,9.92875211 L6.54878252,46.4896225 C3.85377011,49.1624348 4.72728957,49.6761889 7.42250811,47.0031614 L7.42250811,47.0031507 Z" id="path47" stroke="#040407" stroke-width="0.5" fill="#B9BBBA" fill-rule="nonzero"></path>
                <path d="M43.9163414,11.508059 C46.012608,12.4703446 46.7453342,16.4400874 46.8690192,16.5220621 C47.1816762,16.728758 48.6362474,16.0273412 48.7523276,15.8647904 C45.5551437,9.97302641 44.0650867,8.49534058 38.124267,5.32426751 C37.9603553,5.43928387 37.2530366,6.88199139 37.4615252,7.19219126 C37.544311,7.31473909 41.547026,8.04151551 42.5174345,10.1206433 C42.8381086,10.8076213 42.6865318,11.0867161 42.8393996,11.2010869 C42.9596131,11.2909051 43.3153174,11.2320736 43.9163414,11.508059 Z" id="path49" stroke="#040407" stroke-width="0.5" fill="#AC881B" fill-rule="nonzero"></path>
                <path d="M50.6469293,5.79745922 C51.9262086,5.79745922 52.9633251,4.7688859 52.9633251,3.50014466 C52.9633251,2.23130658 51.9262086,1.20271174 50.6469293,1.20271174 C49.3676826,1.20271174 48.3305335,2.23130658 48.3305335,3.50014466 C48.3305335,4.7688859 49.3676826,5.79745922 50.6469293,5.79745922 Z" id="path51" stroke="#040407" stroke-width="0.5" fill="#AC881B"></path>
                <path d="M50.6469293,4.34022672 C51.1148191,4.34022672 51.4941192,3.96409418 51.4941192,3.50005858 C51.4941192,3.03610907 51.1148191,2.65996577 50.6469293,2.65996577 C50.1791263,2.65996577 49.799772,3.03610907 49.799772,3.50005858 C49.799772,3.96409418 50.1791263,4.34022672 50.6469293,4.34022672 Z" id="path53" stroke="#040407" stroke-width="0.5" fill="#8C671A"></path>
                <path d="M25.6118132,2.6846152 C24.1642177,3.5538871 22.6259169,4.43916876 21.2073306,5.25555895 L21.2041954,5.25738803 C19.4522854,6.26545422 17.8873188,7.16608932 16.4952682,8.05094061 C15.0850136,8.94735809 13.8497363,9.82861579 12.7752571,10.7883192 C11.829909,11.6325543 10.9766113,12.5225593 10.2207559,13.5305717 C9.46486797,14.5385518 8.81212863,15.659504 8.26984987,16.9639552 C7.73870178,18.2414007 7.31924016,19.6841943 7.01916753,21.358699 C6.72400932,23.0059829 6.54288088,24.8924233 6.48307248,27.084082 L6.47688877,27.1470344 L6.47688877,51.5807909 L6.47688877,52.166632 L7.06760659,52.166632 L46.9465759,52.166632 L47.5372938,52.166632 L47.5372938,51.5807909 L47.5372938,27.1470344 L47.5309256,27.0806068 C47.4710847,24.8904974 47.2899888,23.0051329 46.995015,21.358699 C46.6949315,19.6841943 46.2754808,18.2414007 45.7443327,16.9639552 C45.2020214,15.659504 44.5493037,14.5385518 43.7934266,13.5305717 C43.0376038,12.5225593 42.1843278,11.6325866 41.2390448,10.7883192 C40.1644788,9.82861579 38.9292341,8.94735809 37.5189795,8.05094061 C36.1269831,7.16611084 34.5620165,6.2654865 32.8101065,5.25738803 C32.0384772,4.81330008 31.2334234,4.35001763 30.6475115,4.00914315 C29.8939885,3.57066077 29.1366686,3.12546462 28.4024561,2.6846152 L27.6691441,2.24430375 L27.0073354,1.84653436 L26.3454289,2.24408857 L25.6118132,2.6846152 Z M21.7980701,6.26704659 C23.1662321,5.47971712 24.6497365,4.62591702 26.2210062,3.68240631 L27.0066627,3.21047343 L27.0068797,3.21047343 L27.0073137,3.21047343 L27.793274,3.68240631 C28.5696333,4.148583 29.3236444,4.59212222 30.0522264,5.01601506 C30.9484303,5.53748352 31.5966783,5.9105174 32.2193778,6.26884338 C33.9552969,7.26776421 35.5059651,8.16015773 36.8821442,9.03494913 C38.2400868,9.89812053 39.4258836,10.7433885 40.4498624,11.6579569 C41.344873,12.4572937 42.1468784,13.2921682 42.8473191,14.2263076 C43.547814,15.1604255 44.1526784,16.1991771 44.6552296,17.4079248 C45.1514994,18.6015234 45.54602,19.9640208 45.8320437,21.5600798 C46.1214847,23.1754948 46.2982411,25.0150249 46.355077,27.1425801 L46.3558364,27.1520052 L46.3558364,50.9949391 L7.65829186,50.9949391 L7.65829186,27.1506925 L7.65894278,27.1425801 C7.71586545,25.0150249 7.8926002,23.1755271 8.18207374,21.5600798 C8.46809742,19.9640208 8.86260722,18.6015234 9.35888787,17.4079248 C9.86140647,16.1991771 10.46626,15.1604255 11.1667984,14.2263076 C11.8672282,13.2921682 12.6693095,12.4573259 13.5643418,11.6579569 C14.5882881,10.7433885 15.7740849,9.89812053 17.1320275,9.03494913 C18.5082391,8.16015773 20.0589398,7.26776421 21.7948589,6.26884338 L21.7979942,6.26704659 L21.7980701,6.26704659 Z" id="path55" fill="#220405" fill-rule="nonzero"></path>
                <path d="M25.9053984,2.94286942 C24.3795518,3.8591162 22.8522841,4.73802838 21.4439389,5.54852251 C17.9208301,7.57589831 15.1497689,9.17051565 13.0300693,11.0637236 C11.171051,12.7239724 9.68607118,14.5480952 8.63063134,17.0867505 C7.59284218,19.5827883 6.98629623,22.7538507 6.86925055,27.1300778 L6.86620209,27.1484654 L6.86620209,51.8290175 L47.1479696,51.8290175 L47.1479696,27.1484654 L47.1448343,27.1300778 C47.0278863,22.7538507 46.4213295,19.5827883 45.3835512,17.0867505 C44.3280788,14.5480952 42.8431207,12.7239724 40.9842326,11.0637236 C38.8644027,9.17051565 36.0934717,7.57589831 32.570363,5.54852251 C31.1618985,4.73802838 29.6347175,3.8591162 28.108871,2.94286942 L27.0864001,2.32893599 L27.0070858,2.28139088 L26.9277825,2.32893599 L25.9053984,2.94286942 Z" id="path57" fill="#AE8B2A" fill-rule="nonzero"></path>
                <path d="M25.9952249,4.90664731 C24.593736,5.74820339 23.1909886,6.55543746 21.8974651,7.29988057 C18.6615517,9.1619728 16.116402,10.6266184 14.1694883,12.3654635 C12.4620251,13.8903717 11.0981049,15.5657802 10.1287163,17.8974921 C9.17552461,20.190051 8.61842665,23.1026117 8.51091689,27.1220514 L8.50811795,27.1389542 L8.50811795,49.8075055 L45.5060646,49.8075055 L45.5060646,27.1389542 L45.503168,27.1220514 C45.3957559,23.1026117 44.8386471,20.190051 43.8854662,17.8974921 C42.9160342,15.5657802 41.5521574,13.8903717 39.844781,12.3654635 C37.8977805,10.6266184 35.3527393,9.1619728 32.1168368,7.29988057 C30.8231939,6.55543746 29.4205008,5.74820339 28.0190445,4.90664731 L27.0799451,4.3427659 L27.0070858,4.29908335 L26.9342374,4.3427659 L25.9952249,4.90664731 Z" id="path59" fill="#971318"></path>
                <path d="M27.0070858,42.4353659 C30.7675297,46.2204046 40.8253655,45.8997683 42.9566623,45.7861076 L42.9002603,24.335998 C37.4932357,24.4224378 33.1181529,24.1301413 28.5008639,21.4842272 C28.5073188,21.4498836 28.5107036,21.4144427 28.5107036,21.3783346 L28.5107036,21.3382026 C28.5107036,21.0182979 28.2468545,20.7565577 27.924271,20.7565577 L26.0899116,20.7565577 C25.7673281,20.7565577 25.5034681,21.0182979 25.5034681,21.3382026 L25.5034681,21.3783346 C25.5034681,21.4443964 25.5147615,21.507919 25.5354173,21.5672455 C21.4453817,24.1175423 17.1028881,24.4317123 11.1139439,24.3358797 L11.0575203,45.7861076 C13.1888388,45.8998006 23.246642,46.2204046 27.0070858,42.4353659 Z" id="path61" stroke="#161415" stroke-width="0.5" fill="#176024" fill-rule="nonzero"></path>
                <path d="M27.0947969,43.8186393 C30.4731092,47.6285535 39.4453677,47.2740362 41.3658,47.1598806 L41.3149417,25.6288723 C33.3844646,25.7702918 30.0314513,24.4828833 27.3293439,22.3303559 C26.9352789,22.0164871 27.1595522,22.0260091 26.7095301,22.3814946 C24.0176638,24.5080492 20.5668285,25.7691621 12.6992409,25.6288723 L12.6484043,47.1598806 C14.5688366,47.2740362 23.6378755,47.5965662 27.0162855,43.786609 L27.0162855,43.7786794 L27.0947969,43.8186393 Z" id="path63" stroke="#161415" stroke-width="0.5" fill="#FFFFFF" fill-rule="nonzero"></path>
                <path d="M30.1236754,24.3855982 C29.6682397,24.4712956 29.3393206,24.1716505 29.6412158,23.664395 C29.9431327,23.1571718 29.8817838,22.8329634 29.6592354,22.4648142 C28.9474145,21.287419 29.7878348,21.0325432 30.2230378,20.9839006 C28.8800338,16.3661283 31.6606634,17.3343961 31.4595084,16.0026702 C31.6298534,16.0026702 32.2703555,16.5472926 32.349507,17.0900428 C33.8808321,16.6435125 34.5850806,17.6367632 35.090767,17.1584178 C35.7643899,16.5212982 32.1212087,14.6945286 31.4477919,14.936375 C31.2355822,15.3392657 30.8031782,15.5066151 30.4105669,15.4371964 C30.0972915,15.3818401 29.8093042,15.1757359 29.6785459,14.8182922 C29.2308562,14.7422889 29.0725099,14.3120696 29.1378944,13.8664539 C29.1072363,13.8512726 29.33292,14.1447203 29.6675346,14.1966659 C29.7136954,14.0541166 29.7919573,13.9275771 29.8928494,13.824127 C29.6122392,13.6227677 29.4729647,13.1132958 29.5006178,12.9143465 C29.5282601,12.7154403 29.5117485,12.8473702 29.5198307,12.8149849 C29.335784,12.5931937 29.1076377,12.4380239 29.4467978,11.6054733 C29.57556,11.9037734 29.7360219,12.1100389 29.9214789,12.2473162 C30.1116876,12.1209919 30.4519218,12.0748454 30.5921835,12.0940292 C30.7324453,12.1131806 30.6631335,12.1057352 30.6974476,12.1143426 C30.6964713,12.0643229 30.6776489,12.1697528 30.7064303,11.9625189 C30.7352117,11.7552743 31.0061992,11.3114661 31.3303232,11.1924903 C31.3324169,10.7067318 31.8059697,10.4949468 31.9710422,10.5383173 C31.9426623,10.6502242 31.854897,10.9262312 31.9304467,11.1696699 C32.3879761,11.2980062 32.8968954,11.4894778 32.6389479,12.169785 C32.2041464,12.8440456 33.138136,12.8963893 33.4787825,12.7739921 C33.5170672,12.6134211 33.5922806,12.4202711 33.7381728,12.2889437 C33.7142516,11.9089594 33.4257002,11.725568 33.4257002,11.725568 C33.4257002,11.725568 34.2020378,11.528706 34.3573899,12.1616726 C34.7826989,12.2767105 34.9782126,12.8009548 34.8473675,13.1099711 C36.2890831,14.0362455 38.0899203,15.9359736 38.5380656,17.5236082 C37.9210616,17.4017382 37.5977296,17.3729142 37.6007129,17.6033342 C38.3793504,18.6078391 38.323198,19.925621 36.9462812,19.7047875 C35.9187006,19.5399988 34.2889135,18.919201 34.7710692,20.2062975 C35.2804767,21.5662987 35.4922308,21.6458095 35.4384542,23.0860209 C37.114554,22.8752688 37.3482115,23.9687096 38.4644144,23.1402475 C38.5572568,24.1452688 38.0748516,24.5368086 37.4919122,24.6092722 C38.2581931,25.9785048 37.7585928,27.4848317 36.6745234,29.353982 C35.9412766,30.618086 34.7514224,32.3514116 34.228823,33.1607007 C33.7314033,33.9309768 33.1996802,35.5560643 33.6638164,36.4332335 C33.8537431,36.792205 34.2331842,37.0370424 34.6702965,37.0370424 C35.2976717,37.0370424 35.8062439,36.5326597 35.8062439,35.9104524 C35.8062439,35.2882558 35.2976717,34.7838623 34.6702965,34.7838623 C34.6493586,34.7838623 34.6285076,34.7844003 34.607841,34.785573 C34.6162921,34.2980177 35.0060176,33.7444114 35.8822059,33.7545036 C35.8716502,32.0581145 36.4712855,30.8029945 37.993628,30.8029945 C37.5505598,33.1652734 37.8435049,35.0921148 37.5673209,36.7852545 C37.2361453,38.8157935 35.225279,39.2877264 33.6097578,38.5423042 C33.4120743,39.0576399 32.5363526,39.310536 31.9720295,38.8584002 C33.1822031,37.8249744 30.8777733,36.0692589 32.8646642,32.4125994 C33.8326751,30.6310832 36.4263831,27.6457793 36.2685358,25.8843291 C36.1914998,25.0245361 35.4094775,24.5831379 34.3905758,25.7634597 C33.1468692,27.2042198 31.7425271,29.3424481 31.3845662,30.152953 C31.0287751,29.978707 28.7745852,29.9261911 27.9131294,31.5468566 L19.2146574,26.3763602 C19.0137302,26.7214523 18.644118,27.0132109 18.2281388,27.093109 C17.885442,27.1589234 17.5124449,27.0770347 17.1646384,26.7970899 C16.7280902,26.7816611 16.4921329,26.6129991 16.3638047,26.2058154 C16.6337073,26.2601926 16.8336255,26.2586971 16.9947383,26.2117007 C17.0229989,26.0184001 17.1233486,25.8482748 17.2677545,25.7289333 C17.0024842,25.6097531 16.8170489,25.3464528 16.8131434,25.0397927 C16.2964239,24.6616051 16.5053791,24.193481 16.5905624,24.0347714 C16.6273175,24.1106133 16.8072092,24.3227964 17.0784136,24.4514985 C17.2143359,24.3339645 17.3920253,24.2627168 17.5864976,24.2627168 C17.694745,24.2627168 17.797796,24.284827 17.891311,24.3246578 L17.891311,24.3226781 C17.891311,23.9385191 18.1472949,23.6136114 18.4993107,23.5065891 C18.6125051,23.2031891 18.9134131,22.9842061 19.1737907,23.0014102 C19.0985121,23.0860209 19.0276273,23.3078013 19.102754,23.5431275 C19.4031086,23.6763808 19.6020722,23.9136007 19.6020722,24.2610383 C19.2977578,24.9480163 20.1564689,25.1068874 20.5277735,25.0135294 C20.5243887,24.8487192 20.5779266,24.7425147 20.6667659,24.6288863 C20.6418901,24.3216344 20.4314921,24.2092218 20.4314921,24.2092218 C20.4314921,24.2092218 20.6726784,24.1006502 21.1044315,24.3721491 C21.1393315,24.3667802 21.1750343,24.3639721 21.2114531,24.3639721 C21.591979,24.3639721 21.9004159,24.6698682 21.9004159,25.0472273 C21.9004159,25.120401 21.8887971,25.1908203 21.8672951,25.256882 L24.9956011,26.1747965 C25.8131743,26.1032152 26.4308943,26.326986 26.5068129,27.5757796 C26.962498,26.4608418 26.0434795,25.6080101 25.3542888,25.6433004 C25.6046423,25.5286176 26.7938889,24.8911967 27.3637557,24.8140099 C28.1939892,24.7014681 29.1944808,25.8369346 30.1236754,24.3855982 L30.1236754,24.3855982 Z" id="path65" stroke="#040407" stroke-width="0.5" fill="#AC881B" fill-rule="nonzero"></path>
                <path d="M16.2264938,33.3555829 C16.0234728,33.2127539 15.9451784,32.9934482 15.9537813,32.8809603 C15.735594,33.0229608 15.6287352,33.3570139 15.7228686,33.6667296 C15.5008409,33.9714423 15.4297065,34.4279464 15.7732713,34.699725 C15.2962795,34.7535535 15.1831393,34.8697857 14.9694433,35.3082035 C14.7292442,35.4572513 14.5374081,35.3314112 14.4619777,35.2548269 C14.4648635,35.4260173 14.4966065,35.8928933 15.0290456,35.8664471 C15.1978717,36.1190634 15.5284506,36.3195943 15.8060775,36.2242243 C15.7634641,36.4058189 15.8551891,36.6687426 15.9501579,36.8397501 C15.9012307,36.9673225 15.8848384,37.1351345 15.5088906,37.1419344 C16.0489888,37.5419201 16.2950353,37.3840927 16.5306889,37.1568789 C16.871357,37.1570941 17.3237876,36.7740864 17.4349858,36.2063209 C17.467369,35.3572119 17.4547303,34.7347356 17.3384874,33.9988568 C17.2653895,33.5362307 16.8905808,33.2036408 16.2264938,33.3555829 L16.2264938,33.3555829 Z" id="path67" stroke="#040407" stroke-width="0.5" fill="#AC881B" fill-rule="nonzero"></path>
                <path d="M21.249586,32.4353445 L19.3571973,33.3705275 C19.2827758,33.8851962 19.2135508,34.459514 19.1722285,35.0603642 C19.1586026,35.2575705 19.1481445,35.45709 19.141592,35.6574702 C19.3214294,35.5790568 19.4989995,35.4985669 19.6637032,35.4171086 C20.9613709,34.7752657 22.7348045,34.0450678 23.3427173,33.9363349 L21.9526954,33.088108 C21.6893019,32.9274402 21.4236953,32.6853464 21.249586,32.4353445 L21.249586,32.4353445 Z" id="path69" stroke="#040407" stroke-width="0.5" fill="#AC881B" fill-rule="nonzero"></path>
                <path d="M17.2858391,31.7808487 L18.0424539,31.5425636 L18.0424539,27.4251179 C17.8275321,27.4305513 17.5248666,27.4130137 17.2858391,27.2679253 L17.2858391,31.7808487 Z M18.0424539,23.1959589 L18.0424539,16.2382439 C18.0826806,15.4688501 18.1019043,14.8072425 18.2627676,14.2895935 C18.3928207,14.6765929 18.4403919,15.2919358 18.4869758,16.2382439 L18.4869758,22.8302521 C18.645626,22.7107921 18.9208553,22.5736333 19.2194308,22.538386 L19.2194308,14.3016116 C19.0601298,13.2417504 18.7319809,11.9766028 18.287242,11.5431557 C17.7373367,12.122907 17.4233019,13.4399358 17.2858391,14.3016116 L17.2858391,23.8577495 C17.6031393,23.6477397 17.7805467,23.4320491 18.0424539,23.1959589 L18.0424539,23.1959589 Z M18.4869758,27.3318567 L18.4869758,31.5425636 L19.2194308,31.7665712 L19.2194308,26.8334131 C19.0631131,26.9995681 18.7780767,27.2081792 18.4869758,27.3318567 Z" id="path71" stroke="#040407" stroke-width="0.5" fill="#AC881B" fill-rule="nonzero"></path>
                <path d="M21.6712173,39.1063148 C21.4167522,38.3289699 22.0255764,37.9563018 22.5322717,37.9442945 C23.2925859,37.9262943 23.9256784,38.2040442 24.5718109,38.060064 C24.6307948,38.0464858 24.9342197,37.5995359 25.3228387,38.0431935 C25.0464703,38.6980659 24.2632113,38.5101664 23.4206104,38.4895732 C22.8018814,38.4744779 22.1682356,38.6091622 21.6712173,39.1063148 L21.6712173,39.1063148 Z" id="path73" stroke="#040407" stroke-width="0.5" fill="#AC881B" fill-rule="nonzero"></path>
                <path d="M23.6284589,40.6096291 C23.5365169,40.5523254 23.1637044,40.500993 23.0918757,40.4765372 C23.0327616,40.2978046 23.060968,39.2024809 23.6042557,39.1706443 C23.8300153,39.1573459 23.5264277,39.1594439 23.9681833,38.5537413 C24.0247045,39.624889 25.1718694,39.0811596 25.5209127,38.4217791 C25.7206139,38.0445707 25.6869398,37.636311 24.9683603,37.4535006 C24.5092578,37.3377311 24.0818116,37.4532855 24.0097877,37.9837271 C24.0188246,37.9336751 23.8220199,37.9444774 23.8808411,37.4651529 C23.5110227,37.4636897 23.4828489,37.3146095 23.6039845,37.0696214 L23.5939929,36.576665 C23.5791411,35.8437881 24.3810598,36.080115 24.6071123,36.4606265 L26.9933407,37.8879591 C27.5129241,38.209015 28.5879566,38.6705545 28.7403036,39.7912592 C29.620419,39.7862239 30.1230353,40.0974351 30.0779484,40.9310509 C30.0606341,41.2506436 29.871879,41.4939962 29.5869945,41.5636516 C29.2569037,41.644389 28.8505472,41.4955886 28.6202095,41.0264854 C28.5838992,41.2725817 28.6564439,41.3908473 28.831573,41.7076103 C26.9847377,41.8953915 25.3623493,41.843392 25.3793274,41.2913996 C24.5879862,41.1262452 23.6252911,41.1125164 23.0708402,40.8416308 C23.0732052,40.5342929 23.3497581,40.7567188 23.5462048,40.6719036 L23.5487867,40.6720005 C23.5637253,40.6652006 23.5781539,40.657723 23.5917472,40.6494599 L23.5858673,40.6494599 C23.6008167,40.6387867 23.6150826,40.6256712 23.6284589,40.6096291 L23.6284589,40.6096291 Z M29.1280873,40.3283716 C28.8743816,40.6947455 28.950246,40.8950074 29.0981885,40.9848579 C29.2588456,41.0824765 29.5379153,41.0474659 29.6704203,40.8737471 C29.3524475,40.8734244 29.078661,40.7125951 29.1280873,40.3283716 L29.1280873,40.3283716 Z M25.7398594,40.7995406 C25.9243075,40.8792989 25.7166108,41.1402429 26.059069,41.1517446 C26.1680867,40.9873863 26.2660605,40.8643866 26.460012,40.8211344 C26.5614357,40.79854 26.5629653,40.8103106 26.5269913,40.7004802 C25.9916014,40.8387688 25.7886022,40.6831578 25.7244218,40.6541832 C25.6846291,40.7551695 25.6546761,40.7627009 25.7398594,40.7995406 L25.7398594,40.7995406 Z" id="path75" stroke="#040407" stroke-width="0.5" fill="#AC881B" fill-rule="nonzero"></path>
                <path d="M22.29856,34.6525349 C22.9849735,34.3148559 23.541746,34.1350689 24.0633581,34.4092253 L26.6870843,35.9747174 C26.6899158,35.8379888 26.5804099,35.4900348 26.3761848,35.3674224 L21.9728955,32.661407 C21.548986,32.4196683 21.2171052,31.7996021 21.2167689,31.4071477 L21.216118,30.5428789 L26.3530772,33.6781022 C26.3691983,33.3860209 26.1986689,33.0818246 25.9366315,32.9245137 L21.6130579,30.3294477 C21.3166412,30.1510917 21.1891158,29.834759 21.1877597,29.4850942 L21.1875427,28.1969756 L27.6632642,32.0172078 C27.6825747,32.1819319 27.6479785,32.8948397 28.3216014,33.1924728 C27.7864936,30.6856972 30.6390713,30.5240287 31.1386065,30.7385896 C29.7300443,33.2821726 32.8997377,38.0271837 30.6505708,40.2758557 C30.5035504,40.4227948 30.3444121,40.515292 30.343056,40.4646375 C30.3277052,39.8860805 29.6994729,39.4307383 29.0259151,39.4019681 C28.7748565,38.6648843 28.3224693,38.2388504 27.9151581,37.9964123 L22.2985817,34.6525349 L22.29856,34.6525349 Z" id="path77" stroke="#040407" stroke-width="0.5" fill="#AC881B" fill-rule="nonzero"></path>
                <path d="M29.5410506,20.8292042 C29.588535,20.7172757 29.603723,20.6240683 29.4863085,20.4191262 L27.3025587,20.9133522 C26.4920262,21.0968942 26.0392051,20.4399561 26.3523504,19.9449016 C26.643321,19.4846748 28.468611,18.787992 28.7939609,18.56959 C29.7152359,17.8257602 29.1254402,17.1803452 28.4256722,16.7731937 C28.0669519,16.2513595 29.0874918,16.2661534 29.2432779,16.3219294 C28.7423974,15.3578685 27.319591,14.3611748 26.2775926,13.8773745 C26.3647069,13.5535427 26.0988617,13.0606508 25.6616626,13.0042938 C25.4458403,12.352929 24.7030574,12.6854865 24.7030574,12.6854865 C24.7030574,12.6854865 25.0465571,12.8512112 25.0657808,13.2142067 C24.9393294,13.3640831 24.8914111,13.5656145 24.8756046,13.7298222 C24.5742085,13.9545398 23.6915328,13.9504836 23.8729433,13.5121518 C24.2582318,12.9235241 23.8879144,12.2881475 23.2167215,12.3620743 C23.1083873,12.1311163 23.1573471,11.8458026 23.17004,11.7311198 C23.0005412,11.710505 22.5605649,11.9843817 22.6254287,12.4658688 C22.320637,12.6276664 22.1133091,12.9463768 22.1133091,13.3131811 C22.1133091,13.3647824 22.1174316,13.4154154 22.1253402,13.4647896 C22.0901582,13.4609808 22.0544554,13.4589366 22.0182319,13.4589366 C21.7712632,13.4589366 21.5459701,13.5506699 21.3748657,13.7016114 C21.172333,13.5906836 20.9849883,13.4081207 20.8163141,13.1300049 C20.5949373,14.0007077 20.842329,14.1235246 21.055168,14.3183207 C21.0516639,14.3515023 21.0498196,14.3852325 21.0498196,14.4193931 C21.0498196,14.7868429 21.2579502,15.1060375 21.5635882,15.2675338 C21.4778842,15.3836692 21.4177937,15.5196015 21.3916811,15.6671 C21.0530416,15.660935 20.7890406,15.4008086 20.8215431,15.4116647 C20.8181041,15.8619823 21.0341976,16.2667021 21.4881578,16.281367 C21.5636858,16.4235289 21.6740813,16.5445382 21.80804,16.6333881 C21.8498614,16.661814 21.8953713,16.6872166 21.9439623,16.7085952 C22.0662587,16.7639193 22.2022135,16.7947553 22.345426,16.7947553 C22.7989306,16.7947553 23.1796084,16.485556 23.2848725,16.0681187 C23.3085442,16.044911 23.3326932,16.0254583 23.3576342,16.0113959 C24.7340519,15.8889127 28.311957,17.0526221 24.9988015,18.3931276 C24.4029523,18.6341562 22.3920751,19.1645549 22.3316808,20.3475987 C21.6873383,20.0417025 20.6627411,20.2192301 20.4350179,20.9639207 C20.5983437,20.8892946 21.3439906,21.0616362 21.5736123,21.7098809 C22.0227449,23.2655605 23.0286717,24.239961 24.3834248,24.3421308 C25.0304469,24.3909025 28.3959361,24.0582265 28.99926,23.9627597 C29.2970653,23.6750036 29.5014423,23.1042256 29.2690542,22.6293877 C28.9240791,21.9245924 28.7117284,20.97298 29.5410506,20.8292042 Z" id="path79" stroke="#040407" stroke-width="0.5" fill="#AC881B" fill-rule="nonzero"></path>
                <path d="M18.119338,31.7993331 C17.193116,32.2092281 16.0944119,31.8791129 15.55644,31.5388732 C15.5148031,31.7681851 15.4428659,31.9680488 15.3557516,32.1407348 C15.8108834,32.4728943 17.0478206,32.6894672 18.2901603,32.7064775 C19.4405689,32.7222506 20.5953061,32.56707 21.1064602,32.2054516 C21.0085515,31.9873187 20.9591903,31.7595023 20.9355403,31.560467 C20.458299,31.917362 19.3190644,32.256472 18.3204822,31.8004843 C18.1499311,31.7226196 18.2907461,31.7234158 18.119338,31.7993331 Z" id="path81" stroke="#040407" stroke-width="0.5" fill="#AC881B" fill-rule="nonzero"></path>
                <path d="M17.4637021,32.985142 L19.0954311,33.0032283 C18.7889361,34.0292087 18.658883,35.8798638 18.993465,36.8831852 C19.1992524,37.4453667 19.5205232,37.9590777 19.494812,38.5213883 C19.1384567,39.8824438 18.6151522,40.6704727 18.6684406,43.4283799 L18.384055,43.4672638 L18.384055,38.8267034 C18.6494989,38.7780286 18.8505562,38.547275 18.8505562,38.2699231 C18.8505562,37.9571948 18.5949195,37.7036209 18.2795612,37.7036209 C17.9642246,37.7036209 17.7085879,37.9571948 17.7085879,38.2699231 C17.7085879,38.547275 17.9096452,38.7780286 18.1750891,38.8267034 L18.1750891,43.4672638 L17.8907252,43.4283799 C17.9440245,40.6704727 17.4206548,39.8824438 17.0643647,38.5213883 C17.0385884,37.9590777 17.3708055,37.4453667 17.5765928,36.8831852 C17.9734242,35.7713568 17.8362977,34.0777974 17.4637021,32.985142 Z" id="path83" stroke="#040407" stroke-width="0.5" fill="#AC881B" fill-rule="nonzero"></path>
            </g>
        </g>
    </g>
</svg>