<?xml version="1.0" encoding="UTF-8"?>
<svg width="165px" height="57px" viewBox="0 0 165 57" version="1.1" xmlns="http://www.w3.org/2000/svg" xmlns:xlink="http://www.w3.org/1999/xlink">
    <title>LOGO PARTNERS</title>
    <g id="LOGO-PARTNERS" stroke="none" stroke-width="1" fill="none" fill-rule="evenodd">
        <rect id="Rectangle" fill="#FFFFFF" x="0" y="0" width="165" height="57"></rect>
        <rect id="Rectangle" fill="#FFFFFF" x="0" y="0" width="5" height="5"></rect>
        <rect id="Rectangle-Copy-3" fill="#FFFFFF" x="0" y="52" width="5" height="5"></rect>
        <rect id="Rectangle-Copy" fill="#FFFFFF" x="160" y="0" width="5" height="5"></rect>
        <rect id="Rectangle-Copy-2" fill="#FFFFFF" x="160" y="52" width="5" height="5"></rect>
        <g id="AF_INDRA_LOG_RGB_POS" transform="translate(5.000000, 9.000000)" fill="#004254" fill-rule="nonzero">
            <rect id="Rectangle" x="0" y="9.83783784" width="10.0123544" height="30.1081081"></rect>
            <path d="M27.6297211,39.9459459 L17.6173667,39.9459459 L17.6173667,9.83783784 L39.0098835,9.83783784 C44.2075538,9.83783784 47.8732792,11.7837838 49.2957995,15.1351351 C50.0070597,16.8648649 50.2806212,19.2432432 50.2806212,23.3513514 L50.2806212,40 L40.2682669,40 L40.2682669,24.3243243 C40.2682669,21.2432432 40.1041299,20.2162162 39.611719,19.2972973 C38.9551712,18.2702703 37.9156371,17.9459459 35.2894458,17.9459459 L27.6297211,17.9459459 L27.6297211,39.9459459 L27.6297211,39.9459459 Z" id="Path"></path>
            <path d="M71.5637134,39.9459459 C64.9435228,39.9459459 61.1683727,38.5405405 58.8704553,35.4054054 C57.5573597,33.4594595 56.9008119,30.2702703 56.9008119,25.2432432 L56.9008119,24.4324324 C56.9008119,18.4864865 57.6667843,15.3513514 59.7458525,13.2972973 C62.2626191,10.7567568 65.6000706,9.78378378 71.5637134,9.78378378 L80.7006707,9.78378378 L80.7006707,0 L90.7130251,0 L90.7130251,40 L71.5637134,40 L71.5637134,39.9459459 Z M80.7006707,17.9459459 L72.3843982,17.9459459 C67.6244264,17.9459459 66.9131663,18.7567568 66.9131663,24.3783784 L66.9131663,25.4054054 C66.9131663,31.027027 67.6244264,31.8378378 72.3843982,31.8378378 L80.7006707,31.8378378 L80.7006707,17.9459459 Z" id="Shape"></path>
            <path d="M97.3332157,23.3513514 C97.3332157,19.2972973 97.6067773,16.9189189 98.3180374,15.1351351 C99.7405577,11.7837838 103.460995,9.83783784 108.603953,9.83783784 L115.661843,9.83783784 L115.661843,17.9459459 L112.324391,17.9459459 C109.6982,17.9459459 108.713378,18.2702703 108.05683,19.2972973 C107.564419,20.1621622 107.400282,21.2432432 107.400282,24.3243243 L107.400282,39.9459459 L97.387928,39.9459459 L97.387928,23.3513514 L97.3332157,23.3513514 Z" id="Path"></path>
            <path d="M135.905401,39.9459459 C129.28521,39.9459459 125.455348,38.5405405 123.15743,35.4054054 C121.844335,33.4594595 121.187787,30.2702703 121.187787,25.2432432 L121.187787,24.4324324 C121.187787,18.4864865 121.953759,15.3513514 124.032827,13.2972973 C126.549594,10.7567568 129.887046,9.78378378 135.850688,9.78378378 L155,9.78378378 L155,39.8918919 L135.905401,39.8918919 L135.905401,39.9459459 Z M145.042358,17.9459459 L136.726085,17.9459459 C131.966114,17.9459459 131.254854,18.7567568 131.254854,24.3783784 L131.254854,25.4054054 C131.254854,31.027027 131.966114,31.8378378 136.726085,31.8378378 L145.042358,31.8378378 L145.042358,17.9459459 Z" id="Shape"></path>
        </g>
    </g>
</svg>