<?xml version="1.0" encoding="UTF-8"?>
<svg width="165px" height="57px" viewBox="0 0 165 57" version="1.1" xmlns="http://www.w3.org/2000/svg" xmlns:xlink="http://www.w3.org/1999/xlink">
    <title>LOGO PARTNERS</title>
    <defs>
        <linearGradient x1="0%" y1="50.0029061%" x2="100%" y2="50.0029061%" id="linearGradient-1">
            <stop stop-color="#FFFFFF" offset="0%"></stop>
            <stop stop-color="#5673B8" offset="50%"></stop>
            <stop stop-color="#FFFFFF" offset="50%"></stop>
            <stop stop-color="#5673B8" offset="100%"></stop>
        </linearGradient>
    </defs>
    <g id="LOGO-PARTNERS" stroke="none" stroke-width="1" fill="none" fill-rule="evenodd">
        <rect id="Rectangle" fill="#FFFFFF" x="0" y="0" width="165" height="57"></rect>
        <rect id="Rectangle" fill="#FFFFFF" x="0" y="0" width="5" height="5"></rect>
        <rect id="Rectangle-Copy-3" fill="#FFFFFF" x="0" y="52" width="5" height="5"></rect>
        <rect id="Rectangle-Copy" fill="#FFFFFF" x="160" y="0" width="5" height="5"></rect>
        <rect id="Rectangle-Copy-2" fill="#FFFFFF" x="160" y="52" width="5" height="5"></rect>
        <g id="KEMEA-Logo" transform="translate(39.000000, 4.000000)">
            <path d="M23.2157184,46.1197181 C10.3940312,46.1197181 0,35.7954675 0,23.059859 C0,10.3242506 10.3940312,0 23.2157184,0 C36.0374056,0 46.4314368,10.3242506 46.4314368,23.059859 C46.4215045,35.7913788 36.0332893,46.1098525 23.2157184,46.1197181 Z M23.2157184,0.640452252 C14.085734,0.640452252 5.85478056,6.10339483 2.36105509,14.4818411 C-1.13267038,22.8602874 0.798887435,32.5041837 7.25501884,38.9164601 C13.7111503,45.3287364 23.4203829,47.2465571 31.8551794,43.7756183 C40.289976,40.3046796 45.7891853,32.128549 45.7884568,23.059859 C45.7745589,10.6829868 35.6762457,0.653269314 23.2157184,0.640452252 Z" id="Shape" fill="#F58021" fill-rule="nonzero"></path>
            <path d="M35.844781,10.510215 C37.7297637,12.4124612 39.3473435,14.558967 40.6536226,16.8914809 C41.9549759,19.2246239 42.877654,21.747067 43.3876381,24.3658092 C43.8793287,26.9759204 43.9099468,29.696948 43.2831764,32.2891696 C42.6665823,34.8957604 41.3465434,37.2861841 39.4649202,39.2035493 C37.5460068,41.088208 35.1380308,42.4067382 32.50921,43.0122724 C29.8940647,43.6348349 27.1546459,43.6026334 24.5250921,43.1106659 C21.8910021,42.6012349 19.3544623,41.681701 17.0092509,40.3860603 C12.2962352,37.7680698 8.39082346,33.9235128 5.71297585,29.2658056 C4.37224434,26.9376251 3.41747951,24.4102892 2.88530495,21.7807435 C2.37200164,19.1545315 2.3233729,16.4138252 2.94113795,13.7786683 C3.5404823,11.1231189 4.87986584,8.68861391 6.80622186,6.75337221 C8.76265486,4.85273616 11.2117169,3.52866743 13.8808023,2.92854843 C16.5265657,2.31671974 19.2839951,2.36681098 21.9297585,2.87487924 C24.5743401,3.40717389 27.1168087,4.35404781 29.4618093,5.67998855 C31.7983881,6.99774394 33.9453922,8.62245985 35.844781,10.510215 Z M35.5151862,10.8375971 C33.6382123,8.9853737 31.5177702,7.39368341 29.2114613,6.10576407 C26.9098249,4.82277266 24.4171451,3.91210797 21.8270978,3.40799313 C19.2461727,2.92497048 16.562587,2.89276897 14.014081,3.49744177 C11.4580021,4.08594627 9.11667757,5.36797139 7.25108473,7.20061541 C5.42263515,9.06372278 4.14317115,11.3889154 3.55169873,13.9235751 C2.94474007,16.4531826 2.97535817,19.1115961 3.46344658,21.6769831 C3.97107489,24.247532 4.88275629,26.7227315 6.16504298,29.0117714 C8.75974995,33.6242287 12.5703128,37.4475539 17.1875563,40.0712011 C19.4908919,41.3766603 21.9900754,42.3068073 24.5899304,42.8262192 C27.183463,43.3289205 29.8868604,43.3772228 32.4677855,42.7814949 C35.0637461,42.2014992 37.4463529,40.9163073 39.3496521,39.0693764 C41.2248908,37.1902397 42.5262101,34.8221584 43.10307,32.2390783 C43.7010233,29.6736914 43.6433893,26.9848653 43.1426934,24.4087445 C42.614064,21.8270082 41.6715174,19.3463304 40.3510438,17.0614333 C39.0283472,14.7823157 37.401679,12.6911713 35.5151862,10.8447529 L35.5151862,10.8375971 Z" id="Shape" fill="#F58021" fill-rule="nonzero"></path>
            <path d="M30.3389275,15.9844717 C33.4655751,19.1598984 36.2608269,22.6913306 38.3482603,26.6270707 C39.3838723,28.5949408 40.2429799,30.6701492 40.6896439,32.8562739 C40.9285987,33.9494808 40.9839775,35.0744039 40.8535407,36.1855523 C40.7332987,37.3126371 40.2478916,38.3704755 39.4703234,39.1999714 C38.6400645,39.9823735 37.5735625,40.471494 36.4355301,40.5917922 C35.3153387,40.7222385 34.1811829,40.6690541 33.0783463,40.4343626 C30.8720426,40.0014312 28.7846091,39.1284125 26.8088416,38.0961752 C24.8347472,37.0473706 22.9510586,35.8387024 21.1769136,34.4824502 C19.3988306,33.1337743 17.7090149,31.6740004 16.1177241,30.1119897 C12.9496521,26.9812873 10.1021695,23.4927904 7.95169873,19.5570503 C6.88546869,17.5891803 5.99214081,15.5139719 5.53467049,13.2956456 C5.28667564,12.1802016 5.22582157,11.0317365 5.35456406,9.89659737 C5.47288744,8.71796479 5.98301226,7.61203678 6.80442079,6.75337221 C7.67361295,5.94376341 8.78691824,5.44082715 9.97249284,5.322194 C11.1152924,5.19392085 12.2715853,5.2543698 13.3945149,5.50109127 C15.6242325,5.95370138 17.7170692,6.84460983 19.6982399,7.89652581 C23.6497749,10.0271924 27.1762587,12.8448245 30.3389275,15.9844717 Z M30.0057307,16.3154317 C26.8538682,13.2222978 23.3417929,10.4529679 19.4334834,8.38670435 C17.4829308,7.3652009 15.4261154,6.50649397 13.2792468,6.0842964 C12.2198649,5.85717343 11.1300973,5.80459204 10.0535407,5.92865577 C9.00442287,6.03595708 8.02012626,6.48361895 7.2528858,7.20240438 C6.53680806,7.96997729 6.09009353,8.94715556 5.97953336,9.98783499 C5.85502066,11.0577725 5.90795357,12.1407491 6.13622595,13.1936742 C6.55947605,15.3243408 7.42758903,17.3637697 8.44879247,19.3048052 C10.5164142,23.190454 13.2954564,26.6896848 16.4022923,29.8329099 C19.5091281,32.9761351 23.0248056,35.7615657 26.933115,37.8600308 C28.8854687,38.899424 30.9476873,39.7778096 33.1179697,40.2196859 C34.1962662,40.4586941 35.3068135,40.5188361 36.404912,40.3985831 C37.5031059,40.2920726 38.5354388,39.8293528 39.3424478,39.0818992 C40.1046325,38.2857509 40.5769351,37.2593283 40.6842407,36.1658736 C40.8054105,35.0733651 40.7448277,33.9684916 40.5041343,32.8956313 C40.0682767,30.7327632 39.1641424,28.6897563 38.1123209,26.7540878 C35.985264,22.8755948 33.153991,19.4139325 30.0057307,16.3154317 Z" id="Shape" fill="#F58021" fill-rule="nonzero"></path>
            <path d="M27.0015555,19.2994383 C29.8558241,22.1626348 32.5124194,25.2137947 34.9532542,28.4321443 C36.173484,30.0419169 37.285935,31.72957 38.283422,33.4842034 C38.7866375,34.3615606 39.208618,35.2824875 39.544167,36.2356435 C39.7160045,36.7163124 39.8273151,37.216251 39.8755628,37.7240688 C39.9133852,38.2267702 39.8359394,38.7974525 39.459517,39.1981824 C39.0830946,39.5989123 38.4833402,39.6561594 37.97544,39.618591 C37.463646,39.5714639 36.9597075,39.461498 36.4751535,39.291209 C35.5137834,38.9580117 34.5848292,38.5388668 33.6997135,38.038928 C31.9328812,37.0474224 30.2365096,35.9368518 28.6225133,34.7150166 C25.3974695,32.2763492 22.3380139,29.6288769 19.4641015,26.7898673 C16.5652295,23.9683278 13.8616738,20.9553903 11.3719198,17.7716555 C10.1188242,16.1755154 8.98015081,14.4939169 7.96430618,12.7392751 C7.44833538,11.8521817 7.01430726,10.9204959 6.66753991,9.95563348 C6.48481232,9.45805546 6.36384873,8.94020249 6.30732706,8.41353895 C6.26410151,7.87684711 6.33614409,7.23818383 6.79361441,6.75695016 C7.27990176,6.30612902 7.9282849,6.23635908 8.46139992,6.27929443 C8.9913624,6.33351394 9.51235594,6.45372204 10.0121163,6.63708898 C10.9827076,6.98132506 11.9200576,7.41182672 12.8127712,7.92336041 C14.5792652,8.93209007 16.2744019,10.0593761 17.8863692,11.2973631 C21.102443,13.758118 24.1477503,16.4315443 27.0015555,19.2994383 Z M26.6647564,19.6339762 C23.8123539,16.7978207 20.7700111,14.156631 17.5585755,11.7285055 C15.9604989,10.5176413 14.2809977,9.41664804 12.5318052,8.43321765 C11.670165,7.94494923 10.7659756,7.53480815 9.83020876,7.2077713 C9.37757143,7.04862749 8.90697486,6.94528662 8.42898076,6.90006798 C7.96610725,6.86249955 7.52844863,6.95373716 7.25828899,7.20240438 C6.98812935,7.45107159 6.92148997,7.90725965 6.95751126,8.36523668 C7.00303552,8.84002176 7.10707486,9.30745896 7.26729431,9.7570575 C7.59626159,10.6863606 8.00855915,11.5844518 8.49922227,12.4405167 C9.49072917,14.18022 10.595949,15.8535133 11.8077773,17.4496404 C14.2412808,20.6469037 16.8888341,23.6777237 19.7324601,26.5215213 C22.559167,29.3892905 25.5832456,32.0583175 28.782808,34.5092848 C30.3796918,35.7358096 32.0592053,36.8523516 33.8095784,37.8510859 C34.6799636,38.3504007 35.5945132,38.7695746 36.5417929,39.1033668 C37.0099495,39.2731878 37.4975969,39.3843653 37.9934507,39.4343268 C38.479738,39.4754732 38.9984445,39.3967584 39.347851,39.0765323 C39.6972575,38.7563061 39.7584937,38.2160364 39.7170692,37.7330137 C39.6682097,37.2394345 39.5574881,36.7538475 39.3874744,36.2875237 C39.0507765,35.3457202 38.6288007,34.4361802 38.1267294,33.5700741 C37.1174308,31.833265 35.9865825,30.1690044 34.7425297,28.5895739 C32.2558886,25.4272285 29.5571623,22.4352274 26.6647564,19.6339762 L26.6647564,19.6339762 Z" id="Shape" fill="#F58021" fill-rule="nonzero"></path>
            <path d="M17.9710192,43.6616695 C13.6808842,43.6616695 9.71674171,42.2609038 6.80442079,39.3681348 C-0.196316005,32.4143977 1.47507163,19.4550789 10.5254196,10.4547569 L10.5254196,10.4547569 C19.5811707,1.46337973 32.6334834,-0.196787005 39.6324192,6.75337221 C43.0328285,10.1309528 44.5115023,15.0076926 43.7946787,20.4837382 C43.074253,25.9275824 40.2808023,31.3195463 35.9060172,35.6631722 C30.6270978,40.9102293 23.9793696,43.6616695 17.9710192,43.6616695 Z M10.9810888,10.905578 C2.18108883,19.648288 0.509701187,32.2122437 7.25648792,38.9137357 C14.0032747,45.6152277 26.6503479,43.9640059 35.452149,35.21414 C39.7260745,30.9689077 42.4546869,25.7164836 43.1571019,20.4032345 C43.8469095,15.1275538 42.4366762,10.4422341 39.1767499,7.20598232 C32.4299632,0.504490322 19.7810888,2.16644603 10.9810888,10.905578 L10.9810888,10.905578 Z" id="Shape" fill="#F58021" fill-rule="nonzero"></path>
            <path d="M11.0387229,40.8583491 C9.27908309,40.8583491 7.82022104,40.3789044 6.80081867,39.3645569 C2.83847728,35.4288168 6.98092509,24.9150238 16.0330741,15.9290136 C20.3862464,11.6032774 25.2185018,8.25968729 29.6257061,6.51186089 C34.1283668,4.72288812 37.6764634,4.81770367 39.6324192,6.75873913 C41.5883749,8.69977459 41.674826,12.2294179 39.880966,16.6982719 C38.1213262,21.0794662 34.7533361,25.8739132 30.4001637,30.1996494 C23.6785919,36.8707288 16.1123209,40.8583491 11.0387229,40.8583491 Z M16.4869423,16.3762568 L16.4869423,16.3762568 C7.69414654,25.1171777 3.55169873,35.2284518 7.25648792,38.9137357 C10.9612771,42.5990196 21.1426934,38.4861712 29.9498977,29.7434613 C34.2436349,25.4785502 37.5611953,20.761029 39.2884159,16.4585495 C40.9814163,12.2419407 40.9435939,8.95738667 39.1821531,7.20598232 C37.4207122,5.45457798 34.1139582,5.41700955 29.8688498,7.1022219 C25.5246828,8.81784679 20.7806795,12.1202905 16.4869423,16.3762568 Z" id="Shape" fill="#F58021" fill-rule="nonzero"></path>
            <path d="M8.18763815,39.8493685 C7.60229226,39.8493685 7.13221449,39.6955168 6.80081867,39.3663458 C4.39459681,36.9780672 11.3034793,27.2585781 19.3722472,19.2439801 L19.3722472,19.2439801 C27.4410151,11.2258041 37.2316005,4.36688254 39.6324192,6.75337221 C42.0332378,9.13986189 35.1297585,18.8611399 27.0609906,26.875738 C20.0998772,33.7919067 11.8636103,39.8493685 8.18763815,39.8493685 Z M19.8261154,19.6948012 C10.2804748,29.1763569 5.61932051,37.2893485 7.25648792,38.9155247 C8.08137536,39.7330853 10.6586983,38.9155247 14.1545641,36.7025654 C17.8755628,34.3536441 22.2989767,30.7059287 26.6053213,26.4320727 C36.1509619,16.950517 40.8139173,8.83752549 39.1767499,7.21134924 C38.3518625,6.39378869 35.7745395,7.21134924 32.2768727,9.42609753 C28.5558739,11.7714408 24.1342612,15.4209453 19.8261154,19.6983792 L19.8261154,19.6948012 Z" id="Shape" fill="#F58021" fill-rule="nonzero"></path>
            <rect id="Rectangle" fill="#F58021" fill-rule="nonzero" x="0.189111748" y="46.2055888" width="87.8108883" height="1.50810405" rx="0.754052023"></rect>
            <rect id="Rectangle" fill="#00468B" fill-rule="nonzero" x="0.189111748" y="48.491896" width="87.8108883" height="1.50810405" rx="0.754052023"></rect>
            <path d="M78.9028244,34.8402447 L78.836185,34.8402447 C78.8082562,34.8848719 78.7864508,34.933003 78.7713467,34.9833626 C77.2908719,38.5219507 75.7743758,42.049805 74.2902988,45.5919711 C75.1458043,45.5758703 75.9959067,45.5919711 76.8316005,45.5919711 C77.0117069,45.1983971 77.0837495,44.7744105 77.2908719,44.4309278 C77.7933688,44.416616 78.2814572,44.416616 78.7713467,44.416616 L80.2860418,44.416616 C80.4283258,44.7923003 80.5381907,45.1840853 80.6966844,45.5561916 C80.7609698,45.5602961 80.8244931,45.5723146 80.8857962,45.5919711 L83.3388457,45.5919711 C81.8691772,41.9961358 80.3706918,38.4181903 78.9028244,34.8402447 Z M78.7767499,42.049805 L78.0563242,42.049805 C78.2616455,41.3753623 78.5137945,40.73491 78.7335244,40.0604673 C78.751535,40.0604673 78.7677446,40.076568 78.7821531,40.0908798 C78.8938191,40.1713836 78.9082276,40.341336 78.9712648,40.470142 C79.1297585,41.0068339 79.3494883,41.5166911 79.5115841,42.0354932 C79.2666394,42.0569609 79.0162914,42.0569609 78.7767499,42.0569609 L78.7767499,42.049805 Z M68.9645518,40.6186268 C69.3247646,42.2662707 69.643553,43.9282264 70.036185,45.5561916 C69.2167008,45.6027049 68.3972165,45.5866042 67.5741302,45.5722924 C67.3381907,44.4112491 67.0716332,43.2466278 66.8537045,42.0945293 C66.8104516,42.0975992 66.7679305,42.107253 66.72763,42.1231529 C66.1314777,43.3915346 65.5443307,44.677806 64.9769955,45.9443987 C64.8296402,45.7062603 64.7042564,45.4553798 64.6023741,45.1948191 C64.1725201,44.2538195 63.7456679,43.3140124 63.3218174,42.375398 C63.2605813,42.246592 63.226361,42.0748506 63.085878,41.9997138 C62.8643471,43.1875917 62.6266066,44.3772586 62.3906672,45.5776593 C61.6198117,45.6080718 60.8291445,45.5776593 60.0708964,45.5919711 C60.7985264,42.0665021 61.5453677,38.5404367 62.3114204,35.0137751 C62.3775034,35.1040556 62.4376635,35.1984703 62.4915268,35.2964328 C63.2335653,36.8939855 63.9756038,38.4772264 64.7176422,40.0604673 C64.8064099,40.2926742 64.9224822,40.5136526 65.0634466,40.7188093 C65.9639787,38.8046084 66.8483013,36.8778847 67.7776504,34.9690508 C68.1414654,36.8546281 68.5701187,38.7348385 68.9645518,40.6311496 L68.9645518,40.6186268 Z M52.4127712,39.9298723 C53.4699959,41.8100827 54.5740483,43.6759813 55.6654932,45.5722924 C54.6713058,45.5561916 53.6843226,45.5722924 52.7135489,45.5561916 C52.0669668,44.350424 51.3735571,43.1589681 50.7323782,41.9496225 C50.6531314,41.8243944 50.6081048,41.6687538 50.4658207,41.6079287 C50.4658207,42.9246127 50.4658207,44.2395077 50.4496111,45.5722924 L48.0379861,45.5722924 L48.0379861,35.3769366 L50.4514122,35.3769366 C50.4676218,36.5075674 50.4514122,37.650721 50.4676218,38.7920856 C50.5535066,38.7204325 50.6276376,38.6359353 50.6873516,38.5416294 C51.3195252,37.4682457 51.9985264,36.4413754 52.6451085,35.3769366 C53.5456406,35.3626248 54.4605813,35.3769366 55.3737208,35.3769366 C54.4029472,36.9190311 53.3619321,38.4074564 52.4127712,39.9423951 L52.4127712,39.9298723 Z M57.7925501,41.0569251 C57.7781416,41.2948585 57.7781416,41.5417367 57.7781416,41.7725142 C58.3292673,41.788615 58.8839951,41.7725142 59.4333197,41.7725142 L59.4333197,43.2752514 C58.8930004,43.2752514 58.3292673,43.2931411 57.7781416,43.2752514 L57.7781416,43.9908405 L59.4333197,43.9908405 C59.4333197,44.5275323 59.4333197,45.0427564 59.4189112,45.5597696 C58.4085141,45.5436688 57.3999181,45.5597696 56.3751126,45.5597696 L56.3751126,39.4772622 C57.3837086,39.4629504 58.4085141,39.4772622 59.4189112,39.4629504 C59.4333197,39.9996422 59.4495293,40.5273892 59.4189112,41.0605031 C58.8839951,41.0533472 58.3292673,41.0873377 57.7925501,41.0694479 L57.7925501,41.0569251 Z M70.7944331,39.4915739 C71.8210397,39.4772622 72.8296357,39.4915739 73.8562423,39.4772622 L73.8562423,41.0748148 C73.3051167,41.0569251 72.7756038,41.0569251 72.2154728,41.0569251 C72.1992629,41.3029439 72.1992629,41.5497521 72.2154728,41.7957709 C72.7665984,41.7957709 73.3213262,41.7796701 73.8562423,41.7957709 C73.8400327,42.2948943 73.8706508,42.7993846 73.8400327,43.300297 C73.285305,43.2824072 72.7503889,43.2824072 72.1992632,43.300297 C72.1992632,43.5346524 72.1992632,43.7690078 72.2154728,44.0158861 C72.7665984,43.9997853 73.3213262,43.9836846 73.8562423,44.0158861 L73.8562423,45.5687144 C72.8314368,45.5687144 71.8228408,45.5687144 70.7944331,45.5526137 L70.7944331,39.4915739 Z" id="Shape" fill="#00468B"></path>
            <polygon id="Path" fill="#00468B" fill-rule="nonzero" points="47.9767499 47.5419514 47.9767499 46.4148986 48.203684 46.4148986 48.203684 46.9050771 48.6665575 46.4148986 48.9493246 46.4148986 48.4180106 46.9515904 49.0015555 47.5455294 48.6935735 47.5455294 48.203684 47.0303052 48.203684 47.5419514"></polygon>
            <polygon id="Path" fill="#00468B" fill-rule="nonzero" points="49.5706918 47.5419514 49.5706918 46.4148986 50.3235366 46.4148986 50.3235366 46.5937958 49.7832174 46.5937958 49.7832174 46.8836094 50.2604994 46.8836094 50.2604994 47.0625067 49.7850184 47.0625067 49.7850184 47.3755769 50.3451494 47.3755769 50.3451494 47.5544742"></polygon>
            <polygon id="Path" fill="#00468B" fill-rule="nonzero" points="50.9989357 47.5419514 50.9989357 46.4148986 51.202456 46.4148986 51.8094147 47.2199363 51.8094147 46.4148986 52.0183381 46.4148986 52.0183381 47.5419514 51.820221 47.5419514 51.2114613 46.7404916 51.2114613 47.5419514"></polygon>
            <polygon id="Path" fill="#00468B" fill-rule="nonzero" points="52.996316 47.5419514 52.996316 46.5955848 52.6361032 46.5955848 52.6361032 46.4148986 53.6014736 46.4148986 53.6014736 46.6027407 53.2412607 46.6027407 53.2412607 47.5419514"></polygon>
            <path d="M54.2030291,47.5419514 L54.2030291,46.4148986 L54.5794515,46.4148986 C54.6564955,46.4132502 54.7328952,46.4291619 54.8027835,46.4614119 C54.892213,46.5106788 54.9580087,46.5935194 54.9854313,46.691376 C55.0128538,46.7892327 54.9996111,46.893926 54.9486697,46.9820029 C54.9131573,47.0381159 54.8626512,47.083328 54.8027835,47.1125979 C54.7328952,47.1448479 54.6564955,47.1607596 54.5794515,47.1591112 L54.4209578,47.1591112 L54.4209578,47.5419514 L54.2030291,47.5419514 Z M54.5434302,46.5794841 L54.4209578,46.5794841 L54.4209578,46.978425 L54.5434302,46.978425 C54.6075861,46.9838836 54.6715628,46.9660904 54.7235366,46.9283338 C54.7657378,46.8908653 54.7877508,46.8358709 54.7829718,46.779849 C54.7877508,46.7238271 54.7657378,46.6688327 54.7235366,46.6313643 C54.6711862,46.594735 54.6069756,46.5787902 54.5434302,46.58664 L54.5434302,46.5794841 Z" id="Shape" fill="#00468B" fill-rule="nonzero"></path>
            <path d="M56.1769955,47.5723639 C56.0949462,47.573453 56.0135049,47.5582472 55.937454,47.5276396 C55.8660226,47.4998263 55.8010589,47.4578225 55.7465411,47.4042005 C55.6913061,47.3510362 55.647765,47.2870767 55.6186656,47.2163584 C55.5893319,47.1416958 55.5746593,47.0621456 55.57544,46.9820029 C55.5745675,46.8231982 55.6397361,46.6710801 55.7555465,46.5615943 C55.8111223,46.5079839 55.8765447,46.4654715 55.9482603,46.4363662 C56.0230517,46.40576 56.1033173,46.390545 56.1841998,46.3916419 C56.2668454,46.3904104 56.3489037,46.405617 56.4255424,46.4363662 C56.4969737,46.4641796 56.5619374,46.5061834 56.6164552,46.5598054 C56.6708998,46.6136237 56.7143259,46.6774142 56.7443307,46.7476475 C56.7738381,46.822261 56.7885169,46.901845 56.7875563,46.9820029 C56.7884289,47.1408077 56.7232603,47.2929258 56.6074499,47.4024115 C56.5523475,47.4566067 56.4868013,47.4991995 56.414736,47.5276396 C56.3393568,47.5583882 56.2584741,47.5736041 56.1769955,47.5723639 L56.1769955,47.5723639 Z M56.1769955,47.371999 C56.312599,47.3753468 56.4385985,47.3027439 56.5029881,47.1841569 C56.5347241,47.1214886 56.5507868,47.0521461 56.5498158,46.9820029 C56.5507815,46.9124324 56.5347112,46.843671 56.5029881,46.781638 C56.471888,46.7252034 56.4265883,46.6777422 56.3715104,46.6438871 C56.3148375,46.6088218 56.2491565,46.5908031 56.1823987,46.5920069 C56.115984,46.5915902 56.0506742,46.6088892 55.9932869,46.6420981 C55.9386388,46.6766883 55.8939582,46.7247673 55.8636103,46.781638 C55.8316801,46.8435959 55.8155976,46.9124092 55.8167826,46.9820029 C55.8158169,47.0515734 55.8318873,47.1203349 55.8636103,47.1823679 C55.8940759,47.2386794 55.9387647,47.2861508 55.9932869,47.3201188 C56.048708,47.353516 56.1121752,47.3714395 56.1769955,47.371999 Z" id="Shape" fill="#00468B" fill-rule="nonzero"></path>
            <polygon id="Path" fill="#00468B" fill-rule="nonzero" points="58.1599673 47.5419514 58.1599673 46.4148986 58.4085141 46.4148986 58.768727 47.1054421 59.1289398 46.4148986 59.3666803 46.4148986 59.3666803 47.5419514 59.1523537 47.5419514 59.1523537 46.7261798 58.853377 47.2932842 58.6732706 47.2932842 58.3742939 46.7243909 58.3742939 47.5419514"></polygon>
            <polygon id="Path" fill="#00468B" fill-rule="nonzero" points="60.0654932 47.5419514 60.0654932 46.4148986 60.8255424 46.4148986 60.8255424 46.5937958 60.2852231 46.5937958 60.2852231 46.8836094 60.7625051 46.8836094 60.7625051 47.0625067 60.2852231 47.0625067 60.2852231 47.3755769 60.8453541 47.3755769 60.8453541 47.5544742"></polygon>
            <polygon id="Path" fill="#00468B" fill-rule="nonzero" points="61.403684 47.5419514 61.8323373 46.4077427 62.0862874 46.4077427 62.5149406 47.5419514 62.2663938 47.5419514 61.9584118 46.6742996 61.6432255 47.5419514"></polygon>
            <polygon id="Path" fill="#00468B" fill-rule="nonzero" points="63.0984855 47.5419514 63.0984855 46.4148986 63.8513303 46.4148986 63.8513303 46.5937958 63.3110111 46.5937958 63.3110111 46.8836094 63.7882931 46.8836094 63.7882931 47.0625067 63.3110111 47.0625067 63.3110111 47.3755769 63.871142 47.3755769 63.871142 47.5544742"></polygon>
            <polygon id="Path" fill="#00468B" fill-rule="nonzero" points="64.8004912 47.5419514 64.8004912 46.5955848 64.4276709 46.5955848 64.4276709 46.4148986 65.3930413 46.4148986 65.3930413 46.6027407 65.0328285 46.6027407 65.0328285 47.5419514"></polygon>
            <path d="M65.9297585,47.5419514 L65.9297585,47.3630541 L66.1512894,47.3630541 C66.0833264,47.3175034 66.0276646,47.2560722 65.9891936,47.1841569 C65.9510877,47.1068055 65.9319552,47.0215937 65.9333606,46.9354896 C65.9327661,46.8617408 65.9474808,46.7886617 65.9765862,46.7208129 C66.005424,46.656521 66.0470877,46.5987052 66.0990585,46.5508605 C66.1511781,46.5020595 66.2123469,46.4637819 66.279165,46.4381552 C66.3534353,46.4104766 66.4321779,46.3965314 66.5115023,46.3970088 C66.5919011,46.3958037 66.6718498,46.40914 66.7474417,46.4363662 C66.8142597,46.4619929 66.8754285,46.5002705 66.9275481,46.5490715 C66.97994,46.5961526 67.0211553,46.6542 67.0482194,46.7190239 C67.1100499,46.8689316 67.1054735,47.0377709 67.035612,47.1841569 C66.9959335,47.2557832 66.939775,47.3170815 66.8717151,47.3630541 L67.093246,47.3630541 L67.093246,47.5419514 L66.6015555,47.5419514 L66.6015555,47.3630541 C66.6769089,47.3208738 66.7391964,47.2590044 66.7816619,47.1841569 C66.8269205,47.1097745 66.8500267,47.0241735 66.8483013,46.9372786 C66.8485646,46.8748475 66.8330849,46.8133446 66.8032747,46.7583813 C66.7757997,46.7061316 66.7339531,46.6627048 66.6826034,46.6331532 C66.6277059,46.6022468 66.5655977,46.5862071 66.5024969,46.58664 C66.4393213,46.5855971 66.3770543,46.6016779 66.3223905,46.6331532 C66.2704984,46.6625943 66.2280419,46.706006 66.1999181,46.7583813 C66.1708582,46.8136306 66.1554258,46.8749459 66.1548915,46.9372786 C66.1540227,47.0240679 66.1770672,47.1094404 66.2215309,47.1841569 C66.263696,47.2592304 66.3260564,47.3211721 66.4016373,47.3630541 L66.4016373,47.5419514 L65.9297585,47.5419514 Z" id="Path" fill="#00468B" fill-rule="nonzero"></path>
            <polygon id="Path" fill="#00468B" fill-rule="nonzero" points="67.7686451 47.5419514 67.7686451 46.4148986 67.9721654 46.4148986 68.5809251 47.2199363 68.5809251 46.4148986 68.7880475 46.4148986 68.7880475 47.5419514 68.5863283 47.5419514 67.9775686 46.7404916 67.9775686 47.5419514"></polygon>
            <path d="M70.1280393,47.5419514 L70.5819075,46.4077427 L70.8232501,46.4077427 L71.2717151,47.5419514 L71.0375767,47.5419514 L70.9295129,47.243193 L70.4648383,47.243193 L70.3567745,47.5419514 L70.1280393,47.5419514 Z M70.5278756,47.0678736 L70.8646746,47.0678736 L70.6953745,46.6027407 L70.5278756,47.0678736 Z" id="Shape" fill="#00468B" fill-rule="nonzero"></path>
            <polygon id="Path" fill="#00468B" fill-rule="nonzero" points="71.8120344 47.5419514 71.8120344 47.3845218 72.222677 46.9712691 71.8174376 46.5669613 71.8174376 46.4077427 72.669341 46.4077427 72.669341 46.58664 72.1200164 46.58664 72.4406058 46.9086551 72.4406058 47.0249383 72.1002047 47.3666321 72.6927548 47.3666321 72.6927548 47.5455294"></polygon>
            <path d="M73.7932051,47.5795198 L73.7932051,47.4686035 C73.6903816,47.465806 73.5892327,47.4420586 73.4960295,47.3988336 C73.4162247,47.3618428 73.3482796,47.3036413 73.2997135,47.2306701 C73.2059739,47.077966 73.2059739,46.8860399 73.2997135,46.7333357 C73.3487627,46.6607884 73.4165757,46.6027 73.4960295,46.5651723 C73.5892327,46.5219472 73.6903816,46.4981998 73.7932051,46.4954023 L73.7932051,46.384486 L74.016537,46.384486 L74.016537,46.4954023 C74.1193605,46.4981998 74.2205094,46.5219472 74.3137126,46.5651723 C74.3936802,46.6026556 74.4620872,46.6607201 74.5118297,46.7333357 C74.6031705,46.8867004 74.6031705,47.0773054 74.5118297,47.2306701 C74.462562,47.3037068 74.3940249,47.3618817 74.3137126,47.3988336 C74.2205094,47.4420586 74.1193605,47.465806 74.016537,47.4686035 L74.016537,47.5795198 L73.7932051,47.5795198 Z M73.4528039,46.9820029 C73.4493192,47.0640243 73.4838246,47.1431177 73.5464593,47.1966797 C73.61747,47.2539632 73.7053805,47.2866298 73.7968072,47.2897063 L73.7968072,46.6760886 C73.7048681,46.6777313 73.6161184,46.7098445 73.5446582,46.7673262 C73.4844584,46.8222155 73.4520922,46.9009474 73.4564061,46.9820029 L73.4528039,46.9820029 Z M74.3533361,46.9820029 C74.356978,46.9008447 74.3231604,46.8224668 74.2614818,46.7691152 C74.1908827,46.7111212 74.1027194,46.6783607 74.0111339,46.6760886 L74.0111339,47.2897063 C74.1023821,47.2857477 74.1900229,47.2531813 74.2614818,47.1966797 C74.3250215,47.1434904 74.3608008,47.0645146 74.3587393,46.9820029 L74.3533361,46.9820029 Z" id="Shape" fill="#00468B" fill-rule="nonzero"></path>
            <path d="M75.025133,47.5419514 L75.4790012,46.4077427 L75.7203438,46.4077427 L76.1760131,47.5419514 L75.9328694,47.5419514 L75.8248056,47.243193 L75.3619321,47.243193 L75.2538682,47.5419514 L75.025133,47.5419514 Z M75.4249693,47.0678736 L75.7617683,47.0678736 L75.5924683,46.6027407 L75.4249693,47.0678736 Z" id="Shape" fill="#00468B" fill-rule="nonzero"></path>
            <polygon id="Path" fill="#00468B" fill-rule="nonzero" points="76.6749079 47.5419514 77.1053623 46.4077427 77.350307 46.4077427 77.7789603 47.5419514 77.5322145 47.5419514 77.2260336 46.6742996 76.9126484 47.5419514"></polygon>
            <polygon id="Path" fill="#00468B" fill-rule="nonzero" points="78.3679083 47.5419514 78.3679083 46.4148986 79.1207532 46.4148986 79.1207532 46.5937958 78.5804339 46.5937958 78.5804339 46.8836094 79.0577159 46.8836094 79.0577159 47.0625067 78.5804339 47.0625067 78.5804339 47.3755769 79.1405649 47.3755769 79.1405649 47.5544742"></polygon>
            <polygon id="Path" fill="#00468B" fill-rule="nonzero" points="79.7961523 47.5419514 79.7961523 46.4148986 80.0248874 46.4148986 80.0248874 47.5419514"></polygon>
            <path d="M80.6174376,47.5419514 L81.0713058,46.4077427 L81.3126484,46.4077427 L81.7665166,47.5419514 L81.525174,47.5419514 L81.4171101,47.243193 L80.9542366,47.243193 L80.8461727,47.5419514 L80.6174376,47.5419514 Z M81.0172738,47.0678736 L81.357675,47.0678736 L81.190176,46.6027407 L81.0172738,47.0678736 Z" id="Shape" fill="#00468B" fill-rule="nonzero"></path>
            <polygon id="Path" fill="#00468B" fill-rule="nonzero" points="82.3050348 47.5419514 82.3050348 47.3845218 82.7156774 46.9712691 82.3122391 46.5669613 82.3122391 46.4077427 83.1587393 46.4077427 83.1587393 46.58664 82.61842 46.58664 82.9390094 46.9086551 82.9390094 47.0249383 82.5986083 47.3666321 83.1911584 47.3666321 83.1911584 47.5455294"></polygon>
            <path d="M48.5188702,49.867616 C48.4082522,49.870645 48.2986388,49.8460399 48.2000819,49.7960571 C48.1110559,49.7511375 48.0376488,49.6807161 47.9893573,49.5939032 C47.9374267,49.5016372 47.9113079,49.3972455 47.9137126,49.2915668 C47.9122694,49.210039 47.9275909,49.1290761 47.9587393,49.0536334 C47.988134,48.9856818 48.0317205,48.9247046 48.0866148,48.8747361 C48.1422569,48.8212244 48.2084988,48.7797965 48.2811298,48.753086 C48.3608644,48.7221752 48.4458965,48.7069843 48.5314777,48.7083617 C48.5923101,48.709468 48.6527846,48.7178776 48.7115841,48.7334073 C48.7696771,48.7476173 48.82546,48.7699012 48.877282,48.7995993 L48.8394597,48.9928083 C48.7430361,48.9411056 48.6356244,48.9129 48.5260745,48.9105156 C48.4557629,48.9090367 48.386265,48.9256782 48.3243553,48.9588178 C48.2673156,48.9891581 48.2208535,49.0359319 48.1910765,49.0929908 C48.1262749,49.2194441 48.1262749,49.3690563 48.1910765,49.4955097 C48.221729,49.5516399 48.2688391,49.5971859 48.3261564,49.6261047 C48.3892226,49.6596164 48.4599785,49.6762618 48.5314777,49.674407 C48.5869856,49.6733055 48.6421001,49.6648832 48.6953745,49.6493613 C48.7532782,49.6344276 48.8094249,49.613439 48.8628735,49.5867473 L48.8862874,49.7835343 C48.8300301,49.8150513 48.7693131,49.8379688 48.7061809,49.8515153 C48.6445636,49.8639399 48.5817204,49.8693417 48.5188702,49.867616 Z" id="Path" fill="#FFFFFF" fill-rule="nonzero"></path>
            <polygon id="Path" fill="#FFFFFF" fill-rule="nonzero" points="49.4788375 49.8497263 49.4788375 48.7173065 50.2280802 48.7173065 50.2280802 48.8962038 49.6877609 48.8962038 49.6877609 49.1860174 50.1632419 49.1860174 50.1632419 49.3649147 49.6877609 49.3649147 49.6877609 49.6761959 50.2442898 49.6761959 50.2442898 49.8550932"></polygon>
            <polygon id="Path" fill="#FFFFFF" fill-rule="nonzero" points="50.83684 49.8497263 50.83684 48.7173065 51.0385591 48.7173065 51.6437167 49.5205553 51.6437167 48.7173065 51.8508391 48.7173065 51.8508391 49.8497263 51.6491199 49.8497263 51.0439623 49.0482665 51.0439623 49.8497263"></polygon>
            <polygon id="Path" fill="#FFFFFF" fill-rule="nonzero" points="52.7639787 49.8497263 52.7639787 48.9033597 52.4037659 48.9033597 52.4037659 48.7244624 53.3637331 48.7244624 53.3637331 48.9033597 53.0035203 48.9033597 53.0035203 49.8497263"></polygon>
            <polygon id="Path" fill="#FFFFFF" fill-rule="nonzero" points="53.9058535 49.8497263 53.9058535 48.7173065 54.6568973 48.7173065 54.6568973 48.8962038 54.116578 48.8962038 54.116578 49.1860174 54.5920589 49.1860174 54.5920589 49.3649147 54.116578 49.3649147 54.116578 49.6761959 54.6731068 49.6761959 54.6731068 49.8550932"></polygon>
            <path d="M55.2692591,49.8497263 L55.2692591,48.7173065 L55.6420794,48.7173065 C55.7195608,48.7151392 55.7965303,48.7304298 55.8672124,48.7620308 C55.9263692,48.7891362 55.9763978,48.8326173 56.0112976,48.8872589 C56.0468879,48.9466405 56.0644033,49.0149893 56.0617274,49.0840459 C56.0622278,49.1474582 56.0440745,49.2096354 56.0094965,49.2629432 C55.9756965,49.3141252 55.9299806,49.356466 55.8762178,49.3863823 L56.1733934,49.8461483 L55.9194433,49.8461483 L55.6799018,49.4436295 L55.4853868,49.4436295 L55.4853868,49.8461483 L55.2692591,49.8497263 Z M55.6132624,48.8872589 L55.4853868,48.8872589 L55.4853868,49.275466 L55.602456,49.275466 C55.7591486,49.275466 55.8383954,49.211063 55.8383954,49.082257 C55.8383954,48.9534509 55.7645518,48.8872589 55.6132624,48.8872589 Z" id="Shape" fill="#FFFFFF" fill-rule="nonzero"></path>
            <polygon id="Path" fill="#FFFFFF" fill-rule="nonzero" points="57.4035203 49.8497263 57.4035203 48.7173065 58.123946 48.7173065 58.123946 48.8962038 57.6178469 48.8962038 57.6178469 49.211063 58.0555055 49.211063 58.0555055 49.3899603 57.6178469 49.3899603 57.6178469 49.8407814"></polygon>
            <path d="M59.2388047,49.867616 C59.1569484,49.8684101 59.0756773,49.8538431 58.9992632,49.8246807 C58.9290924,49.7954875 58.8649733,49.753635 58.8101515,49.7012415 C58.7551938,49.6482145 58.7122183,49.584184 58.684077,49.5133994 C58.6532641,49.4384841 58.637951,49.3581737 58.6390503,49.277255 C58.6381398,49.1975121 58.6534549,49.1184082 58.684077,49.0446885 C58.7134482,48.974115 58.756954,48.9102073 58.8119525,48.8568464 C58.8668824,48.8032875 58.9317063,48.7607667 59.0028653,48.7316183 C59.0779115,48.7018701 59.1580034,48.686688 59.2388047,48.6868919 C59.3207724,48.686713 59.4020394,48.7018862 59.4783463,48.7316183 C59.6215416,48.7886567 59.735289,48.9009948 59.7935325,49.0428996 C59.8894326,49.266623 59.8388183,49.5257847 59.665657,49.6976636 C59.6112092,49.7518118 59.5462595,49.7944151 59.4747442,49.8228917 C59.3999528,49.8534979 59.3196872,49.8687129 59.2388047,49.867616 L59.2388047,49.867616 Z M59.2388047,49.6672511 C59.3718587,49.6697055 59.4947643,49.5968735 59.5557921,49.4794089 C59.5883019,49.4170204 59.6044099,49.3474826 59.6026197,49.277255 C59.6044193,49.2075979 59.5883021,49.1386359 59.5557921,49.07689 C59.5257466,49.0202803 59.4809654,48.9727108 59.4261154,48.9391391 C59.3718896,48.9062404 59.3095498,48.8889025 59.246009,48.8890479 C59.1795256,48.8880884 59.114072,48.9054255 59.0568973,48.9391391 C59.0020586,48.9721735 58.9577311,49.0199242 58.9290217,49.07689 C58.8665216,49.2032536 58.8665216,49.3512564 58.9290217,49.47762 C58.989548,49.5957789 59.1125557,49.6693657 59.246009,49.6672511 L59.2388047,49.6672511 Z" id="Shape" fill="#FFFFFF" fill-rule="nonzero"></path>
            <path d="M60.4076955,49.8497263 L60.4076955,48.7173065 L60.7805158,48.7173065 C60.8574362,48.7149054 60.933873,48.7302126 61.0038477,48.7620308 C61.0638389,48.78858 61.1145932,48.8321473 61.1497339,48.8872589 C61.1853242,48.9466405 61.2028397,49.0149893 61.2001637,49.0840459 C61.2006642,49.1474582 61.1825109,49.2096354 61.1479329,49.2629432 C61.1141329,49.3141252 61.0684169,49.356466 61.0146541,49.3863823 L61.3118297,49.8461483 L61.0578797,49.8461483 L60.8255424,49.4472074 L60.6310274,49.4472074 L60.6310274,49.8497263 L60.4076955,49.8497263 Z M60.7516987,48.8872589 L60.6238232,48.8872589 L60.6238232,49.275466 L60.7426934,49.275466 C60.899386,49.275466 60.9786328,49.211063 60.9786328,49.082257 C60.9786328,48.9534509 60.9029881,48.8872589 60.7516987,48.8872589 L60.7516987,48.8872589 Z" id="Shape" fill="#FFFFFF" fill-rule="nonzero"></path>
            <path d="M62.8715514,49.867616 C62.8233187,49.8676658 62.7751518,49.8640776 62.7274662,49.8568822 C62.6816424,49.8489456 62.6364874,49.8375831 62.5923864,49.8228917 C62.5549933,49.8129735 62.5196385,49.7966257 62.4879247,49.7745894 L62.5077364,49.5849583 C62.5610989,49.615424 62.6179351,49.6394473 62.6770364,49.6565172 C62.7355576,49.6735849 62.7961558,49.6826136 62.8571429,49.6833518 C62.9127864,49.686677 62.9681147,49.6729378 63.0156365,49.6439944 C63.074322,49.6039657 63.0909761,49.5251928 63.0534589,49.4650971 C63.0357545,49.4415786 63.0121583,49.4230751 62.9850184,49.411428 C62.9401726,49.3911747 62.8938047,49.3744268 62.8463365,49.3613367 C62.7762095,49.3423213 62.7089697,49.3140415 62.6464183,49.277255 C62.6005399,49.2514111 62.562572,49.2136981 62.5365534,49.1681277 C62.4857903,49.0639349 62.4918984,48.9412444 62.552763,48.8425346 C62.5878642,48.7920481 62.6365422,48.7523753 62.693246,48.7280404 C62.7616841,48.6997435 62.8352523,48.6857376 62.9093737,48.686894 C62.9701036,48.6878272 63.0305287,48.6956297 63.0894801,48.7101506 C63.1445555,48.723165 63.1973678,48.7442686 63.2461727,48.7727647 L63.2155546,48.951662 C63.1701524,48.9257276 63.1217773,48.9053062 63.0714695,48.8908369 C63.0203805,48.8770413 62.9677181,48.8698262 62.9147769,48.8693692 C62.864714,48.8658401 62.8148344,48.8783831 62.7724928,48.9051487 C62.739263,48.9275387 62.7201582,48.9654917 62.722063,49.0053311 C62.7216433,49.0284129 62.7272265,49.0512117 62.7382726,49.0715231 C62.7546287,49.0928641 62.7763765,49.1095284 62.8013099,49.1198254 C62.8403583,49.1381849 62.8806862,49.1537294 62.9219812,49.1663387 C62.9977955,49.188658 63.0708848,49.2192574 63.1399099,49.2575763 C63.1888749,49.2838933 63.2303758,49.3220393 63.2605813,49.3684926 C63.2851094,49.4147819 63.2974979,49.4664645 63.2966025,49.5187663 C63.3017907,49.6169756 63.258848,49.711615 63.1813344,49.7728005 C63.0918974,49.8384073 62.9826527,49.8718439 62.8715514,49.867616 Z" id="Path" fill="#FFFFFF" fill-rule="nonzero"></path>
            <polygon id="Path" fill="#FFFFFF" fill-rule="nonzero" points="63.8873516 49.8497263 63.8873516 48.7173065 64.6383954 48.7173065 64.6383954 48.8962038 64.0980761 48.8962038 64.0980761 49.1860174 64.5735571 49.1860174 64.5735571 49.3649147 64.0980761 49.3649147 64.0980761 49.6761959 64.654605 49.6761959 64.654605 49.8550932"></polygon>
            <path d="M65.7784691,49.867616 C65.667896,49.8701929 65.5583928,49.8456126 65.4596807,49.7960571 C65.3714028,49.7501016 65.2982639,49.6799375 65.2489562,49.5939032 C65.1976525,49.5014631 65.172158,49.3970817 65.1751126,49.2915668 C65.1736694,49.210039 65.1889908,49.1290761 65.2201392,49.0536334 C65.2488614,48.9857651 65.2918449,48.9247724 65.3462137,48.8747361 C65.4025122,48.8211802 65.4693496,48.7797634 65.5425297,48.753086 C65.6216766,48.7223156 65.7060921,48.7071256 65.7910765,48.7083617 C65.8549082,48.7089909 65.9184206,48.7174024 65.9801883,48.7334073 C66.0382813,48.7476173 66.0940642,48.7699012 66.1458862,48.7995993 L66.1080639,48.9928083 C66.0116403,48.9411056 65.9042286,48.9129 65.7946787,48.9105156 C65.7243492,48.9088718 65.6548094,48.9255233 65.5929595,48.9588178 C65.5358394,48.9896552 65.4889254,49.0362542 65.4578797,49.0929908 C65.395337,49.219973 65.395337,49.3685275 65.4578797,49.4955097 C65.4895535,49.550864 65.5363955,49.5961508 65.5929595,49.6261047 C65.6561128,49.6593872 65.7268072,49.6760182 65.7982808,49.674407 C65.8543806,49.6733164 65.9100918,49.6648956 65.9639787,49.6493613 C66.0213028,49.6344236 66.076852,49.6134327 66.1296766,49.5867473 L66.1530905,49.7835343 C66.0969046,49.8152022 66.0361638,49.8381287 65.972984,49.8515153 C65.9089945,49.8643622 65.8437168,49.8697655 65.7784691,49.867616 L65.7784691,49.867616 Z" id="Path" fill="#FFFFFF" fill-rule="nonzero"></path>
            <path d="M67.2373312,49.867616 C67.1014159,49.8763606 66.9678733,49.8291257 66.868113,49.737021 C66.7768175,49.6350334 66.7301563,49.5011393 66.7384363,49.3649147 L66.7384363,48.7119396 L66.9653704,48.7119396 L66.9653704,49.3470249 C66.9653704,49.5617017 67.0572247,49.6672511 67.2391322,49.6672511 C67.4210397,49.6672511 67.514695,49.5617017 67.514695,49.3470249 L67.514695,48.7119396 L67.7416291,48.7119396 L67.7416291,49.3649147 C67.7572253,49.5020848 67.7092,49.6388594 67.6111051,49.7366438 C67.5130101,49.8344282 67.3754831,49.8826183 67.2373312,49.867616 L67.2373312,49.867616 Z" id="Path" fill="#FFFFFF" fill-rule="nonzero"></path>
            <path d="M68.3665984,49.8497263 L68.3665984,48.7173065 L68.7394187,48.7173065 C68.8163228,48.715098 68.892716,48.7303964 68.9627507,48.7620308 C69.0227419,48.78858 69.0734962,48.8321473 69.1086369,48.8872589 C69.1442272,48.9466405 69.1617426,49.0149893 69.1590667,49.0840459 C69.1595672,49.1474582 69.1414139,49.2096354 69.1068359,49.2629432 C69.0728694,49.3146282 69.0264356,49.3570605 68.971756,49.3863823 L69.2707327,49.8461483 L69.0149816,49.8461483 L68.7772411,49.4436295 L68.5827262,49.4436295 L68.5827262,49.8461483 L68.3665984,49.8497263 Z M68.7088007,48.8872589 L68.5827262,48.8872589 L68.5827262,49.275466 L68.7015964,49.275466 C68.858289,49.275466 68.9357348,49.211063 68.9357348,49.082257 C68.9357348,48.9534509 68.8600901,48.8872589 68.7088007,48.8872589 Z" id="Shape" fill="#FFFFFF" fill-rule="nonzero"></path>
            <polygon id="Path" fill="#FFFFFF" fill-rule="nonzero" points="69.811052 49.8497263 69.811052 48.7173065 70.0397871 48.7173065 70.0397871 49.8497263"></polygon>
            <polygon id="Path" fill="#FFFFFF" fill-rule="nonzero" points="70.9529267 49.8497263 70.9529267 48.9033597 70.5927139 48.9033597 70.5927139 48.7244624 71.5526811 48.7244624 71.5526811 48.9033597 71.1924683 48.9033597 71.1924683 49.8497263"></polygon>
            <polygon id="Path" fill="#FFFFFF" fill-rule="nonzero" points="72.418993 49.8497263 72.418993 49.3774375 72.0029472 48.7173065 72.2550962 48.7173065 72.5378633 49.212852 72.8188293 48.7173065 73.0727794 48.7173065 72.6531314 49.3774375 72.6531314 49.8497263"></polygon>
            <path d="M74.5928776,49.867616 C74.54465,49.8675331 74.496493,49.8639456 74.4487925,49.8568822 C74.4029687,49.8489456 74.3578137,49.8375831 74.3137126,49.8228917 C74.2765926,49.8122382 74.2413554,49.7959448 74.2092509,49.7745894 L74.2308637,49.5849583 C74.2834202,49.6157614 74.3397038,49.6398069 74.3983627,49.6565172 C74.4569357,49.6733501 74.5175017,49.682374 74.5784691,49.6833518 C74.6346842,49.6867008 74.6905939,49.6729732 74.7387638,49.6439944 C74.7974493,49.6039657 74.8141034,49.5251928 74.7765862,49.4650971 C74.7588818,49.4415786 74.7352856,49.4230751 74.7081457,49.411428 C74.6631787,49.3914709 74.6168333,49.3747312 74.5694638,49.3613367 C74.4988916,49.3419621 74.4311024,49.3137059 74.3677446,49.277255 C74.3219464,49.2519078 74.2844388,49.2140311 74.2596807,49.1681277 C74.2353222,49.1218408 74.223528,49.0700477 74.2254605,49.0178539 C74.2220961,48.8911766 74.2981634,48.7757032 74.4163733,48.7280404 C74.4841004,48.6994835 74.5571375,48.6854618 74.6307,48.686894 C74.6914275,48.6878581 74.7518491,48.6956602 74.8108064,48.7101506 C74.8658817,48.723165 74.918694,48.7442686 74.967499,48.7727647 L74.9350798,48.951662 C74.889834,48.9254168 74.8414192,48.9049787 74.7909947,48.8908369 C74.7399302,48.8769226 74.6872521,48.8697054 74.6343021,48.8693692 C74.5848068,48.8658439 74.5354998,48.8784019 74.4938191,48.9051487 C74.4605892,48.9275387 74.4414845,48.9654917 74.4433893,49.0053311 C74.4429696,49.0284129 74.4485527,49.0512117 74.4595989,49.0715231 C74.4756291,49.0924512 74.4966819,49.1090574 74.520835,49.1198254 C74.560515,49.1381528 74.6014394,49.1536953 74.6433074,49.1663387 C74.7190016,49.1889904 74.7920554,49.219575 74.8612362,49.2575763 C74.9093228,49.2844344 74.9501171,49.322499 74.9801064,49.3684926 C75.006039,49.4143139 75.0191018,49.4662141 75.0179288,49.5187663 C75.0222259,49.6168075 74.9794573,49.7110632 74.9026607,49.7728005 C74.8130298,49.8380251 74.7039225,49.8714197 74.5928776,49.867616 L74.5928776,49.867616 Z" id="Path" fill="#FFFFFF" fill-rule="nonzero"></path>
            <polygon id="Path" fill="#FFFFFF" fill-rule="nonzero" points="75.8626279 49.8497263 75.8626279 48.9033597 75.5024151 48.9033597 75.5024151 48.7244624 76.4623823 48.7244624 76.4623823 48.9033597 76.1021695 48.9033597 76.1021695 49.8497263"></polygon>
            <path d="M77.4961932,49.867616 C77.360278,49.8763606 77.2267353,49.8291257 77.126975,49.737021 C77.0356796,49.6350334 76.9890183,49.5011393 76.9972984,49.3649147 L76.9972984,48.7119396 L77.2242325,48.7119396 L77.2242325,49.3470249 C77.2242325,49.5617017 77.3160868,49.6672511 77.4979943,49.6672511 C77.6799018,49.6672511 77.7735571,49.5617017 77.7735571,49.3470249 L77.7735571,48.7119396 L78.0004912,48.7119396 L78.0004912,49.3649147 C78.0160873,49.5020848 77.9680621,49.6388594 77.8699671,49.7366438 C77.7718722,49.8344282 77.6343452,49.8826183 77.4961932,49.867616 L77.4961932,49.867616 Z" id="Path" fill="#FFFFFF" fill-rule="nonzero"></path>
            <path d="M78.6254605,49.8497263 L78.6254605,48.7173065 L79.059517,48.7173065 C79.1753706,48.7138793 79.2905057,48.7365071 79.396316,48.7834985 C79.4855692,48.8245207 79.5598205,48.8920232 79.6088416,48.9767076 C79.7085159,49.1686348 79.7085159,49.396609 79.6088416,49.5885363 C79.5577592,49.6735272 79.4817096,49.7409505 79.3909128,49.7817453 C79.2823792,49.8303246 79.1640894,49.8535789 79.0451085,49.8497263 L78.6254605,49.8497263 Z M79.0397053,48.8997817 L78.8505935,48.8997817 L78.8505935,49.6672511 L79.0397053,49.6672511 C79.3098649,49.6672511 79.4467458,49.538445 79.4467458,49.2826219 C79.4467458,49.0267988 79.3098649,48.8997817 79.0397053,48.8997817 Z" id="Shape" fill="#FFFFFF" fill-rule="nonzero"></path>
            <polygon id="Path" fill="#FFFFFF" fill-rule="nonzero" points="80.2518215 49.8497263 80.2518215 48.7173065 80.4787556 48.7173065 80.4787556 49.8497263"></polygon>
            <polygon id="Path" fill="#FFFFFF" fill-rule="nonzero" points="81.1109292 49.8497263 81.1109292 48.7173065 81.8601719 48.7173065 81.8601719 48.8962038 81.3198526 48.8962038 81.3198526 49.1860174 81.7935325 49.1860174 81.7935325 49.3649147 81.3198526 49.3649147 81.3198526 49.6761959 81.8763815 49.6761959 81.8763815 49.8550932"></polygon>
            <path d="M82.816537,49.867616 C82.7683044,49.8676658 82.7201375,49.8640776 82.6724519,49.8568822 C82.6266281,49.8489456 82.5814731,49.8375831 82.5373721,49.8228917 C82.499979,49.8129735 82.4646241,49.7966257 82.4329104,49.7745894 L82.4527221,49.5849583 C82.5060846,49.615424 82.5629208,49.6394473 82.6220221,49.6565172 C82.6805432,49.6735849 82.7411414,49.6826136 82.8021285,49.6833518 C82.857772,49.686677 82.9131003,49.6729378 82.9606222,49.6439944 C83.0193077,49.6039657 83.0359618,49.5251928 82.9984445,49.4650971 C82.9807402,49.4415786 82.957144,49.4230751 82.9300041,49.411428 C82.8851583,49.3911747 82.8387903,49.3744268 82.7913221,49.3613367 C82.7211952,49.3423213 82.6539554,49.3140415 82.591404,49.277255 C82.5451238,49.2519388 82.5070264,49.2140972 82.4815391,49.1681277 C82.430776,49.0639349 82.4368841,48.9412444 82.4977487,48.8425346 C82.5328498,48.7920481 82.5815278,48.7523753 82.6382317,48.7280404 C82.7066698,48.6997435 82.7802379,48.6857376 82.8543594,48.686894 C82.9150892,48.6878272 82.9755143,48.6956297 83.0344658,48.7101506 C83.0895412,48.723165 83.1423534,48.7442686 83.1911584,48.7727647 L83.1605403,48.951662 C83.1151381,48.9257276 83.066763,48.9053062 83.0164552,48.8908369 C82.9653662,48.8770413 82.9127038,48.8698262 82.8597626,48.8693692 C82.8096997,48.8658401 82.75982,48.8783831 82.7174785,48.9051487 C82.6842487,48.9275387 82.6651439,48.9654917 82.6670487,49.0053311 C82.666629,49.0284129 82.6722122,49.0512117 82.6832583,49.0715231 C82.6996144,49.0928641 82.7213622,49.1095284 82.7462955,49.1198254 C82.7852065,49.1385006 82.825559,49.1540546 82.8669668,49.1663387 C82.9427811,49.188658 83.0158705,49.2192574 83.0848956,49.2575763 C83.1333404,49.283947 83.1742439,49.3221135 83.2037659,49.3684926 C83.2296985,49.4143139 83.2427612,49.4662141 83.2415882,49.5187663 C83.2467763,49.6169756 83.2038337,49.711615 83.1263201,49.7728005 C83.0368831,49.8384073 82.9276384,49.8718439 82.816537,49.867616 Z" id="Path" fill="#FFFFFF" fill-rule="nonzero"></path>
            <polygon id="Path" fill="url(#linearGradient-1)" fill-rule="nonzero" points="41.4244781 49.7942681 4.61792878 49.7942681 4.61792878 43.3110308 23.0554237 19.0149916 41.4334834 43.2591506"></polygon>
            <path d="M41.4695047,43.2591506 L41.4695047,43.2251601 L41.4550962,43.2251601 L36.9164142,37.1032953 L23.1832992,18.7609575 L23.0716332,18.6106837 L9.16021285,37.1426527 L4.63233729,43.2251601 L4.57470323,43.2251601 L4.57470323,49.7960571 L4.57470323,49.8300476 L4.66835858,49.8300476 L6.4261973,49.8497263 L6.5468686,49.8497263 L8.48301269,49.871194 L8.63069996,49.871194 L9.2232501,49.871194 L10.9684814,49.871194 L11.1485878,49.871194 L13.7079001,49.8801388 L13.9096193,49.8801388 L16.9029881,49.8908727 L17.1317233,49.8908727 L19.8441261,49.9016065 L20.1016783,49.9016065 L22.9329513,49.9123403 L23.2139173,49.9123403 L25.8993041,49.9016065 L26.1568563,49.9016065 L28.8692591,49.8908727 L29.0979943,49.8908727 L32.0913631,49.8801388 L32.2930823,49.8801388 L34.8523946,49.869405 L35.032501,49.869405 L36.8443717,49.869405 L37.3702824,49.869405 L37.5179697,49.869405 L39.4523127,49.8479373 L39.5747851,49.8479373 L41.4010643,49.8264696 L41.4947196,49.8264696 L41.4695047,43.2591506 Z M41.3866558,48.4632724 L41.3866558,49.7602776 L39.5603766,49.73881 L39.5603766,47.9802497 L41.3866558,48.4632724 Z M41.3866558,47.4220902 L41.3866558,48.3917135 L39.5567745,47.8657555 L39.5567745,46.5526495 L41.3866558,47.4220902 Z M41.3866558,46.3809081 L41.3866558,47.3451644 L39.5477691,46.4292103 L39.5477691,45.1232602 L41.3866558,46.3809081 Z M41.3866558,45.3415149 L41.3866558,46.2896705 L39.544167,44.9801424 L39.544167,43.6885041 L41.3866558,45.3415149 Z M41.3866558,44.3056997 L41.3866558,45.2484883 L39.5405649,43.5435973 L39.5405649,42.2680597 L41.3866558,44.3056997 Z M39.5333606,40.8350925 L41.3884568,43.2663065 L41.3884568,44.2019392 L39.5369628,42.0981073 L39.5333606,40.8350925 Z M39.4505117,40.7295431 L39.4505117,41.9961358 L37.469341,39.749186 L37.469341,38.1230098 L39.4505117,40.7295431 Z M39.4505117,42.1714552 L39.4505117,43.4577266 L37.4819484,41.6383413 L37.4819484,39.9924863 L39.4505117,42.1714552 Z M39.4505117,43.6026334 L39.4505117,44.9085835 L37.4891527,43.5131847 L37.4891527,41.8458621 L39.4505117,43.6026334 Z M39.4505117,45.0445454 L39.4505117,46.3683853 L37.4927548,45.3951841 L37.4927548,43.7099717 L39.4505117,45.0445454 Z M39.4505117,46.4918244 L39.4505117,47.8246091 L37.5035612,47.2646606 L37.5035612,45.5687144 L39.4505117,46.4918244 Z M39.4505117,47.9426813 L39.4505117,49.7316541 L37.5143676,49.7101864 L37.5143676,47.4328241 L39.4505117,47.9426813 Z M8.49201801,47.4668146 L8.49201801,49.7083974 L6.55587393,49.7298651 L6.55587393,47.9802497 L8.49201801,47.4668146 Z M8.49201801,45.6349064 L8.49201801,47.305807 L6.54506754,47.8639665 L6.54506754,46.5598054 L8.49201801,45.6349064 Z M8.49201801,43.8029983 L8.49201801,45.4613761 L6.53786328,46.4363662 L6.53786328,45.1429389 L8.49201801,43.8029983 Z M8.49201801,41.9710902 L8.49201801,43.6133672 L6.52885796,45.008766 L6.52885796,43.7296504 L8.49201801,41.9710902 Z M8.49201801,40.1409711 L8.49201801,41.7599914 L6.51084732,43.5793767 L6.51084732,42.3270958 L8.49201801,40.1409711 Z M11.0873516,34.8617124 L13.7349161,31.3642706 L13.7349161,34.0083724 L11.1035612,36.9870121 L11.0873516,34.8617124 Z M13.8375767,31.2318867 L16.9534179,27.1476618 L16.9534179,30.421482 L13.8645927,33.8956671 L13.8375767,31.2318867 Z M17.0596807,26.9991771 L19.9053623,23.2423343 L19.8945559,27.0975706 L17.0704871,30.2783642 L17.0596807,26.9991771 Z M20.0188293,23.0956385 L23.0013917,19.1598984 L22.9905853,23.6233855 L20.0314368,26.9490858 L20.0188293,23.0956385 Z M22.9509619,38.6865362 L22.9383545,43.2716734 L20.0746623,44.0713442 L20.0638559,40.076568 L22.9509619,38.6865362 Z M20.0530495,35.8241798 L22.9635694,33.8097964 L22.9509619,38.3770439 L20.0692591,39.7939103 L20.0530495,35.8241798 Z M20.0404421,31.5789474 L22.9761768,28.9294787 L22.9635694,33.4681026 L20.0512485,35.5111095 L20.0404421,31.5789474 Z M22.9761768,28.5502165 L20.0404421,31.2336756 L20.0296357,27.3426598 L22.9905853,24.049161 L22.9761768,28.5502165 Z M19.871142,35.9511968 L19.8603357,39.8869369 L17.095702,41.2411893 L17.095702,37.8707646 L19.871142,35.9511968 Z M17.0794924,34.2516727 L19.8819484,31.7220652 L19.871142,35.6381266 L17.0866967,37.5898959 L17.0794924,34.2516727 Z M17.068686,30.6325808 L19.8945559,27.4911446 L19.8837495,31.3732155 L17.0776914,33.9332355 L17.068686,30.6325808 Z M16.9047892,45.203764 L16.8921817,49.6761959 L13.8970119,49.6869298 L13.8970119,46.0141687 L16.9047892,45.203764 Z M13.8808023,43.0569967 L16.9137945,41.5936169 L16.9137945,44.9586747 L13.8970119,45.8012809 L13.8808023,43.0569967 Z M13.871797,40.1016137 L16.9246009,37.9888368 L16.9137945,41.3342159 L13.8790012,42.8226412 L13.871797,40.1016137 Z M13.871797,37.1498086 L16.9336062,34.3804787 L16.926402,37.7026012 L13.8645927,39.8493685 L13.871797,37.1498086 Z M13.7151044,46.0696268 L13.6988948,49.6887187 L11.1395825,49.6976636 L11.1395825,46.7637483 L13.7151044,46.0696268 Z M11.1305772,44.3844145 L13.7223086,43.1321335 L13.7223086,45.8477942 L11.1413835,46.5633833 L11.1305772,44.3844145 Z M11.1305772,42.0068697 L13.7259108,40.207163 L13.7169054,42.906723 L11.125174,44.1786826 L11.1305772,42.0068697 Z M10.9900941,44.4523954 L10.9900941,46.6152635 L9.22144904,47.10902 L8.63610315,47.2771834 L8.63610315,45.5848152 L10.9900941,44.4523954 Z M8.62169464,43.7368063 L9.28988948,43.2824072 L10.9954973,42.1016852 L10.9954973,44.2484525 L9.20884159,45.1250492 L8.63069996,45.4130738 L8.62169464,43.7368063 Z M8.62169464,40.0479445 L9.31150225,39.2858421 L11.0171101,37.3895309 L11.0171101,39.4933629 L9.19623414,41.1553186 L8.63069996,41.6776987 L8.62169464,40.0479445 Z M11.0099059,39.7456081 L11.0099059,41.8744857 L9.20884159,43.1410784 L8.63790422,43.5453862 L8.63790422,41.8905864 L11.0099059,39.7456081 Z M11.1305772,39.6364807 L13.7511257,37.2732477 L13.7511257,39.9567069 L11.1161686,41.7778811 L11.1305772,39.6364807 Z M11.1305772,37.2714587 L13.7655342,34.3375434 L13.7655342,36.99059 L11.1161686,39.3788687 L11.1305772,37.2714587 Z M13.8826034,34.2087373 L16.9696275,30.7739096 L16.9606222,34.0674085 L13.8898076,36.8707288 L13.8826034,34.2087373 Z M11.0243144,37.1068732 L9.18902988,39.1713478 L8.59467867,39.8046442 L8.59467867,38.1623672 L11.0009005,34.9940964 L11.0243144,37.1068732 Z M10.9990995,46.8138395 L10.9990995,49.7066085 L9.25386819,49.7066085 L8.66131805,49.7066085 L8.66131805,47.434613 L10.9990995,46.8138395 Z M19.8747442,44.4076711 L19.8621367,49.670829 L17.1479329,49.6815628 L17.1353254,45.1518838 L19.8747442,44.4076711 Z M19.8747442,44.1411142 L17.1353254,44.9050055 L17.1263201,41.5059573 L19.8855506,40.1749615 L19.8747442,44.1411142 Z M22.9653704,43.5704319 L22.9491609,49.6529393 L20.1160868,49.6636731 L20.1034793,44.3414791 L22.9653704,43.5704319 Z M26.1010233,23.0705929 L28.9449038,26.8274357 L28.9449038,30.1173566 L26.119034,26.938352 L26.1010233,23.0705929 Z M29.0277528,26.9687645 L32.1327876,31.0834019 L32.1327876,33.7382375 L29.0367581,30.2586855 L29.0277528,26.9687645 Z M32.2336472,31.206841 L34.8902169,34.7132277 L34.8902169,36.8242155 L32.3381089,33.9618591 L32.2516578,33.8634656 L32.2336472,31.206841 Z M34.9784691,34.8402447 L36.7795334,37.2106337 L37.3918952,38.0174604 L37.3918952,39.6490035 L34.9946787,36.9458657 L34.9784691,34.8402447 Z M36.8011461,45.2520663 L37.3666803,45.5204122 L37.3666803,47.239615 L35.0126893,46.5776951 L35.0126893,44.3879924 L36.8011461,45.2520663 Z M37.3702824,43.6419908 L37.3702824,45.3433039 L35.0072861,44.1786826 L35.0072861,42.0050807 L36.797544,43.2430498 L37.3702824,43.6419908 Z M34.8487925,46.7315467 L34.8487925,49.7030305 L32.284077,49.6887187 L32.2732706,46.0284804 L34.8487925,46.7315467 Z M34.8487925,44.3200114 L34.8487925,46.5365487 L32.2696684,45.8209596 L32.2696684,43.0766754 L34.8487925,44.3200114 Z M32.2480557,40.1087695 L34.8559967,41.9120541 L34.8559967,44.1107016 L32.2894801,42.8494758 L32.2624642,42.836953 L32.2480557,40.1087695 Z M32.1075727,37.0263695 L32.1075727,39.749186 L29.0457634,37.6024187 L29.0367581,34.2516727 L32.1075727,37.0263695 Z M34.8613999,39.5112526 L34.8613999,41.6830656 L32.3038887,39.8940928 L32.2534589,39.8601023 L32.2534589,37.1533865 L34.8613999,39.5112526 Z M37.3666803,41.7635694 L37.3666803,43.4452038 L34.9910765,41.7743032 L34.9910765,39.618591 L36.7813344,41.2286665 L37.3666803,41.7635694 Z M34.8686042,37.1122402 L34.8686042,39.2590075 L32.2462546,36.8653619 L32.2372493,34.1819028 L34.8686042,37.1122402 Z M32.1147769,34.0530967 L32.1147769,36.7365559 L29.0439623,33.9332355 L29.034957,30.6129021 L32.1147769,34.0530967 Z M28.9016783,30.4751512 L28.9016783,33.8044295 L26.0956201,31.2461984 L26.0866148,27.3265591 L28.9016783,30.4751512 Z M25.9389275,31.4411965 L25.9299222,35.4001932 L23.1634875,33.4591578 L23.1508801,28.9366346 L25.9389275,31.4411965 Z M25.951535,27.1709185 L25.9425297,31.0905578 L23.1580843,28.5520054 L23.1580843,28.5520054 L23.1454769,24.049161 L25.951535,27.1709185 Z M36.7777323,39.2124942 L37.3792878,39.8779921 L37.3792878,41.5345808 L34.9910765,39.3502451 L34.9910765,37.2177895 L36.7777323,39.2124942 Z M23.1256652,19.1545315 L25.9623414,22.9113743 L25.951535,26.7898673 L23.1670896,23.6591649 L23.1364716,23.6251744 L23.1256652,19.1545315 Z M25.9047073,44.2949658 L25.8920999,49.6618841 L23.204912,49.6529393 L23.1887024,43.5704319 L25.9047073,44.2949658 Z M25.9173148,40.0014312 L25.9065084,44.0248309 L23.1832992,43.2734624 L23.1832992,38.6883252 L25.9173148,40.0014312 Z M23.1634875,33.8026405 L25.9281212,35.7168414 L25.9191158,39.7134066 L23.1832992,38.373466 L23.1634875,33.8026405 Z M28.9016783,34.1246556 L28.8926729,37.4915024 L26.1082276,35.5379441 L26.0992223,31.602204 L28.9016783,34.1246556 Z M26.1100287,35.8528033 L28.8926729,37.7741601 L28.8926729,41.1732083 L26.1298404,39.817167 L26.1100287,35.8528033 Z M28.8818666,41.4397653 L28.8818666,44.8638592 L26.1406467,44.0981788 L26.1298404,40.1105585 L28.8818666,41.4397653 Z M28.8818666,45.1107374 L28.8692591,49.6797739 L26.1550553,49.66904 L26.1424478,44.3665247 L28.8818666,45.1107374 Z M32.1021695,45.9837561 L32.0823578,49.6887187 L29.0889889,49.6779849 L29.0763815,45.1608287 L32.1021695,45.9837561 Z M29.0583709,37.8814984 L32.1093737,39.9942753 L32.1093737,42.7439264 L29.0745804,41.2555011 L29.0583709,37.8814984 Z M32.1003684,42.9800708 L32.1003684,45.7511897 L29.0835858,44.9103725 L29.0745804,41.5113242 L32.1003684,42.9800708 Z M36.8137536,47.2521378 L37.3540729,47.3952556 L37.3540729,49.7066085 L36.8281621,49.7066085 L35.0162914,49.7066085 L35.0072861,46.7762711 L36.8137536,47.2521378 Z M8.51002865,38.2768614 L8.51002865,39.9137715 L6.52885796,42.1607213 L6.52885796,40.8744499 L8.51002865,38.2768614 Z M4.65395006,43.3163977 L6.44240688,40.9799993 L6.44240688,42.2573258 L4.65935325,44.284232 L4.65395006,43.3163977 Z M4.65395006,44.3897814 L6.43700368,42.4219113 L6.43700368,43.6741923 L4.65755219,45.3164693 L4.65395006,44.3897814 Z M4.65395006,45.4112848 L6.43340156,43.822677 L6.43340156,45.0874808 L4.65935325,46.3487066 L4.65395006,45.4112848 Z M4.65395006,46.4345773 L6.43340156,45.2162868 L6.43340156,46.4918244 L4.66475645,47.3755769 L4.65395006,46.4345773 Z M4.65395006,47.4596587 L6.43340156,46.6188415 L6.43340156,47.899746 L4.66655751,48.4042363 L4.65395006,47.4596587 Z M4.65395006,48.486529 L6.41899304,48.0196071 L6.41899304,49.7405989 L4.66115432,49.7602776 L4.65395006,48.486529 Z" id="Shape" fill="#174889" fill-rule="nonzero"></path>
        </g>
    </g>
</svg>