<?xml version="1.0" encoding="UTF-8"?>
<svg width="165px" height="57px" viewBox="0 0 165 57" version="1.1" xmlns="http://www.w3.org/2000/svg" xmlns:xlink="http://www.w3.org/1999/xlink">
    <title>LOGO PARTNERS</title>
    <g id="LOGO-PARTNERS" stroke="none" stroke-width="1" fill="none" fill-rule="evenodd">
        <rect id="Rectangle" fill="#FFFFFF" x="0" y="0" width="165" height="57"></rect>
        <rect id="Rectangle" fill="#FFFFFF" x="0" y="0" width="5" height="5"></rect>
        <rect id="Rectangle-Copy-3" fill="#FFFFFF" x="0" y="52" width="5" height="5"></rect>
        <rect id="Rectangle-Copy" fill="#FFFFFF" x="160" y="0" width="5" height="5"></rect>
        <rect id="Rectangle-Copy-2" fill="#FFFFFF" x="160" y="52" width="5" height="5"></rect>
        <g id="Novotec_logo_PANTONE" transform="translate(0.000000, -2.000000)" fill-rule="nonzero">
            <path d="M40.5633159,21.3493042 C43.9680443,21.3493042 46.6256921,22.5108463 48.5362591,24.8339305 C50.3610956,27.0433575 51.272639,29.9838069 51.2708919,33.6552787 C51.2691398,37.3267505 50.3733428,40.2663389 48.5834984,42.4740438 C46.6694322,44.8246813 44.0109096,46 40.6079308,46 C37.2049519,46 34.5621758,44.8246813 32.6796024,42.4740438 C30.854766,40.2715052 29.9432225,37.3319168 29.9449696,33.6552787 C29.9467218,29.9786407 30.8433936,27.0381913 32.6349876,24.8339305 C34.5455546,22.5108463 37.1883307,21.3493042 40.5633159,21.3493042 Z M88.8602462,21.3493042 C92.263225,21.3493042 94.9217476,22.5108463 96.8358138,24.8339305 C98.6554015,27.0433575 99.5660701,29.9838069 99.5678223,33.6552787 C99.5695693,37.3267505 98.6737723,40.2663389 96.8804287,42.4740438 C94.9663625,44.8246813 92.3078399,46 88.9048611,46 C85.5018822,46 82.8591061,44.8246813 80.9765327,42.4740438 C79.1569451,40.2715052 78.2462764,37.3319168 78.2445243,33.6552787 C78.2427772,29.9786407 79.1385742,27.0381913 80.9319178,24.8339305 C82.8424849,22.5108463 85.485261,21.3493042 88.8602462,21.3493042 Z M130.328474,21.3493042 C133.783941,21.3493042 136.386476,22.4540177 138.13608,24.6634447 C139.885683,26.8728717 140.685252,30.0104991 140.534786,34.076327 L140.534786,34.076327 L126.063815,36.1092409 C126.541457,39.5861178 128.482642,41.3245563 131.887371,41.3245563 C134.398052,41.3245563 136.488828,40.8837041 138.159699,40.0019998 L138.159699,40.0019998 L139.734342,44.2796434 C137.40737,45.4248257 134.525773,45.9974189 131.089551,45.9974189 C127.415384,45.999139 124.555657,44.8901203 122.510371,42.6703608 C120.465084,40.4506013 119.442441,37.4300753 119.442441,33.6087826 C119.442441,29.8477627 120.397724,26.8642613 122.308291,24.6582785 C124.218858,22.4522956 126.892253,21.3493042 130.328474,21.3493042 Z M154.039976,21.344138 C156.583899,21.344138 158.555702,21.9175902 159.955385,23.0644946 L159.955385,23.0644946 L158.519835,26.8616782 C157.700016,26.2400843 156.688575,25.9137113 155.653985,25.9369219 C152.667412,25.9351998 151.174125,28.4632114 151.174125,33.5209566 C151.170626,35.9284226 151.559038,37.7942949 152.339361,39.1185735 C153.119684,40.442852 154.209687,41.1049913 155.60937,41.1049913 C156.804349,41.1032692 157.774504,40.7795184 158.519835,40.1337389 L158.519835,40.1337389 L160,44.2744771 C158.775278,45.4196595 156.803474,45.9922527 154.084591,45.9922527 C151.12951,45.9939727 148.755298,44.9211177 146.961955,42.7736855 C145.081131,40.5401494 144.140717,37.4834597 144.140717,33.6036164 C144.138969,29.7564925 145.124871,26.7135794 147.098424,24.4748771 C148.888268,22.3877177 151.202119,21.344138 154.039976,21.344138 Z M112.416908,15 L112.416908,21.7910174 L116.175056,21.7910174 L116.175056,26.244313 L112.411659,26.244313 L112.411659,38.4676277 C112.411659,40.3136961 113.167488,41.2367303 114.679145,41.2367303 C115.185241,41.2243411 115.687776,41.1497128 116.175056,41.0145821 L116.175056,41.0145821 L116.175056,45.2431464 C115.087972,45.7102948 113.909703,45.936068 112.723963,45.9044246 C110.332255,45.9044246 108.495172,45.2155931 107.212712,43.8379302 C106.047476,42.6031997 105.464858,41.0008055 105.464858,39.0307474 L105.464858,39.0307474 L105.464858,26.244313 L102.840453,26.244313 L102.840453,21.7910174 L105.464858,21.7910174 L105.464858,16.7539372 L112.416908,15 Z M15.1223311,21.3493042 C22.0525107,21.3493042 25.5176004,23.8626781 25.5176004,28.8894259 L25.5176004,28.8894259 L25.5176004,45.5582868 L18.5734241,45.5582868 L18.5734241,28.9333389 C18.5734241,26.7290781 17.3618237,25.6269478 14.9386228,25.6269478 C13.9197055,25.6307709 12.9079445,25.7947102 11.941552,26.112574 L11.941552,26.112574 L11.941552,45.5582868 L5,45.5582868 L5,23.1135739 C7.68914061,21.9373941 11.063251,21.3493042 15.1223311,21.3493042 Z M61.0730431,21.7910174 L64.5241361,35.4634614 C64.8243473,36.648065 65.0002293,37.8598705 65.0490171,39.0798267 L65.0490171,39.0798267 L65.1487445,39.0798267 C65.2064814,38.5218732 65.4155591,37.3164181 65.7759774,35.4634614 L65.7759774,35.4634614 L69.3163001,21.7910174 L75.8589424,21.7910174 L68.1983034,45.5557037 L61.4299622,45.5557037 L53.6800935,21.7910174 L61.0730431,21.7910174 Z M40.6079308,25.6372794 C38.1287426,25.6355581 36.8891485,28.2815321 36.8891485,33.5752021 C36.8908981,38.7414382 38.1304922,41.3245571 40.6079308,41.3245571 C43.0801206,41.3262784 44.316245,38.7397161 44.316245,33.5648696 C44.3232139,28.2815321 43.087119,25.6390023 40.6079308,25.6372794 Z M88.9048611,25.6372794 C86.4274225,25.6355581 85.1887032,28.2815321 85.1887032,33.5752021 C85.1887032,38.7414382 86.4274225,41.3245571 88.9048611,41.3245571 C91.3840493,41.3262784 92.6236434,38.7431603 92.6236434,33.5752021 C92.6218937,28.2849763 91.3822997,25.6390023 88.9048611,25.6372794 Z M130.05816,25.3970502 C128.686217,25.3476972 127.39695,26.0416729 126.698921,27.2052329 C125.862611,28.498514 125.503942,30.335111 125.622915,32.7150237 L125.622915,32.7150237 L134.047256,31.4802933 C134.045507,27.4247979 132.715808,25.3970502 130.05816,25.3970502 Z" id="Combined-Shape" fill="#221C35"></path>
            <text id="P" fill="#FFFFFF" font-family="Helvetica" font-size="6.0757571" font-weight="normal">
                <tspan x="0" y="6">P</tspan>
            </text>
        </g>
    </g>
</svg>