<?xml version="1.0" encoding="UTF-8"?>
<svg width="165px" height="57px" viewBox="0 0 165 57" version="1.1" xmlns="http://www.w3.org/2000/svg" xmlns:xlink="http://www.w3.org/1999/xlink">
    <title>LOGO PARTNERS</title>
    <defs>
        <polygon id="path-1" points="0 57 182 57 182 0 0 0"></polygon>
    </defs>
    <g id="LOGO-PARTNERS" stroke="none" stroke-width="1" fill="none" fill-rule="evenodd">
        <rect id="Rectangle" fill="#FFFFFF" x="0" y="0" width="165" height="57"></rect>
        <g id="USN_logo_En_rgb" transform="translate(-10.000000, 0.000000)">
            <g id="g14-Clipped" transform="translate(91.000000, 28.500000) scale(-1, 1) rotate(-180.000000) translate(-91.000000, -28.500000) translate(0.000000, 0.000000)">
                <mask id="mask-2" fill="white">
                    <use xlink:href="#path-1"></use>
                </mask>
                <g id="path16"></g>
                <g id="g14" mask="url(#mask-2)">
                    <g transform="translate(15.780269, 15.546106)">
                        <g id="g20" stroke-width="1" fill="none" fill-rule="evenodd" transform="translate(48.952216, 18.186358)">
                            <path d="M0,7.27955948 L1.21953368,7.27955948 L1.21953368,2.53510449 C1.21953368,1.64960938 1.69495141,1.10997652 2.66657015,1.10997652 C3.6482094,1.10997652 4.13401877,1.65948071 4.13401877,2.51463061 L4.13401877,7.27955948 L5.34316081,7.27955948 L5.34316081,2.47404847 C5.34316081,0.926442857 4.26836788,0 2.66657015,0 C1.06440128,0 0,0.926442857 0,2.47404847 L0,7.27955948 Z" id="path22" fill="#000000" fill-rule="nonzero"></path>
                        </g>
                        <g id="g24" stroke-width="1" fill="none" fill-rule="evenodd" transform="translate(55.794928, 18.339218)">
                            <path d="M0,5.39596295 L1.13677166,5.39596295 L1.13677166,4.87680397 L1.15718382,4.87680397 C1.44666533,5.2431401 2.01523673,5.5484202 2.63539521,5.5484202 C3.83414561,5.5484202 4.58865321,4.80551101 4.58865321,3.5328403 L4.58865321,0 L3.42070662,0 L3.42070662,3.22719459 C3.42070662,4.02128847 3.13159623,4.47975703 2.35630534,4.47975703 C1.63260154,4.47975703 1.1779671,4.04176234 1.1779671,3.34930663 L1.1779671,0 L0,0 L0,5.39596295 Z" id="path26" fill="#000000" fill-rule="nonzero"></path>
                        </g>
                        <path d="M61.9032105,23.7352174 L63.0811776,23.7352174 L63.0811776,18.3392544 L61.9032105,18.3392544 L61.9032105,23.7352174 Z M61.8827983,25.7712712 L63.102332,25.7712712 L63.102332,24.6207125 L61.8827983,24.6207125 L61.8827983,25.7712712 Z" id="path28" fill="#000000" fill-rule="nonzero"></path>
                        <g id="g30" stroke-width="1" fill="none" fill-rule="evenodd" transform="translate(63.949659, 18.339218)">
                            <polygon id="path32" fill="#000000" fill-rule="nonzero" points="0 5.39596295 1.21953368 5.39596295 2.6869823 1.66971765 2.70776559 1.66971765 4.17521422 5.39596295 5.38435625 5.39596295 3.18318332 0 2.20154406 0"></polygon>
                        </g>
                        <g id="g34" stroke-width="1" fill="none" fill-rule="evenodd" transform="translate(69.748234, 18.186541)">
                            <path d="M3.86494941,3.38001745 C3.82375396,4.10281836 3.39992333,4.67316203 2.52145826,4.67316203 C1.67416812,4.67316203 1.24031697,4.0011802 1.19837926,3.38001745 L3.86494941,3.38001745 Z M4.84695979,1.26243377 C4.42312916,0.590451939 3.73097142,0 2.57341648,0 C1.08518457,0 0,1.09937398 0,2.85062153 C0,4.60186907 1.08518457,5.70124306 2.52145826,5.70124306 C3.94808256,5.70124306 5.01248384,4.62197735 5.01248384,2.85062153 L5.01248384,2.50439367 L1.18835875,2.50439367 C1.21916255,1.6287699 1.68455976,1.02808102 2.55263319,1.02808102 C3.38990281,1.02808102 3.76177523,1.57795082 3.99929852,1.94465255 L4.84695979,1.26243377 Z" id="path36" fill="#000000" fill-rule="nonzero"></path>
                        </g>
                        <g id="g38" stroke-width="1" fill="none" fill-rule="evenodd" transform="translate(75.949410, 18.339218)">
                            <path d="M0,5.39596295 L1.11598837,5.39596295 L1.11598837,4.82561928 L1.13677166,4.82561928 C1.35351167,5.2431401 1.80851723,5.49760112 2.27354331,5.49760112 C2.46987116,5.49760112 2.63539521,5.44678204 2.75935268,5.39596295 L2.57341648,4.26587816 C2.45947952,4.29622337 2.32550154,4.34704245 2.1391942,4.34704245 C1.51903571,4.34704245 1.1779671,3.94012418 1.1779671,3.00344438 L1.1779671,0 L0,0 L0,5.39596295 Z" id="path40" fill="#000000" fill-rule="nonzero"></path>
                        </g>
                        <g id="g42" stroke-width="1" fill="none" fill-rule="evenodd" transform="translate(79.246642, 18.186651)">
                            <path d="M1.07479292,2.2089849 C1.16757546,1.41489102 1.62258103,0.97726194 2.39750079,0.97726194 C3.14161674,0.97726194 3.55505573,1.25183123 3.55505573,1.66935205 C3.55505573,2.0971098 3.21398712,2.19874796 2.04604053,2.52450194 C0.805723561,2.8707298 0.206348365,3.28825061 0.206348365,4.10281836 C0.206348365,4.91738612 0.909268874,5.70124306 2.22195622,5.70124306 C3.53427244,5.70124306 4.21640966,5.02926122 4.46469573,4.12292664 L3.47229371,3.83812041 C3.29674914,4.34704245 2.97646382,4.73385245 2.22195622,4.73385245 C1.60179774,4.73385245 1.28151242,4.44868062 1.28151242,4.15363745 C1.28151242,3.79717266 1.50864407,3.70577143 2.89333067,3.31896143 C4.27875953,2.93215142 4.61982814,2.43310071 4.61982814,1.64924378 C4.61982814,0.895732044 3.98927801,0 2.43906736,0 C0.82650685,0 0.134349115,0.97726194 0,1.95452388 L1.07479292,2.2089849 Z" id="path44" fill="#000000" fill-rule="nonzero"></path>
                        </g>
                        <path d="M85.0242478,23.7352174 L86.202215,23.7352174 L86.202215,18.3392544 L85.0242478,18.3392544 L85.0242478,23.7352174 Z M85.0038357,25.7712712 L86.2233694,25.7712712 L86.2233694,24.6207125 L85.0038357,24.6207125 L85.0038357,25.7712712 Z" id="path46" fill="#000000" fill-rule="nonzero"></path>
                        <g id="g48" stroke-width="1" fill="none" fill-rule="evenodd" transform="translate(87.256744, 18.339218)">
                            <path d="M0.82724911,4.39822714 L0,4.39822714 L0,5.39596295 L0.858052913,5.39596295 L0.858052913,6.71945275 L1.97441241,6.71945275 L1.97441241,5.39596295 L3.34870737,5.39596295 L3.34870737,4.39822714 L1.98443293,4.39822714 L1.98443293,1.92417867 C1.98443293,1.36407194 2.09836988,1.11984786 2.69774508,1.11984786 L3.13196736,1.11984786 L3.13196736,0 L2.60459141,0 C1.23029646,0 0.82724911,0.610925814 0.82724911,1.80206663 L0.82724911,4.39822714 Z" id="path50" fill="#000000" fill-rule="nonzero"></path>
                        </g>
                        <g id="g52" stroke-width="1" fill="none" fill-rule="evenodd" transform="translate(91.070923, 16.048411)">
                            <polygon id="path54" fill="#000000" fill-rule="nonzero" points="2.12880255 2.53510449 0 7.68684335 1.23994584 7.68684335 2.67696179 3.97046939 2.69737395 3.97046939 4.13364764 7.68684335 5.35318132 7.68684335 2.23234787 0 1.09557621 0"></polygon>
                        </g>
                        <g id="g56" stroke-width="1" fill="none" fill-rule="evenodd" transform="translate(99.112571, 18.186432)">
                            <path d="M3.90651599,2.85062153 C3.90651599,4.02165407 3.33794459,4.65268816 2.54187041,4.65268816 C1.7465385,4.65268816 1.16757546,4.04176234 1.16757546,2.85062153 C1.16757546,1.64924378 1.73577572,1.0485549 2.54187041,1.0485549 C3.33794459,1.0485549 3.90651599,1.67995459 3.90651599,2.85062153 M0,2.85062153 C0,4.69363591 1.18835875,5.70124306 2.54187041,5.70124306 C3.8857327,5.70124306 5.0636998,4.69363591 5.0636998,2.85062153 C5.0636998,1.00797275 3.95810308,0 2.54187041,0 C1.11561724,0 0,1.00797275 0,2.85062153" id="path58" fill="#000000" fill-rule="nonzero"></path>
                        </g>
                        <g id="g60" stroke-width="1" fill="none" fill-rule="evenodd" transform="translate(104.796615, 18.339218)">
                            <path d="M0.82724911,4.39822714 L0,4.39822714 L0,5.39596295 L0.848032398,5.39596295 L0.848032398,6.17981989 C0.848032398,7.1472105 1.38505773,7.43201673 2.20154406,7.43201673 L3.21472938,7.43201673 L3.21472938,6.4039357 L2.43943849,6.4039357 C2.07758659,6.4039357 1.96402077,6.291695 1.96402077,5.91512193 L1.96402077,5.39596295 L3.33868685,5.39596295 L3.33868685,4.39822714 L1.99482457,4.39822714 L1.99482457,0 L0.82724911,0 L0.82724911,4.39822714 Z" id="path62" fill="#000000" fill-rule="nonzero"></path>
                        </g>
                        <g id="g64" stroke-width="1" fill="none" fill-rule="evenodd" transform="translate(48.383978, 6.476325)">
                            <path d="M1.28151242,2.83014765 C1.45705698,1.69019153 1.80851723,1.10961092 2.91411396,1.10961092 C3.80297067,1.10961092 4.31995497,1.48618398 4.31995497,2.07663592 C4.31995497,2.65721653 4.07204003,2.89120367 2.40789243,3.40049132 C0.857310652,3.87870255 0.289110389,4.53021051 0.289110389,5.45701897 C0.289110389,6.4851 1.13640053,7.43201673 2.66619902,7.43201673 C3.94808256,7.43201673 5.0636998,6.83132785 5.30159423,5.47712724 L4.11323548,5.19232101 C3.93731979,5.8237207 3.58623066,6.31216887 2.66619902,6.31216887 C1.84971268,6.31216887 1.48823191,5.93559581 1.48823191,5.46725591 C1.48823191,5.00915295 1.72575521,4.84609316 3.3171613,4.31669724 C5.0636998,3.73648224 5.51870537,3.19684938 5.51870537,2.14829449 C5.51870537,0.946916732 4.54745776,0 2.90409344,0 C1.25033748,0 0.216740009,0.855149898 0,2.55521276 L1.28151242,2.83014765 Z" id="path66" fill="#000000" fill-rule="nonzero"></path>
                        </g>
                        <g id="g68" stroke-width="1" fill="none" fill-rule="evenodd" transform="translate(54.647616, 6.476216)">
                            <path d="M3.90651599,2.85062153 C3.90651599,4.02165407 3.33794459,4.65305376 2.54187041,4.65305376 C1.7465385,4.65305376 1.16757546,4.04212795 1.16757546,2.85062153 C1.16757546,1.64960938 1.73577572,1.0485549 2.54187041,1.0485549 C3.33794459,1.0485549 3.90651599,1.67995459 3.90651599,2.85062153 M0,2.85062153 C0,4.69363591 1.18835875,5.70160866 2.54187041,5.70160866 C3.88536157,5.70160866 5.0636998,4.69363591 5.0636998,2.85062153 C5.0636998,1.00797275 3.95810308,0 2.54187041,0 C1.11561724,0 0,1.00797275 0,2.85062153" id="path70" fill="#000000" fill-rule="nonzero"></path>
                        </g>
                        <g id="g72" stroke-width="1" fill="none" fill-rule="evenodd" transform="translate(60.848681, 6.476143)">
                            <path d="M0,5.54878581 L1.17833823,5.54878581 L1.17833823,2.18924224 C1.17833823,1.38454582 1.45742811,1.10961092 2.13956533,1.10961092 C2.80091926,1.10961092 3.26594534,1.45620438 3.26594534,2.27040653 L3.26594534,5.54878581 L4.44428358,5.54878581 L4.44428358,0.152822855 L3.30714079,0.152822855 L3.30714079,0.671981835 L3.2863575,0.671981835 C3.16240003,0.498685105 2.72854888,0 1.87049597,0 C0.588983552,0 0,0.794093877 0,2.05652765 L0,5.54878581 Z" id="path74" fill="#000000" fill-rule="nonzero"></path>
                        </g>
                        <g id="g76" stroke-width="1" fill="none" fill-rule="evenodd" transform="translate(66.274827, 6.629148)">
                            <path d="M0.82724911,4.39786153 L0,4.39786153 L0,5.39559735 L0.858052913,5.39559735 L0.858052913,6.71945275 L1.97441241,6.71945275 L1.97441241,5.39559735 L3.34870737,5.39559735 L3.34870737,4.39786153 L1.98443293,4.39786153 L1.98443293,1.92381307 C1.98443293,1.36407194 2.09836988,1.11948225 2.69774508,1.11948225 L3.13196736,1.11948225 L3.13196736,0 L2.60459141,0 C1.23029646,0 0.82724911,0.610925814 0.82724911,1.80170102 L0.82724911,4.39786153 Z" id="path78" fill="#000000" fill-rule="nonzero"></path>
                        </g>
                        <g id="g80" stroke-width="1" fill="none" fill-rule="evenodd" transform="translate(70.730022, 6.629112)">
                            <path d="M0,7.43201673 L1.1779671,7.43201673 L1.1779671,4.86620143 L1.19837926,4.86620143 C1.43627369,5.22266622 2.07721546,5.54878581 2.66657015,5.54878581 C3.82375396,5.54878581 4.6402403,4.81574795 4.6402403,3.57342245 L4.6402403,0 L3.47229371,0 L3.47229371,3.29848755 C3.47229371,3.97046939 3.10042129,4.47975703 2.34591369,4.47975703 C1.63260154,4.47975703 1.1779671,4.01141714 1.1779671,3.38988878 L1.1779671,0 L0,0 L0,7.43201673 Z" id="path82" fill="#000000" fill-rule="nonzero"></path>
                        </g>
                        <polygon id="path84" fill="#000000" fill-rule="nonzero" points="76.4667288 10.4776519 79.1867417 10.4776519 79.1867417 9.55120906 76.4667288 9.55120906"></polygon>
                        <g id="g86" stroke-width="1" fill="none" fill-rule="evenodd" transform="translate(80.272112, 6.629112)">
                            <polygon id="path88" fill="#000000" fill-rule="nonzero" points="0 7.12673662 4.50626231 7.12673662 4.50626231 6.0167601 1.21953368 6.0167601 1.21953368 4.18434826 4.21640966 4.18434826 4.21640966 3.11531949 1.21953368 3.11531949 1.21953368 1.10961092 4.50626231 1.10961092 4.50626231 0 0 0"></polygon>
                        </g>
                        <g id="g90" stroke-width="1" fill="none" fill-rule="evenodd" transform="translate(85.812083, 6.476252)">
                            <path d="M1.13677166,1.65948071 C1.13677166,1.22185163 1.44703646,1.00797275 2.03602002,1.00797275 C2.97646382,1.00797275 3.36949065,1.45583877 3.36949065,1.91394173 L3.36949065,2.99320745 L3.34870737,2.99320745 C3.28672863,2.86085847 3.18318332,2.71827255 2.09799875,2.43310071 C1.26110026,2.22982438 1.13677166,1.95488948 1.13677166,1.65948071 M3.50346864,0.692090106 L3.48268535,0.692090106 C3.43146939,0.610925814 2.99724711,0 1.93284583,0 C0.568571394,0 0,0.763748669 0,1.57795082 C0,2.52486755 0.537396461,2.94238836 1.86010432,3.2579054 C3.0488342,3.55331418 3.32792408,3.67542622 3.32792408,4.06223622 C3.32792408,4.40846407 3.02842204,4.70350724 2.32550154,4.70350724 C1.48823191,4.70350724 1.23994584,4.23553295 1.10596785,3.75659051 L0.103545313,4.13352918 C0.320656452,4.98867908 1.02320583,5.70160866 2.2943266,5.70160866 C3.51386028,5.70160866 4.50589118,5.13126499 4.50589118,3.64508101 L4.50589118,0.152822855 L3.50346864,0.152822855 L3.50346864,0.692090106 Z" id="path92" fill="#000000" fill-rule="nonzero"></path>
                        </g>
                        <g id="g94" stroke-width="1" fill="none" fill-rule="evenodd" transform="translate(91.269218, 6.476252)">
                            <path d="M1.07479292,2.20935051 C1.16757546,1.41525663 1.62258103,0.977627545 2.39750079,0.977627545 C3.14161674,0.977627545 3.55505573,1.25219684 3.55505573,1.66971765 C3.55505573,2.0971098 3.21398712,2.19911357 2.04604053,2.52486755 C0.805723561,2.8710954 0.206348365,3.28861622 0.206348365,4.10318397 C0.206348365,4.91738612 0.909268874,5.70160866 2.22195622,5.70160866 C3.53427244,5.70160866 4.21640966,5.02962683 4.46469573,4.12329224 L3.47229371,3.83812041 C3.29674914,4.34740805 2.97646382,4.73421805 2.22195622,4.73421805 C1.60179774,4.73421805 1.28151242,4.44904622 1.28151242,4.15363745 C1.28151242,3.79753826 1.50864407,3.70613703 2.89333067,3.31896143 C4.27875953,2.93251703 4.61982814,2.43310071 4.61982814,1.64960938 C4.61982814,0.895732044 3.98927801,0 2.43906736,0 C0.82650685,0 0.134349115,0.977627545 0,1.95488948 L1.07479292,2.20935051 Z" id="path96" fill="#000000" fill-rule="nonzero"></path>
                        </g>
                        <g id="g98" stroke-width="1" fill="none" fill-rule="evenodd" transform="translate(96.426628, 6.629148)">
                            <path d="M0.82724911,4.39786153 L0,4.39786153 L0,5.39559735 L0.858052913,5.39559735 L0.858052913,6.71945275 L1.97441241,6.71945275 L1.97441241,5.39559735 L3.34870737,5.39559735 L3.34870737,4.39786153 L1.98443293,4.39786153 L1.98443293,1.92381307 C1.98443293,1.36407194 2.09836988,1.11948225 2.69774508,1.11948225 L3.13196736,1.11948225 L3.13196736,0 L2.60459141,0 C1.23029646,0 0.82724911,0.610925814 0.82724911,1.80170102 L0.82724911,4.39786153 Z" id="path100" fill="#000000" fill-rule="nonzero"></path>
                        </g>
                        <g id="g102" stroke-width="1" fill="none" fill-rule="evenodd" transform="translate(100.344352, 6.476289)">
                            <path d="M3.86494941,3.38001745 C3.82375396,4.10318397 3.39992333,4.67316203 2.52145826,4.67316203 C1.67416812,4.67316203 1.23994584,4.0011802 1.19837926,3.38001745 L3.86494941,3.38001745 Z M4.84695979,1.26243377 C4.42312916,0.590451939 3.73097142,0 2.57341648,0 C1.08518457,0 0,1.09973959 0,2.85062153 C0,4.60186907 1.08518457,5.70160866 2.52145826,5.70160866 C3.94808256,5.70160866 5.01248384,4.62197735 5.01248384,2.85062153 L5.01248384,2.50439367 L1.18835875,2.50439367 C1.21916255,1.6291355 1.68455976,1.02808102 2.55263319,1.02808102 C3.38990281,1.02808102 3.76177523,1.57795082 3.99929852,1.94428694 L4.84695979,1.26243377 Z" id="path104" fill="#000000" fill-rule="nonzero"></path>
                        </g>
                        <g id="g106" stroke-width="1" fill="none" fill-rule="evenodd" transform="translate(106.545900, 6.628966)">
                            <path d="M0,5.39596295 L1.11598837,5.39596295 L1.11598837,4.82561928 L1.13677166,4.82561928 C1.35351167,5.2431401 1.80851723,5.49760112 2.27354331,5.49760112 C2.46987116,5.49760112 2.63539521,5.44714764 2.75935268,5.39596295 L2.57341648,4.26587816 C2.45947952,4.29622337 2.32550154,4.34740805 2.1391942,4.34740805 C1.51903571,4.34740805 1.1779671,3.94012418 1.1779671,3.00344438 L1.1779671,0 L0,0 L0,5.39596295 Z" id="path108" fill="#000000" fill-rule="nonzero"></path>
                        </g>
                        <g id="g110" stroke-width="1" fill="none" fill-rule="evenodd" transform="translate(110.287263, 6.628966)">
                            <path d="M0,5.39596295 L1.13677166,5.39596295 L1.13677166,4.87680397 L1.15718382,4.87680397 C1.44666533,5.2431401 2.01523673,5.54878581 2.63539521,5.54878581 C3.83414561,5.54878581 4.58865321,4.80551101 4.58865321,3.5328403 L4.58865321,0 L3.42070662,0 L3.42070662,3.22719459 C3.42070662,4.02128847 3.13159623,4.47975703 2.35630534,4.47975703 C1.63260154,4.47975703 1.1779671,4.04176234 1.1779671,3.34930663 L1.1779671,0 L0,0 L0,5.39596295 Z" id="path112" fill="#000000" fill-rule="nonzero"></path>
                        </g>
                        <g id="g114" stroke-width="1" fill="none" fill-rule="evenodd" transform="translate(118.752222, 6.629112)">
                            <polygon id="path116" fill="#000000" fill-rule="nonzero" points="0 7.12673662 1.27112077 7.12673662 4.14441041 2.08687286 4.1651937 2.08687286 4.1651937 7.12673662 5.38435625 7.12673662 5.38435625 0 4.14441041 0 1.24031697 5.03949816 1.21953368 5.03949816 1.21953368 0 0 0"></polygon>
                        </g>
                        <g id="g118" stroke-width="1" fill="none" fill-rule="evenodd" transform="translate(125.377972, 6.476216)">
                            <path d="M3.90651599,2.85062153 C3.90651599,4.02165407 3.33794459,4.65305376 2.54187041,4.65305376 C1.7465385,4.65305376 1.16757546,4.04212795 1.16757546,2.85062153 C1.16757546,1.64960938 1.73577572,1.0485549 2.54187041,1.0485549 C3.33794459,1.0485549 3.90651599,1.67995459 3.90651599,2.85062153 M0,2.85062153 C0,4.69363591 1.18835875,5.70160866 2.54187041,5.70160866 C3.8857327,5.70160866 5.0636998,4.69363591 5.0636998,2.85062153 C5.0636998,1.00797275 3.95810308,0 2.54187041,0 C1.11561724,0 0,1.00797275 0,2.85062153" id="path120" fill="#000000" fill-rule="nonzero"></path>
                        </g>
                        <g id="g122" stroke-width="1" fill="none" fill-rule="evenodd" transform="translate(131.600080, 6.628966)">
                            <path d="M0,5.39596295 L1.11598837,5.39596295 L1.11598837,4.82561928 L1.13677166,4.82561928 C1.35351167,5.2431401 1.80851723,5.49760112 2.27354331,5.49760112 C2.46987116,5.49760112 2.63539521,5.44714764 2.75935268,5.39596295 L2.57341648,4.26587816 C2.45947952,4.29622337 2.32550154,4.34740805 2.1391942,4.34740805 C1.51903571,4.34740805 1.1779671,3.94012418 1.1779671,3.00344438 L1.1779671,0 L0,0 L0,5.39596295 Z" id="path124" fill="#000000" fill-rule="nonzero"></path>
                        </g>
                        <g id="g126" stroke-width="1" fill="none" fill-rule="evenodd" transform="translate(134.927930, 6.628966)">
                            <polygon id="path128" fill="#000000" fill-rule="nonzero" points="0 5.39596295 1.15755495 5.39596295 1.9324747 1.63937244 1.95362912 1.63937244 3.25518257 5.39596295 4.32032611 5.39596295 5.53948866 1.64924378 5.55990081 1.64924378 6.43873702 5.39596295 7.57550867 5.39596295 6.26319245 0 5.1264208 0 3.79295016 4.05199928 3.77216687 4.05199928 2.33589318 0 1.20914204 0"></polygon>
                        </g>
                        <g id="g130" stroke-width="1" fill="none" fill-rule="evenodd" transform="translate(143.124488, 6.476252)">
                            <path d="M1.13677166,1.65948071 C1.13677166,1.22185163 1.44703646,1.00797275 2.03602002,1.00797275 C2.97646382,1.00797275 3.36949065,1.45583877 3.36949065,1.91394173 L3.36949065,2.99320745 L3.34870737,2.99320745 C3.28672863,2.86085847 3.18318332,2.71827255 2.09799875,2.43310071 C1.26110026,2.22982438 1.13677166,1.95488948 1.13677166,1.65948071 M3.50346864,0.692090106 L3.48268535,0.692090106 C3.43146939,0.610925814 2.99724711,0 1.93284583,0 C0.568571394,0 0,0.763748669 0,1.57795082 C0,2.52486755 0.537396461,2.94238836 1.86010432,3.2579054 C3.0488342,3.55331418 3.32792408,3.67542622 3.32792408,4.06223622 C3.32792408,4.40846407 3.02842204,4.70350724 2.32550154,4.70350724 C1.48823191,4.70350724 1.24031697,4.23553295 1.10596785,3.75659051 L0.103545313,4.13352918 C0.320656452,4.98867908 1.02320583,5.70160866 2.2943266,5.70160866 C3.51386028,5.70160866 4.50589118,5.13126499 4.50589118,3.64508101 L4.50589118,0.152822855 L3.50346864,0.152822855 L3.50346864,0.692090106 Z" id="path132" fill="#000000" fill-rule="nonzero"></path>
                        </g>
                        <g id="g134" stroke-width="1" fill="none" fill-rule="evenodd" transform="translate(148.147734, 4.338158)">
                            <polygon id="path136" fill="#000000" fill-rule="nonzero" points="2.12880255 2.53510449 0 7.68684335 1.23994584 7.68684335 2.67696179 3.97083499 2.69737395 3.97083499 4.13364764 7.68684335 5.35318132 7.68684335 2.23234787 0 1.09557621 0"></polygon>
                        </g>
                        <polygon id="path138" fill="#000000" fill-rule="nonzero" points="153.501472 0.294823804 49.1059006 0.294823804 49.1059006 0.733184098 153.501472 0.733184098"></polygon>
                        <g id="g140" stroke-width="1" fill="none" fill-rule="evenodd">
                            <path d="M0,25.468404 L4.24090425,25.468404 L4.24127538,9.89400023 C4.24127538,7.84039742 4.40717056,6.33227714 5.30641892,4.71922825 C6.49366428,2.58994522 8.5790446,1.34761972 11.8917523,1.34761972 C17.234542,1.34761972 18.9335759,4.10318397 18.9335759,6.42367837 C18.9335759,9.57555835 14.710857,10.9948366 10.7056204,12.8283453 C7.15279143,14.4541903 6.35597499,17.1132349 6.93753594,20.1459277 C7.54730278,23.3277873 10.5167151,25.9082268 15.586353,25.9082268 C19.2108101,25.9082268 21.1844802,25.5546868 23.4995901,25.2563532 L37.174994,7.50696574 L37.1753651,25.468404 L42.1370041,25.4680384 L42.1370041,24.1982926 L38.7018234,24.1982926 L38.7018234,0.293946352 L37.5012174,0.293946352 L22.5294559,19.6296935 L22.5294559,12.3508653 C22.1457073,12.8400446 21.6450528,13.3178903 21.0033687,13.7906174 L21.0033687,21.6949957 C20.5027141,23.2828179 18.9202152,24.6253191 15.6579811,24.7064834 C12.9932666,24.7726579 10.6518065,23.5529999 10.2357696,20.9027299 C9.68909489,17.4199774 12.8388765,16.5732364 16.9858848,14.5956794 C21.5073635,12.4393417 22.6200117,10.335651 22.6200117,7.94971329 C22.6200117,4.59053532 18.8879269,0 11.8568661,0 C8.004164,0 4.81430034,1.11875104 2.74042505,3.20196785 C0.477644506,5.47493361 0,7.392897 0,10.9721691 L0,25.468404 Z" id="path142" fill="#000000" fill-rule="nonzero"></path>
                        </g>
                    </g>
                </g>
            </g>
        </g>
        <rect id="Rectangle" fill="#FFFFFF" x="0" y="0" width="5" height="5"></rect>
        <rect id="Rectangle-Copy-3" fill="#FFFFFF" x="0" y="52" width="5" height="5"></rect>
        <rect id="Rectangle-Copy" fill="#FFFFFF" x="160" y="0" width="5" height="5"></rect>
        <rect id="Rectangle-Copy-2" fill="#FFFFFF" x="160" y="52" width="5" height="5"></rect>
    </g>
</svg>