<?xml version="1.0" encoding="UTF-8"?>
<svg width="560px" height="560px" viewBox="0 0 560 560" version="1.1" xmlns="http://www.w3.org/2000/svg" xmlns:xlink="http://www.w3.org/1999/xlink">
    <title>Group 34</title>
    <defs>
        <path d="M147.803105,11.7860196 C147.803105,11.7860196 156.013243,78.1928795 139.630174,104.300356 L139.630174,104.300356 C130.931866,118.162781 93.7596419,135.260399 93.7596419,135.260399 L93.7596419,135.260399 L85.0371267,143.484882 L80.1773884,141.804303 C75.3185467,140.123275 65.5999667,151.890019 65.5999667,151.890019 L65.5999667,151.890019 L37.2542578,158.613681 L2.54814259e-14,191.391923 L400.079601,191.391923 L400.079601,186.349289 C400.079601,181.306206 377.403213,168.699397 377.403213,168.699397 L377.403213,168.699397 L340.958538,148.527964 C340.958538,148.527964 321.521378,145.166358 315.042474,138.442248 L315.042474,138.442248 C308.56357,131.718586 308.769776,141.995716 308.769776,141.995716 L308.769776,141.995716 L306.943508,135.080641 C306.943508,135.080641 282.5843,126.80371 275.604225,120.48484 L275.604225,120.48484 C242.020435,90.080209 267.446087,0 267.446087,0 L267.446087,0 L147.803105,11.7860196 Z" id="path-1"></path>
        <linearGradient x1="49.9999612%" y1="106.995102%" x2="49.9999612%" y2="-13.7389226%" id="linearGradient-3">
            <stop stop-color="#FFFFFF" offset="0%"></stop>
            <stop stop-color="#BABAB8" offset="100%"></stop>
        </linearGradient>
    </defs>
    <g id="Symbols" stroke="none" stroke-width="1" fill="none" fill-rule="evenodd">
        <g id="Group-34">
            <polygon id="Fill-1" fill="#DBDBDB" points="0 559.68576 560 559.68576 560 0 0 0"></polygon>
            <path d="M403.195643,309.783772 C403.195643,227.408496 344.402717,160.630017 271.877813,160.630017 C199.35291,160.630017 140.559984,227.408496 140.559984,309.783772 C140.559984,392.159496 199.35291,458.937975 271.877813,458.937975 C344.402717,458.937975 403.195643,392.159496 403.195643,309.783772" id="Fill-2" fill="#A0A0A0"></path>
            <g id="Group-6" transform="translate(67.510510, 368.608077)">
                <mask id="mask-2" fill="white">
                    <use xlink:href="#path-1"></use>
                </mask>
                <g id="Clip-5"></g>
                <path d="M147.803105,11.7860196 C147.803105,11.7860196 156.013243,78.1928795 139.630174,104.300356 L139.630174,104.300356 C130.931866,118.162781 93.7596419,135.260399 93.7596419,135.260399 L93.7596419,135.260399 L85.0371267,143.484882 L80.1773884,141.804303 C75.3185467,140.123275 65.5999667,151.890019 65.5999667,151.890019 L65.5999667,151.890019 L37.2542578,158.613681 L2.54814259e-14,191.391923 L400.079601,191.391923 L400.079601,186.349289 C400.079601,181.306206 377.403213,168.699397 377.403213,168.699397 L377.403213,168.699397 L340.958538,148.527964 C340.958538,148.527964 321.521378,145.166358 315.042474,138.442248 L315.042474,138.442248 C308.56357,131.718586 308.769776,141.995716 308.769776,141.995716 L308.769776,141.995716 L306.943508,135.080641 C306.943508,135.080641 282.5843,126.80371 275.604225,120.48484 L275.604225,120.48484 C242.020435,90.080209 267.446087,0 267.446087,0 L267.446087,0 L147.803105,11.7860196 Z" id="Fill-4" fill="url(#linearGradient-3)" mask="url(#mask-2)"></path>
            </g>
            <g id="Group-33" transform="translate(96.030484, 103.692565)">
                <path d="M93.271541,243.037635 C93.271541,243.037635 80.5616287,264.842578 134.575506,314.96992 C139.407451,319.454453 150.274061,333.118741 155.470453,335.111319 C174.433787,342.384116 184.743192,337.487619 195.351596,334.339391 C203.841009,331.820091 215.292168,318.498285 215.292168,318.498285 C215.292168,318.498285 260.238807,283.975809 261.048838,266.375675 C261.858421,248.775094 267.395502,243.037635 267.395502,243.037635 C267.395502,243.037635 268.622876,240.705714 273.146408,242.869084 C281.037375,246.642655 285.667597,231.469925 287.124936,214.76365 C288.239345,201.988738 281.16334,185.645117 273.064823,186.410321 C264.965857,187.175524 268.240946,188.478209 268.240946,188.478209 C268.13874,187.572247 268.893633,172.414759 265.857473,160.582118 C261.254596,142.641297 261.72618,120.599665 242.289469,109.121161 C222.852309,97.6426578 204.664488,77.0390889 192.742193,80.8651074 C180.820795,84.6911259 149.153376,106.82555 133.765475,101.469125 C118.377574,96.1122504 108.179789,122.319692 102.990121,132.843821 C96.6192511,145.763077 92.4592685,191.001543 93.2701961,200.184435 L94.0815721,209.367328 C94.0815721,209.367328 88.412251,184.879913 83.552961,183.349058 C78.693671,181.81865 69.7851221,181.81865 71.404736,200.184435 C73.0243499,218.550221 68.2905766,206.55665 81.9333471,238.445965 C89.9197964,257.114783 93.271541,243.037635 93.271541,243.037635" id="Fill-7" fill="#F4F4F4"></path>
                <path d="M247.204927,88.7669674 C244.739869,86.4130807 240.643989,87.8367989 240.180922,91.2127503 C237.445555,111.151529 225.004158,162.425556 168.736808,186.420765 C105.924657,213.206481 59.7340573,245.658379 50.2046489,252.568971 C49.0561709,253.402313 48.4124495,254.756548 48.4931388,256.172646 C49.3224457,270.731688 56.3347956,349.843978 110.391259,332.537016 C114.980688,331.067574 117.968882,337.248375 113.990899,339.967605 C113.890934,340.035743 113.790521,340.103432 113.690107,340.170225 C110.922912,342.005907 111.33622,346.234476 114.416759,347.474401 C115.24248,347.807021 116.122442,348.106916 117.048576,348.351225 C120.678699,349.308739 121.224696,354.213752 117.941089,356.033745 C106.296724,362.487994 86.6130137,367.80542 61.9283584,352.971585 C21.3107009,328.563067 -2.74099149,263.954234 0.249892536,222.315408 C12.0493604,58.0566132 119.304739,11.1864302 119.569669,11.0429825 C127.538635,6.7319316 191.837711,-12.4178848 221.31576,12.7038376 C222.306894,13.5483858 223.617199,13.9074533 224.894331,13.6505923 C234.674325,11.6826695 261.249351,0.968921244 312.106035,71.0762829 C315.856295,76.2462267 318.450008,82.1616502 322.061752,87.4293178 C335.728729,107.361372 369.078521,171.674793 334.726837,289.2983 C327.9449,312.520237 312.513516,332.396706 291.414604,344.252208 C277.17025,352.25614 272.906268,346.722198 256.975956,338.665369 C256.206717,338.276267 255.335273,338.13013 254.482207,338.253854 L245.863692,339.502745 C241.089125,340.194432 239.141375,333.586873 243.529529,331.583537 C262.884655,322.744919 284.976045,310.671555 289.83668,299.847532 C298.64885,280.222545 330.404131,168.2186 247.204927,88.7669674" id="Fill-9" fill="#A0A0A0"></path>
                <path d="M263.651203,332.047232 C263.651203,332.047232 252.87649,341.379848 229.173106,343.533356 C229.173106,343.533356 258.622914,344.251491 267.96091,337.79007 C277.298905,331.329097 263.651203,332.047232 263.651203,332.047232" id="Fill-11" fill="#A0A0A0"></path>
                <path d="M279.3312,341.002177 C279.3312,341.002177 268.556486,350.334793 244.853103,352.488301 C244.853103,352.488301 274.302911,353.206436 283.640906,346.745463 C292.978901,340.284042 279.3312,341.002177 279.3312,341.002177" id="Fill-13" fill="#A0A0A0"></path>
                <path d="M88.3233134,298.536151 C88.3233134,298.536151 89.4888258,312.738368 104.91752,330.851326 C104.91752,330.851326 83.3725755,310.77179 81.22355,299.625905 C79.0745246,288.480021 88.3233134,298.536151 88.3233134,298.536151" id="Fill-15" fill="#A0A0A0"></path>
                <path d="M102.302065,349.543813 C102.302065,349.543813 131.033738,350.2615 146.836293,338.775376 C146.836293,338.775376 120.977608,357.440608 109.484759,356.004786 C97.9923591,354.568965 102.302065,349.543813 102.302065,349.543813" id="Fill-17" fill="#A0A0A0"></path>
                <path d="M100.23225,346.282665 C100.23225,346.282665 132.555494,339.821692 137.583783,324.74579 C137.583783,324.74579 133.992212,338.38587 95.2044087,343.411022 C95.2044087,343.411022 101.668968,346.282665 100.23225,346.282665" id="Fill-19" fill="#A0A0A0"></path>
                <path d="M60.7580943,238.835111 C60.7580943,238.835111 57.3982808,341.257648 115.638037,333.421819 C115.638037,333.421819 64.4971477,353.893147 50.117863,246.111047 C47.8778379,229.320496 60.7580943,238.835111 60.7580943,238.835111" id="Fill-21" fill="#A0A0A0"></path>
                <path d="M82.3373764,251.985274 C82.3373764,251.985274 68.7591574,353.560124 127.491118,351.57696 C127.491118,351.57696 74.5598228,366.841586 71.0233893,258.162937 C70.4724606,241.232526 82.3373764,251.985274 82.3373764,251.985274" id="Fill-23" fill="#A0A0A0"></path>
                <path d="M58.2573979,239.112459 C58.2573979,239.112459 44.6791789,340.687757 103.41114,338.704593 C103.41114,338.704593 50.4802926,353.968771 46.9434108,245.290122 C46.3924821,228.35971 58.2573979,239.112459 58.2573979,239.112459" id="Fill-25" fill="#A0A0A0"></path>
                <path d="M287.919098,220.612684 C287.919098,220.612684 304.013031,321.81995 245.250139,321.29278 C245.250139,321.29278 298.54364,335.240825 299.382809,226.507935 C299.513705,209.569455 287.919098,220.612684 287.919098,220.612684" id="Fill-27" fill="#A0A0A0"></path>
                <path d="M275.396027,266.54472 C275.396027,266.54472 259.509645,367.784709 203.767671,349.189856 C203.767671,349.189856 250.169408,378.868732 284.484782,275.682785 C289.830897,259.608576 275.396027,266.54472 275.396027,266.54472" id="Fill-29" fill="#A0A0A0"></path>
                <path d="M306.329845,296.381612 C306.329845,296.381612 247.653022,380.420432 205.704887,339.288605 C205.704887,339.288605 234.396664,386.291477 310.491621,308.576457 C322.346227,296.469922 306.329845,296.381612 306.329845,296.381612" id="Fill-31" fill="#A0A0A0"></path>
            </g>
        </g>
    </g>
</svg>