<?xml version="1.0" encoding="UTF-8"?>
<svg width="560px" height="560px" viewBox="0 0 560 560" version="1.1" xmlns="http://www.w3.org/2000/svg" xmlns:xlink="http://www.w3.org/1999/xlink">
    <title>Group 12</title>
    <defs>
        <path d="M150.725674,12.0181798 C150.725674,12.0181798 159.097532,79.7338573 142.391416,106.355229 L142.391416,106.355229 C133.52046,120.491104 95.6136646,137.925947 95.6136646,137.925947 L95.6136646,137.925947 L86.7180898,146.312577 L81.7629239,144.598188 C76.8073103,142.884247 66.8965308,154.883179 66.8965308,154.883179 L66.8965308,154.883179 L37.9909485,161.739392 L3.81664734e-14,195.163262 L407.989206,195.163262 L407.989206,190.02099 C407.989206,184.879166 384.864651,172.023487 384.864651,172.023487 L384.864651,172.023487 L347.699563,151.454849 C347.699563,151.454849 327.878004,148.026518 321.270669,141.170305 L321.270669,141.170305 C314.663781,134.314093 314.87461,144.793351 314.87461,144.793351 L314.87461,144.793351 L313.012059,137.741975 C313.012059,137.741975 288.170429,129.302526 281.053253,122.85902 L281.053253,122.85902 C246.805312,91.8549899 272.733766,0 272.733766,0 L272.733766,0 L150.725674,12.0181798 Z" id="path-1"></path>
        <linearGradient x1="49.9999834%" y1="106.9951%" x2="49.9999834%" y2="-13.7389094%" id="linearGradient-3">
            <stop stop-color="#FFFFFF" offset="0%"></stop>
            <stop stop-color="#BABAB8" offset="100%"></stop>
        </linearGradient>
    </defs>
    <g id="Symbols" stroke="none" stroke-width="1" fill="none" fill-rule="evenodd">
        <g id="Group-12">
            <polygon id="Fill-1" fill="#DBDBDB" points="0 558.718908 560 558.718908 560 0 0 0"></polygon>
            <path d="M433.736911,335.719476 C433.736911,247.635694 362.286282,176.22938 274.147443,176.22938 C186.008156,176.22938 114.557528,247.635694 114.557528,335.719476 C114.557528,423.803258 186.008156,495.209124 274.147443,495.209124 C362.286282,495.209124 433.736911,423.803258 433.736911,335.719476" id="Fill-2" fill="#A0A0A0"></path>
            <g id="Group-6" transform="translate(68.845026, 364.021172)">
                <mask id="mask-2" fill="white">
                    <use xlink:href="#path-1"></use>
                </mask>
                <g id="Clip-5"></g>
                <path d="M150.725674,12.0181798 C150.725674,12.0181798 159.097532,79.7338573 142.391416,106.355229 L142.391416,106.355229 C133.52046,120.491104 95.6136646,137.925947 95.6136646,137.925947 L95.6136646,137.925947 L86.7180898,146.312577 L81.7629239,144.598188 C76.8073103,142.884247 66.8965308,154.883179 66.8965308,154.883179 L66.8965308,154.883179 L37.9909485,161.739392 L3.81664734e-14,195.163262 L407.989206,195.163262 L407.989206,190.02099 C407.989206,184.879166 384.864651,172.023487 384.864651,172.023487 L384.864651,172.023487 L347.699563,151.454849 C347.699563,151.454849 327.878004,148.026518 321.270669,141.170305 L321.270669,141.170305 C314.663781,134.314093 314.87461,144.793351 314.87461,144.793351 L314.87461,144.793351 L313.012059,137.741975 C313.012059,137.741975 288.170429,129.302526 281.053253,122.85902 L281.053253,122.85902 C246.805312,91.8549899 272.733766,0 272.733766,0 L272.733766,0 L150.725674,12.0181798 Z" id="Fill-4" fill="url(#linearGradient-3)" mask="url(#mask-2)"></path>
            </g>
            <g id="Group-11" transform="translate(81.212624, 102.835375)">
                <path d="M111.831868,243.752835 C111.831868,243.752835 98.8709982,265.987519 153.952122,317.102272 C158.879983,321.675617 169.961291,335.60872 175.260678,337.64092 C194.598806,345.056659 205.112084,340.06434 215.929744,336.854002 C224.587184,334.284656 236.264724,320.70025 236.264724,320.70025 C236.264724,320.70025 282.100233,285.497981 282.926094,267.550612 C283.751955,249.603243 289.398248,243.752835 289.398248,243.752835 C289.398248,243.752835 290.649797,241.375071 295.26298,243.580948 C303.309865,247.429147 308.031373,231.957122 309.517475,214.922005 C310.653985,201.894887 303.438332,185.229505 295.179275,186.009708 C286.920217,186.789912 290.260366,188.118451 290.260366,188.118451 C290.156071,187.194561 290.925531,171.738651 287.829783,159.673024 C283.136028,141.3783 283.616773,118.902348 263.795662,107.197951 C243.974103,95.4931056 225.426921,74.4835601 213.269531,78.3850259 C201.112141,82.2864917 168.818067,104.856892 153.126261,99.3945714 C137.434454,93.9322507 127.034872,120.656575 121.742648,131.387397 C115.245875,144.561782 111.003769,190.691378 111.830525,200.055164 L112.657729,209.418951 C112.657729,209.418951 106.876702,184.448853 101.921089,182.888446 C96.9659227,181.327591 87.8810041,181.327591 89.5327261,200.055164 C91.1844481,218.782737 86.3573018,206.55328 100.269367,239.071165 C108.413833,258.107597 111.831868,243.752835 111.831868,243.752835" id="Fill-7" fill="#F4F4F4"></path>
                <path d="M276.085906,239.010736 C276.085906,239.010736 276.311507,239.931941 276.542032,241.49951 C277.219283,246.109112 277.93861,256.306369 273.082816,265.079743 C266.5753,276.836513 251.558954,292.171565 251.558954,292.171565 C251.558954,292.171565 230.035539,350.443779 251.558954,365.778832 C273.082816,381.113884 310.623905,393.381389 310.623905,393.381389 C310.623905,393.381389 309.122136,365.778832 319.133183,355.555613 C329.144229,345.332394 342.658807,336.641382 342.658807,336.641382 C342.658807,336.641382 361.179131,317.218653 351.668972,313.129186 C342.158366,309.03972 357.174712,303.417151 357.174712,303.417151 L346.663225,295.749848 C346.663225,295.749848 362.6809,292.171565 357.174712,284.504263 C351.668972,276.836513 373.192387,251.278689 373.192387,251.278689 C373.192387,251.278689 382.702993,239.52192 366.685319,212.430098 C350.667644,185.338724 356.674272,160.802819 356.674272,160.802819 C356.674272,160.802819 351.168532,139.845198 343.660135,115.820924 C336.151738,91.7962026 319.133183,64.1936454 304.116837,52.4368764 C289.100043,40.6801073 275.335245,14.0994692 251.308733,11.0328168 C242.865256,9.95449745 227.032001,13.0771025 227.032001,13.0771025 C227.032001,13.0771025 185.43815,-6.99825773 159.707992,2.59829175 C133.978282,12.1952888 93.8857521,37.6130073 61.8508505,77.4835169 C29.8155012,117.354026 50.3380349,132.177896 50.3380349,132.177896 C50.3380349,132.177896 42.8300856,134.733812 39.8265478,119.909943 C39.8265478,119.909943 32.0070543,135.256186 39.8265478,147.512948 C39.8265478,147.512948 -0.718079196,191.98366 10.7947364,214.986015 C22.3075519,237.98837 21.3062234,223.164501 21.3062234,223.164501 C21.3062234,223.164501 -6.1763713,249.745139 1.28413013,270.191577 C3.53969303,276.373225 -0.888622848,280.548635 0.847699529,284.079022 C3.88122795,290.246794 9.31624375,294.824615 15.8004835,296.771767 L23.050603,317.638074 C30.7389436,339.764882 46.8233138,357.801328 67.6788776,367.683012 L121.916683,393.381389 C121.916683,393.381389 114.408286,375.490867 126.92243,355.555613 C139.435679,335.620358 146.848285,306.128392 137.159525,294.435185 C120.992793,274.924275 103.153748,251.232136 105.398568,227.253967 C106.492554,215.567475 100.731222,210.844176 101.143929,196.967921 C101.644369,180.130205 109.931179,200.039498 111.130356,194.28309 C113.376519,183.497659 114.318762,163.498394 119.914473,158.24735 C138.434798,140.867565 130.848515,153.635957 151.949823,134.733812 C180.481194,109.175541 158.957332,131.155529 180.481194,109.175541 C200.791555,88.4341203 222.026702,78.5058836 222.026702,78.5058836 C222.026702,78.5058836 231.99791,98.9782837 263.071769,108.153174 C281.481531,113.589533 252.208452,184.352167 277.087234,185.849908 C278.175401,185.91526 279.059005,182.745207 282.41885,181.374144 C295.589654,175.999109 297.665273,188.728111 299.348776,203.368456 C300.44321,212.88891 298.685402,222.530221 294.285734,230.998318 C294.2262,231.112909 294.166219,231.227948 294.10579,231.343434 C290.50423,238.222028 275.549208,234.639268 276.085906,239.010736" id="Fill-9" fill="#A8A8A8"></path>
            </g>
        </g>
    </g>
</svg>