<?xml version="1.0" encoding="UTF-8"?>
<svg width="560px" height="560px" viewBox="0 0 560 560" version="1.1" xmlns="http://www.w3.org/2000/svg" xmlns:xlink="http://www.w3.org/1999/xlink">
    <title>Group 17</title>
    <defs>
        <path d="M2.54814259e-14,12.1522595 L2.54814259e-14,73.206728 C65.0234864,51.1225101 130.25273,50.340272 194.755771,73.206728 L194.755771,73.206728 L194.755771,12.1522595 C162.000839,4.1940514 129.13339,0 96.1229423,0 L96.1229423,0 C64.2148001,0.00089654797 32.1721756,3.92150082 2.54814259e-14,12.1522595" id="path-1"></path>
        <path d="M136.026499,0 C136.026499,0 136.026499,31.7857635 136.887185,51.3166127 L136.887185,51.3166127 C137.74832,70.8470137 127.417398,83.7617872 127.417398,83.7617872 L127.417398,83.7617872 L94.4845009,108.759338 C91.767064,110.821398 88.8429728,112.596115 85.7592961,114.053005 L85.7592961,114.053005 L69.7348459,121.626594 L39.6023169,129.438665 L3.82221388e-14,167.523574 L425.298599,167.523574 C425.298599,167.523574 425.540666,167.518643 425.298599,161.664185 L425.298599,161.664185 C424.368878,139.21059 298.680025,110.552434 288.410517,76.7059547 L288.410517,76.7059547 C283.907604,61.8631548 275.137124,0.00493101384 279.998655,0 L279.998655,0 L136.026499,0 Z" id="path-3"></path>
        <linearGradient x1="49.9999648%" y1="106.995099%" x2="49.9999648%" y2="-13.7388715%" id="linearGradient-5">
            <stop stop-color="#FFFFFF" offset="0%"></stop>
            <stop stop-color="#BABAB8" offset="100%"></stop>
        </linearGradient>
    </defs>
    <g id="Symbols" stroke="none" stroke-width="1" fill="none" fill-rule="evenodd">
        <g id="Group-17">
            <polygon id="Fill-1" fill="#DBDBDB" points="0 559.77138 560 559.77138 560 0 0 0"></polygon>
            <g id="Group-4" transform="translate(185.111156, 432.314086)">
                <mask id="mask-2" fill="white">
                    <use xlink:href="#path-1"></use>
                </mask>
                <g id="Clip-3"></g>
                <path d="M2.54814259e-14,12.1522595 L2.54814259e-14,73.206728 C65.0234864,51.1225101 130.25273,50.340272 194.755771,73.206728 L194.755771,73.206728 L194.755771,12.1522595 C162.000839,4.1940514 129.13339,0 96.1229423,0 L96.1229423,0 C64.2148001,0.00089654797 32.1721756,3.92150082 2.54814259e-14,12.1522595" id="Fill-2" mask="url(#mask-2)"></path>
            </g>
            <g id="Group-7" transform="translate(72.475593, 392.476426)">
                <mask id="mask-4" fill="white">
                    <use xlink:href="#path-3"></use>
                </mask>
                <g id="Clip-6"></g>
                <path d="M136.026499,0 C136.026499,0 136.026499,31.7857635 136.887185,51.3166127 L136.887185,51.3166127 C137.74832,70.8470137 127.417398,83.7617872 127.417398,83.7617872 L127.417398,83.7617872 L94.4845009,108.759338 C91.767064,110.821398 88.8429728,112.596115 85.7592961,114.053005 L85.7592961,114.053005 L69.7348459,121.626594 L39.6023169,129.438665 L3.82221388e-14,167.523574 L425.298599,167.523574 C425.298599,167.523574 425.540666,167.518643 425.298599,161.664185 L425.298599,161.664185 C424.368878,139.21059 298.680025,110.552434 288.410517,76.7059547 L288.410517,76.7059547 C283.907604,61.8631548 275.137124,0.00493101384 279.998655,0 L279.998655,0 L136.026499,0 Z" id="Fill-5" fill="url(#linearGradient-5)" mask="url(#mask-4)"></path>
            </g>
            <g id="Group-16" transform="translate(153.155115, 78.483824)">
                <path d="M28.2163149,218.645218 C28.2163149,218.645218 5.67665068,176.639256 1.71390865,170.108352 C-2.24838511,163.577897 4.68596517,141.18706 1.71390865,136.522321 C-1.25814787,131.857133 -2.24838511,63.7517632 21.5267222,43.2266422 C45.3013813,22.7015213 59.1700819,17.103924 59.1700819,17.103924 C65.0568158,12.0263246 104.224307,-2.28078791 120.68941,0.311132268 C170.208445,8.10572032 161.969169,5.54966206 171.11082,4.97587136 C192.133973,8.36437441 208.188906,14.0242817 205.701882,27.8019827 C213.620642,23.7276204 219.913961,23.6801034 226.586071,28.2995668 C224.742768,32.1932746 224.511907,34.7556087 226.586071,36.6961868 C226.586071,36.6961868 252.342101,37.629045 252.342101,102.002982 C252.342101,163.979999 247.532569,186.152527 240.454771,189.700615 C233.376973,193.248255 220.326373,205.851479 220.326373,205.851479 C220.326373,205.851479 223.614014,93.641776 191.913871,94.5392205 C160.214176,95.436665 136.980135,111.399702 60.1607674,94.5392205 C43.3200103,90.8427532 19.3005936,196.254381 28.2163149,218.645218" id="Fill-8" fill="#A8A8A8"></path>
                <path d="M25.6215706,258.096646 C25.6215706,258.096646 39.2733066,325.019917 73.5922663,345.794279 C127.180732,378.232281 163.975957,350.719017 163.975957,350.719017 C163.975957,350.719017 206.731433,312.404143 213.74199,289.816961 C220.004826,269.638805 222.207644,258.096646 222.207644,258.096646 C222.207644,258.096646 227.850965,258.096646 231.613329,253.431907 C235.375692,248.767168 236.316619,218.912569 239.138504,210.515949 C241.960389,202.119329 243.841347,188.125111 234.435214,189.05797 C225.02908,189.990828 220.326238,205.85121 220.326238,205.85121 C220.326238,205.85121 228.865409,177.633707 223.222088,160.840467 C217.578319,144.047675 221.266717,108.824099 198.692536,94.8298813 C176.117906,80.8356641 147.37413,85.5004032 133.527843,90.1651422 C119.682004,94.8298813 90.5231264,92.0308586 72.6517875,85.5004032 C54.7804485,78.9694995 34.8093942,108.664513 31.9879577,122.65873 C29.166073,136.653396 24.6784021,194.656015 25.6202258,205.85121 L26.5620494,217.046852 C26.5620494,217.046852 19.9782494,187.192253 14.3344799,185.326537 C8.69071047,183.460372 -1.65590138,183.460372 0.225504536,205.85121 C2.10646218,228.242047 4.38907331,210.906395 12.453074,252.499049 C17.1563647,276.755602 25.6215706,258.096646 25.6215706,258.096646" id="Fill-10" fill="#F4F4F4"></path>
                <path d="M31.8461239,366.431737 C31.8461239,366.431737 23.644503,414.669156 18.3934216,416.030564 C13.1423401,417.391076 76.6654534,448.668048 100.016942,451.67776 C100.016942,451.67776 114.048814,427.393861 129.767093,420.050237 C129.767093,420.050237 35.0857999,387.921095 31.8461239,366.431737" id="Fill-12" fill="#FFFFFF"></path>
                <path d="M226.8874,365.982701 C226.8874,365.982701 235.509502,414.12912 240.715756,415.433598 C245.922459,416.738075 183.442927,448.696424 160.385058,451.957169 C160.385058,451.957169 146.252772,427.825684 130.632665,420.651507 C130.632665,420.651507 223.912206,387.50568 226.8874,365.982701" id="Fill-14" fill="#FFFFFF"></path>
            </g>
        </g>
    </g>
</svg>