<?xml version="1.0" encoding="UTF-8"?>
<svg width="560px" height="560px" viewBox="0 0 560 560" version="1.1" xmlns="http://www.w3.org/2000/svg" xmlns:xlink="http://www.w3.org/1999/xlink">
    <title>Group 16</title>
    <defs>
        <path d="M164.673911,0 C164.673911,0 164.673911,32.0323759 165.716182,51.7141973 L165.716182,51.7141973 C166.758005,71.3964664 154.251199,84.4118717 154.251199,84.4118717 L154.251199,84.4118717 L109.435333,112.728694 L103.181706,110.760109 C96.9280792,108.79242 84.4212736,122.569829 84.4212736,122.569829 L84.4212736,122.569829 L47.9431279,130.442826 L0,168.822848 L514.866258,168.822848 L514.866258,162.917988 C514.866258,157.013128 485.683563,142.252098 485.683563,142.252098 L485.683563,142.252098 L438.782706,118.633554 C438.782706,118.633554 413.769095,114.696832 405.430926,106.824282 L405.430926,106.824282 C401.641053,103.245729 400.220018,101.700678 399.796931,101.079255 L399.796931,101.079255 L395.008662,102.88756 C395.008662,102.88756 358.530517,84.1898071 349.150077,77.3008786 L349.150077,77.3008786 C339.770084,70.4123978 338.970473,0 338.970473,0 L338.970473,0 L164.673911,0 Z M399.796931,101.079255 L400.220018,100.91987 C400.220018,100.91987 399.872594,100.700939 399.718134,100.700939 L399.718134,100.700939 C399.619638,100.700939 399.599491,100.789586 399.796931,101.079255 L399.796931,101.079255 Z" id="path-1"></path>
        <linearGradient x1="50.0000174%" y1="106.994978%" x2="50.0000174%" y2="-13.738738%" id="linearGradient-3">
            <stop stop-color="#FFFFFF" offset="0%"></stop>
            <stop stop-color="#BABAB8" offset="100%"></stop>
        </linearGradient>
    </defs>
    <g id="Symbols" stroke="none" stroke-width="1" fill="none" fill-rule="evenodd">
        <g id="Group-16">
            <polygon id="Fill-1" fill="#DBDBDB" points="0 559.296646 560 559.296646 560 0 0 0"></polygon>
            <g id="Group-4" transform="translate(29.669357, 383.657399)">
                <mask id="mask-2" fill="white">
                    <use xlink:href="#path-1"></use>
                </mask>
                <g id="Clip-3"></g>
                <path d="M164.673911,0 C164.673911,0 164.673911,32.0323759 165.716182,51.7141973 L165.716182,51.7141973 C166.758005,71.3964664 154.251199,84.4118717 154.251199,84.4118717 L154.251199,84.4118717 L109.435333,112.728694 L103.181706,110.760109 C96.9280792,108.79242 84.4212736,122.569829 84.4212736,122.569829 L84.4212736,122.569829 L47.9431279,130.442826 L0,168.822848 L514.866258,168.822848 L514.866258,162.917988 C514.866258,157.013128 485.683563,142.252098 485.683563,142.252098 L485.683563,142.252098 L438.782706,118.633554 C438.782706,118.633554 413.769095,114.696832 405.430926,106.824282 L405.430926,106.824282 C401.641053,103.245729 400.220018,101.700678 399.796931,101.079255 L399.796931,101.079255 L395.008662,102.88756 C395.008662,102.88756 358.530517,84.1898071 349.150077,77.3008786 L349.150077,77.3008786 C339.770084,70.4123978 338.970473,0 338.970473,0 L338.970473,0 L164.673911,0 Z M399.796931,101.079255 L400.220018,100.91987 C400.220018,100.91987 399.872594,100.700939 399.718134,100.700939 L399.718134,100.700939 C399.619638,100.700939 399.599491,100.789586 399.796931,101.079255 L399.796931,101.079255 Z" id="Fill-2" fill="url(#linearGradient-3)" mask="url(#mask-2)"></path>
            </g>
            <g id="Group-15" transform="translate(20.879269, 59.569579)">
                <path d="M149.492435,228.186611 C149.492435,228.186611 138.831989,198.932729 139.604738,186.321159 C143.32656,125.610658 132.519265,125.798697 130.920937,120.654498 C119.755921,84.7234547 130.815725,46.1191296 156.972342,26.4910335 C183.435641,6.63326172 189.097394,16.6042325 189.097394,16.6042325 C218.346799,-8.69233208 326.254989,-5.338977 335.010872,28.4135044 C339.333521,45.0759631 349.25793,16.5791606 365.235839,28.4135044 C367.016833,29.7324609 365.235839,37.2705703 365.235839,37.2705703 C365.235839,37.2705703 397.454015,44.9698556 386.474351,111.981441 C375.309335,180.126183 383.996719,193.729432 376.549943,197.471848 C369.103614,201.214264 364.193568,216.377339 364.193568,216.377339 C364.193568,216.377339 362.109473,97.3381586 328.757693,98.2850673 C295.405913,99.2315283 270.961343,116.069937 190.139665,98.2850673 C172.421504,94.3859526 140.112443,204.568067 149.492435,228.186611" id="Fill-5" fill="#A8A8A8"></path>
                <path d="M148.450209,271.48711 C148.450209,271.48711 147.407937,329.549401 201.604244,363.993149 C255.800999,398.436448 298.532771,369.897561 298.532771,369.897561 C298.532771,369.897561 355.855891,327.580816 356.898163,304.946789 C357.940434,282.312314 366.278155,271.48711 366.278155,271.48711 C366.278155,271.48711 372.531781,271.48711 376.700418,266.566767 C380.869503,261.645976 381.911774,230.154883 385.038587,221.297817 C388.1654,212.440751 390.249943,197.679273 379.827232,198.663342 C369.404968,199.64741 364.193613,216.377473 364.193613,216.377473 C364.193613,216.377473 366.278155,188.822655 360.024976,171.108523 C353.771349,153.394839 365.235884,114.030748 340.222273,99.2692703 C315.208661,84.5073446 283.358504,89.4281357 268.016345,94.3484792 C252.674186,99.2692703 220.364677,96.3166165 200.561973,89.4281357 C180.759718,82.5392072 164.083827,115.014817 160.957014,129.776295 C157.830201,144.537773 147.405251,204.568201 148.448865,216.377473 L149.49248,228.186745 C149.49248,228.186745 142.19703,196.695204 135.943403,194.727067 C129.689776,192.758929 118.225242,192.758929 120.309784,216.377473 C122.394326,239.996017 124.923445,221.709711 133.858861,265.582698 C139.069769,291.16938 148.450209,271.48711 148.450209,271.48711" id="Fill-7" fill="#F4F4F4"></path>
                <path d="M530.952065,498.997523 C533.036608,478.331185 470.184705,453.288472 447.572615,441.90184 C424.960973,430.514759 407.967656,420.251433 398.587664,416.314711 C389.207224,412.378436 369.106793,405.787235 369.106793,405.787235 L365.384971,411.982212 C365.384971,411.982212 346.475451,453.710664 258.27102,453.710664 C195.351065,453.710664 163.041556,407.679709 163.041556,407.679709 C143.194977,413.343701 98.2416632,433.384586 90.0848172,440.917323 C81.9275236,448.45006 72.8510793,453.175201 62.8174291,452.397528 C51.282604,451.503896 9.33656431,491.623275 0,498.997523 L530.952065,498.997523 Z" id="Fill-9" fill="#BABAB9"></path>
                <path d="M142.085953,203.667049 C142.085953,203.667049 149.529147,256.943757 148.28854,265.616814 C147.047933,274.289423 143.32656,300.308593 147.047933,323.849235 C150.769754,347.390325 159.453556,374.647863 170.618572,385.799 C181.783588,396.949689 199.151191,410.578906 199.151191,410.578906 C199.151191,410.578906 197.910584,406.861562 199.151191,404.38393 C200.391798,401.90585 200.391798,414.295803 204.113619,419.251515 C207.834993,424.207676 227.683811,425.446492 227.683811,425.446492 C227.683811,425.446492 263.660072,437.836445 277.305855,426.685756 C277.305855,426.685756 282.268283,431.641468 289.711477,426.685756 C297.154672,421.729596 336.852307,411.817723 344.29595,384.559736 C344.29595,384.559736 362.90416,341.195348 364.14432,310.220466 C365.384927,279.245583 364.14432,269.33371 364.14432,269.33371 C364.14432,269.33371 362.90416,214.817738 367.866141,206.145129 C372.828569,197.472072 365.384927,197.472072 365.384927,197.472072 C365.384927,197.472072 359.182339,225.968875 359.182339,237.120011 C359.182339,248.270701 350.498537,290.396272 340.574129,295.352433 C330.64972,300.308593 307.799448,312.641239 285.989656,325.088051 C277.305855,330.044212 238.848826,327.566131 228.924418,325.088051 C211.692918,320.785997 212.797421,306.503569 191.707997,300.308593 C191.707997,300.308593 158.212949,291.635536 156.972342,281.723663 C155.732183,271.81179 147.047933,219.773898 147.047933,197.472072 C147.047933,175.170246 142.085953,203.667049 142.085953,203.667049" id="Fill-11" fill="#A8A8A8"></path>
                <path d="M258.219713,277.672596 C255.465395,278.414005 252.565571,278.418034 249.865874,277.498436 C243.024403,275.1681 230.193454,272.63137 216.519019,279.003192 C199.358705,286.999758 201.632181,301.305018 180.543205,297.588122 C159.45378,293.871226 161.934546,293.871226 161.934546,293.871226 C161.934546,293.871226 166.896975,308.739259 178.06199,313.694971 C189.227006,318.651132 232.744511,305.299943 240.089657,302.543835 C253.73544,297.42426 276.065471,302.543835 276.065471,302.543835 C276.065471,302.543835 307.079305,316.415263 325.687515,313.937631 C344.295726,311.459551 354.220135,294.113437 354.220135,294.113437 C354.220135,294.113437 330.649944,307.742207 318.244321,301.54723 C305.838698,295.352254 298.395503,277.600514 284.749273,276.36125 C275.245265,275.498511 264.553479,275.967264 258.219713,277.672596" id="Fill-13" fill="#A8A8A8"></path>
            </g>
        </g>
    </g>
</svg>