<?xml version="1.0" encoding="UTF-8"?>
<svg width="560px" height="560px" viewBox="0 0 560 560" version="1.1" xmlns="http://www.w3.org/2000/svg" xmlns:xlink="http://www.w3.org/1999/xlink">
    <title>Group 20</title>
    <defs>
        <path d="M150.693289,11.9211248 C150.693289,11.9211248 159.063216,79.0866064 142.360217,105.492812 L142.360217,105.492812 C133.491861,119.513625 95.5928069,136.807061 95.5928069,136.807061 L95.5928069,136.807061 L86.6997315,145.125535 L81.7455511,143.425448 C76.7909211,141.725361 66.8825602,153.626416 66.8825602,153.626416 L66.8825602,153.626416 L37.9826496,160.426765 L0,193.580247 L407.901235,193.580247 L407.901235,188.47954 C407.901235,183.379278 384.781576,170.628179 384.781576,170.628179 L384.781576,170.628179 L347.624548,150.226242 C347.624548,150.226242 327.807377,146.826068 321.201503,140.024828 L321.201503,140.024828 C314.596079,133.224479 314.806417,143.619004 314.806417,143.619004 L314.806417,143.619004 L312.944386,136.624654 C312.944386,136.624654 288.108764,128.253553 280.992326,121.862171 L280.992326,121.862171 C246.752166,91.1098613 272.674984,0 272.674984,0 L272.674984,0 L150.693289,11.9211248 Z" id="path-1"></path>
    </defs>
    <g id="Symbols" stroke="none" stroke-width="1" fill="none" fill-rule="evenodd">
        <g id="Group-20">
            <polygon id="Fill-1" fill="#DBDBDB" points="0 560 560 560 560 0 0 0"></polygon>
            <path d="M435.555556,255.802469 C435.555556,177.527966 368.232782,114.074074 285.18541,114.074074 C202.138038,114.074074 134.814815,177.527966 134.814815,255.802469 C134.814815,334.076972 202.138038,397.530864 285.18541,397.530864 C368.232782,397.530864 435.555556,334.076972 435.555556,255.802469" id="Fill-2" fill="#A8A8A8"></path>
            <g id="Group-6" transform="translate(72.592593, 362.962963)">
                <mask id="mask-2" fill="white">
                    <use xlink:href="#path-1"></use>
                </mask>
                <g id="Clip-5"></g>
                <path d="M150.693289,11.9211248 C150.693289,11.9211248 159.063216,79.0866064 142.360217,105.492812 L142.360217,105.492812 C133.491861,119.513625 95.5928069,136.807061 95.5928069,136.807061 L95.5928069,136.807061 L86.6997315,145.125535 L81.7455511,143.425448 C76.7909211,141.725361 66.8825602,153.626416 66.8825602,153.626416 L66.8825602,153.626416 L37.9826496,160.426765 L0,193.580247 L407.901235,193.580247 L407.901235,188.47954 C407.901235,183.379278 384.781576,170.628179 384.781576,170.628179 L384.781576,170.628179 L347.624548,150.226242 C347.624548,150.226242 327.807377,146.826068 321.201503,140.024828 L321.201503,140.024828 C314.596079,133.224479 314.806417,143.619004 314.806417,143.619004 L314.806417,143.619004 L312.944386,136.624654 C312.944386,136.624654 288.108764,128.253553 280.992326,121.862171 L280.992326,121.862171 C246.752166,91.1098613 272.674984,0 272.674984,0 L272.674984,0 L150.693289,11.9211248 Z" id="Fill-4" mask="url(#mask-2)"></path>
            </g>
            <g id="Group-19" transform="translate(107.160494, 72.592593)">
                <path d="M89.5229194,272.135883 C89.5229194,272.135883 76.5677161,294.227966 131.624185,345.015051 C136.549786,349.558467 147.625874,363.402708 152.923075,365.422004 C172.252533,372.790201 182.760662,367.829523 193.573889,364.63975 C202.227167,362.087038 213.899521,348.58992 213.899521,348.58992 C213.899521,348.58992 259.714085,313.613209 260.539511,295.780858 C261.365388,277.948954 267.009025,272.135883 267.009025,272.135883 C267.009025,272.135883 268.259971,269.773485 272.871039,271.965226 C280.91457,275.788486 285.633927,260.415924 287.119426,243.490023 C288.255343,230.546424 281.04263,213.987749 272.787463,214.762854 C264.532295,215.53796 267.870848,216.858098 267.870848,216.858098 C267.766603,215.940479 268.535863,200.583553 265.441298,188.595099 C260.749351,170.41786 268.101357,126.099224 248.288864,114.469508 C228.476372,102.840238 241.945613,97.8599033 213.271352,89.5204783 C201.022502,85.958565 155.043033,95.644932 139.358574,90.2178503 C123.673666,84.7907685 98.0027542,141.957847 92.7127428,152.620356 C86.2189651,165.709594 88.6952458,219.41483 89.5215714,228.718335 L90.3483463,238.022287 C90.3483463,238.022287 84.5699086,213.212196 79.6168979,211.661537 C74.6638871,210.110879 65.5828431,210.110879 67.2341463,228.718335 C68.8850001,247.325792 64.0596002,235.174722 77.9655947,267.483907 C86.1061822,286.398279 89.5229194,272.135883 89.5229194,272.135883" id="Fill-7" fill="#F4F4F4"></path>
                <path d="M105.032003,394.074074 C96.6438328,385.778877 89.0384023,377.598941 82.1024798,369.548114 C95.1111539,385.222677 105.032003,394.074074 105.032003,394.074074" id="Fill-9" fill="#A8A8A8"></path>
                <path d="M100.849196,376.284343 C104.314911,378.625297 106.717501,379.563466 106.717501,379.563466 C104.69325,378.548903 102.738647,377.451693 100.849196,376.284343" id="Fill-11" fill="#A8A8A8"></path>
                <path d="M309.698918,272.319496 C309.767666,271.329505 309.543898,271.756148 310.769232,270.608902 C310.401677,271.197268 310.044007,271.769104 309.698918,272.319496 M299.411861,306.453642 C296.755847,314.369551 292.524467,317.746511 287.868017,318.53636 C290.705562,312.096503 293.495927,302.881901 295.10724,289.978062 C296.941422,287.375314 298.694275,284.844046 300.360855,282.392299 C301.528675,290.137104 301.878706,299.101975 299.411861,306.453642 M275.706787,316.102483 C280.825153,308.626619 285.873422,297.142096 289.726463,287.25782 C291.060536,286.362539 292.406741,285.438666 293.764629,284.4728 C293.478403,286.837431 293.083888,289.840464 292.575691,293.187939 C290.142546,297.027282 289.862611,297.322582 292.508291,293.632899 C291.311714,301.425952 289.502245,310.975168 286.993612,318.653854 C283.262341,319.030909 279.309099,317.856858 275.706787,316.102483 M295.827523,282.978431 C297.193499,281.976378 298.566214,280.935011 299.941626,279.860584 C300.223359,281.442515 300.764807,280.172414 295.227661,288.984497 C295.455025,287.063038 295.656326,285.063399 295.827523,282.978431 M63.4422151,344.147021 C58.6060312,338.820905 47.4751247,318.470241 42.8815813,308.861608 C44.7508115,309.506711 46.7368686,310.065144 48.8253739,310.540483 C51.9662199,322.029474 56.6563702,334.788567 63.4422151,344.147021 M34.8883754,305.258594 C36.4062263,306.135112 38.0480934,306.937022 39.7897127,307.670581 C44.5764698,317.045565 50.27223,326.761418 56.9879788,336.757827 C49.1623746,327.432432 41.508416,316.884736 34.8883754,305.258594 M35.8054665,299.498686 C34.9984623,298.933998 35.1094478,299.075617 35.6162968,299.097954 C35.6778556,299.231085 35.7434584,299.365555 35.8054665,299.498686 M44.0799556,291.750307 C44.9197612,292.606274 44.7265475,292.260045 44.9242545,293.337152 C41.8705794,293.804003 38.9431671,293.916583 36.2583953,293.756648 C35.7358197,292.445445 35.2258254,291.121734 34.7234698,289.790875 C37.2240145,291.036852 40.3751952,291.709653 44.0799556,291.750307 M31.8189309,277.906513 C34.2629022,281.019446 36.7162669,283.875946 39.1013328,286.492989 C33.6724771,286.026139 31.8086389,282.514708 31.8189309,277.906513 M28.6444275,292.409259 C28.4287471,292.06169 28.2323881,291.719035 28.0665838,291.384868 C27.8747181,291.207956 27.6967817,291.027917 27.5192947,290.846985 C26.2337496,288.014163 25.0191993,285.128624 23.8864278,282.19171 C23.8590184,279.576453 24.5577331,276.847276 25.7201606,274.129268 C26.4835794,276.451458 27.3063103,278.806261 28.1802653,281.188316 C28.4628965,282.738528 28.9949082,284.139526 29.763719,285.377909 C30.796289,288.028458 31.8863737,290.7076 33.0640786,293.426055 C31.4478235,293.181684 29.9645714,292.835902 28.6444275,292.409259 M19.0273279,267.382942 C17.8622043,263.078536 16.8835545,258.682992 16.1241797,254.197206 C16.8772638,251.208469 15.3176248,252.554071 23.0030368,265.210412 C23.261404,266.132051 23.5323525,267.060838 23.8077943,267.993199 C21.9066614,267.958799 20.2863623,267.745254 19.0273279,267.382942 M21.1553746,274.522852 C20.8983555,273.734343 20.6480763,272.941814 20.4036385,272.146605 C20.9248662,272.183685 21.4582259,272.206469 22.0046162,272.215404 C21.6864876,272.982915 21.3989137,273.752213 21.1553746,274.522852 M13.6141989,270.61605 C16.795485,271.979968 13.1401514,268.721396 20.3816211,286.549279 C20.5627028,287.487448 20.8093873,288.413108 21.1059478,289.327598 C15.042183,286.028819 13.3872852,278.511855 13.6141989,270.61605 M10.4576263,262.185935 C9.4843684,259.284761 9.89865452,255.406104 10.9523432,251.422015 C12.1161187,259.935224 11.9894065,253.651728 10.4576263,262.185935 M47.4270459,305.114742 C44.5980379,304.248053 41.9945956,303.130292 39.6585072,301.868678 C39.2563531,300.957761 38.8654323,300.032995 38.4727142,299.111356 C40.8407054,299.048812 43.3178848,298.777636 45.891671,298.285768 C46.3374105,300.433281 46.8478542,302.725986 47.4270459,305.114742 M6.26623695,209.757502 C-0.0531990794,207.573356 2.83736775,193.547736 8.34036356,177.970564 C6.39205052,189.488593 5.80522007,200.060413 6.26623695,209.757502 M348.711461,183.928828 L348.580704,184.148627 C348.254488,173.935992 346.588806,163.004541 343.23183,151.304239 C298.567562,-4.3803666 239.007417,1.19146118 230.311453,0.0607446828 C221.615937,-1.06997181 199.173941,13.9594886 199.173941,13.9594886 C199.173941,13.9594886 124.349464,-39.4531283 51.0999036,76.519249 C27.2869889,114.221563 14.6157648,146.064791 9.26419465,172.9393 C7.21792676,177.903552 5.05348397,183.330187 2.78614366,189.254051 C-2.56317986,203.227402 0.406020461,210.185485 6.48596136,213.345773 C7.02201705,220.439221 8.1174938,227.049735 9.64343271,233.206355 C9.67039276,236.707511 9.82676105,240.327948 10.139947,244.053371 C6.4351866,251.921478 3.37207544,262.105074 9.66904475,268.077187 C8.26712209,283.054825 14.5007353,292.612082 25.01875,296.8669 C34.2089821,315.481951 48.346833,334.921697 69.5014866,354.119753 C73.4196807,359.201946 77.6223034,364.348024 82.1021652,369.548159 C78.6548734,365.394306 74.9927997,360.75886 71.2381632,355.682474 C81.9637703,365.236157 94.4399834,374.722382 108.935055,384.009357 C108.061999,383.441542 86.9594678,369.615171 64.8980578,345.7361 C61.2458696,340.302764 56.6042474,330.120508 55.2553462,312.506617 C61.293499,330.405532 74.7434192,360.155751 100.849286,376.284209 C94.8983043,372.265274 85.8091723,364.095166 80.3138152,349.383342 C83.200338,350.121815 86.5451817,350.363058 90.4256318,349.984664 C91.765097,349.854214 103.346686,344.961888 117.953192,333.241929 C117.953192,333.241929 93.5444604,349.667027 78.452673,343.620307 C75.8725961,334.239515 74.7492606,322.613372 76.353833,308.287092 C77.2583427,307.81488 78.099047,307.316311 78.8813378,306.801658 C107.77757,310.502063 126.196228,280.884081 160.652521,172.047146 C196.005686,60.3773887 216.669217,93.7462576 216.669217,93.7462576 C229.206989,118.441535 243.359219,142.416656 264.019155,159.675383 C264.019155,159.675383 246.843805,142.298268 234.378376,122.585112 C250.655058,142.422017 257.699719,130.24995 285.084391,189.843757 C320.598867,267.12919 255.110206,305.442654 255.110206,305.442654 C255.110206,305.442654 267.108328,301.19141 282.50746,291.863334 C280.744273,299.319094 277.369323,308.321491 273.454724,314.908775 C268.384886,312.011174 264.354808,308.303175 263.214847,306.92094 C264.205629,308.33266 267.506438,312.719715 272.57313,316.336131 C272.160642,316.978107 271.743659,317.594171 271.322633,318.173155 C264.019155,328.219153 255.592342,315.382773 255.592342,315.382773 C257.839462,321.52197 263.457488,323.196377 263.457488,323.196377 C266.832886,325.52929 270.707495,322.866678 274.589293,317.667437 C278.038831,319.770722 281.934559,321.235605 285.986655,321.524203 C285.531479,322.731314 285.056083,323.871859 284.559569,324.927522 C285.171562,323.925468 285.802877,322.802346 286.443627,321.54252 C303.692668,322.275185 308.359902,290.196075 309.619836,273.414473 C310.825399,271.693603 311.981536,270.016515 313.112061,268.362658 C321.882615,259.773948 330.084312,249.56176 336.400153,237.602792 C332.187645,250.057649 327.75047,259.731954 327.75047,259.731954 C334.057774,247.200256 336.673348,239.483149 342.090971,224.895522 C337.666377,239.396034 331.995779,251.760649 331.995779,251.760649 C353.344096,209.345601 348.711461,183.928828 348.711461,183.928828" id="Fill-13" fill="#A8A8A8"></path>
                <path d="M263.214712,306.920984 C263.007569,306.626131 262.895685,306.453687 262.895685,306.453687 C262.925791,306.54393 263.037675,306.706099 263.214712,306.920984" id="Fill-15" fill="#A8A8A8"></path>
                <path d="M278.625707,332.125598 C280.866087,331.235678 282.837765,328.588702 284.559614,324.927164 C281.289809,330.28232 278.625707,332.125598 278.625707,332.125598" id="Fill-17" fill="#A8A8A8"></path>
            </g>
        </g>
    </g>
</svg>