<?xml version="1.0" encoding="UTF-8"?>
<svg width="560px" height="561px" viewBox="0 0 560 561" version="1.1" xmlns="http://www.w3.org/2000/svg" xmlns:xlink="http://www.w3.org/1999/xlink">
    <title>Group 37</title>
    <defs>
        <path d="M2.54957326e-14,12.6968649 L2.54957326e-14,76.4906712 C67.9875214,53.4158195 136.190784,52.5986057 203.633795,76.4906712 L203.633795,76.4906712 L203.633795,12.6968649 C169.38572,4.38209595 135.021029,-0.000896913675 100.506081,0 L100.506081,0 C67.1429475,0.000897189014 33.6389769,4.09728215 2.54957326e-14,12.6968649" id="path-1"></path>
        <path d="M142.227491,0 C142.227491,0 142.227491,33.2119804 143.127682,53.6185529 L143.127682,53.6185529 C144.027873,74.025574 133.226029,87.5199173 133.226029,87.5199173 L133.226029,87.5199173 L98.7913675,113.638016 C95.9504059,115.79363 92.8928064,117.646938 89.6688038,119.169683 L89.6688038,119.169683 L72.9141274,127.083021 L59.1847565,130.640278 C47.5298169,133.659753 36.847281,139.628733 28.1642725,147.973104 L28.1642725,147.973104 L3.18696658e-14,175.038938 L447.240624,175.038938 C447.240624,175.038938 447.398527,174.404722 444.686292,168.917011 L444.686292,168.917011 C439.958832,159.349958 405.799117,134.696296 387.318962,129.093313 L387.318962,129.093313 C347.040908,116.880856 307.840661,100.837542 301.558611,80.1475009 L301.558611,80.1475009 C296.849988,64.6388287 287.679881,0.00538230807 292.762574,0 L292.762574,0 L142.227491,0 Z" id="path-3"></path>
        <path d="M20.1598834,0 L116.605013,31.6582875 L90.7196995,71.720152 C89.5997309,73.4012262 82.7359425,73.1563312 80.0797735,72.8410177 C47.0400269,68.9186607 -2.54957326e-14,30.2570933 -2.54957326e-14,30.2570933 L-2.54957326e-14,30.2570933 L20.1598834,0 Z" id="path-5"></path>
        <path d="M96.4451297,-1.27478663e-14 L116.605013,30.2570933 C116.605013,30.2570933 69.5649862,68.9186607 36.5247911,72.8410177 C33.8690706,73.1563312 27.0048337,73.4012262 25.8848651,71.720152 L5.09914653e-14,31.6582875 L96.4451297,-1.27478663e-14 Z" id="path-7"></path>
    </defs>
    <g id="Symbols" stroke="none" stroke-width="1" fill="none" fill-rule="evenodd">
        <g id="Group-37">
            <polygon id="Fill-1" fill="#DBDBDB" points="0 560.314416 560 560.314416 560 0 0 0"></polygon>
            <g id="Group-4" transform="translate(174.149960, 426.900904)">
                <mask id="mask-2" fill="white">
                    <use xlink:href="#path-1"></use>
                </mask>
                <g id="Clip-3"></g>
                <path d="M2.54957326e-14,12.6968649 L2.54957326e-14,76.4906712 C67.9875214,53.4158195 136.190784,52.5986057 203.633795,76.4906712 L203.633795,76.4906712 L203.633795,12.6968649 C169.38572,4.38209595 135.021029,-0.000896913675 100.506081,0 L100.506081,0 C67.1429475,0.000897189014 33.6389769,4.09728215 2.54957326e-14,12.6968649" id="Fill-2" mask="url(#mask-2)"></path>
            </g>
            <g id="Group-7" transform="translate(56.379677, 385.275479)">
                <mask id="mask-4" fill="white">
                    <use xlink:href="#path-3"></use>
                </mask>
                <g id="Clip-6"></g>
                <path d="M142.227491,0 C142.227491,0 142.227491,33.2119804 143.127682,53.6185529 L143.127682,53.6185529 C144.027873,74.025574 133.226029,87.5199173 133.226029,87.5199173 L133.226029,87.5199173 L98.7913675,113.638016 C95.9504059,115.79363 92.8928064,117.646938 89.6688038,119.169683 L89.6688038,119.169683 L72.9141274,127.083021 L59.1847565,130.640278 C47.5298169,133.659753 36.847281,139.628733 28.1642725,147.973104 L28.1642725,147.973104 L3.18696658e-14,175.038938 L447.240624,175.038938 C447.240624,175.038938 447.398527,174.404722 444.686292,168.917011 L444.686292,168.917011 C439.958832,159.349958 405.799117,134.696296 387.318962,129.093313 L387.318962,129.093313 C347.040908,116.880856 307.840661,100.837542 301.558611,80.1475009 L301.558611,80.1475009 C296.849988,64.6388287 287.679881,0.00538230807 292.762574,0 L292.762574,0 L142.227491,0 Z" id="Fill-5" mask="url(#mask-4)"></path>
            </g>
            <g id="Group-36" transform="translate(135.138079, 56.422875)">
                <polygon id="Fill-8" fill="#A8A8A8" points="115.181946 503.331244 166.981727 503.331244 151.861927 484.280564 130.861955 484.280564"></polygon>
                <path d="M136.181828,439.175253 L107.621956,467.751272 C107.621956,467.751272 113.317335,491.437464 126.102111,489.043234 C127.314476,488.81628 126.007023,490.145262 131.819916,492.749402 C137.97324,495.506041 145.722418,492.658351 151.555943,491.847865 C158.956168,490.819844 165.467415,486.4373 169.230994,479.979876 L176.221715,468.031601 L149.061692,440.296119 L136.181828,439.175253 Z" id="Fill-10" fill="#A8A8A8"></path>
                <g id="Group-14" transform="translate(25.582125, 408.638145)">
                    <mask id="mask-6" fill="white">
                        <use xlink:href="#path-5"></use>
                    </mask>
                    <g id="Clip-13"></g>
                    <path d="M-2.54957326e-14,30.2570933 C-2.54957326e-14,30.2570933 47.0400269,68.9186607 80.0797735,72.8410177 C82.7359425,73.1563312 89.5997309,73.4012262 90.7196995,71.720152 L116.605013,31.6582875 L20.1598834,0 L-2.54957326e-14,30.2570933 Z" id="Fill-12" mask="url(#mask-6)"></path>
                </g>
                <g id="Group-17" transform="translate(142.575113, 409.198354)">
                    <mask id="mask-8" fill="white">
                        <use xlink:href="#path-7"></use>
                    </mask>
                    <g id="Clip-16"></g>
                    <path d="M116.605013,30.2570933 C116.605013,30.2570933 69.5649862,68.9186607 36.5247911,72.8410177 C33.8690706,73.1563312 27.0048337,73.4012262 25.8848651,71.720152 L5.09914653e-14,31.6582875 L96.4451297,-1.27478663e-14 L116.605013,30.2570933 Z" id="Fill-15" mask="url(#mask-8)"></path>
                </g>
                <path d="M35.5716893,269.414745 C35.5716893,269.414745 49.8455703,339.340346 85.7294181,361.046297 C141.760591,394.939588 180.233329,366.192232 180.233329,366.192232 C180.233329,366.192232 224.937434,326.158625 232.267689,302.558101 C238.816164,281.474703 241.119343,269.414745 241.119343,269.414745 C241.119343,269.414745 247.020147,269.414745 250.954166,264.540616 C254.888184,259.666936 255.871352,228.472873 258.821754,219.699711 C261.772156,210.926549 263.73939,196.304612 253.904567,197.279258 C244.069745,198.253904 239.15211,214.825582 239.15211,214.825582 C239.15211,214.825582 257.722866,151.070349 251.821614,133.523576 C245.92081,115.977252 240.135726,113.446222 216.532063,98.8238362 C192.928848,84.2018993 181.179269,72.6182753 166.701758,77.4924038 C152.224695,82.3660837 84.5879203,85.4366905 65.9018923,78.6128209 C47.2158642,71.7893998 29.652496,128.987188 26.7020941,143.609573 C23.7512437,158.23151 34.5853813,203.128033 35.5703437,214.825582 L36.5553061,226.523132 C36.5553061,226.523132 29.6708855,195.329517 23.7700818,193.379776 C17.8688295,191.430483 7.05083883,191.430483 9.0176239,214.825582 C10.984409,238.22113 13.3710141,220.107869 21.8028482,263.56597 C26.7204837,288.91081 35.5716893,269.414745 35.5716893,269.414745" id="Fill-18" fill="#EAEAEA"></path>
                <path d="M38.8971035,383.644545 C38.8971035,383.644545 30.3212926,434.046272 24.8308898,435.468098 C19.3404871,436.889925 85.7595142,469.569954 110.175458,472.715016 C110.175458,472.715016 124.847181,447.34147 141.28161,439.668093 C141.28161,439.668093 42.2843693,406.09774 38.8971035,383.644545" id="Fill-20" fill="#F9F7F7"></path>
                <path d="M242.829706,383.175253 C242.829706,383.175253 251.844624,433.481892 257.28838,434.844513 C262.732584,436.207583 197.40482,469.599422 173.295668,473.006872 C173.295668,473.006872 158.51899,447.792552 142.187273,440.296343 C142.187273,440.296343 239.718732,405.663882 242.829706,383.175253" id="Fill-22" fill="#F9F7F7"></path>
                <path d="M36.2063082,211.287029 C36.2063082,211.287029 28.0274426,185.582022 29.8448686,172.729519 C31.6622947,159.877016 22.574716,107.548872 53.4727525,98.3684481 C84.370789,89.1880246 109.816547,99.2865801 117.995413,97.450316 C126.174279,95.6145005 158.181968,80.7315216 169.795194,83.6796809 C182.94193,87.0176089 227.956415,123.155322 238.861869,123.155322 C238.861869,123.155322 243.495587,150.225641 246.221726,154.815852 C248.948314,159.406064 243.405434,196.598261 243.405434,202.106605 C243.405434,207.614949 243.405434,210.368897 245.223308,215.87724 C245.223308,215.87724 247.949447,205.779133 248.85816,199.352658 C249.766873,192.926182 260.672326,176.401599 260.672326,176.401599 C260.672326,176.401599 269.759905,121.319507 267.942479,117.646979 C266.124604,113.974899 277.030058,109.385136 260.672326,79.0894691 C244.314147,48.7946997 171.61262,4.72839795 141.623297,1.05631827 C111.633973,-2.61576141 69.8304838,1.05631827 52.5640395,48.7946997 C52.5640395,48.7946997 7.12569776,58.8928066 0.764258157,106.630739 C-5.59718145,154.368672 29.8448686,188.336419 29.8448686,203.024737 C29.8448686,217.713504 34.3888822,225.975796 34.3888822,225.975796 L36.2063082,211.287029 Z" id="Fill-24" fill="#A8A8A8"></path>
                <path d="M242.257028,212.909077 C243.074691,215.155742 234.702511,211.547353 234.702511,211.547353 C234.702511,211.547353 224.510662,241.569419 219.033715,243.065252 C213.557216,244.561085 160.021192,244.931119 156.353149,240.319826 C153.670966,236.941082 149.750851,224.412415 147.84686,217.935256 C139.75456,213.032421 132.452562,215.78906 127.30573,219.559816 C125.278842,226.317303 121.756121,237.204367 119.281157,240.319826 C115.613114,244.931119 62.0717073,244.561085 56.6001426,243.065252 C51.1236442,241.569419 40.9313468,211.547353 40.9313468,211.547353 C40.9313468,211.547353 32.5596151,215.155742 33.3714466,212.909077 C34.7210603,209.188556 31.3889631,202.128762 28.7516322,197.646197 C33.265146,201.742133 39.6714382,200.912809 39.6714382,200.912809 C39.6714382,200.912809 42.2477696,195.965123 50.6024573,195.696007 C72.0675504,195.012454 110.32679,192.05981 131.993271,201.37793 C138.91492,202.347194 140.079292,202.066866 143.635652,201.37793 C165.307516,192.05981 203.560925,195.012454 225.026018,195.696007 C233.386536,195.965123 235.962419,200.912809 235.962419,200.912809 C235.962419,200.912809 242.363329,201.742133 246.877291,197.646197 C244.239512,202.128762 240.907415,209.188556 242.257028,212.909077" id="Fill-26" fill="#A8A8A8"></path>
                <path d="M117.981912,202.442416 C117.981912,202.442416 91.6619775,195.158359 54.141908,201.321999 C36.4498128,204.227997 57.5018138,237.742284 58.0620223,238.302492 C58.6217824,238.862701 88.8618317,243.345267 114.622007,237.742284 C122.756917,235.97285 125.821693,201.882208 117.981912,202.442416" id="Fill-28" fill="#EAEAEA"></path>
                <path d="M158.026105,202.442416 C158.026105,202.442416 184.34604,195.158359 221.86611,201.321999 C239.558205,204.227997 218.506204,237.742284 217.945995,238.302492 C217.386235,238.862701 187.146186,243.345267 161.386011,237.742284 C153.251101,235.97285 150.186325,201.882208 158.026105,202.442416" id="Fill-30" fill="#EAEAEA"></path>
                <path d="M246.031507,194.368147 C245.325976,195.712827 244.463461,196.78884 243.517072,197.645973 C245.482511,194.312081 247.056388,192.407193 246.031507,194.368147" id="Fill-32" fill="#A8A8A8"></path>
                <path d="M25.3915469,197.646107 C24.4451578,196.788975 23.5826429,195.712961 22.877112,194.368281 C21.8522309,192.406879 23.4261074,194.312216 25.3915469,197.646107" id="Fill-34" fill="#A8A8A8"></path>
            </g>
        </g>
    </g>
</svg>