<svg width="65" height="65" viewBox="0 0 65 65" fill="none" xmlns="http://www.w3.org/2000/svg">
<path d="M8.2143 29.8353C5.94067 31.5245 5.94067 33.3074 8.2143 34.9965L22.172 45.4284C27.7297 49.5886 37.2979 49.5729 42.8557 45.4284L56.8133 34.9809C59.0869 33.2761 59.0869 31.4932 56.7817 29.7884L42.9347 19.513C37.3453 15.3684 27.6981 15.3684 22.093 19.513L8.2143 29.8041V29.8353ZM4.31438 24.6898L18.1931 14.3987C26.0876 8.53376 38.9084 8.53376 46.8188 14.3987L60.6658 24.6742C66.4289 28.9439 66.4447 35.8724 60.7132 40.1577L46.7556 50.5895C38.8926 56.4702 26.1192 56.4702 18.2404 50.5895L4.28282 40.1577C-1.43285 35.888 -1.43287 28.9595 4.31438 24.7054V24.6898Z" fill="#FCFCFC"/>
<path d="M41.6969 28.4292C40.0694 28.4292 38.5187 27.769 37.3672 26.6328C36.2156 25.4813 35.5707 23.9306 35.5707 22.3031C35.5707 21.6889 35.6628 21.0748 35.8471 20.4913C34.757 20.1689 33.6362 20 32.5 20C29.4446 20 26.5274 21.213 24.3625 23.3625C22.1976 25.512 21 28.4446 21 31.5C21 34.5554 22.213 37.4726 24.3625 39.6375C26.512 41.8024 29.4446 43 32.5 43C35.5554 43 38.4726 41.787 40.6375 39.6375C42.8024 37.488 44 34.5554 44 31.5C44 30.3638 43.8311 29.243 43.5087 28.1529C42.9252 28.3371 42.3111 28.4292 41.6969 28.4292Z" fill="#24FFE9"/>
</svg>
