<svg width="557" height="51" viewBox="0 0 557 51" fill="none" xmlns="http://www.w3.org/2000/svg">
<path d="M108.214 22.8353C105.941 24.5245 105.941 26.3074 108.214 27.9965L122.172 38.4284C127.73 42.5886 137.298 42.5729 142.856 38.4284L156.813 27.9809C159.087 26.2761 159.087 24.4932 156.782 22.7884L142.935 12.513C137.345 8.36841 127.698 8.36841 122.093 12.513L108.214 22.8041V22.8353ZM104.314 17.6898L118.193 7.39873C126.088 1.53376 138.908 1.53376 146.819 7.39873L160.666 17.6742C166.429 21.9439 166.445 28.8724 160.713 33.1577L146.756 43.5895C138.893 49.4702 126.119 49.4702 118.24 43.5895L104.283 33.1577C98.5672 28.888 98.5671 21.9595 104.314 17.7054V17.6898Z" fill="#FCFCFC"/>
<path d="M141.697 21.4292C140.069 21.4292 138.519 20.769 137.367 19.6328C136.216 18.4813 135.571 16.9306 135.571 15.3031C135.571 14.6889 135.663 14.0748 135.847 13.4913C134.757 13.1689 133.636 13 132.5 13C129.445 13 126.527 14.213 124.362 16.3625C122.198 18.512 121 21.4446 121 24.5C121 27.5554 122.213 30.4726 124.362 32.6375C126.512 34.8024 129.445 36 132.5 36C135.555 36 138.473 34.787 140.638 32.6375C142.802 30.488 144 27.5554 144 24.5C144 23.3638 143.831 22.243 143.509 21.1529C142.925 21.3371 142.311 21.4292 141.697 21.4292Z" fill="#24FFE9"/>
<path d="M0 3.62242C0 2.63102 0.35849 1.77308 1.0566 1.06766C1.75472 0.362238 2.60377 0 3.5849 0H31.4151C32.3962 0 33.2453 0.362238 33.9434 1.06766C34.6415 1.77308 35 2.63102 35 3.62242C35 4.61382 34.6415 5.47182 33.9434 6.17724C33.2453 6.88266 32.3962 7.24489 31.4151 7.24489H7.16981V15.2905H17.6792C18.6604 15.2905 19.5094 15.6527 20.2075 16.3582C20.9057 17.0636 21.2641 17.9215 21.2641 18.9129C21.2641 19.9043 20.9057 20.7623 20.2075 21.4677C19.5094 22.1731 18.6604 22.5353 17.6792 22.5353H7.16981V43.7552H31.4151C32.3962 43.7552 33.2453 44.1174 33.9434 44.8228C34.6415 45.5282 35 46.3862 35 47.3776C35 48.369 34.6415 49.2269 33.9434 49.9323C33.2453 50.6378 32.3962 51 31.4151 51H3.5849C2.60377 51 1.75472 50.6378 1.0566 49.9323C0.35849 49.2269 0 48.369 0 47.3776V3.58431V3.62242Z" fill="#FCFCFC"/>
<path d="M60.238 51C55.3155 50.7142 51.2727 48.9616 48.1096 45.7419C44.7594 42.3318 43.0561 38.1976 43 33.3586V3.61971C43 2.47664 43.3556 1.6003 44.0481 0.952559C44.7406 0.304819 45.5829 0 46.5561 0C47.5294 0 48.3717 0.32387 49.0642 0.952559C49.7567 1.6003 50.1123 2.45758 50.1123 3.54349V33.2824C50.1123 33.492 50.1123 33.7015 50.0749 33.9302C50.2246 36.5402 51.2166 38.7882 53.0882 40.6552C55.1096 42.7127 57.5615 43.7415 60.4251 43.7415H60.5749C63.4385 43.7415 65.8904 42.7127 67.9118 40.6552C69.7834 38.7882 70.7754 36.5402 70.9251 33.9302C70.9064 33.7206 70.8877 33.511 70.8877 33.2824V3.54349C70.8877 2.45758 71.2433 1.58125 71.9358 0.952559C72.6283 0.304819 73.4706 0 74.4438 0C75.4171 0 76.2594 0.32387 76.9519 0.952559C77.6444 1.58125 78 2.47664 78 3.61971V33.3586C77.9439 38.1976 76.2594 42.3318 72.8904 45.7419C69.7273 48.9616 65.6845 50.7142 60.762 51H60.2005H60.238Z" fill="#FCFCFC"/>
<path d="M219.499 10.8932L219.461 10.9313C216.302 8.47459 212.649 7.23672 208.481 7.23672C203.438 7.23672 199.137 9.02686 195.579 12.5881C192.02 16.1493 190.25 20.4533 190.25 25.481C190.25 30.5086 192.02 34.8125 195.579 38.3738C199.137 41.935 203.438 43.7252 208.481 43.7252C213.524 43.7252 217.806 41.935 221.383 38.3547C224.675 35.0601 226.331 32.3177 226.331 30.1467C226.331 29.9753 226.331 29.823 226.293 29.6516H216.169C215.179 29.6516 214.323 29.2898 213.619 28.5852C212.915 27.8805 212.553 27.0235 212.553 26.0332C212.553 25.0429 212.915 24.1859 213.619 23.4813C214.323 22.7767 215.179 22.4148 216.169 22.4148H230.384C231.374 22.4148 232.23 22.7767 232.934 23.4813C233.638 24.1859 234 25.0429 234 26.0332C233.981 32.7177 231.469 38.5452 226.502 43.5347C221.535 48.5242 215.522 51 208.481 51C201.44 51 195.446 48.5052 190.46 43.5347C185.474 38.5642 183 32.5463 183 25.5C183 18.4537 185.493 12.4548 190.46 7.46524C195.427 2.49474 201.44 0 208.481 0C214.666 0 220.051 1.92345 224.656 5.77035L224.618 5.80842C224.618 5.80842 224.675 5.84652 224.694 5.88461C225.399 6.58924 225.76 7.44621 225.76 8.43651C225.76 9.4268 225.399 10.2838 224.694 10.9884C223.99 11.693 223.134 12.0549 222.144 12.0549C221.155 12.0549 220.299 11.693 219.594 10.9884C219.575 10.9694 219.537 10.9313 219.518 10.9123L219.499 10.8932Z" fill="#FCFCFC"/>
<path d="M259.73 51C254.667 50.7142 250.509 48.9616 247.256 45.7419C243.81 42.3318 242.058 38.1976 242 33.3586V3.61971C242 2.47664 242.366 1.6003 243.078 0.952559C243.79 0.304819 244.657 0 245.658 0C246.659 0 247.525 0.32387 248.237 0.952559C248.95 1.6003 249.316 2.45757 249.316 3.54349V33.2824C249.316 33.492 249.316 33.7015 249.277 33.9302C249.431 36.5402 250.451 38.7882 252.376 40.6552C254.456 42.7127 256.978 43.7415 259.923 43.7415H260.077C263.022 43.7415 265.544 42.7127 267.624 40.6552C269.549 38.7882 270.569 36.5402 270.723 33.9302C270.704 33.7206 270.684 33.511 270.684 33.2824V3.54349C270.684 2.45757 271.05 1.58125 271.763 0.952559C272.475 0.304819 273.341 0 274.342 0C275.343 0 276.21 0.32387 276.922 0.952559C277.634 1.58125 278 2.47664 278 3.61971V33.3586C277.942 38.1976 276.21 42.3318 272.744 45.7419C269.491 48.9616 265.333 50.7142 260.27 51H259.692H259.73Z" fill="#FCFCFC"/>
<path d="M364.829 29.4582C363.956 29.5915 363.063 29.6675 362.133 29.6675H351.215V47.3653C351.215 48.3548 350.854 49.2112 350.152 49.9153C349.449 50.6194 348.595 50.981 347.608 50.981C346.62 50.981 345.766 50.6194 345.063 49.9153C344.361 49.2112 344 48.3548 344 47.3653V3.6537C344 2.66415 344.361 1.80781 345.063 1.10371C345.766 0.399601 346.62 0.0380388 347.608 0.0380388L362.152 0C366.234 0 369.728 1.44627 372.633 4.33881C375.538 7.23134 376.981 10.7138 376.981 14.8243C376.981 18.9347 375.538 22.4172 372.652 25.3097C372.253 25.7093 371.854 26.0709 371.475 26.3754L382.506 45.5575C382.829 46.1284 383 46.6992 383 47.3082C383 47.6317 382.943 47.9743 382.848 48.2978C382.582 49.2683 382.013 50.0105 381.139 50.5053C380.57 50.8288 380 51 379.392 51C379.07 51 378.728 50.962 378.405 50.8668C377.437 50.6004 376.696 50.0485 376.203 49.1922L364.829 29.4772V29.4582ZM362.133 7.1362H351.215V22.5313H362.133C364.259 22.5313 366.082 21.7892 367.582 20.2668C369.082 18.7634 369.842 16.9366 369.842 14.8052C369.842 12.6739 369.082 10.8851 367.582 9.38171C366.082 7.87835 364.259 7.11715 362.133 7.11715V7.1362Z" fill="#FCFCFC"/>
<path d="M394.604 50.9809C393.618 50.9809 392.764 50.6191 392.062 49.9145C391.36 49.2098 391 48.3529 391 47.3626V3.61836C391 2.62807 391.36 1.77109 392.062 1.06646C392.764 0.361833 393.618 0 394.604 0H408.602C415.62 0 421.595 2.49474 426.565 7.46524C431.515 12.4548 434 18.4537 434 25.5C434 32.5463 431.515 38.5452 426.565 43.5347C421.614 48.5242 415.62 51 408.602 51H394.604V50.9809ZM408.602 7.23672H398.227V43.7252H408.602C413.61 43.7252 417.896 41.935 421.443 38.3738C424.99 34.8125 426.773 30.5086 426.773 25.481C426.773 20.4533 424.99 16.1493 421.443 12.5881C417.896 9.02686 413.61 7.23672 408.602 7.23672V7.23672Z" fill="#FCFCFC"/>
<path d="M447.968 1.06686C448.65 1.77175 449 2.62905 449 3.61971V47.3802C449 48.3709 448.65 49.2282 447.968 49.9331C447.287 50.638 446.458 51 445.5 51C444.542 51 443.713 50.638 443.032 49.9331C442.35 49.2282 442 48.3709 442 47.3802V3.61971C442 2.62905 442.35 1.77175 443.032 1.06686C443.713 0.361967 444.542 0 445.5 0C446.458 0 447.287 0.361967 447.968 1.06686V1.06686Z" fill="#FCFCFC"/>
<path d="M481.491 11.7077L463.689 48.925C463.521 49.2867 463.296 49.6294 462.996 49.953C462.303 50.6383 461.46 50.9809 460.504 50.9809C459.548 50.9809 458.705 50.6383 458.012 49.9339C457.337 49.2296 457 48.3919 457 47.421C457 46.7357 457.169 46.1265 457.525 45.5745L478.268 2.13213C478.436 1.75139 478.68 1.38969 478.998 1.06606C479.673 0.361697 480.498 0 481.491 0C482.484 0 483.271 0.361697 483.983 1.06606C484.264 1.35162 484.489 1.65625 484.657 1.99891L505.4 45.4412C505.794 46.0123 506 46.6786 506 47.4401C506 48.411 505.663 49.2486 504.969 49.953C504.276 50.6574 503.452 51 502.496 51C501.54 51 500.697 50.6573 500.004 49.972C499.704 49.6484 499.46 49.3057 499.311 48.944H499.273L481.491 11.7077Z" fill="#FCFCFC"/>
<path d="M310.99 11.7077L292.826 48.925C292.654 49.2867 292.424 49.6294 292.119 49.953C291.411 50.6383 290.551 50.9809 289.576 50.9809C288.6 50.9809 287.74 50.6383 287.033 49.9339C286.344 49.2296 286 48.3919 286 47.421C286 46.7357 286.172 46.1265 286.535 45.5745L307.702 2.13213C307.874 1.75139 308.122 1.38969 308.447 1.06606C309.136 0.361697 309.977 0 310.99 0C312.004 0 312.807 0.361697 313.533 1.06606C313.82 1.35162 314.05 1.65625 314.222 1.99891L335.388 45.4412C335.79 46.0123 336 46.6786 336 47.4401C336 48.411 335.656 49.2486 334.948 49.953C334.241 50.6574 333.4 51 332.424 51C331.449 51 330.589 50.6573 329.881 49.972C329.576 49.6484 329.327 49.3057 329.174 48.944H329.136L310.99 11.7077Z" fill="#FCFCFC"/>
<path d="M521.272 13.7879V47.3626C521.272 48.3529 520.908 49.2099 520.2 49.9145C519.492 50.6192 518.631 50.981 517.636 50.981C516.641 50.981 515.78 50.6192 515.072 49.9145C514.364 49.2099 514 48.3529 514 47.3626V3.61836C514 2.62807 514.364 1.77109 515.072 1.06646C515.78 0.361833 516.641 0 517.636 0C518.631 0 519.492 0.361833 520.2 1.06646C520.487 1.35212 520.717 1.65687 520.889 1.99966L549.728 37.4216V3.63742C549.728 2.64713 550.092 1.79016 550.8 1.08553C551.508 0.380895 552.369 0.0190627 553.364 0.0190627C554.359 0.0190627 555.22 0.380895 555.928 1.08553C556.636 1.79016 557 2.64713 557 3.63742V47.3816C557 48.3719 556.636 49.2289 555.928 49.9335C555.22 50.6382 554.359 51 553.364 51C552.369 51 551.508 50.6382 550.8 49.9335C550.704 49.8383 550.608 49.7621 550.513 49.686L521.272 13.8069V13.7879Z" fill="#FCFCFC"/>
<circle cx="311" cy="47" r="4" fill="#24FFE9"/>
<circle cx="481.5" cy="47" r="4" fill="#24FFE9"/>
</svg>
