<?xml version="1.0" encoding="UTF-8"?>
<svg width="512px" height="71px" viewBox="0 0 512 71" version="1.1" xmlns="http://www.w3.org/2000/svg" xmlns:xlink="http://www.w3.org/1999/xlink">
    <title>Group 2</title>
    <g id="Page-1" stroke="none" stroke-width="1" fill="none" fill-rule="evenodd">
        <g id="Group-2" fill="#2E2E2E">
            <path d="M10.1922993,0 C11.2781905,8.60812756 12.9304616,16.3282029 17.2949194,22.9991142 C21.3843752,29.2503599 26.0373876,35.1721847 30.7485626,41.0009966 C34.3021314,45.3964124 38.5045243,49.2852397 42.1060914,53.646883 C44.8137606,56.925036 45.7940555,60.7906101 43.2552274,64.675562 C40.7045408,68.5793378 36.7811028,69.9003433 31.6554482,70 C33.9983303,68.5865353 35.9154392,67.6525302 37.568275,66.3868896 C41.2867321,63.5405824 41.7774442,60.192116 38.8026785,56.5834348 C35.7353043,52.8618093 32.3703407,49.3738235 29.104197,45.8105415 C18.7247043,34.4856605 11.7751141,21.5767911 10.075974,6.24515558 C9.91390917,4.78186247 9.90543888,3.30140627 9.85913463,1.82759384 C9.84840559,1.48931458 9.97658931,1.14660613 10.1922993,0 Z M85.0958034,0.622467058 C85.3211131,9.66022589 82.8381889,18.527461 78.8170602,27.0835456 C74.257221,36.785129 67.1557303,44.6242387 59.8498233,52.3326874 C58.4443199,53.8159119 57.0303462,55.3146385 55.8174008,56.9467944 C53.376828,60.2310375 53.5857618,63.0241944 56.6971815,65.737626 C58.4742482,67.2872882 60.6573242,68.3896025 63.0199703,69.9298527 C58.485542,70.0405824 54.8924452,68.6907873 52.2361624,65.4536043 C49.7357329,62.4063227 49.4082151,58.7350792 51.6895464,55.6695272 C55.2148808,50.9319566 59.1654239,46.4651201 63.2407625,42.1610564 C70.5212586,34.472539 77.1676125,26.3560514 80.8137898,16.3859484 C82.7280752,11.1506478 83.7704855,5.60917949 85.0958034,0.622467058 Z M62.4825022,64.1567933 C67.3709886,65.1672019 72.912252,66.3127007 78.3298491,67.4321781 C74.210465,70.2768243 66.3822234,68.4243162 62.4825022,64.1567933 Z M32.0510672,64.3862252 C28.4031959,68.5014949 20.5574491,70.1585649 16.5222032,67.3714982 C21.7387721,66.3688407 27.0468202,65.3484664 32.0510672,64.3862252 Z M85.8724725,58.7196877 C84.0807239,62.0443472 70.0725592,63.7180268 63.9107059,61.0588528 C67.4055474,60.6865242 71.0912527,60.2939874 74.8056158,59.8984055 L78.5235239,59.5024443 C81.0004875,59.238641 83.4661574,58.976027 85.8724725,58.7196877 Z M8.59898143,58.1855276 C12.3501903,58.8643007 16.2578172,59.8497952 20.2241714,60.2102204 C24.1368805,60.5656627 28.1094462,60.2877311 32.0560365,60.2877311 C24.5615243,63.6157125 11.5618887,62.1108958 8.59898143,58.1855276 Z M4.8198206,46.262817 C7.35082997,47.4624456 9.92706769,48.683565 12.5122458,49.9089341 L16.3921822,51.74802 C20.9160136,53.8923101 25.411659,56.0232149 29.6846377,58.0483335 C19.6716262,58.2387886 7.64550917,52.55614 4.8198206,46.262817 Z M90.1918684,46.2232865 C87.1160239,52.8344037 75.1463755,58.1787731 65.4721755,57.9634038 C70.2991818,55.6709528 75.5249975,53.1890502 80.7802882,50.6931442 L83.934045,49.1953237 C86.034968,48.197528 88.1287882,47.203106 90.1918684,46.2232865 Z M0,28.5875872 C8.74020939,39.9312922 19.6979406,48.7398405 31.8353007,56.2506367 C18.0947971,50.4611339 6.01898771,42.828535 0,28.5875872 Z M95,28.4809545 C89.1645352,42.5347691 77.3507401,50.0306168 63.9829292,55.8217805 C75.8339936,48.3669029 86.4348433,39.5406378 95,28.4809545 Z M92.4300577,10.1143838 C94.1969601,15.5069206 93.2155359,20.4482339 90.9799441,25.2395084 C86.4291399,34.9914738 78.7431992,42.1363083 70.4745026,48.7701251 C68.0299771,50.7317019 65.4386332,52.5172185 62.9150516,54.3835677 L62.3859409,53.8714428 L62.3859409,53.8714428 C64.3868273,51.8754131 66.4057086,49.8913219 68.4023126,47.8923292 L69.3220936,46.9685613 C79.7250277,36.4849849 89.3489134,25.4807057 92.4300577,10.1143838 Z M2.50714922,9.97386779 C5.4708094,24.9653258 14.6452015,35.8314769 24.840987,46.1684123 L25.7566348,47.0927889 C26.8277539,48.169801 27.9083312,49.2422082 28.9924487,50.3141116 L29.9224212,51.2328581 C30.5427967,51.8454011 31.1637762,52.4581622 31.7842552,53.0719065 L32.7144603,53.9933562 L32.7144603,53.9933562 C32.2237482,54.031558 31.9464874,54.1422877 31.8143509,54.0509357 C21.127669,46.6846418 11.1660438,38.6163216 4.87374811,27.0384232 C1.97352098,21.7012512 0.570276357,16.1387443 2.50714922,9.97386779 Z" id="Combined-Shape"></path>
            <path d="M491.612585,15 C502.677354,15 510.260203,20.6484486 510.956587,30.3978257 L510.956587,30.3978257 L499.040682,30.3978257 C498.808554,26.8385293 495.945642,24.052993 491.303081,23.975617 C487.047401,23.820865 483.874984,25.9100172 483.874984,30.3204497 C483.874984,41.1530908 511.575595,35.1177622 511.575595,54.1522602 C511.575595,62.6636212 504.766507,70.323846 492.463721,70.323846 C481.2442,70.323846 472.578087,64.4432694 472.423335,54.2296362 L472.423335,54.2296362 L484.029736,54.2296362 C484.33924,58.5626927 487.202153,61.425605 492.231593,61.425605 C497.33841,61.425605 500.356074,58.7174447 500.356074,54.8486443 C500.356074,43.164867 472.500711,50.2060838 472.578087,30.6299537 C472.578087,20.8805766 480.47044,15 491.612585,15 Z M122.606401,15.7737601 L137.462595,58.7174447 L152.241412,15.7737601 L163.770438,15.7737601 L143.96218,69.7822139 L130.808258,69.7822139 L111,15.7737601 L122.606401,15.7737601 Z M236.349134,15.7737601 L236.349134,61.193477 L254.145615,61.193477 L254.145615,69.7822139 L225.516492,69.7822139 L225.516492,15.7737601 L236.349134,15.7737601 Z M271.864721,15.7737601 L271.864721,39.9924507 L291.518228,15.7737601 L304.594773,15.7737601 L282.310483,42.545859 L305.213781,69.7822139 L291.518228,69.7822139 L271.864721,45.7182753 L271.864721,69.7822139 L261.03208,69.7822139 L261.03208,15.7737601 L271.864721,15.7737601 Z M320.069975,15.7737601 L331.676376,40.4567068 L343.205401,15.7737601 L355.276058,15.7737601 L337.01532,50.9798439 L337.01532,69.7822139 L326.182679,69.7822139 L326.182679,50.9798439 L307.844565,15.7737601 L320.069975,15.7737601 Z M381.816029,15.7737601 C394.815199,15.7737601 401.314783,23.2792329 401.314783,32.3322259 C401.314783,38.9091866 397.678111,45.5635233 389.011998,47.8848036 L389.011998,47.8848036 L401.933791,69.7822139 L389.398878,69.7822139 L377.482973,48.7359397 L372.376156,48.7359397 L372.376156,69.7822139 L361.543515,69.7822139 L361.543515,15.7737601 Z M421.974178,15.7737601 L421.974178,69.7822139 L411.141536,69.7822139 L411.141536,15.7737601 L421.974178,15.7737601 Z M463.98935,15.6963841 L463.98935,24.517249 L443.484708,24.517249 L443.484708,38.0580505 L461.66807,38.0580505 L461.66807,46.6467874 L443.484708,46.6467874 L443.484708,60.961349 L463.98935,60.961349 L463.98935,69.7822139 L432.652067,69.7822139 L432.652067,15.6963841 L463.98935,15.6963841 Z M195.48012,15.1818026 L214.898184,68.9631561 L203.448489,68.9631561 L199.8898,58.7300803 L196.950013,50.1127533 L189.13637,27.6461506 L181.322726,50.1127533 L178.38294,58.7300803 L174.824251,68.9631561 L163.451919,68.9631561 L182.869983,15.1818026 L195.48012,15.1818026 Z M381.429149,24.7493771 L372.376156,24.7493771 L372.376156,40.6114588 L381.429149,40.6114588 C387.464478,40.6114588 390.172638,37.4390424 390.172638,32.5643539 C390.172638,27.7670414 387.464478,24.7493771 381.429149,24.7493771 L381.429149,24.7493771 Z" id="VALKYRIES" fill-rule="nonzero"></path>
        </g>
    </g>
</svg>