<svg width="502" height="46" viewBox="0 0 502 46" fill="none" xmlns="http://www.w3.org/2000/svg">
<path d="M97.5289 20.5966C95.4797 22.1201 95.4797 23.7282 97.5289 25.2518L110.108 34.6609C115.117 38.4132 123.741 38.3991 128.75 34.6609L141.329 25.2377C143.378 23.7 143.378 22.0919 141.301 20.5543L128.821 11.2862C123.783 7.54798 115.089 7.54798 110.037 11.2862L97.5289 20.5684V20.5966ZM94.014 15.9555L106.522 6.67337C113.637 1.38339 125.192 1.38339 132.321 6.67337L144.801 15.9414C149.995 19.7925 150.009 26.0417 144.844 29.9069L132.264 39.3161C125.178 44.6201 113.666 44.6201 106.565 39.3161L93.9856 29.9069C88.8343 26.0558 88.8343 19.8066 94.014 15.9696V15.9555Z" fill="#272937"/>
<path d="M127.705 19.3283C126.239 19.3283 124.841 18.7328 123.803 17.7081C122.765 16.6694 122.184 15.2707 122.184 13.8028C122.184 13.2488 122.267 12.6949 122.433 12.1686C121.451 11.8778 120.44 11.7255 119.416 11.7255C116.663 11.7255 114.034 12.8195 112.083 14.7583C110.131 16.6971 109.052 19.3422 109.052 22.098C109.052 24.8539 110.145 27.4851 112.083 29.4378C114.02 31.3904 116.663 32.4706 119.416 32.4706C122.17 32.4706 124.799 31.3765 126.751 29.4378C128.702 27.499 129.781 24.8539 129.781 22.098C129.781 21.0732 129.629 20.0623 129.338 19.0791C128.812 19.2452 128.259 19.3283 127.705 19.3283Z" fill="#24FFE9"/>
<path d="M0 3.26728C0 2.37308 0.323091 1.59925 0.95227 0.96299C1.58145 0.326729 2.34667 3.8147e-06 3.23092 3.8147e-06H28.3131C29.1973 3.8147e-06 29.9625 0.326729 30.5917 0.96299C31.2209 1.59925 31.544 2.37308 31.544 3.26728C31.544 4.16149 31.2209 4.93537 30.5917 5.57163C29.9625 6.20789 29.1973 6.53461 28.3131 6.53461H6.46184V13.7914H15.9335C16.8178 13.7914 17.583 14.1182 18.2122 14.7544C18.8414 15.3907 19.1645 16.1645 19.1645 17.0587C19.1645 17.9529 18.8414 18.7267 18.2122 19.363C17.583 19.9993 16.8178 20.326 15.9335 20.326H6.46184V39.4654H28.3131C29.1973 39.4654 29.9625 39.7922 30.5917 40.4284C31.2209 41.0647 31.544 41.8385 31.544 42.7327C31.544 43.6269 31.2209 44.4008 30.5917 45.037C29.9625 45.6733 29.1973 46 28.3131 46H3.23092C2.34667 46 1.58145 45.6733 0.95227 45.037C0.323091 44.4008 0 43.6269 0 42.7327V3.23291V3.26728Z" fill="#272937"/>
<path d="M54.2899 46C49.8535 45.7422 46.2099 44.1614 43.3591 41.2574C40.3397 38.1816 38.8046 34.4528 38.754 30.0882V3.26484C38.754 2.23383 39.0745 1.44341 39.6987 0.859171C40.3228 0.274935 41.0819 0 41.959 0C42.8362 0 43.5953 0.292118 44.2194 0.859171C44.8435 1.44341 45.164 2.21664 45.164 3.19609V30.0194C45.164 30.2085 45.164 30.3975 45.1303 30.6037C45.2653 32.9578 46.1593 34.9854 47.8461 36.6694C49.6679 38.5252 51.8777 39.4531 54.4586 39.4531H54.5935C57.1744 39.4531 59.3841 38.5252 61.2059 36.6694C62.8928 34.9854 63.7868 32.9578 63.9218 30.6037C63.9049 30.4147 63.888 30.2256 63.888 30.0194V3.19609C63.888 2.21664 64.2085 1.42622 64.8327 0.859171C65.4568 0.274935 66.2159 0 67.093 0C67.9702 0 68.7293 0.292118 69.3534 0.859171C69.9775 1.42622 70.298 2.23383 70.298 3.26484V30.0882C70.2474 34.4528 68.7293 38.1816 65.693 41.2574C62.8422 44.1614 59.1986 45.7422 54.7622 46H54.2561H54.2899Z" fill="#272937"/>
<path d="M197.825 9.82524L197.791 9.85958C194.944 7.64375 191.651 6.52724 187.895 6.52724C183.35 6.52724 179.474 8.14187 176.267 11.354C173.059 14.5661 171.464 18.4481 171.464 22.9828C171.464 27.5176 173.059 31.3995 176.267 34.6116C179.474 37.8237 183.35 39.4384 187.895 39.4384C192.44 39.4384 196.299 37.8237 199.523 34.5944C202.49 31.6228 203.982 29.1493 203.982 27.1912C203.982 27.0366 203.982 26.8992 203.948 26.7446H194.824C193.932 26.7446 193.16 26.4182 192.526 25.7827C191.891 25.1471 191.565 24.3741 191.565 23.4809C191.565 22.5877 191.891 21.8148 192.526 21.1792C193.16 20.5437 193.932 20.2173 194.824 20.2173H207.635C208.527 20.2173 209.299 20.5437 209.934 21.1792C210.568 21.8148 210.894 22.5877 210.894 23.4809C210.877 29.5101 208.613 34.7662 204.137 39.2666C199.66 43.767 194.241 46 187.895 46C181.549 46 176.147 43.7498 171.653 39.2666C167.16 34.7834 164.93 29.3555 164.93 23C164.93 16.6445 167.177 11.2337 171.653 6.73335C176.129 2.25016 181.549 0 187.895 0C193.469 0 198.323 1.73487 202.473 5.20463L202.439 5.23896C202.439 5.23896 202.49 5.27333 202.507 5.30769C203.142 5.94323 203.468 6.71619 203.468 7.6094C203.468 8.5026 203.142 9.27556 202.507 9.91111C201.873 10.5467 201.101 10.873 200.209 10.873C199.317 10.873 198.546 10.5467 197.911 9.91111C197.894 9.89393 197.859 9.85962 197.842 9.84244L197.825 9.82524Z" fill="#272937"/>
<path d="M234.084 46C229.521 45.7422 225.773 44.1614 222.841 41.2574C219.735 38.1816 218.156 34.4528 218.104 30.0882V3.26484C218.104 2.23383 218.434 1.44341 219.076 0.859171C219.718 0.274935 220.498 0 221.401 0C222.303 0 223.084 0.292118 223.726 0.859171C224.368 1.44341 224.697 2.21664 224.697 3.19609V30.0194C224.697 30.2085 224.697 30.3975 224.663 30.6037C224.801 32.9578 225.721 34.9854 227.456 36.6694C229.33 38.5252 231.603 39.4531 234.257 39.4531H234.396C237.051 39.4531 239.324 38.5252 241.198 36.6694C242.933 34.9854 243.852 32.9578 243.991 30.6037C243.974 30.4146 243.956 30.2256 243.956 30.0194V3.19609C243.956 2.21664 244.286 1.42622 244.928 0.859171C245.57 0.274935 246.351 0 247.253 0C248.155 0 248.936 0.292118 249.578 0.859171C250.22 1.42622 250.549 2.23383 250.549 3.26484V30.0882C250.497 34.4528 248.936 38.1816 245.813 41.2574C242.881 44.1614 239.133 45.7422 234.57 46H234.049H234.084Z" fill="#272937"/>
<path d="M328.805 26.5702C328.018 26.6903 327.213 26.759 326.375 26.759H316.535V42.7216C316.535 43.6142 316.21 44.3866 315.577 45.0217C314.944 45.6568 314.174 45.9829 313.284 45.9829C312.394 45.9829 311.624 45.6568 310.991 45.0217C310.357 44.3866 310.032 43.6142 310.032 42.7216V3.29549C310.032 2.40296 310.357 1.63057 310.991 0.9955C311.624 0.360425 312.394 0.0343095 313.284 0.0343095L326.392 0C330.071 0 333.22 1.30448 335.838 3.91343C338.456 6.52239 339.757 9.66345 339.757 13.3709C339.757 17.0784 338.456 20.2194 335.855 22.8283C335.496 23.1888 335.136 23.5149 334.794 23.7895L344.736 41.0911C345.027 41.606 345.181 42.1209 345.181 42.6701C345.181 42.9619 345.13 43.2709 345.044 43.5627C344.805 44.4381 344.291 45.1075 343.504 45.5538C342.991 45.8456 342.478 46 341.93 46C341.639 46 341.331 45.9657 341.04 45.8799C340.167 45.6396 339.5 45.1418 339.055 44.3694L328.805 26.5873V26.5702ZM326.375 6.43657H316.535V20.3224H326.375C328.291 20.3224 329.934 19.653 331.286 18.2798C332.638 16.9239 333.322 15.2761 333.322 13.3537C333.322 11.4313 332.638 9.8179 331.286 8.46193C329.934 7.10596 328.291 6.41939 326.375 6.41939V6.43657Z" fill="#272937"/>
<path d="M355.639 45.9828C354.75 45.9828 353.981 45.6564 353.349 45.0209C352.716 44.3853 352.391 43.6124 352.391 42.7192V3.26362C352.391 2.37042 352.716 1.59746 353.349 0.961908C353.981 0.326359 354.75 0 355.639 0H368.255C374.581 0 379.965 2.25016 384.444 6.73335C388.906 11.2337 391.145 16.6445 391.145 23C391.145 29.3555 388.906 34.7662 384.444 39.2666C379.982 43.767 374.581 46 368.255 46H355.639V45.9828ZM368.255 6.52724H358.905V39.4384H368.255C372.768 39.4384 376.632 37.8237 379.829 34.6116C383.025 31.3995 384.632 27.5176 384.632 22.9828C384.632 18.4481 383.025 14.5661 379.829 11.354C376.632 8.14187 372.768 6.52724 368.255 6.52724V6.52724Z" fill="#272937"/>
<path d="M403.735 0.962266C404.349 1.59805 404.664 2.3713 404.664 3.26484V42.7351C404.664 43.6286 404.349 44.4019 403.735 45.0377C403.12 45.6735 402.373 46 401.51 46C400.647 46 399.899 45.6735 399.285 45.0377C398.671 44.4019 398.355 43.6286 398.355 42.7351V3.26484C398.355 2.3713 398.671 1.59805 399.285 0.962266C399.899 0.32648 400.647 0 401.51 0C402.373 0 403.12 0.32648 403.735 0.962266V0.962266Z" fill="#272937"/>
<path d="M433.947 10.5599L417.903 44.1284C417.751 44.4547 417.549 44.7637 417.278 45.0556C416.654 45.6738 415.894 45.9828 415.032 45.9828C414.171 45.9828 413.411 45.6738 412.786 45.0384C412.178 44.4031 411.874 43.6476 411.874 42.7719C411.874 42.1538 412.026 41.6043 412.347 41.1064L431.042 1.9231C431.194 1.57968 431.414 1.25345 431.701 0.961548C432.309 0.326237 433.052 0 433.947 0C434.842 0 435.551 0.326237 436.193 0.961548C436.446 1.21911 436.649 1.49387 436.801 1.80294L455.495 40.9862C455.85 41.5013 456.036 42.1023 456.036 42.7891C456.036 43.6648 455.732 44.4203 455.107 45.0556C454.482 45.6909 453.739 46 452.878 46C452.017 46 451.257 45.6909 450.632 45.0728C450.362 44.7809 450.142 44.4718 450.007 44.1456H449.973L433.947 10.5599Z" fill="#272937"/>
<path d="M280.282 10.5599L263.911 44.1284C263.756 44.4547 263.55 44.7637 263.274 45.0556C262.636 45.6738 261.861 45.9828 260.982 45.9828C260.103 45.9828 259.328 45.6738 258.69 45.0384C258.07 44.4031 257.759 43.6476 257.759 42.7719C257.759 42.1538 257.915 41.6043 258.242 41.1064L277.318 1.9231C277.473 1.57968 277.697 1.25345 277.99 0.961548C278.611 0.326237 279.369 0 280.282 0C281.196 0 281.919 0.326237 282.574 0.961548C282.833 1.21911 283.039 1.49387 283.195 1.80294L302.271 40.9862C302.633 41.5013 302.822 42.1023 302.822 42.7891C302.822 43.6648 302.512 44.4203 301.874 45.0556C301.237 45.6909 300.479 46 299.6 46C298.721 46 297.945 45.6909 297.308 45.0728C297.032 44.7809 296.808 44.4718 296.67 44.1456H296.636L280.282 10.5599Z" fill="#272937"/>
<path d="M469.8 12.4362V42.7192C469.8 43.6124 469.472 44.3854 468.834 45.0209C468.196 45.6565 467.42 45.9829 466.523 45.9829C465.626 45.9829 464.85 45.6565 464.212 45.0209C463.574 44.3854 463.246 43.6124 463.246 42.7192V3.26362C463.246 2.37042 463.574 1.59746 464.212 0.961908C464.85 0.326359 465.626 0 466.523 0C467.42 0 468.196 0.326359 468.834 0.961908C469.093 1.21956 469.3 1.49443 469.455 1.80362L495.446 33.7528V3.28081C495.446 2.38761 495.774 1.61465 496.412 0.979101C497.05 0.343553 497.826 0.0171938 498.723 0.0171938C499.62 0.0171938 500.396 0.343553 501.034 0.979101C501.672 1.61465 502 2.38761 502 3.28081V42.7364C502 43.6296 501.672 44.4025 501.034 45.0381C500.396 45.6736 499.62 46 498.723 46C497.826 46 497.05 45.6736 496.412 45.0381C496.326 44.9522 496.24 44.8835 496.153 44.8148L469.8 12.4533V12.4362Z" fill="#272937"/>
<ellipse cx="280.291" cy="42.3922" rx="3.60503" ry="3.60784" fill="#24FFE9"/>
<ellipse cx="433.955" cy="42.3922" rx="3.60503" ry="3.60784" fill="#24FFE9"/>
</svg>
