<?xml version="1.0" encoding="UTF-8"?>
<svg width="180px" height="29px" viewBox="0 0 180 29" version="1.1" xmlns="http://www.w3.org/2000/svg" xmlns:xlink="http://www.w3.org/1999/xlink">
    <title>logo_ECYSAP_NEGRO</title>
    <g id="Page-1" stroke="none" stroke-width="1" fill="none" fill-rule="evenodd">
        <g id="logo_ECYSAP_NEGRO" fill-rule="nonzero">
            <g id="Group" transform="translate(39.377433, 4.377796)" fill="#000000">
                <path d="M19.1116473,6.91988428 C19.4298873,6.91988428 19.5983673,6.80288428 19.5983673,6.58292428 L19.5983673,5.06192428 C19.5983673,4.83728428 19.4298873,4.72496428 19.1116473,4.72496428 L10.1588073,4.72496428 C10.0227649,4.70396655 9.88471933,4.74768414 9.78556483,4.84316625 C9.68641033,4.93864836 9.63751643,5.07494659 9.65336733,5.21168428 L9.65336733,6.42848428 C9.63751643,6.56522197 9.68641033,6.7015202 9.78556483,6.79700231 C9.88471933,6.89248442 10.0227649,6.93620201 10.1588073,6.91520428 L19.1116473,6.91988428 Z M19.2941673,12.7792443 C19.4333541,12.7990477 19.5737467,12.752206 19.6731578,12.6527948 C19.772569,12.5533837 19.8194107,12.4129911 19.7996073,12.2738043 L19.7996073,11.0757243 C19.8194107,10.9365375 19.772569,10.7961449 19.6731578,10.6967338 C19.5737467,10.5973226 19.4333541,10.5504809 19.2941673,10.5702843 L10.5332073,10.5702843 C8.99816733,10.5702843 8.32424733,9.70916428 8.32424733,7.16324428 L8.32424733,5.12276428 C8.32424733,2.82020428 8.90924733,2.19776428 10.5332073,2.19776428 L19.2380073,2.19776428 C19.3771941,2.21756767 19.5175867,2.17072594 19.6169978,2.07131483 C19.716409,1.97190371 19.7632507,1.83151108 19.7434473,1.69232428 L19.7434473,0.494244275 C19.7592982,0.357506587 19.7104043,0.221208355 19.6112498,0.125726246 C19.5120953,0.0302441374 19.3740497,-0.0134734516 19.2380073,0.0075242754 L6.15272733,0.0075242754 C4.4678207,-0.0347691706 2.84276993,0.633308795 1.67480991,1.84845014 C0.506849886,3.06359148 -0.0963833415,4.71381202 0.0125673335,6.39572428 C-0.0753048185,8.07173046 0.535075405,9.70925138 1.69853805,10.9188269 C2.86200071,12.1284024 4.47457262,12.8019384 6.15272733,12.7792443 L19.2941673,12.7792443 Z M40.1482473,12.7792443 C40.284985,12.7950952 40.4212832,12.7462013 40.5167653,12.6470468 C40.6122474,12.5478923 40.655965,12.4098467 40.6349673,12.2738043 L40.6349673,11.0757243 C40.655965,10.9396819 40.6122474,10.8016363 40.5167653,10.7024818 C40.4212832,10.6033273 40.284985,10.5544334 40.1482473,10.5702843 L31.7055273,10.5702843 C30.1704873,10.5702843 29.4965673,9.70916428 29.4965673,7.16324428 L29.4965673,5.12276428 C29.4965673,2.82020428 30.0815673,2.19776428 31.7055273,2.19776428 L40.0733673,2.19776428 C40.2125541,2.21756767 40.3529467,2.17072594 40.4523578,2.07131483 C40.551769,1.97190371 40.5986107,1.83151108 40.5788073,1.69232428 L40.5788073,0.494244275 C40.5946582,0.357506587 40.5457643,0.221208355 40.4466098,0.125726246 C40.3474553,0.0302441374 40.2094097,-0.0134734516 40.0733673,0.0075242754 L27.3250473,0.0075242754 C25.6410084,-0.0346626296 24.0167566,0.632787045 22.8489549,1.84687353 C21.6811532,3.06096002 21.0773085,4.70991563 21.1848873,6.39104428 C21.0956739,8.06783914 21.7054566,9.70660888 22.8690711,10.9172291 C24.0326856,12.1278494 25.6460353,12.8020185 27.3250473,12.7792443 L40.1482473,12.7792443 Z M55.0493673,12.7792443 C55.1885541,12.7990477 55.3289467,12.752206 55.4283578,12.6527948 C55.527769,12.5533837 55.5746107,12.4129911 55.5548073,12.2738043 L55.5548073,7.71080428 L62.3314473,0.536364275 C62.3893425,0.468206171 62.4223481,0.382391593 62.4250473,0.293004275 C62.4250473,0.143244275 62.3080473,0.0122042754 62.0740473,0.0122042754 L60.9882873,0.0122042754 C60.6737754,-0.0150703576 60.3664414,0.11664421 60.1692873,0.363204275 L54.9744873,5.85284428 L49.9996473,0.386604275 C49.7866526,0.145241431 49.4791317,0.0086666804 49.1572473,0.0122042754 L41.6084073,0.0122042754 C41.4225475,-0.0076550606 41.2554308,0.126038228 41.2340073,0.311724275 C41.2425288,0.442141601 41.3032663,0.563616688 41.4024873,0.648684275 L48.1276473,7.81844428 L48.1276473,12.2738043 C48.1066496,12.4098467 48.1503672,12.5478923 48.2458493,12.6470468 C48.3413314,12.7462013 48.4776296,12.7950952 48.6143673,12.7792443 L55.0493673,12.7792443 Z M77.2325673,12.7792443 C79.6287273,12.7792443 80.8455273,11.3003643 80.8455273,9.63428428 C80.8455273,8.26772428 80.4945273,7.23812428 78.5616873,6.33956428 L69.7632873,2.20244428 L79.9095273,2.20244428 C80.0487141,2.22224767 80.1891067,2.17540594 80.2885178,2.07599483 C80.387929,1.97658371 80.4347707,1.83619108 80.4149673,1.69700428 L80.4149673,0.494244275 C80.4308182,0.357506587 80.3819243,0.221208355 80.2827698,0.125726246 C80.1836153,0.0302441374 80.0455697,-0.0134734516 79.9095273,0.0075242754 L66.1316073,0.0075242754 C63.7167273,0.0075242754 62.5046073,1.48640428 62.5046073,3.15248428 C62.5046073,4.50032428 62.8790073,5.52992428 64.7884473,6.42848428 L73.6055673,10.5656043 L63.1036473,10.5656043 C62.9669096,10.5497534 62.8306114,10.5986473 62.7351293,10.6978018 C62.6396472,10.7969563 62.5959296,10.9350019 62.6169273,11.0710443 L62.6169273,12.2691243 C62.5942804,12.4058999 62.637257,12.5453645 62.7329611,12.6456698 C62.8286653,12.7459752 62.9659597,12.7954484 63.1036473,12.7792443 L77.2325673,12.7792443 Z M106.735287,12.7792443 C107.034807,12.7792443 107.165847,12.6482043 107.165847,12.4797243 C107.161464,12.3481381 107.108048,12.2229438 107.016087,12.1287243 L95.4471273,0.367884275 C95.234607,0.142382963 94.9379871,0.0152601264 94.6281273,0.0168538152 L93.3879273,0.0168538152 C93.088976,0.0218973074 92.8050117,0.148667069 92.6016873,0.367884275 L80.8642473,12.1614843 C80.7745081,12.2358852 80.7201646,12.3445724 80.7144873,12.4610043 C80.7161408,12.5506938 80.7547622,12.6357185 80.8212185,12.6959722 C80.8876748,12.7562259 80.9760651,12.7863585 81.0654873,12.7792443 L93.4440873,12.7792443 C93.5832741,12.7990477 93.7236667,12.752206 93.8230778,12.6527948 C93.922489,12.5533837 93.9693307,12.4129911 93.9495273,12.2738043 L93.9495273,11.0757243 C93.9693307,10.9365375 93.922489,10.7961449 93.8230778,10.6967338 C93.7236667,10.5973226 93.5832741,10.5504809 93.4440873,10.5702843 L84.9452073,10.5702843 L90.6782073,4.89812428 L97.9228473,12.4048443 C98.1799556,12.6614193 98.5335123,12.7974026 98.8962873,12.7792443 L106.735287,12.7792443 Z M123.934287,8.26772428 C126.686127,8.26772428 128.801487,6.88244428 128.801487,4.20548428 C128.840578,3.04860859 128.384987,1.9298615 127.548814,1.12942197 C126.71264,0.328982442 125.575074,-0.0773435406 124.421007,0.0122042754 L108.420087,0.0122042754 C108.286507,-0.0048010636 108.152579,0.0409811604 108.057361,0.136198553 C107.962144,0.231415945 107.916362,0.365344628 107.933367,0.498924275 L107.933367,12.2738043 C107.912369,12.4098467 107.956087,12.5478923 108.051569,12.6470468 C108.147051,12.7462013 108.283349,12.7950952 108.420087,12.7792443 L114.841047,12.7792443 C114.980234,12.7990477 115.120626,12.752206 115.220038,12.6527948 C115.319449,12.5533837 115.36629,12.4129911 115.346487,12.2738043 L115.346487,2.20244428 L119.352567,2.20244428 C119.899603,2.13030298 120.450603,2.30316966 120.858392,2.67487057 C121.26618,3.04657148 121.489217,3.57924262 121.467927,4.13060428 C121.467927,5.57204428 120.531927,6.05876428 119.352567,6.05876428 L116.956407,6.05876428 C116.819669,6.04291335 116.683371,6.09180724 116.587889,6.19096173 C116.492407,6.29011623 116.448689,6.42816185 116.469687,6.56420428 L116.469687,7.76228428 C116.448689,7.89832671 116.492407,8.03637233 116.587889,8.13552683 C116.683371,8.23468132 116.819669,8.28357521 116.956407,8.26772428 L123.934287,8.26772428 Z" id="Trazado_1"></path>
            </g>
            <g id="European-Cyber-Situa" transform="translate(39.000000, 21.000000)" fill="#18E1FF" font-family="Roboto-Regular, Roboto" font-size="6" font-weight="normal" letter-spacing="0.249091">
                <text>
                    <tspan x="0" y="6">European Cyber Situational Awareness Platform</tspan>
                </text>
            </g>
            <g id="Group-9">
                <path d="M5.80313392,0 L10.4027809,0 C11.0655226,0 11.6027809,0.5372583 11.6027809,1.2 C11.6027809,1.31303699 11.5868096,1.42550703 11.5553405,1.53407526 L8,13.8 L8,13.8 L0,13.8 L3.49801464,1.73184948 C3.79538384,0.705925748 4.73498227,0 5.80313392,0 Z" id="Rectangle-Copy-3" fill="#000000"></path>
                <path d="M15.5619466,0 L18.6641403,0 C19.9896237,0 21.0641403,1.0745166 21.0641403,2.4 C21.0641403,2.56027868 21.0480846,2.72015427 21.0162137,2.87723229 L18.8,13.8 L18.8,13.8 L10.8,13.8 L13.2098732,1.92276771 C13.4368612,0.804041387 14.4204248,0 15.5619466,0 Z" id="Rectangle-Copy-9" fill="#000000"></path>
                <path d="M25.1619466,0 L29.7320702,0 C30.3948119,0 30.9320702,0.5372583 30.9320702,1.2 C30.9320702,1.28013934 30.9240423,1.36007714 30.9081069,1.43861614 L28.4,13.8 L28.4,13.8 L20.4,13.8 L22.8098732,1.92276771 C23.0368612,0.804041387 24.0204248,0 25.1619466,0 Z" id="Rectangle-Copy-10" fill="#000000"></path>
                <polygon id="Rectangle-Copy-3" fill="#000000" points="8.8817842e-15 16.2 8.71764706 16.2 14.4 27 6.28235294 27"></polygon>
                <polygon id="Rectangle-Copy-9" fill="#000000" points="10.2 16.2 18.3176471 16.2 24 27 15.8823529 27"></polygon>
                <polygon id="Rectangle-Copy-10" fill="#000000" points="19.8 16.2 27.9176471 16.2 33.6 27 25.4823529 27"></polygon>
                <path d="M15.8823529,27 L24,27 L21.3116079,1.07621937 C21.2481891,0.464680592 20.7328274,0 20.118009,0 L14.525123,0 C13.8623813,0 13.325123,0.5372583 13.325123,1.2 C13.325123,1.23961669 13.3270848,1.27920907 13.3310013,1.31863169 L15.8823529,27 L15.8823529,27 Z" id="Rectangle-Copy-9" fill="#18E1FF"></path>
                <path d="M25.4823529,27 L33.6,27 L30.9116079,1.07621937 C30.8481891,0.464680592 30.3328274,0 29.718009,0 L24.125123,0 C23.4623813,0 22.925123,0.5372583 22.925123,1.2 C22.925123,1.23961669 22.9270848,1.27920907 22.9310013,1.31863169 L25.4823529,27 L25.4823529,27 Z" id="Rectangle-Copy-10" fill="#18E1FF"></path>
                <path d="M6.28235294,27 L14.4,27 L11.7116079,1.07621937 C11.6481891,0.464680592 11.1328274,0 10.518009,0 L4.92512297,0 C4.26238127,0 3.72512297,0.5372583 3.72512297,1.2 C3.72512297,1.23961669 3.72708482,1.27920907 3.73100132,1.31863169 L6.28235294,27 L6.28235294,27 Z" id="Rectangle-Copy-3" fill="#18E1FF"></path>
            </g>
        </g>
    </g>
</svg>