<?xml version="1.0" encoding="UTF-8"?>
<svg width="899px" height="160px" viewBox="0 0 899 160" version="1.1" xmlns="http://www.w3.org/2000/svg" xmlns:xlink="http://www.w3.org/1999/xlink">
    <title>ECYSAP_dark</title>
    <g id="logo_1" stroke="none" stroke-width="1" fill="none" fill-rule="evenodd">
        <g id="ECYSAP_dark_" transform="translate(-32.000000, -32.000000)">
            <g id="ECYSAP_dark" transform="translate(32.000000, 32.000000)">
                <g id="imago">
                    <g id="Group" transform="translate(115.000000, 32.000000)">
                        <path d="M27.8201663,0 L54.2902387,0 C58.1553483,1.06634773e-15 61.2886387,3.13329041 61.2886387,6.9984 C61.2886387,7.7506027 61.1673712,8.49788626 60.9295039,9.2114884 L42.6666667,64 L42.6666667,64 L0,64 L19.2820166,6.15395011 C20.507043,2.47887085 23.9462926,2.48797589e-15 27.8201663,0 Z" id="Rectangle-Copy-3" fill="#C0F7FF"></path>
                        <polygon id="Rectangle-Copy-3" fill="#C0F7FF" points="0 80 45.4044118 80 75 128 32.7205882 128"></polygon>
                        <path d="M33.4052288,128 L77,128 L62.689189,6.18186511 C62.2750832,2.65686568 59.2878267,1.12437203e-15 55.7385866,0 L26.8301854,0 C22.9650758,7.10009114e-16 19.8317854,3.13329041 19.8317854,6.9984 C19.8317854,7.25990369 19.8464424,7.52120185 19.8756877,7.78106508 L33.4052288,128 L33.4052288,128 Z" id="Rectangle-Copy-3" fill="#00C8E6"></path>
                    </g>
                    <g id="Group-2" transform="translate(55.000000, 0.000000)">
                        <path d="M26.0124658,4.54747351e-13 L48.3764718,4.54747351e-13 C56.106691,4.5841679e-13 62.3732718,6.26658081 62.3732718,13.9968 C62.3732718,14.7957986 62.3048566,15.5933299 62.1687757,16.380655 L48.4074074,96 L48.4074074,96 L1,96 L16.1585679,8.29685715 C16.9872688,3.50223035 21.1467499,4.69852023e-13 26.0124658,4.54747351e-13 Z" id="Rectangle-Copy-9" fill="#C0F7FF"></path>
                        <polygon id="Rectangle-Copy-9" fill="#C0F7FF" points="0 112 45.8823529 112 78 160 32.1176471 160"></polygon>
                        <path d="M32.8954248,160 L81,160 L65.0583049,6.27651138 C64.6884462,2.71001721 61.6828568,2.89404583e-15 58.097236,0 L24.7281172,0 C20.8630076,-1.06634773e-15 17.7297172,3.13329041 17.7297172,6.9984 C17.7297172,7.22944452 17.7411587,7.46034731 17.7639997,7.69026004 L32.8954248,160 L32.8954248,160 Z" id="Rectangle-Copy-9" fill="#00C8E6"></path>
                        <path d="M81,160 L65.0583049,6.27651138 C64.6884462,2.71001721 61.6828568,2.89404583e-15 58.097236,0 L27.3368675,0 C23.4717579,3.37454437e-15 20.3384675,3.13329041 20.3384675,6.9984 C20.3384675,7.88873246 20.508355,8.77088758 20.8390162,9.59754051 L81,160 L81,160 Z" id="Rectangle-Copy-9" fill="#18E1FF"></path>
                    </g>
                    <g id="Group" transform="translate(0.000000, 32.000000)">
                        <path d="M27.8201663,0 L54.2902387,0 C58.1553483,1.06634773e-15 61.2886387,3.13329041 61.2886387,6.9984 C61.2886387,7.7506027 61.1673712,8.49788626 60.9295039,9.2114884 L42.6666667,64 L42.6666667,64 L0,64 L19.2820166,6.15395011 C20.507043,2.47887085 23.9462926,2.48797589e-15 27.8201663,0 Z" id="Rectangle-Copy-3" fill="#C0F7FF"></path>
                        <polygon id="Rectangle-Copy-3" fill="#C0F7FF" points="0 80 45.4044118 80 75 128 32.7205882 128"></polygon>
                        <path d="M33.4052288,128 L77,128 L62.689189,6.18186511 C62.2750832,2.65686568 59.2878267,1.12437203e-15 55.7385866,0 L26.8301854,0 C22.9650758,7.10009114e-16 19.8317854,3.13329041 19.8317854,6.9984 C19.8317854,7.25990369 19.8464424,7.52120185 19.8756877,7.78106508 L33.4052288,128 L33.4052288,128 Z" id="Rectangle-Copy-3" fill="#00C8E6"></path>
                        <path d="M77,128 L62.689189,6.18186511 C62.2750832,2.65686568 59.2878267,1.12437203e-15 55.7385866,0 L26.5998838,0 C23.8936885,-1.27923683e-15 21.6998838,2.19380473 21.6998838,4.9 C21.6998838,5.59753345 21.8488097,6.28702824 22.1367029,6.92237885 L77,128 L77,128 Z" id="Rectangle-Copy-3" fill="#18E1FF"></path>
                        <path d="M192,128 L177.689189,6.18186511 C177.275083,2.65686568 174.287827,1.12437203e-15 170.738587,0 L141.599884,0 C138.893689,-1.27923683e-15 136.699884,2.19380473 136.699884,4.9 C136.699884,5.59753345 136.84881,6.28702824 137.136703,6.92237885 L192,128 L192,128 Z" id="Rectangle-Copy-3" fill="#18E1FF"></path>
                    </g>
                </g>
                <path d="M319.79,111.426 C321.464,111.426 322.301,110.589 322.301,108.915 L322.301,102.963 C322.301,101.289 321.464,100.452 319.79,100.452 L276.266,100.452 C268.64,100.452 265.292,96.174 265.292,83.526 L265.292,73.389 C265.292,61.95 268.175,58.881 276.266,58.881 L319.511,58.881 C321.185,58.881 322.022,58.044 322.022,56.37 L322.022,50.418 C322.022,48.837 321.185,48 319.511,48 L254.504,48 C236.183,48 224,61.485 224,79.713 C224,98.127 236.927,111.426 254.504,111.426 L319.79,111.426 Z M318.86,82.317 C320.441,82.317 321.278,81.759 321.278,80.643 L321.278,73.11 C321.278,71.994 320.441,71.436 318.86,71.436 L274.406,71.436 C272.732,71.436 271.895,72.273 271.895,73.854 L271.895,79.899 C271.895,81.48 272.732,82.317 274.406,82.317 L318.86,82.317 Z M429.792,111.426 C431.373,111.426 432.21,110.589 432.21,108.915 L432.21,102.963 C432.21,101.289 431.373,100.452 429.792,100.452 L387.849,100.452 C380.223,100.452 376.875,96.174 376.875,83.526 L376.875,73.389 C376.875,61.95 379.758,58.881 387.849,58.881 L429.42,58.881 C431.094,58.881 431.931,58.044 431.931,56.37 L431.931,50.418 C431.931,48.837 431.094,48 429.42,48 L366.087,48 C347.766,48 335.583,61.485 335.583,79.713 C335.583,98.127 348.51,111.426 366.087,111.426 L429.792,111.426 Z M510.22,111.426 C511.894,111.426 512.731,110.589 512.731,108.915 L512.731,86.223 L546.397,50.604 C546.676,50.325 546.862,49.767 546.862,49.395 C546.862,48.651 546.304,48 545.095,48 L539.701,48 C537.841,48 536.911,48.372 535.609,49.767 L509.848,77.016 L485.11,49.86 C483.994,48.651 482.599,48 480.925,48 L443.446,48 C442.516,48 441.586,48.558 441.586,49.488 C441.586,50.046 441.865,50.604 442.423,51.162 L475.81,86.781 L475.81,108.915 C475.81,110.589 476.647,111.426 478.228,111.426 L510.22,111.426 Z M626.825,111.426 C638.729,111.426 644.774,104.079 644.774,95.802 C644.774,89.013 643.007,83.898 633.428,79.434 L589.718,58.881 L640.124,58.881 C641.798,58.881 642.635,58.044 642.635,56.37 L642.635,50.418 C642.635,48.837 641.798,48 640.124,48 L571.676,48 C559.679,48 553.634,55.347 553.634,63.624 C553.634,70.32 555.494,75.435 564.98,79.899 L608.783,100.452 L556.61,100.452 C555.029,100.452 554.192,101.289 554.192,102.963 L554.192,108.915 C554.192,110.589 555.029,111.426 556.61,111.426 L626.825,111.426 Z M713.763,111.426 C715.437,111.426 716.274,110.589 716.274,108.915 L716.274,102.963 C716.274,101.289 715.437,100.452 713.763,100.452 L671.541,100.452 L699.999,72.273 L735.99,109.566 C737.199,110.775 738.687,111.426 740.826,111.426 L779.793,111.426 C781.281,111.426 781.932,110.775 781.932,109.938 C781.932,109.473 781.746,108.729 781.188,108.171 L723.714,49.767 C722.598,48.651 721.296,48 719.622,48 L713.484,48 C711.996,48 710.694,48.651 709.578,49.767 L651.267,108.357 C650.709,108.822 650.523,109.473 650.523,109.845 C650.523,110.775 651.267,111.426 652.29,111.426 L713.763,111.426 Z M826.462,111.426 C828.136,111.426 828.973,110.589 828.973,108.915 L828.973,58.881 L848.875,58.881 C854.734,58.881 859.384,61.857 859.384,68.46 C859.384,75.621 854.734,78.039 848.875,78.039 L836.971,78.039 C835.39,78.039 834.553,78.876 834.553,80.55 L834.553,86.502 C834.553,88.176 835.39,89.013 836.971,89.013 L871.66,89.013 C885.331,89.013 895.84,82.131 895.84,68.832 C895.84,55.626 886.261,48 874.078,48 L794.563,48 C792.982,48 792.145,48.837 792.145,50.418 L792.145,108.915 C792.145,110.589 792.982,111.426 794.563,111.426 L826.462,111.426 Z" id="ECYSAP" fill="#FFFFFF" fill-rule="nonzero"></path>
                <text id="European-Cyber-Situa" font-family="Roboto-Bold, Roboto" font-size="26" font-weight="bold" letter-spacing="-0.354815" fill="#18E1FF">
                    <tspan x="223" y="153">EUROPEAN CYBER SITUATIONAL AWARENESS PLATFORM</tspan>
                </text>
            </g>
        </g>
    </g>
</svg>